<svg width="92" height="92" viewBox="0 0 92 92" fill="none" xmlns="http://www.w3.org/2000/svg">
<g opacity="0.65">
<path d="M77.9562 41.7036C70.2063 57.6288 57.6092 70.2271 41.684 77.9758C37.268 79.8457 30.981 80.362 27.8208 75.9161C27.3527 75.2572 27.0043 74.5223 26.7858 73.7254C26.5673 72.9296 26.4891 72.12 26.5282 71.3196C26.7375 67.0324 29.9885 63.0913 33.8042 61.3479C45.9206 55.4013 55.3817 45.9414 61.3283 33.8238C63.0717 30.0081 67.0128 26.7571 71.3 26.5478C72.1004 26.5087 72.91 26.5869 73.7058 26.8054C74.5016 27.0239 75.2468 27.37 75.8965 27.8404C77.3145 28.8662 78.3874 30.4704 78.8842 32.1517C79.8364 35.3683 79.2396 38.6561 77.9562 41.7036Z" fill="white"/>
<path d="M35.2463 80.5001C34.8898 80.5001 34.5391 80.4874 34.1929 80.461C31.0431 80.2195 28.5154 78.8786 26.8824 76.582C26.3361 75.8127 25.9302 74.9548 25.676 74.0302C25.4322 73.1435 25.3322 72.2132 25.3782 71.2633C25.4886 68.9897 26.3591 66.715 27.8955 64.6853C29.3112 62.8142 31.234 61.2594 33.3109 60.3084C45.1467 54.4951 54.4755 45.1675 60.2876 33.3305C61.2398 31.2536 62.7934 29.332 64.6645 27.9152C66.6942 26.3799 68.9689 25.5094 71.2425 25.3978C72.1912 25.3518 73.1227 25.4519 74.0094 25.6957C74.9558 25.9556 75.8172 26.3638 76.5693 26.9078C78.1551 28.0555 79.4006 29.8472 79.9859 31.8252C80.9105 34.9497 80.5839 38.4239 79.0153 42.1499C79.0073 42.1694 78.9981 42.1878 78.99 42.2074C71.1091 58.4028 58.3832 71.1299 42.1866 79.0108C42.1682 79.02 42.1498 79.0281 42.1314 79.0361C39.8705 79.9929 37.4647 80.5012 35.2452 80.5012L35.2463 80.5001ZM71.6933 27.6875C71.5817 27.6875 71.469 27.6898 71.3563 27.6955C67.7649 27.8703 64.0711 30.5866 62.3748 34.3011C62.3702 34.3103 62.3656 34.3207 62.361 34.3299C56.3201 46.6395 46.621 56.3386 34.3114 62.3795C34.3022 62.3841 34.2918 62.3887 34.2826 62.3933C30.5681 64.0896 27.8518 67.7834 27.677 71.3748C27.6425 72.0809 27.7161 72.7686 27.8955 73.4207C28.0784 74.0854 28.3682 74.7006 28.7592 75.2492C31.3766 78.9315 36.8931 78.7463 41.2102 76.9282C56.9158 69.2784 69.2599 56.9343 76.9108 41.2287C78.2575 38.0168 78.5519 35.0728 77.7837 32.4784C77.3467 31.0006 76.3899 29.6149 75.2249 28.7719C74.6959 28.389 74.0841 28.1015 73.4033 27.914C72.8559 27.7634 72.2821 27.6875 71.6944 27.6875H71.6933Z" fill="black"/>
<path d="M77.7009 21.8836C77.1684 23.8949 76.5693 25.8718 75.8954 27.8406C75.2364 27.3725 74.5016 27.0241 73.7046 26.8056C72.9088 26.5871 72.1004 26.51 71.2988 26.548C71.6921 24.6666 71.9865 22.7645 72.2108 20.8566C73.14 20.7945 74.0807 20.8359 75.0225 21.0061C75.9644 21.1763 76.8602 21.4696 77.6997 21.8836H77.7009Z" fill="white"/>
<path d="M75.8965 28.9905C75.6608 28.9905 75.4273 28.9181 75.2307 28.7778C74.6798 28.3868 74.0646 28.0958 73.401 27.9141C72.7524 27.7359 72.0636 27.6623 71.354 27.6956C70.9987 27.7117 70.6548 27.5634 70.4248 27.2931C70.1948 27.0229 70.1017 26.6595 70.1741 26.3122C70.5398 24.563 70.8331 22.7345 71.07 20.722C71.1344 20.1723 71.5829 19.7468 72.1349 19.7089C73.1906 19.6376 74.2313 19.6939 75.2284 19.8745C76.2772 20.0642 77.28 20.3931 78.2092 20.852C78.7002 21.0935 78.9521 21.6489 78.8118 22.1779C78.2736 24.2077 77.6583 26.2375 76.9833 28.212C76.866 28.5559 76.5934 28.8226 76.2484 28.9342C76.1334 28.971 76.0138 28.9894 75.8954 28.9894L75.8965 28.9905ZM72.6892 25.4439C73.1388 25.4945 73.5804 25.5785 74.0105 25.6969C74.4383 25.8142 74.8512 25.9649 75.2491 26.1455C75.6343 24.9575 75.9954 23.7534 76.3301 22.5459C75.8448 22.3688 75.3388 22.232 74.8178 22.1377C74.3026 22.0445 73.7713 21.9916 73.2308 21.9813C73.0733 23.1876 72.8939 24.3342 72.688 25.4439H72.6892Z" fill="black"/>
<path d="M21.8638 77.7207C21.4498 76.8812 21.1577 75.9842 20.9863 75.0435C20.815 74.1017 20.7736 73.161 20.8368 72.2318C22.7447 72.0075 24.6468 71.7131 26.5282 71.3198C26.4902 72.1214 26.5673 72.9298 26.7858 73.7256C27.0043 74.5214 27.3527 75.2563 27.8208 75.9164C25.852 76.5891 23.8751 77.1883 21.8638 77.7219V77.7207Z" fill="white"/>
<path d="M21.8638 78.8706C21.4348 78.8706 21.03 78.6291 20.8322 78.2289C20.3745 77.2997 20.0456 76.2969 19.8547 75.2481C19.6742 74.2499 19.6178 73.2092 19.6891 72.1546C19.7259 71.6026 20.1514 71.1541 20.7023 71.0897C22.7159 70.8528 24.5444 70.5596 26.2924 70.1939C26.6409 70.1214 27.0031 70.2134 27.2734 70.4446C27.5436 70.6757 27.6931 71.0184 27.6759 71.3738C27.6425 72.0833 27.7161 72.7722 27.8944 73.4208C28.0772 74.0843 28.367 74.6996 28.758 75.2504C28.9685 75.546 29.026 75.9243 28.9144 76.2693C28.8029 76.6143 28.5349 76.8869 28.1922 77.0042C26.2177 77.6792 24.1879 78.2945 22.1582 78.8327C22.0604 78.8591 21.9615 78.8706 21.8638 78.8706ZM21.9615 73.2506C21.9719 73.7911 22.0248 74.3224 22.1179 74.8376C22.2122 75.3585 22.3491 75.8645 22.5262 76.3498C23.7337 76.0152 24.9377 75.6529 26.1257 75.2688C25.944 74.8721 25.7945 74.4581 25.6772 74.0303C25.5587 73.6002 25.4748 73.1586 25.4242 72.7089C24.3144 72.9136 23.1679 73.093 21.9615 73.2517V73.2506Z" fill="black"/>
<path d="M54.012 55.1807C53.7176 55.1807 53.4232 55.068 53.199 54.8438L49.1326 50.7774C48.6829 50.3277 48.6829 49.5998 49.1326 49.1513C49.5822 48.7028 50.3102 48.7016 50.7587 49.1513L54.8251 53.2177C55.2747 53.6673 55.2747 54.3953 54.8251 54.8438C54.6008 55.068 54.3064 55.1807 54.012 55.1807Z" fill="black"/>
<path d="M61.7826 45.7529C61.5618 45.7529 61.3375 45.6897 61.1409 45.5563L56.373 42.342C55.8463 41.9867 55.7071 41.2725 56.0625 40.7458C56.4178 40.2191 57.132 40.08 57.6587 40.4353L62.4266 43.6496C62.9533 44.0049 63.0924 44.7191 62.7371 45.2458C62.5151 45.5758 62.1517 45.7529 61.7826 45.7529Z" fill="black"/>
<path d="M44.4716 63.0295C44.1013 63.0295 43.7379 62.8513 43.516 62.5201L40.3121 57.7453C39.9579 57.2174 40.0993 56.5033 40.626 56.1491C41.1539 55.7949 41.868 55.9363 42.2222 56.463L45.4261 61.2378C45.7803 61.7657 45.6389 62.4798 45.1122 62.834C44.9155 62.9663 44.6924 63.0295 44.4728 63.0295H44.4716Z" fill="black"/>
<path d="M49.78 31.5952C50.5022 29.6114 50.3608 28.3821 50.2354 27.2976C50.1262 26.3454 50.0307 25.5232 50.5678 24.05C51.1048 22.5769 51.7051 22.0076 52.4009 21.3487C53.1932 20.5977 54.0914 19.7479 54.8136 17.7641C55.0309 17.1673 54.7227 16.5072 54.1259 16.2898C54.1259 16.2898 54.1247 16.2898 54.1236 16.2898L41.1596 11.5714C41.1596 11.5714 41.1585 11.5714 41.1573 11.5714C40.5605 11.354 39.9004 11.6622 39.683 12.2591C39.146 13.7334 38.5457 14.3026 37.8499 14.9604C37.0576 15.7114 36.1594 16.5612 35.4372 18.5461C34.715 20.531 34.8565 21.7592 34.9807 22.8437C35.0899 23.7959 35.1854 24.6181 34.6483 26.0913C34.1113 27.5644 33.511 28.1337 32.8152 28.7926C32.0229 29.5436 31.1247 30.3934 30.4025 32.3783C29.6803 34.3632 29.8218 35.5914 29.9471 36.6759C30.0564 37.6281 30.1518 38.4503 29.6148 39.9235C29.0789 41.3978 28.4774 41.9659 27.7817 42.6248C26.9893 43.3758 26.0912 44.2256 25.369 46.2094C25.1516 46.8062 25.4598 47.4663 26.0567 47.6837L39.0241 52.4033C39.6209 52.6206 40.281 52.3124 40.4984 51.7156C41.0354 50.2413 41.6357 49.672 42.3315 49.0142C43.1238 48.2633 44.022 47.4134 44.7442 45.4285C45.4664 43.4448 45.3249 42.2154 45.2007 41.131C45.0915 40.1788 44.996 39.3565 45.5331 37.8834C46.0701 36.4102 46.6704 35.841 47.3662 35.182C48.1585 34.4311 49.0567 33.5812 49.7789 31.5963L49.78 31.5952ZM42.9157 41.3932C43.0249 42.3454 43.1204 43.1676 42.5833 44.6408C42.0463 46.1139 41.446 46.6843 40.7502 47.3421C40.1154 47.9424 39.4139 48.6094 38.7883 49.8675L28.0013 45.9414C28.4142 45.1939 28.8638 44.765 29.3641 44.2923C30.1564 43.5414 31.0546 42.6915 31.7768 40.7078C32.499 38.724 32.3575 37.4947 32.2322 36.4102C32.1229 35.458 32.0275 34.6358 32.5645 33.1626C33.1016 31.6895 33.7019 31.1202 34.3976 30.4613C35.19 29.7103 36.0881 28.8605 36.8103 26.8756C37.5325 24.8918 37.3911 23.6625 37.2669 22.578C37.1576 21.6258 37.0622 20.8036 37.5992 19.3304C38.1363 17.8573 38.7366 17.2869 39.4323 16.6291C40.0671 16.0288 40.7686 15.3618 41.3942 14.1037L52.1812 18.0298C51.7684 18.7773 51.3187 19.2062 50.8185 19.6789C50.0261 20.4298 49.128 21.2797 48.4058 23.2634C47.6836 25.2472 47.825 26.4765 47.9504 27.561C48.0596 28.5132 48.1551 29.3354 47.618 30.8086C47.0821 32.2829 46.4807 32.851 45.7849 33.5099C44.9926 34.2609 44.0944 35.1107 43.3722 37.0956C42.65 39.0794 42.7915 40.3087 42.9157 41.3932Z" fill="black"/>
<mask id="mask0_1623_6260" style="mask-type:luminance" maskUnits="userSpaceOnUse" x="28" y="14" width="25" height="36">
<path d="M47.618 30.8087C48.1539 29.3344 48.0596 28.5133 47.9504 27.5611C47.825 26.4766 47.6836 25.2473 48.4058 23.2635C49.128 21.2798 50.0261 20.4288 50.8185 19.679C51.3176 19.2063 51.7684 18.7785 52.1812 18.0299L41.3942 14.1038C40.7686 15.363 40.0671 16.0289 39.4323 16.6292C38.7366 17.2881 38.1351 17.8574 37.5992 19.3305C37.0622 20.8048 37.1576 21.6271 37.2669 22.5781C37.3911 23.6626 37.5325 24.8919 36.8103 26.8757C36.0881 28.8594 35.19 29.7104 34.3976 30.4614C33.7019 31.1203 33.1004 31.6896 32.5645 33.1627C32.0286 34.6359 32.1229 35.4581 32.2322 36.4103C32.3575 37.4948 32.499 38.7241 31.7768 40.7079C31.0546 42.6916 30.1564 43.5426 29.3641 44.2924C28.865 44.7651 28.4142 45.194 28.0013 45.9415L38.7883 49.8676C39.4139 48.6084 40.1154 47.9425 40.7502 47.3411C41.446 46.6821 42.0474 46.1129 42.5833 44.6397C43.1192 43.1666 43.0249 42.3432 42.9157 41.3921C42.7915 40.3077 42.65 39.0783 43.3722 37.0946C44.0944 35.1108 44.9926 34.2598 45.7849 33.5089C46.4807 32.8499 47.0821 32.2807 47.618 30.8075V30.8087Z" fill="white"/>
</mask>
<g mask="url(#mask0_1623_6260)">
<path d="M47.618 30.8087C48.1539 29.3344 48.0596 28.5133 47.9504 27.5611C47.825 26.4766 47.6836 25.2473 48.4058 23.2635C49.128 21.2798 50.0261 20.4288 50.8185 19.679C51.3176 19.2063 51.7684 18.7785 52.1812 18.0299L41.3942 14.1038C40.7686 15.363 40.0671 16.0289 39.4323 16.6292C38.7366 17.2881 38.1351 17.8574 37.5992 19.3305C37.0622 20.8048 37.1576 21.6271 37.2669 22.5781C37.3911 23.6626 37.5325 24.8919 36.8103 26.8757C36.0881 28.8594 35.19 29.7104 34.3976 30.4614C33.7019 31.1203 33.1004 31.6896 32.5645 33.1627C32.0286 34.6359 32.1229 35.4581 32.2322 36.4103C32.3575 37.4948 32.499 38.7241 31.7768 40.7079C31.0546 42.6916 30.1564 43.5426 29.3641 44.2924C28.865 44.7651 28.4142 45.194 28.0013 45.9415L38.7883 49.8676C39.4139 48.6084 40.1154 47.9425 40.7502 47.3411C41.446 46.6821 42.0474 46.1129 42.5833 44.6397C43.1192 43.1666 43.0249 42.3432 42.9157 41.3921C42.7915 40.3077 42.65 39.0783 43.3722 37.0946C44.0944 35.1108 44.9926 34.2598 45.7849 33.5089C46.4807 32.8499 47.0821 32.2807 47.618 30.8075V30.8087Z" fill="white"/>
<path d="M49.1315 31.3594C49.6674 29.8851 49.5731 29.064 49.4638 28.1118C49.3385 27.0274 49.197 25.798 49.9192 23.8143C50.6414 21.8305 51.5396 20.9795 52.3319 20.2297C52.831 19.7571 53.2818 19.3293 53.6947 18.5806L42.9077 14.6545C42.2821 15.9138 41.5806 16.5796 40.9458 17.1799C40.25 17.8389 39.6486 18.4081 39.1127 19.8813C38.5768 21.3544 38.6711 22.1778 38.7803 23.1289C38.9045 24.2133 39.046 25.4427 38.3238 27.4264C37.6016 29.4102 36.7034 30.2612 35.9111 31.0121C35.2153 31.6711 34.6139 32.2403 34.078 33.7135C33.5421 35.1866 33.6364 36.0089 33.7456 36.9611C33.871 38.0455 34.0124 39.2749 33.2902 41.2586C32.568 43.2424 31.6699 44.0934 30.8775 44.8432C30.3784 45.3158 29.9276 45.7448 29.5148 46.4923L40.3018 50.4184C40.9274 49.1591 41.6289 48.4933 42.2637 47.8918C42.9594 47.2329 43.5609 46.6636 44.0968 45.1905C44.6327 43.7173 44.5384 42.8939 44.4291 41.9429C44.3049 40.8584 44.1635 39.6291 44.8857 37.6453C45.6079 35.6616 46.506 34.8106 47.2984 34.0596C47.9941 33.4007 48.5956 32.8314 49.1315 31.3583V31.3594Z" fill="white"/>
<path d="M49.78 31.5953C50.3159 30.121 50.2216 29.2999 50.1124 28.3477C49.987 27.2632 49.8456 26.0339 50.5678 24.0501C51.29 22.0664 52.1881 21.2154 52.9805 20.4656C53.4796 19.9929 53.9304 19.5651 54.3432 18.8165L43.5562 14.8904C42.9306 16.1496 42.2291 16.8155 41.5943 17.4158C40.8986 18.0747 40.2971 18.644 39.7612 20.1171C39.2253 21.5903 39.3196 22.4137 39.4289 23.3647C39.5531 24.4492 39.6945 25.6785 38.9723 27.6623C38.2501 29.646 37.352 30.497 36.5596 31.248C35.8639 31.9069 35.2624 32.4762 34.7265 33.9493C34.1906 35.4225 34.2849 36.2447 34.3942 37.1969C34.5195 38.2814 34.661 39.5107 33.9388 41.4945C33.2166 43.4782 32.3184 44.3292 31.5261 45.079C31.027 45.5517 30.5762 45.9806 30.1633 46.7281L40.9503 50.6542C41.5759 49.395 42.2774 48.7291 42.9122 48.1277C43.608 47.4687 44.2094 46.8995 44.7453 45.4263C45.2824 43.952 45.1869 43.1298 45.0777 42.1787C44.9535 41.0943 44.812 39.8649 45.5342 37.8812C46.2564 35.8974 47.1546 35.0464 47.9469 34.2955C48.6427 33.6365 49.2441 33.0673 49.78 31.5941V31.5953Z" fill="white"/>
<path d="M52.3733 32.5394C52.9092 31.0651 52.8149 30.244 52.7056 29.2918C52.5803 28.2073 52.4388 26.978 53.161 24.9942C53.8832 23.0105 54.7814 22.1595 55.5737 21.4097C56.0728 20.937 56.5236 20.5092 56.9365 19.7606L46.1495 15.8345C45.5239 17.0937 44.8224 17.7596 44.1876 18.3599C43.4918 19.0188 42.8904 19.5881 42.3545 21.0612C41.8174 22.5355 41.9129 23.3578 42.0221 24.3088C42.1463 25.3933 42.2878 26.6226 41.5656 28.6064C40.8434 30.5901 39.9452 31.4411 39.1529 32.1921C38.4571 32.851 37.8557 33.4203 37.3198 34.8934C36.7839 36.3677 36.8782 37.1888 36.9874 38.141C37.1128 39.2255 37.2542 40.4548 36.532 42.4386C35.8098 44.4223 34.9117 45.2733 34.1193 46.0231C33.6202 46.4958 33.1694 46.9247 32.7566 47.6722L43.5436 51.5983C44.1692 50.3391 44.8707 49.6732 45.5055 49.0718C46.2012 48.4128 46.8027 47.8436 47.3386 46.3704C47.8745 44.8973 47.7802 44.0739 47.6709 43.1228C47.5467 42.0384 47.4053 40.809 48.1275 38.8253C48.8497 36.8415 49.7478 35.9905 50.5402 35.2396C51.2359 34.5806 51.8374 34.0114 52.3733 32.5382V32.5394Z" fill="white"/>
<path d="M54.1029 33.1685C54.6388 31.6942 54.5445 30.8731 54.4353 29.9209C54.3099 28.8365 54.1685 27.6071 54.8907 25.6234C55.6129 23.6396 56.511 22.7886 57.3034 22.0388C57.8025 21.5662 58.2533 21.1384 58.6661 20.3897L47.8791 16.4636C47.2535 17.7229 46.552 18.3887 45.9172 18.989C45.2215 19.648 44.62 20.2172 44.0841 21.6904C43.5482 23.1635 43.6425 23.9869 43.7518 24.938C43.876 26.0224 44.0174 27.2518 43.2952 29.2355C42.573 31.2193 41.6749 32.0703 40.8825 32.8212C40.1868 33.4802 39.5853 34.0494 39.0494 35.5226C38.5135 36.9957 38.6078 37.818 38.7171 38.7702C38.8424 39.8546 38.9839 41.084 38.2617 43.0677C37.5395 45.0515 36.6413 45.9025 35.849 46.6523C35.3499 47.1249 34.8991 47.5539 34.4862 48.3014L45.2732 52.2275C45.8988 50.9682 46.6003 50.3024 47.2351 49.7009C47.9309 49.042 48.5323 48.4727 49.0682 46.9996C49.6041 45.5264 49.5098 44.703 49.4006 43.752C49.2764 42.6675 49.1349 41.4382 49.8571 39.4544C50.5793 37.4707 51.4775 36.6197 52.2698 35.8687C52.9656 35.2098 53.567 34.6405 54.1029 33.1674V33.1685Z" fill="white"/>
<path d="M57.3447 34.3485C57.8806 32.8742 57.7863 32.0531 57.6771 31.1009C57.5517 30.0164 57.4103 28.7871 58.1325 26.8033C58.8547 24.8196 59.7528 23.9686 60.5452 23.2188C61.0443 22.7461 61.4951 22.3183 61.9079 21.5697L51.1209 17.6436C50.4953 18.9028 49.7938 19.5687 49.159 20.169C48.4633 20.8279 47.8618 21.3972 47.3259 22.8703C46.79 24.3435 46.8843 25.1669 46.9936 26.1179C47.1178 27.2024 47.2592 28.4317 46.537 30.4155C45.8148 32.3992 44.9167 33.2502 44.1243 34.0012C43.4286 34.6601 42.8271 35.2294 42.2912 36.7025C41.7553 38.1757 41.8496 38.9979 41.9589 39.9501C42.0842 41.0346 42.2257 42.2639 41.5035 44.2477C40.7813 46.2314 39.8831 47.0824 39.0908 47.8322C38.5917 48.3049 38.1409 48.7338 37.728 49.4813L48.515 53.4074C49.1406 52.1482 49.8421 51.4823 50.4769 50.8809C51.1727 50.2219 51.7741 49.6527 52.31 48.1795C52.8459 46.7064 52.7516 45.883 52.6424 44.9319C52.5182 43.8475 52.3767 42.6181 53.0989 40.6344C53.8211 38.6506 54.7193 37.7996 55.5116 37.0487C56.2074 36.3897 56.8088 35.8205 57.3447 34.3473V34.3485Z" fill="white"/>
</g>
<path d="M35.9801 36.1953C36.7023 34.2115 36.5608 32.9822 36.4355 31.8977C36.3262 30.9455 36.2308 30.1233 36.7678 28.6501C37.3049 27.177 37.9052 26.6077 38.6009 25.9488C39.3933 25.1978 40.2914 24.348 41.0136 22.3642C41.231 21.7674 40.9228 21.1073 40.3259 20.8899C40.3259 20.8899 40.3248 20.8899 40.3236 20.8899L27.3597 16.1715C27.3597 16.1715 27.3585 16.1715 27.3574 16.1715C26.7605 15.9541 26.1004 16.2623 25.8831 16.8592C25.346 18.3335 24.7457 18.9027 24.05 19.5605C23.2576 20.3115 22.3595 21.1613 21.6373 23.1462C20.9151 25.1311 21.0565 26.3593 21.1807 27.4438C21.29 28.396 21.3854 29.2182 20.8484 30.6914C20.3113 32.1645 19.711 32.7338 19.0153 33.3927C18.2229 34.1437 17.3248 34.9935 16.6026 36.9784C15.8804 38.9633 16.0218 40.1915 16.1472 41.276C16.2564 42.2282 16.3519 43.0504 15.8148 44.5236C15.2789 45.9979 14.6775 46.566 13.9817 47.2249C13.1894 47.9759 12.2912 48.8257 11.569 50.8095C11.3517 51.4063 11.6599 52.0664 12.2567 52.2838L25.2241 57.0034C25.821 57.2207 26.4811 56.9125 26.6984 56.3157C27.2355 54.8414 27.8358 54.2721 28.5315 53.6143C29.3239 52.8634 30.222 52.0135 30.9442 50.0286C31.6664 48.0449 31.525 46.8155 31.4008 45.7311C31.2915 44.7789 31.1961 43.9566 31.7331 42.4835C32.2702 41.0103 32.8705 40.4411 33.5662 39.7821C34.3586 39.0312 35.2567 38.1813 35.9789 36.1964L35.9801 36.1953ZM29.1157 45.9933C29.225 46.9455 29.3204 47.7677 28.7834 49.2409C28.2463 50.714 27.646 51.2844 26.9503 51.9422C26.3155 52.5425 25.614 53.2095 24.9884 54.4676L14.2014 50.5415C14.6142 49.794 15.0639 49.3651 15.5641 48.8924C16.3565 48.1415 17.2546 47.2916 17.9768 45.3079C18.699 43.3241 18.5576 42.0948 18.4322 41.0103C18.323 40.0581 18.2275 39.2359 18.7646 37.7627C19.3016 36.2896 19.9019 35.7203 20.5977 35.0614C21.39 34.3104 22.2882 33.4606 23.0104 31.4757C23.7326 29.4919 23.5911 28.2626 23.4669 27.1781C23.3577 26.2259 23.2622 25.4037 23.7993 23.9305C24.3363 22.4574 24.9366 21.887 25.6324 21.2292C26.2672 20.6289 26.9687 19.9619 27.5943 18.7038L38.3813 22.6299C37.9684 23.3774 37.5188 23.8063 37.0185 24.279C36.2262 25.0299 35.328 25.8798 34.6058 27.8635C33.8836 29.8473 34.0251 31.0766 34.1504 32.1611C34.2597 33.1133 34.3551 33.9355 33.8181 35.4087C33.2822 36.883 32.6807 37.4511 31.985 38.11C31.1926 38.861 30.2945 39.7108 29.5723 41.6957C28.8501 43.6795 28.9915 44.9088 29.1157 45.9933Z" fill="black"/>
<mask id="mask1_1623_6260" style="mask-type:luminance" maskUnits="userSpaceOnUse" x="14" y="18" width="25" height="37">
<path d="M33.8181 35.4088C34.354 33.9345 34.2597 33.1134 34.1504 32.1612C34.0251 31.0767 33.8836 29.8474 34.6058 27.8636C35.328 25.8799 36.2262 25.0289 37.0185 24.2791C37.5176 23.8064 37.9684 23.3786 38.3813 22.63L27.5943 18.7039C26.9687 19.9631 26.2672 20.629 25.6324 21.2293C24.9366 21.8882 24.3352 22.4575 23.7993 23.9306C23.2622 25.4049 23.3577 26.2272 23.4669 27.1782C23.5911 28.2627 23.7326 29.492 23.0104 31.4758C22.2882 33.4595 21.39 34.3105 20.5977 35.0615C19.9019 35.7204 19.3005 36.2897 18.7646 37.7628C18.2287 39.236 18.323 40.0582 18.4322 41.0104C18.5576 42.0949 18.699 43.3242 17.9768 45.308C17.2546 47.2917 16.3565 48.1427 15.5641 48.8925C15.065 49.3652 14.6142 49.7941 14.2014 50.5416L24.9884 54.4677C25.614 53.2085 26.3155 52.5426 26.9503 51.9412C27.646 51.2822 28.2475 50.713 28.7834 49.2398C29.3193 47.7667 29.225 46.9433 29.1157 45.9922C28.9915 44.9078 28.8501 43.6784 29.5723 41.6947C30.2945 39.7109 31.1926 38.8599 31.985 38.109C32.6807 37.45 33.2822 36.8808 33.8181 35.4076V35.4088Z" fill="white"/>
</mask>
<g mask="url(#mask1_1623_6260)">
<path d="M33.8181 35.4088C34.354 33.9345 34.2597 33.1134 34.1504 32.1612C34.0251 31.0767 33.8836 29.8474 34.6058 27.8636C35.328 25.8799 36.2262 25.0289 37.0185 24.2791C37.5176 23.8064 37.9684 23.3786 38.3813 22.63L27.5943 18.7039C26.9687 19.9631 26.2672 20.629 25.6324 21.2293C24.9366 21.8882 24.3352 22.4575 23.7993 23.9306C23.2622 25.4049 23.3577 26.2272 23.4669 27.1782C23.5911 28.2627 23.7326 29.492 23.0104 31.4758C22.2882 33.4595 21.39 34.3105 20.5977 35.0615C19.9019 35.7204 19.3005 36.2897 18.7646 37.7628C18.2287 39.236 18.323 40.0582 18.4322 41.0104C18.5576 42.0949 18.699 43.3242 17.9768 45.308C17.2546 47.2917 16.3565 48.1427 15.5641 48.8925C15.065 49.3652 14.6142 49.7941 14.2014 50.5416L24.9884 54.4677C25.614 53.2085 26.3155 52.5426 26.9503 51.9412C27.646 51.2822 28.2475 50.713 28.7834 49.2398C29.3193 47.7667 29.225 46.9433 29.1157 45.9922C28.9915 44.9078 28.8501 43.6784 29.5723 41.6947C30.2945 39.7109 31.1926 38.8599 31.985 38.109C32.6807 37.45 33.2822 36.8808 33.8181 35.4076V35.4088Z" fill="white"/>
<path d="M35.3315 35.9595C35.8674 34.4852 35.7731 33.6641 35.6638 32.7119C35.5385 31.6275 35.397 30.3981 36.1192 28.4144C36.8414 26.4306 37.7396 25.5796 38.5319 24.8298C39.031 24.3572 39.4818 23.9294 39.8947 23.1807L29.1077 19.2546C28.4821 20.5139 27.7806 21.1797 27.1458 21.78C26.45 22.439 25.8486 23.0082 25.3127 24.4814C24.7768 25.9545 24.8711 26.7779 24.9803 27.729C25.1045 28.8134 25.246 30.0428 24.5238 32.0265C23.8016 34.0103 22.9034 34.8613 22.1111 35.6122C21.4153 36.2712 20.8139 36.8404 20.278 38.3136C19.7421 39.7867 19.8364 40.609 19.9456 41.5612C20.071 42.6456 20.2124 43.875 19.4902 45.8587C18.768 47.8425 17.8699 48.6935 17.0775 49.4433C16.5784 49.9159 16.1276 50.3449 15.7148 51.0924L26.5018 55.0185C27.1274 53.7592 27.8289 53.0934 28.4637 52.4919C29.1594 51.833 29.7609 51.2637 30.2968 49.7906C30.8327 48.3174 30.7384 47.494 30.6291 46.543C30.5049 45.4585 30.3635 44.2292 31.0857 42.2454C31.8079 40.2617 32.706 39.4107 33.4984 38.6597C34.1941 38.0008 34.7956 37.4315 35.3315 35.9584V35.9595Z" fill="white"/>
<path d="M35.98 36.1954C36.5159 34.7211 36.4216 33.9 36.3124 32.9478C36.187 31.8633 36.0456 30.634 36.7678 28.6502C37.49 26.6665 38.3881 25.8155 39.1805 25.0657C39.6796 24.593 40.1304 24.1652 40.5432 23.4166L29.7562 19.4905C29.1306 20.7497 28.4291 21.4156 27.7943 22.0159C27.0986 22.6748 26.4971 23.2441 25.9612 24.7172C25.4253 26.1904 25.5196 27.0138 25.6289 27.9648C25.7531 29.0493 25.8945 30.2786 25.1723 32.2624C24.4501 34.2461 23.552 35.0971 22.7596 35.8481C22.0639 36.507 21.4624 37.0763 20.9265 38.5494C20.3906 40.0226 20.4849 40.8448 20.5942 41.797C20.7195 42.8815 20.861 44.1108 20.1388 46.0946C19.4166 48.0783 18.5184 48.9293 17.7261 49.6791C17.227 50.1518 16.7762 50.5807 16.3633 51.3282L27.1503 55.2543C27.7759 53.9951 28.4774 53.3292 29.1122 52.7278C29.808 52.0688 30.4094 51.4996 30.9453 50.0264C31.4824 48.5521 31.3869 47.7299 31.2777 46.7788C31.1535 45.6944 31.012 44.465 31.7342 42.4813C32.4564 40.4975 33.3546 39.6465 34.1469 38.8956C34.8427 38.2366 35.4441 37.6674 35.98 36.1942V36.1954Z" fill="white"/>
<path d="M38.5733 37.1395C39.1092 35.6652 39.0149 34.8441 38.9057 33.8919C38.7803 32.8074 38.6389 31.5781 39.3611 29.5943C40.0833 27.6106 40.9814 26.7596 41.7738 26.0098C42.2729 25.5371 42.7237 25.1093 43.1365 24.3607L32.3495 20.4346C31.7239 21.6938 31.0224 22.3597 30.3876 22.96C29.6919 23.6189 29.0904 24.1882 28.5545 25.6613C28.0175 27.1356 28.1129 27.9579 28.2222 28.9089C28.3464 29.9934 28.4878 31.2227 27.7656 33.2065C27.0434 35.1902 26.1453 36.0412 25.3529 36.7922C24.6572 37.4511 24.0557 38.0204 23.5198 39.4935C22.9839 40.9678 23.0782 41.7889 23.1875 42.7411C23.3128 43.8256 23.4543 45.0549 22.7321 47.0387C22.0099 49.0224 21.1117 49.8734 20.3194 50.6232C19.8203 51.0959 19.3695 51.5248 18.9566 52.2723L29.7436 56.1984C30.3692 54.9392 31.0707 54.2733 31.7055 53.6719C32.4013 53.0129 33.0027 52.4437 33.5386 50.9705C34.0745 49.4974 33.9802 48.674 33.871 47.7229C33.7468 46.6385 33.6053 45.4091 34.3275 43.4254C35.0497 41.4416 35.9479 40.5906 36.7402 39.8397C37.436 39.1807 38.0374 38.6115 38.5733 37.1383V37.1395Z" fill="white"/>
<path d="M40.3029 37.7686C40.8388 36.2943 40.7445 35.4732 40.6353 34.521C40.5099 33.4366 40.3685 32.2072 41.0907 30.2235C41.8129 28.2397 42.711 27.3887 43.5034 26.6389C44.0025 26.1663 44.4533 25.7385 44.8661 24.9898L34.0791 21.0637C33.4535 22.323 32.752 22.9888 32.1172 23.5891C31.4215 24.2481 30.82 24.8173 30.2841 26.2905C29.7482 27.7636 29.8425 28.587 29.9518 29.5381C30.076 30.6225 30.2174 31.8519 29.4952 33.8356C28.773 35.8194 27.8749 36.6704 27.0825 37.4213C26.3868 38.0803 25.7853 38.6495 25.2494 40.1227C24.7135 41.5958 24.8078 42.4181 24.9171 43.3703C25.0424 44.4547 25.1839 45.6841 24.4617 47.6678C23.7395 49.6516 22.8413 50.5026 22.049 51.2524C21.5499 51.725 21.0991 52.154 20.6862 52.9015L31.4732 56.8276C32.0988 55.5683 32.8003 54.9025 33.4351 54.301C34.1309 53.6421 34.7323 53.0728 35.2682 51.5997C35.8041 50.1265 35.7098 49.3031 35.6006 48.3521C35.4764 47.2676 35.3349 46.0383 36.0571 44.0545C36.7793 42.0708 37.6775 41.2198 38.4698 40.4688C39.1656 39.8099 39.767 39.2406 40.3029 37.7675V37.7686Z" fill="white"/>
<path d="M43.5447 38.9486C44.0806 37.4743 43.9863 36.6532 43.8771 35.701C43.7517 34.6165 43.6103 33.3872 44.3325 31.4034C45.0547 29.4197 45.9528 28.5687 46.7452 27.8189C47.2443 27.3462 47.6951 26.9184 48.1079 26.1698L37.3209 22.2437C36.6953 23.5029 35.9938 24.1688 35.359 24.7691C34.6633 25.428 34.0618 25.9973 33.5259 27.4704C32.99 28.9436 33.0843 29.767 33.1936 30.718C33.3178 31.8025 33.4592 33.0318 32.737 35.0156C32.0148 36.9993 31.1167 37.8503 30.3243 38.6013C29.6286 39.2602 29.0271 39.8295 28.4912 41.3026C27.9553 42.7758 28.0496 43.598 28.1589 44.5502C28.2842 45.6347 28.4257 46.864 27.7035 48.8478C26.9813 50.8315 26.0831 51.6825 25.2908 52.4323C24.7917 52.905 24.3409 53.3339 23.928 54.0814L34.715 58.0075C35.3406 56.7482 36.0421 56.0824 36.6769 55.481C37.3727 54.822 37.9741 54.2528 38.51 52.7796C39.0459 51.3065 38.9516 50.483 38.8424 49.532C38.7182 48.4475 38.5767 47.2182 39.2989 45.2345C40.0211 43.2507 40.9193 42.3997 41.7116 41.6488C42.4074 40.9898 43.0088 40.4206 43.5447 38.9474V38.9486Z" fill="white"/>
</g>
</g>
</svg>
