<?xml version="1.0" encoding="UTF-8"?>
<svg id="Layer_2" data-name="Layer 2" xmlns="http://www.w3.org/2000/svg" xmlns:xlink="http://www.w3.org/1999/xlink" viewBox="0 0 800 800">
  <defs>
    <style>
      .cls-1, .cls-2, .cls-3, .cls-4, .cls-5, .cls-6 {
        stroke-width: 0px;
      }

      .cls-2 {
        fill: #995e5e;
      }

      .cls-3 {
        fill: none;
      }

      .cls-7 {
        clip-path: url(#clippath-1);
      }

      .cls-4 {
        fill: #fff;
      }

      .cls-8 {
        clip-path: url(#clippath);
      }

      .cls-5 {
        fill: #ea9c92;
      }

      .cls-6 {
        fill: #edbdb9;
      }
    </style>
    <clipPath id="clippath">
      <path class="cls-3" d="M414.07,267.9c4.66-12.82,3.84-19.96,2.89-28.24-1.09-9.43-2.32-20.12,3.96-37.37,6.28-17.25,14.09-24.65,20.98-31.17,4.34-4.11,8.26-7.83,11.85-14.34l-93.8-34.14c-5.44,10.95-11.54,16.74-17.06,21.96-6.05,5.73-11.28,10.68-15.94,23.49-4.67,12.82-3.84,19.97-2.89,28.24,1.08,9.43,2.31,20.12-3.97,37.37-6.28,17.25-14.09,24.65-20.98,31.18-6.05,5.73-11.28,10.68-15.94,23.49s-3.84,19.96-2.89,28.24c1.09,9.43,2.32,20.12-3.96,37.37-6.28,17.25-14.09,24.65-20.98,31.17-4.34,4.11-8.26,7.84-11.85,14.34l93.8,34.14c5.44-10.95,11.54-16.74,17.06-21.97,6.05-5.73,11.28-10.68,15.94-23.49s3.84-19.97,2.89-28.24c-1.08-9.43-2.31-20.12,3.97-37.37,6.28-17.25,14.09-24.65,20.98-31.18,6.05-5.73,11.28-10.68,15.94-23.49Z"/>
    </clipPath>
    <clipPath id="clippath-1">
      <path class="cls-3" d="M294.07,307.9c4.66-12.82,3.84-19.96,2.89-28.24-1.09-9.43-2.32-20.12,3.96-37.37s14.09-24.65,20.98-31.17c4.34-4.11,8.26-7.83,11.85-14.34l-93.8-34.14c-5.44,10.95-11.54,16.74-17.06,21.96-6.05,5.73-11.28,10.68-15.94,23.49-4.67,12.82-3.84,19.97-2.89,28.24,1.08,9.43,2.31,20.12-3.97,37.37-6.28,17.25-14.09,24.65-20.98,31.18-6.05,5.73-11.28,10.68-15.94,23.49s-3.84,19.96-2.89,28.24c1.09,9.43,2.32,20.12-3.96,37.37-6.28,17.25-14.09,24.65-20.98,31.17-4.34,4.11-8.26,7.84-11.85,14.34l93.8,34.14c5.44-10.95,11.54-16.74,17.06-21.97,6.05-5.73,11.28-10.68,15.94-23.49s3.84-19.97,2.89-28.24c-1.08-9.43-2.31-20.12,3.97-37.37,6.28-17.25,14.09-24.65,20.98-31.18,6.05-5.73,11.28-10.68,15.94-23.49Z"/>
    </clipPath>
  </defs>
  <g id="_가공육" data-name="가공육">
    <g id="_가공육-2" data-name="가공육">
      <g id="hover">
        <g>
          <g>
            <path class="cls-5" d="M677.88,362.64c-67.39,138.48-176.93,248.03-315.41,315.41-38.4,16.26-93.07,20.75-120.55-17.91-4.07-5.73-7.1-12.12-9-19.05-1.9-6.92-2.58-13.96-2.24-20.92,1.82-37.28,30.09-71.55,63.27-86.71,105.36-51.71,187.63-133.97,239.34-239.34,15.16-33.18,49.43-61.45,86.71-63.27,6.96-.34,14,.34,20.92,2.24,6.92,1.9,13.4,4.91,19.05,9,12.33,8.92,21.66,22.87,25.98,37.49,8.28,27.97,3.09,56.56-8.07,83.06Z"/>
            <path class="cls-1" d="M306.49,700c-3.1,0-6.15-.11-9.16-.34-27.39-2.1-49.37-13.76-63.57-33.73-4.75-6.69-8.28-14.15-10.49-22.19-2.12-7.71-2.99-15.8-2.59-24.06.96-19.77,8.53-39.55,21.89-57.2,12.31-16.27,29.03-29.79,47.09-38.06,102.92-50.55,184.04-131.66,234.58-234.59,8.28-18.06,21.79-34.77,38.06-47.09,17.65-13.35,37.43-20.92,57.2-21.89,8.25-.4,16.35.47,24.06,2.59,8.23,2.26,15.72,5.81,22.26,10.54,13.79,9.98,24.62,25.56,29.71,42.76,8.04,27.17,5.2,57.38-8.44,89.78-.07.17-.15.33-.22.5-68.53,140.83-179.19,251.5-320.03,320.03-.16.08-.32.15-.48.22-19.66,8.32-40.58,12.74-59.88,12.74ZM623.42,240.76c-.97,0-1.95.02-2.93.07-31.23,1.52-63.35,25.14-78.1,57.44-.04.08-.08.17-.12.25-52.53,107.04-136.87,191.38-243.91,243.91-.08.04-.17.08-.25.12-32.3,14.75-55.92,46.87-57.44,78.1-.3,6.14.34,12.12,1.9,17.79,1.59,5.78,4.11,11.13,7.51,15.9,22.76,32.02,70.73,30.41,108.27,14.6,136.57-66.52,243.91-173.86,310.44-310.43,11.71-27.93,14.27-53.53,7.59-76.09-3.8-12.85-12.12-24.9-22.25-32.23-4.6-3.33-9.92-5.83-15.84-7.46-4.76-1.31-9.75-1.97-14.86-1.97ZM677.88,362.64h.01-.01Z"/>
          </g>
          <g>
            <path class="cls-5" d="M675.66,190.29c-4.63,17.49-9.84,34.68-15.7,51.8-5.73-4.07-12.12-7.1-19.05-9-6.92-1.9-13.95-2.57-20.92-2.24,3.42-16.36,5.98-32.9,7.93-49.49,8.08-.54,16.26-.18,24.45,1.3,8.19,1.49,15.98,4.03,23.28,7.63Z"/>
            <path class="cls-1" d="M659.97,252.09c-2.05,0-4.08-.63-5.79-1.85-4.79-3.4-10.14-5.93-15.91-7.51-5.64-1.55-11.63-2.19-17.8-1.9-3.09.14-6.08-1.15-8.08-3.5s-2.81-5.51-2.18-8.53c3.18-15.21,5.73-31.11,7.79-48.61.56-4.78,4.46-8.48,9.26-8.81,9.18-.62,18.23-.13,26.9,1.44,9.12,1.65,17.84,4.51,25.92,8.5,4.27,2.1,6.46,6.93,5.24,11.53-4.68,17.65-10.03,35.3-15.9,52.47-1.02,2.99-3.39,5.31-6.39,6.28-1,.32-2.04.48-3.07.48ZM632.08,221.25c3.91.44,7.75,1.17,11.49,2.2,3.72,1.02,7.31,2.33,10.77,3.9,3.35-10.33,6.49-20.8,9.4-31.3-4.22-1.54-8.62-2.73-13.15-3.55-4.48-.81-9.1-1.27-13.8-1.36-1.37,10.49-2.93,20.46-4.72,30.11Z"/>
          </g>
          <g>
            <path class="cls-5" d="M190.12,675.83c-3.6-7.3-6.14-15.1-7.63-23.28-1.49-8.19-1.85-16.37-1.3-24.45,16.59-1.95,33.13-4.51,49.49-7.93-.33,6.97.34,14,2.24,20.92,1.9,6.92,4.93,13.31,9,19.05-17.12,5.85-34.31,11.06-51.8,15.7Z"/>
            <path class="cls-1" d="M190.12,685.83c-3.73,0-7.25-2.1-8.97-5.58-3.98-8.08-6.84-16.8-8.5-25.92-1.57-8.68-2.06-17.73-1.44-26.9.32-4.8,4.02-8.7,8.81-9.26,17.51-2.06,33.41-4.61,48.61-7.79,3.03-.63,6.18.17,8.53,2.18s3.65,4.99,3.5,8.08c-.29,6.17.35,12.16,1.9,17.8,1.59,5.77,4.11,11.12,7.51,15.91,1.83,2.57,2.33,5.86,1.36,8.86s-3.3,5.37-6.28,6.39c-17.17,5.87-34.82,11.22-52.47,15.9-.85.23-1.71.33-2.56.33ZM190.97,636.96c.09,4.7.55,9.32,1.36,13.8.82,4.53,2.01,8.93,3.55,13.15,10.5-2.91,20.97-6.06,31.3-9.4-1.58-3.45-2.88-7.05-3.9-10.77-1.03-3.74-1.76-7.58-2.2-11.49-9.65,1.78-19.62,3.34-30.11,4.72Z"/>
          </g>
          <path class="cls-1" d="M469.67,479.83c-2.56,0-5.12-.98-7.07-2.93l-35.36-35.36c-3.91-3.91-3.91-10.24,0-14.14s10.24-3.91,14.14,0l35.36,35.36c3.91,3.91,3.91,10.24,0,14.14-1.95,1.95-4.51,2.93-7.07,2.93Z"/>
          <path class="cls-1" d="M537.24,397.85c-1.92,0-3.87-.55-5.58-1.71l-41.46-27.95c-4.58-3.09-5.79-9.3-2.7-13.88,3.09-4.58,9.3-5.79,13.88-2.7l41.46,27.95c4.58,3.09,5.79,9.3,2.7,13.88-1.93,2.87-5.09,4.41-8.3,4.41Z"/>
          <path class="cls-1" d="M386.71,548.08c-3.22,0-6.38-1.55-8.31-4.43l-27.86-41.52c-3.08-4.59-1.85-10.8,2.73-13.88,4.59-3.08,10.8-1.85,13.88,2.73l27.86,41.52c3.08,4.59,1.85,10.8-2.73,13.88-1.71,1.15-3.65,1.7-5.56,1.7Z"/>
        </g>
        <g>
          <g>
            <path class="cls-1" d="M432.87,274.74c6.28-17.25,5.05-27.94,3.96-37.37-.95-8.28-1.78-15.43,2.89-28.24s9.89-17.76,15.94-23.49c6.89-6.53,14.7-13.92,20.98-31.17,1.89-5.19-.79-10.93-5.98-12.82,0,0-.01,0-.02,0l-112.73-41.03s-.01,0-.02,0c-5.19-1.89-10.93.79-12.82,5.98-4.67,12.82-9.89,17.77-15.94,23.49-6.89,6.53-14.7,13.92-20.98,31.18s-5.05,27.94-3.97,37.37c.95,8.28,1.78,15.43-2.89,28.24s-9.89,17.76-15.94,23.49c-6.89,6.53-14.7,13.92-20.98,31.18-6.28,17.25-5.05,27.94-3.96,37.37.95,8.28,1.78,15.43-2.89,28.24-4.66,12.82-9.89,17.76-15.94,23.49-6.89,6.53-14.7,13.92-20.98,31.17-1.89,5.19.79,10.93,5.98,12.82l112.76,41.04c5.19,1.89,10.93-.79,12.82-5.98,4.67-12.82,9.89-17.77,15.94-23.49,6.89-6.53,14.7-13.92,20.98-31.18,6.28-17.25,5.05-27.94,3.97-37.37-.95-8.28-1.78-15.43,2.89-28.24s9.89-17.76,15.94-23.49c6.89-6.53,14.7-13.92,20.98-31.18ZM373.18,359.94c.95,8.28,1.78,15.43-2.89,28.24s-9.89,17.77-15.94,23.49c-5.52,5.22-11.62,11.02-17.06,21.96l-93.8-34.14c3.59-6.5,7.5-10.23,11.85-14.34,6.89-6.53,14.7-13.92,20.98-31.17,6.28-17.25,5.05-27.94,3.96-37.37-.95-8.28-1.78-15.43,2.89-28.24s9.89-17.76,15.94-23.49c6.89-6.53,14.7-13.92,20.98-31.18,6.28-17.25,5.05-27.94,3.97-37.37-.95-8.28-1.78-15.43,2.89-28.24s9.89-17.77,15.94-23.49c5.52-5.22,11.62-11.02,17.06-21.96l93.8,34.14c-3.59,6.5-7.5,10.23-11.85,14.34-6.89,6.53-14.7,13.92-20.98,31.17-6.28,17.25-5.05,27.94-3.96,37.37.95,8.28,1.78,15.43-2.89,28.24-4.66,12.82-9.89,17.76-15.94,23.49-6.89,6.53-14.7,13.92-20.98,31.18-6.28,17.25-5.05,27.94-3.97,37.37Z"/>
            <g class="cls-8">
              <g>
                <path class="cls-5" d="M414.07,267.9c4.66-12.82,3.84-19.96,2.89-28.24-1.09-9.43-2.32-20.12,3.96-37.37,6.28-17.25,14.09-24.65,20.98-31.17,4.34-4.11,8.26-7.83,11.85-14.34l-93.8-34.14c-5.44,10.95-11.54,16.74-17.06,21.96-6.05,5.73-11.28,10.68-15.94,23.49-4.67,12.82-3.84,19.97-2.89,28.24,1.08,9.43,2.31,20.12-3.97,37.37-6.28,17.25-14.09,24.65-20.98,31.18-6.05,5.73-11.28,10.68-15.94,23.49s-3.84,19.96-2.89,28.24c1.09,9.43,2.32,20.12-3.96,37.37-6.28,17.25-14.09,24.65-20.98,31.17-4.34,4.11-8.26,7.84-11.85,14.34l93.8,34.14c5.44-10.95,11.54-16.74,17.06-21.97,6.05-5.73,11.28-10.68,15.94-23.49s3.84-19.97,2.89-28.24c-1.08-9.43-2.31-20.12,3.97-37.37,6.28-17.25,14.09-24.65,20.98-31.18,6.05-5.73,11.28-10.68,15.94-23.49Z"/>
                <path class="cls-4" d="M427.23,272.69c4.66-12.82,3.84-19.96,2.89-28.24-1.09-9.43-2.32-20.12,3.96-37.37s14.09-24.65,20.98-31.17c4.34-4.11,8.26-7.83,11.85-14.34l-93.8-34.14c-5.44,10.95-11.54,16.74-17.06,21.96-6.05,5.73-11.28,10.68-15.94,23.49s-3.84,19.97-2.89,28.24c1.08,9.43,2.31,20.12-3.97,37.37-6.28,17.25-14.09,24.65-20.98,31.18-6.05,5.73-11.28,10.68-15.94,23.49s-3.84,19.96-2.89,28.24c1.09,9.43,2.32,20.12-3.96,37.37s-14.09,24.65-20.98,31.17c-4.34,4.11-8.26,7.84-11.85,14.34l93.8,34.14c5.44-10.95,11.54-16.74,17.06-21.97,6.05-5.73,11.28-10.68,15.94-23.49s3.84-19.97,2.89-28.24c-1.08-9.43-2.31-20.12,3.97-37.37s14.09-24.65,20.98-31.18c6.05-5.73,11.28-10.68,15.94-23.49Z"/>
                <path class="cls-5" d="M432.87,274.74c4.66-12.82,3.84-19.96,2.89-28.24-1.09-9.43-2.32-20.12,3.96-37.37,6.28-17.25,14.09-24.65,20.98-31.17,4.34-4.11,8.26-7.83,11.85-14.34l-93.8-34.14c-5.44,10.95-11.54,16.74-17.06,21.96-6.05,5.73-11.28,10.68-15.94,23.49-4.67,12.82-3.84,19.97-2.89,28.24,1.08,9.43,2.31,20.12-3.97,37.37-6.28,17.25-14.09,24.65-20.98,31.18-6.05,5.73-11.28,10.68-15.94,23.49s-3.84,19.96-2.89,28.24c1.09,9.43,2.32,20.12-3.96,37.37s-14.09,24.65-20.98,31.17c-4.34,4.11-8.26,7.84-11.85,14.34l93.8,34.14c5.44-10.95,11.54-16.74,17.06-21.97,6.05-5.73,11.28-10.68,15.94-23.49,4.67-12.82,3.84-19.97,2.89-28.24-1.08-9.43-2.31-20.12,3.97-37.37,6.28-17.25,14.09-24.65,20.98-31.18,6.05-5.73,11.28-10.68,15.94-23.49Z"/>
                <path class="cls-4" d="M455.42,282.95c4.66-12.82,3.84-19.96,2.89-28.24-1.09-9.43-2.32-20.12,3.96-37.37s14.09-24.65,20.98-31.17c4.34-4.11,8.26-7.83,11.85-14.34l-93.8-34.14c-5.44,10.95-11.54,16.74-17.06,21.96-6.05,5.73-11.28,10.68-15.94,23.49-4.67,12.82-3.84,19.97-2.89,28.24,1.08,9.43,2.31,20.12-3.97,37.37-6.28,17.25-14.09,24.65-20.98,31.18-6.05,5.73-11.28,10.68-15.94,23.49-4.66,12.82-3.84,19.96-2.89,28.24,1.09,9.43,2.32,20.12-3.96,37.37-6.28,17.25-14.09,24.65-20.98,31.17-4.34,4.11-8.26,7.84-11.85,14.34l93.8,34.14c5.44-10.95,11.54-16.74,17.06-21.97,6.05-5.73,11.28-10.68,15.94-23.49,4.67-12.82,3.84-19.97,2.89-28.24-1.08-9.43-2.31-20.12,3.97-37.37,6.28-17.25,14.09-24.65,20.98-31.18,6.05-5.73,11.28-10.68,15.94-23.49Z"/>
                <path class="cls-6" d="M470.46,288.42c4.66-12.82,3.84-19.96,2.89-28.24-1.09-9.43-2.32-20.12,3.96-37.37,6.28-17.25,14.09-24.65,20.98-31.17,4.34-4.11,8.26-7.83,11.85-14.34l-93.8-34.14c-5.44,10.95-11.54,16.74-17.06,21.96-6.05,5.73-11.28,10.68-15.94,23.49s-3.84,19.97-2.89,28.24c1.08,9.43,2.31,20.12-3.97,37.37s-14.09,24.65-20.98,31.18c-6.05,5.73-11.28,10.68-15.94,23.49s-3.84,19.96-2.89,28.24c1.09,9.43,2.32,20.12-3.96,37.37-6.28,17.25-14.09,24.65-20.98,31.17-4.34,4.11-8.26,7.84-11.85,14.34l93.8,34.14c5.44-10.95,11.54-16.74,17.06-21.97,6.05-5.73,11.28-10.68,15.94-23.49s3.84-19.97,2.89-28.24c-1.08-9.43-2.31-20.12,3.97-37.37,6.28-17.25,14.09-24.65,20.98-31.18,6.05-5.73,11.28-10.68,15.94-23.49Z"/>
                <path class="cls-2" d="M498.65,298.68c4.66-12.82,3.84-19.96,2.89-28.24-1.09-9.43-2.32-20.12,3.96-37.37s14.09-24.65,20.98-31.17c4.34-4.11,8.26-7.83,11.85-14.34l-93.8-34.14c-5.44,10.95-11.54,16.74-17.06,21.96-6.05,5.73-11.28,10.68-15.94,23.49s-3.84,19.97-2.89,28.24c1.08,9.43,2.31,20.12-3.97,37.37-6.28,17.25-14.09,24.65-20.98,31.18-6.05,5.73-11.28,10.68-15.94,23.49s-3.84,19.96-2.89,28.24c1.09,9.43,2.32,20.12-3.96,37.37s-14.09,24.65-20.98,31.17c-4.34,4.11-8.26,7.84-11.85,14.34l93.8,34.14c5.44-10.95,11.54-16.74,17.06-21.97,6.05-5.73,11.28-10.68,15.94-23.49s3.84-19.97,2.89-28.24c-1.08-9.43-2.31-20.12,3.97-37.37s14.09-24.65,20.98-31.18c6.05-5.73,11.28-10.68,15.94-23.49Z"/>
              </g>
            </g>
          </g>
          <g>
            <path class="cls-1" d="M312.87,314.74c6.28-17.25,5.05-27.94,3.96-37.37-.95-8.28-1.78-15.43,2.89-28.24s9.89-17.76,15.94-23.49c6.89-6.53,14.7-13.92,20.98-31.17,1.89-5.19-.79-10.93-5.98-12.82,0,0-.01,0-.02,0l-112.73-41.03s-.01,0-.02,0c-5.19-1.89-10.93.79-12.82,5.98-4.67,12.82-9.89,17.77-15.94,23.49-6.89,6.53-14.7,13.92-20.98,31.18s-5.05,27.94-3.97,37.37c.95,8.28,1.78,15.43-2.89,28.24s-9.89,17.76-15.94,23.49c-6.89,6.53-14.7,13.92-20.98,31.18-6.28,17.25-5.05,27.94-3.96,37.37.95,8.28,1.78,15.43-2.89,28.24-4.66,12.82-9.89,17.76-15.94,23.49-6.89,6.53-14.7,13.92-20.98,31.17-1.89,5.19.79,10.93,5.98,12.82l112.76,41.04c5.19,1.89,10.93-.79,12.82-5.98,4.67-12.82,9.89-17.77,15.94-23.49,6.89-6.53,14.7-13.92,20.98-31.18,6.28-17.25,5.05-27.94,3.97-37.37-.95-8.28-1.78-15.43,2.89-28.24s9.89-17.76,15.94-23.49c6.89-6.53,14.7-13.92,20.98-31.18ZM253.18,399.94c.95,8.28,1.78,15.43-2.89,28.24s-9.89,17.77-15.94,23.49c-5.52,5.22-11.62,11.02-17.06,21.96l-93.8-34.14c3.59-6.5,7.5-10.23,11.85-14.34,6.89-6.53,14.7-13.92,20.98-31.17,6.28-17.25,5.05-27.94,3.96-37.37-.95-8.28-1.78-15.43,2.89-28.24s9.89-17.76,15.94-23.49c6.89-6.53,14.7-13.92,20.98-31.18,6.28-17.25,5.05-27.94,3.97-37.37-.95-8.28-1.78-15.43,2.89-28.24s9.89-17.77,15.94-23.49c5.52-5.22,11.62-11.02,17.06-21.96l93.8,34.14c-3.59,6.5-7.5,10.23-11.85,14.34-6.89,6.53-14.7,13.92-20.98,31.17-6.28,17.25-5.05,27.94-3.96,37.37.95,8.28,1.78,15.43-2.89,28.24-4.66,12.82-9.89,17.76-15.94,23.49-6.89,6.53-14.7,13.92-20.98,31.18-6.28,17.25-5.05,27.94-3.97,37.37Z"/>
            <g class="cls-7">
              <g>
                <path class="cls-5" d="M294.07,307.9c4.66-12.82,3.84-19.96,2.89-28.24-1.09-9.43-2.32-20.12,3.96-37.37s14.09-24.65,20.98-31.17c4.34-4.11,8.26-7.83,11.85-14.34l-93.8-34.14c-5.44,10.95-11.54,16.74-17.06,21.96-6.05,5.73-11.28,10.68-15.94,23.49-4.67,12.82-3.84,19.97-2.89,28.24,1.08,9.43,2.31,20.12-3.97,37.37-6.28,17.25-14.09,24.65-20.98,31.18-6.05,5.73-11.28,10.68-15.94,23.49s-3.84,19.96-2.89,28.24c1.09,9.43,2.32,20.12-3.96,37.37-6.28,17.25-14.09,24.65-20.98,31.17-4.34,4.11-8.26,7.84-11.85,14.34l93.8,34.14c5.44-10.95,11.54-16.74,17.06-21.97,6.05-5.73,11.28-10.68,15.94-23.49s3.84-19.97,2.89-28.24c-1.08-9.43-2.31-20.12,3.97-37.37,6.28-17.25,14.09-24.65,20.98-31.18,6.05-5.73,11.28-10.68,15.94-23.49Z"/>
                <path class="cls-4" d="M307.23,312.69c4.66-12.82,3.84-19.96,2.89-28.24-1.09-9.43-2.32-20.12,3.96-37.37s14.09-24.65,20.98-31.17c4.34-4.11,8.26-7.83,11.85-14.34l-93.8-34.14c-5.44,10.95-11.54,16.74-17.06,21.96-6.05,5.73-11.28,10.68-15.94,23.49s-3.84,19.97-2.89,28.24c1.08,9.43,2.31,20.12-3.97,37.37-6.28,17.25-14.09,24.65-20.98,31.18-6.05,5.73-11.28,10.68-15.94,23.49s-3.84,19.96-2.89,28.24c1.09,9.43,2.32,20.12-3.96,37.37s-14.09,24.65-20.98,31.17c-4.34,4.11-8.26,7.84-11.85,14.34l93.8,34.14c5.44-10.95,11.54-16.74,17.06-21.97,6.05-5.73,11.28-10.68,15.94-23.49s3.84-19.97,2.89-28.24c-1.08-9.43-2.31-20.12,3.97-37.37s14.09-24.65,20.98-31.18c6.05-5.73,11.28-10.68,15.94-23.49Z"/>
                <path class="cls-5" d="M312.87,314.74c4.66-12.82,3.84-19.96,2.89-28.24-1.09-9.43-2.32-20.12,3.96-37.37,6.28-17.25,14.09-24.65,20.98-31.17,4.34-4.11,8.26-7.83,11.85-14.34l-93.8-34.14c-5.44,10.95-11.54,16.74-17.06,21.96-6.05,5.73-11.28,10.68-15.94,23.49-4.67,12.82-3.84,19.97-2.89,28.24,1.08,9.43,2.31,20.12-3.97,37.37-6.28,17.25-14.09,24.65-20.98,31.18-6.05,5.73-11.28,10.68-15.94,23.49s-3.84,19.96-2.89,28.24c1.09,9.43,2.32,20.12-3.96,37.37s-14.09,24.65-20.98,31.17c-4.34,4.11-8.26,7.84-11.85,14.34l93.8,34.14c5.44-10.95,11.54-16.74,17.06-21.97,6.05-5.73,11.28-10.68,15.94-23.49,4.67-12.82,3.84-19.97,2.89-28.24-1.08-9.43-2.31-20.12,3.97-37.37,6.28-17.25,14.09-24.65,20.98-31.18,6.05-5.73,11.28-10.68,15.94-23.49Z"/>
                <path class="cls-4" d="M335.42,322.95c4.66-12.82,3.84-19.96,2.89-28.24-1.09-9.43-2.32-20.12,3.96-37.37,6.28-17.25,14.09-24.65,20.98-31.17,4.34-4.11,8.26-7.83,11.85-14.34l-93.8-34.14c-5.44,10.95-11.54,16.74-17.06,21.96-6.05,5.73-11.28,10.68-15.94,23.49-4.67,12.82-3.84,19.97-2.89,28.24,1.08,9.43,2.31,20.12-3.97,37.37-6.28,17.25-14.09,24.65-20.98,31.18-6.05,5.73-11.28,10.68-15.94,23.49-4.66,12.82-3.84,19.96-2.89,28.24,1.09,9.43,2.32,20.12-3.96,37.37-6.28,17.25-14.09,24.65-20.98,31.17-4.34,4.11-8.26,7.84-11.85,14.34l93.8,34.14c5.44-10.95,11.54-16.74,17.06-21.97,6.05-5.73,11.28-10.68,15.94-23.49,4.67-12.82,3.84-19.97,2.89-28.24-1.08-9.43-2.31-20.12,3.97-37.37,6.28-17.25,14.09-24.65,20.98-31.18,6.05-5.73,11.28-10.68,15.94-23.49Z"/>
                <path class="cls-6" d="M350.46,328.42c4.66-12.82,3.84-19.96,2.89-28.24-1.09-9.43-2.32-20.12,3.96-37.37,6.28-17.25,14.09-24.65,20.98-31.17,4.34-4.11,8.26-7.83,11.85-14.34l-93.8-34.14c-5.44,10.95-11.54,16.74-17.06,21.96-6.05,5.73-11.28,10.68-15.94,23.49s-3.84,19.97-2.89,28.24c1.08,9.43,2.31,20.12-3.97,37.37s-14.09,24.65-20.98,31.18c-6.05,5.73-11.28,10.68-15.94,23.49s-3.84,19.96-2.89,28.24c1.09,9.43,2.32,20.12-3.96,37.37-6.28,17.25-14.09,24.65-20.98,31.17-4.34,4.11-8.26,7.84-11.85,14.34l93.8,34.14c5.44-10.95,11.54-16.74,17.06-21.97,6.05-5.73,11.28-10.68,15.94-23.49s3.84-19.97,2.89-28.24c-1.08-9.43-2.31-20.12,3.97-37.37,6.28-17.25,14.09-24.65,20.98-31.18,6.05-5.73,11.28-10.68,15.94-23.49Z"/>
                <path class="cls-2" d="M378.65,338.68c4.66-12.82,3.84-19.96,2.89-28.24-1.09-9.43-2.32-20.12,3.96-37.37s14.09-24.65,20.98-31.17c4.34-4.11,8.26-7.83,11.85-14.34l-93.8-34.14c-5.44,10.95-11.54,16.74-17.06,21.96-6.05,5.73-11.28,10.68-15.94,23.49s-3.84,19.97-2.89,28.24c1.08,9.43,2.31,20.12-3.97,37.37-6.28,17.25-14.09,24.65-20.98,31.18-6.05,5.73-11.28,10.68-15.94,23.49s-3.84,19.96-2.89,28.24c1.09,9.43,2.32,20.12-3.96,37.37s-14.09,24.65-20.98,31.17c-4.34,4.11-8.26,7.84-11.85,14.34l93.8,34.14c5.44-10.95,11.54-16.74,17.06-21.97,6.05-5.73,11.28-10.68,15.94-23.49s3.84-19.97,2.89-28.24c-1.08-9.43-2.31-20.12,3.97-37.37s14.09-24.65,20.98-31.18c6.05-5.73,11.28-10.68,15.94-23.49Z"/>
              </g>
            </g>
          </g>
        </g>
      </g>
      <rect id="frame" class="cls-3" width="800" height="800"/>
    </g>
  </g>
</svg>