<svg width="92" height="92" viewBox="0 0 92 92" fill="none" xmlns="http://www.w3.org/2000/svg">
<g opacity="0.65">
<path d="M31.6181 13.8332C29.2939 14.2426 26.3706 18.7748 27.1515 27.5665C27.5919 32.5311 28.9846 36.0432 31.1776 37.7245C32.499 38.7376 34.1251 39.0815 36.0111 38.7491C37.8971 38.4168 39.307 37.5359 40.2028 36.1329C41.6886 33.803 41.7956 30.0264 40.5122 25.2102C38.2386 16.6818 33.9422 13.4227 31.6181 13.8332Z" fill="white"/>
<path d="M66.5954 33.0969C65.1234 33.489 63.4168 33.7202 61.6274 33.9628C54.119 34.9806 44.7741 36.2479 39.7751 49.627C39.7383 49.7247 39.7038 49.8213 39.6681 49.9191C35.5477 61.2408 40.4363 73.4504 50.5655 77.1373C60.6959 80.8242 72.289 74.613 76.4095 63.2913C76.4451 63.1935 76.4808 63.0969 76.5141 63.0003C81.2855 49.5361 74.9421 42.5591 69.8441 36.9528C68.6297 35.6177 67.4705 34.3435 66.5954 33.0957V33.0969Z" fill="white"/>
<path d="M75.0226 59.8954C74.8006 60.8557 74.1773 61.6768 73.3102 62.1471C73.3045 62.1506 73.2976 62.154 73.2918 62.1563C72.4259 62.6198 71.4035 62.6934 70.4812 62.3576L64.2172 60.0783L63.0488 59.6528L63.8354 57.4919L65.0026 57.9163L71.2678 60.1967C71.5818 60.3106 71.9176 60.2864 72.212 60.1254C72.5052 59.9667 72.7065 59.7022 72.7812 59.3791C74.1003 53.6578 72.7766 47.9044 69.2427 43.9886C68.4262 43.0847 67.2233 42.6834 66.0261 42.9168C64.8255 43.1514 63.8595 43.9771 63.4421 45.1248L59.1204 56.9986L56.9584 56.212L61.2801 44.3382C61.7182 43.1365 62.5152 42.1463 63.5444 41.4805C64.1528 41.086 64.8428 40.8043 65.5857 40.6594C67.5821 40.2707 69.5877 40.9388 70.9493 42.4476C72.9054 44.6142 74.3176 47.3593 75.0341 50.3838C75.7563 53.4382 75.7528 56.7272 75.0226 59.8954Z" fill="black"/>
<path d="M73.1641 65.0014C71.6864 67.8982 69.5761 70.4202 67.0588 72.2958C64.5656 74.1531 61.7205 75.3468 58.8282 75.7493C57.8749 75.8827 56.933 75.778 56.0682 75.4641C55.108 75.1145 54.2443 74.5038 53.5704 73.6712C53.0943 73.0824 52.747 72.4246 52.5343 71.7312C52.1743 70.5593 52.1996 69.2886 52.6366 68.0868L56.9583 56.2119L59.1203 56.9985L54.7986 68.8734C54.38 70.0211 54.5893 71.2746 55.3587 72.2245C56.1257 73.1733 57.3045 73.6402 58.5108 73.4711C63.7364 72.7443 68.448 69.1874 71.1148 63.956C71.2655 63.6616 71.2816 63.3281 71.1597 63.0188C71.0366 62.7071 70.7951 62.4725 70.4812 62.3575L64.2171 60.0782L63.0487 59.6527L63.8353 57.4919L65.0026 57.9162L71.2678 60.1967C72.1901 60.5325 72.9272 61.2455 73.2918 62.1563C73.2941 62.1632 73.2975 62.1689 73.2998 62.1758C73.6609 63.0947 73.6115 64.1239 73.1641 65.0014Z" fill="black"/>
<path d="M67.7269 56.258L65.0025 57.9163L64.531 58.2038C64.0687 58.4856 63.8663 59.041 64.04 59.5539L64.2171 60.0783L65.2371 63.0994C65.7408 64.5898 65.1716 66.232 63.8537 67.0922L60.5313 69.2611C60.2162 69.4669 59.8367 69.498 59.5078 69.3784C59.2824 69.2967 59.0812 69.1426 58.9397 68.9264C58.5924 68.3951 58.7419 67.6821 59.2744 67.3349L62.5967 65.1659C63.036 64.8796 63.2258 64.3322 63.0579 63.8354L61.8607 60.2899C61.3409 58.7501 61.947 57.0849 63.335 56.2396L66.5309 54.2938C66.9794 54.0201 67.1852 53.4796 67.0334 52.9771L65.8823 49.1798C65.6971 48.5726 66.041 47.9297 66.6482 47.7457C67.2565 47.5617 67.8982 47.9044 68.0834 48.5128L69.2345 52.3101C69.6911 53.8154 69.0712 55.4392 67.7269 56.258Z" fill="black"/>
<path d="M63.442 45.1248L59.1203 56.9986L56.9583 56.212L61.28 44.3382C61.6986 43.1894 61.4882 41.937 60.72 40.986C59.9529 40.0372 58.7742 39.5715 57.5678 39.7394C52.3422 40.4662 47.6307 44.0231 44.9638 49.2545C44.8132 49.55 44.7971 49.8824 44.919 50.1917C45.042 50.5034 45.2835 50.7391 45.5975 50.853L51.8615 53.1323L53.0299 53.5578L52.2422 55.7198L51.0749 55.2943L44.8109 53.015C43.8886 52.6792 43.1514 51.965 42.7869 51.0542C42.7846 51.0473 42.7811 51.0416 42.7788 51.0347C42.4177 50.117 42.4672 49.0866 42.9145 48.2091C44.3911 45.3134 46.5025 42.7915 49.0199 40.9158C51.5131 39.0586 54.3582 37.8637 57.2504 37.4612C59.2629 37.1806 61.2294 37.958 62.5082 39.5393C62.9843 40.1281 63.3316 40.787 63.5444 41.4805C63.9043 42.6523 63.879 43.9231 63.442 45.1248Z" fill="black"/>
<path d="M59.1204 56.9986L54.7987 68.8735C54.3605 70.0752 53.5636 71.0642 52.5343 71.7312C51.926 72.1245 51.236 72.4063 50.4931 72.5512C49.442 72.7559 48.3874 72.6685 47.4272 72.3189C46.5635 72.0038 45.7746 71.4782 45.1295 70.7641C43.1733 68.5963 41.76 65.8524 41.0447 62.8279C40.3225 59.7724 40.3259 56.4834 41.0562 53.3151C41.2781 52.3549 41.9014 51.5349 42.7685 51.0646C42.7743 51.0611 42.7812 51.0577 42.7869 51.0542C43.6529 50.5908 44.6752 50.5172 45.5975 50.853L51.8616 53.1323L53.03 53.5578L52.2422 55.7198L51.075 55.2943L44.8109 53.015C44.497 52.9 44.1612 52.9253 43.8668 53.0851C43.5735 53.2438 43.3723 53.5095 43.2975 53.8315C41.9785 59.5539 43.3021 65.3073 46.8361 69.2219C47.6526 70.127 48.8555 70.5272 50.0526 70.2937C51.2532 70.0591 52.2192 69.2346 52.6367 68.0869L56.9584 56.212L59.1204 56.9986Z" fill="black"/>
<path d="M56.8042 45.8757L53.4819 48.0446C53.0426 48.3321 52.8528 48.8783 53.0207 49.3763L54.2179 52.9206C54.7377 54.4604 54.1316 56.1256 52.7436 56.9709L49.5477 58.9178C49.0992 59.1904 48.8934 59.732 49.0452 60.2334L50.1963 64.0307C50.3815 64.6391 50.0376 65.2808 49.4304 65.4648C49.182 65.5407 48.929 65.528 48.7036 65.4452C48.3747 65.3256 48.1045 65.0588 47.9952 64.6989L46.8441 60.9004C46.3875 59.3951 47.0074 57.7713 48.3517 56.9536L51.0749 55.2942L51.5476 55.0067C52.0099 54.7249 52.2123 54.1695 52.0386 53.6566L51.8615 53.1322L50.8415 50.1123C50.3378 48.6207 50.907 46.9785 52.2249 46.1183L55.5473 43.9494C56.0797 43.6033 56.7916 43.7528 57.1389 44.2841C57.4862 44.8165 57.3367 45.5284 56.8042 45.8757Z" fill="black"/>
<path d="M78.9958 46.161C77.2018 41.6266 74.0657 38.1777 71.5461 35.4062C70.104 33.8204 68.8585 32.4507 68.0685 31.1524C67.7879 30.6935 67.2278 30.4888 66.7172 30.6613C65.2786 31.1478 63.4432 31.3962 61.3191 31.6837C57.6069 32.1874 52.9885 32.8141 48.699 35.1337C43.6689 37.8557 40.0453 42.3327 37.6222 48.8198C37.5831 48.9222 37.5452 49.0268 37.5072 49.1326C32.9521 61.6458 38.4583 75.179 49.78 79.2994C61.1006 83.4199 74.0174 76.5923 78.5714 64.0792C78.6094 63.9734 78.6485 63.8687 78.683 63.7675C80.9979 57.2378 81.0991 51.4786 78.9958 46.161ZM76.5152 63.0016C76.4807 63.0982 76.4462 63.1948 76.4106 63.2926C72.2901 74.6132 60.6958 80.8243 50.5666 77.1374C40.4363 73.4505 35.5476 61.241 39.6681 49.9192C39.7037 49.8215 39.7394 49.7249 39.7762 49.6271C44.7741 36.248 54.119 34.9807 61.6273 33.963C63.4167 33.7203 65.1233 33.4892 66.5953 33.097C67.4716 34.3436 68.6297 35.6178 69.8441 36.9541C74.942 42.5604 81.2866 49.5374 76.5152 63.0016Z" fill="black"/>
<path d="M72.7812 59.379C72.7065 59.7022 72.5052 59.9667 72.212 60.1254C71.9176 60.2864 71.5818 60.3105 71.2678 60.1967L65.0026 57.9162L67.727 56.2579C69.0713 55.4391 69.6912 53.8153 69.2346 52.31L68.0835 48.5127C67.8983 47.9043 67.2566 47.5616 66.6483 47.7456C66.0411 47.9296 65.6972 48.5725 65.8824 49.1797L67.0335 52.977C67.1853 53.4795 66.9795 54.02 66.531 54.2937L63.3351 56.2395C61.9471 57.0848 61.341 58.75 61.8608 60.2898L63.058 63.8353C63.2259 64.3321 63.0361 64.8795 62.5968 65.1658L59.2745 67.3347C58.742 67.682 58.5925 68.395 58.9398 68.9263C59.0813 69.1425 59.2825 69.2966 59.5079 69.3783C59.8368 69.4979 60.2163 69.4668 60.5314 69.261L63.8538 67.0921C65.1717 66.2319 65.7409 64.5897 65.2372 63.0993L64.2172 60.0782L70.4812 62.3575C70.7952 62.4725 71.0367 62.7071 71.1597 63.0188C71.2816 63.3281 71.2655 63.6616 71.1149 63.956C68.448 69.1874 63.7365 72.7443 58.5109 73.4711C57.3045 73.6402 56.1258 73.1733 55.3587 72.2245C54.5894 71.2746 54.3801 70.0211 54.7987 68.8734L59.1204 56.9985L63.4421 45.1248C63.8595 43.9771 64.8255 43.1514 66.0261 42.9168C67.2233 42.6833 68.4262 43.0847 69.2427 43.9886C72.7766 47.9043 74.1003 53.6578 72.7812 59.379Z" fill="white"/>
<path d="M61.28 44.3381L56.9583 56.2119L52.6366 68.0868C52.2192 69.2345 51.2532 70.059 50.0526 70.2936C48.8554 70.5271 47.6525 70.1269 46.836 69.2218C43.3021 65.3072 41.9784 59.5538 43.2975 53.8314C43.3722 53.5094 43.5735 53.2437 43.8667 53.085C44.1611 52.9252 44.4969 52.8999 44.8109 53.0149L51.0749 55.2942L48.3517 56.9536C47.0074 57.7713 46.3875 59.3951 46.8441 60.9004L47.9952 64.6989C48.1045 65.0588 48.3747 65.3256 48.7036 65.4452C48.929 65.528 49.182 65.5407 49.4304 65.4648C50.0376 65.2808 50.3815 64.6391 50.1963 64.0307L49.0452 60.2334C48.8934 59.732 49.0992 59.1904 49.5477 58.9178L52.7436 56.9709C54.1316 56.1256 54.7377 54.4604 54.2179 52.9206L53.0207 49.3763C52.8528 48.8783 53.0426 48.3321 53.4819 48.0446L56.8042 45.8757C57.3367 45.5284 57.4862 44.8165 57.1389 44.2841C56.7916 43.7528 56.0797 43.6033 55.5473 43.9494L52.2249 46.1183C50.907 46.9785 50.3378 48.6207 50.8415 50.1123L51.8615 53.1322L45.5975 50.8529C45.2835 50.739 45.042 50.5033 44.919 50.1916C44.7971 49.8823 44.8132 49.5499 44.9638 49.2544C47.6307 44.023 52.3422 40.4661 57.5678 39.7393C58.7742 39.5714 59.9529 40.0371 60.72 40.9859C61.4882 41.9369 61.6986 43.1893 61.28 44.3381Z" fill="white"/>
<path d="M36.4113 41.0147C35.5994 41.1573 34.7852 40.9538 34.0572 40.4236C31.9366 38.8792 30.345 34.3769 29.3296 27.0399C28.7373 22.7654 28.5625 19.0693 28.8236 16.3507C29.1099 13.3664 29.8942 11.8024 31.219 11.569C32.545 11.3355 33.8157 12.5373 35.106 15.2432C36.2813 17.7077 37.3807 21.2416 38.2869 25.461C39.8417 32.7025 39.8866 37.4773 38.4215 39.6543C37.9189 40.4018 37.2232 40.8721 36.4113 41.0147ZM31.6514 14.0196C31.2006 15.0017 30.4704 18.5104 31.6077 26.7237C32.9038 36.0835 34.8461 38.1524 35.4108 38.5629C35.6971 38.7711 35.8823 38.7711 36.0122 38.7492C36.1422 38.7274 36.3158 38.663 36.5136 38.3686C36.9035 37.789 38.0213 35.1808 36.0387 25.9417C34.2987 17.8342 32.4116 14.7867 31.6526 14.0185L31.6514 14.0196Z" fill="white"/>
<path d="M36.4113 41.0147C33.9009 41.4575 31.6078 40.9515 29.7793 39.5508C27.0216 37.4382 25.3667 33.4742 24.8607 27.7713C23.9948 18.0239 27.4045 12.2429 31.2191 11.5701C35.0336 10.8974 40.2144 15.1639 42.7352 24.6203C44.2106 30.153 44.0105 34.4436 42.1418 37.3715C40.9032 39.3127 38.9218 40.5731 36.4102 41.0159L36.4113 41.0147ZM31.6181 13.8333C29.294 14.2427 26.3707 18.7749 27.1515 27.5666C27.592 32.5312 28.9846 36.0433 31.1777 37.7246C32.499 38.7377 34.1251 39.0816 36.0111 38.7492C37.8971 38.4169 39.307 37.536 40.2029 36.133C41.6887 33.8031 41.7956 30.0265 40.5122 25.2103C38.2387 16.6819 33.9423 13.4228 31.6181 13.8333Z" fill="black"/>
<path d="M16.8016 25.0986C14.5832 25.9059 12.4925 30.8762 14.7868 39.3989C16.0828 44.2116 18.0643 47.4282 20.5161 48.7035C21.9938 49.4717 23.6544 49.5281 25.4542 48.8737C27.2539 48.2194 28.4902 47.1073 29.1273 45.5698C30.1864 43.0179 29.6356 39.2793 27.5357 34.7598C23.8154 26.7558 19.0188 24.2925 16.8004 25.0998L16.8016 25.0986Z" fill="white"/>
<path d="M26.2408 51.0335C25.4657 51.3152 24.6285 51.2554 23.82 50.8598C21.4625 49.7075 19.1142 45.5491 16.8395 38.5008C15.5147 34.3941 14.7005 30.7843 14.4855 28.0622C14.2497 25.0745 14.75 23.3978 16.015 22.9367C17.28 22.4755 18.7405 23.4392 20.4804 25.8795C22.0651 28.1025 23.7625 31.3915 25.3863 35.39C28.1751 42.2509 29.0491 46.9464 27.9842 49.3441C27.6185 50.1675 27.0159 50.7517 26.2408 51.0335ZM16.866 25.2758C16.5934 26.3211 16.483 29.9034 19.0291 37.7947C21.9306 46.7877 24.203 48.4874 24.8309 48.7944C25.1483 48.9497 25.3311 48.9186 25.4553 48.8726C25.5795 48.8266 25.7394 48.7346 25.8831 48.4115C26.166 47.7732 26.8146 45.0109 23.2565 36.256C20.1343 28.574 17.7469 25.9002 16.866 25.2758Z" fill="white"/>
<path d="M26.2407 51.0334C23.8453 51.9051 21.4981 51.805 19.4557 50.7424C16.3737 49.1405 14.0553 45.5249 12.5661 39.9957C10.0211 30.5461 12.374 24.2614 16.0149 22.9366C19.6558 21.6118 25.4978 24.9134 29.6217 33.788C32.0356 38.9802 32.583 43.241 31.2524 46.4483C30.3692 48.5758 28.6373 50.1605 26.2407 51.0322V51.0334ZM16.8015 25.0986C14.5832 25.9059 12.4925 30.8762 14.7867 39.3988C16.0828 44.2116 18.0642 47.4281 20.516 48.7035C21.9938 49.4717 23.6544 49.528 25.4541 48.8737C27.2539 48.2193 28.4901 47.1073 29.1272 45.5697C30.1864 43.0179 29.6355 39.2792 27.5356 34.7597C23.8154 26.7557 19.0187 24.2924 16.8004 25.0997L16.8015 25.0986Z" fill="black"/>
</g>
</svg>
