<?xml version="1.0" encoding="UTF-8"?>
<svg id="Layer_2" data-name="Layer 2" xmlns="http://www.w3.org/2000/svg" viewBox="0 0 800 800">
  <defs>
    <style>
      .cls-1 {
        fill: #d3b88c;
      }

      .cls-1, .cls-2, .cls-3, .cls-4, .cls-5 {
        stroke-width: 0px;
      }

      .cls-3 {
        fill: #fffcd2;
      }

      .cls-4 {
        fill: none;
      }

      .cls-5 {
        fill: #bca179;
      }
    </style>
  </defs>
  <g id="_견과류" data-name="견과류">
    <g id="_견과류-2" data-name="견과류">
      <g id="hover">
        <path class="cls-1" d="M274.94,120.29c-20.21,3.56-45.63,42.97-38.84,119.42,3.83,43.17,15.94,73.71,35.01,88.33,11.49,8.81,25.63,11.8,42.03,8.91,16.4-2.89,28.66-10.55,36.45-22.75,12.92-20.26,13.85-53.1,2.69-94.98h0c-19.77-74.16-57.13-102.5-77.34-98.93Z"/>
        <path class="cls-5" d="M579.09,287.8c-12.8,3.41-27.64,5.42-43.2,7.53-65.29,8.85-146.55,19.87-190.02,136.21-.32.85-.62,1.69-.93,2.54-35.83,98.45,6.68,204.62,94.76,236.68,88.09,32.06,188.9-21.95,224.73-120.4.31-.85.62-1.69.91-2.53,41.49-117.08-13.67-177.75-58-226.5-10.56-11.61-20.64-22.69-28.25-33.54Z"/>
        <g>
          <g>
            <path class="cls-2" d="M652.37,520.83c-1.93,8.35-7.35,15.49-14.89,19.58-.05.03-.11.06-.16.08-7.53,4.03-16.42,4.67-24.44,1.75l-54.47-19.82-10.16-3.7,6.84-18.79,10.15,3.69,54.48,19.83c2.73.99,5.65.78,8.21-.62,2.55-1.38,4.3-3.68,4.95-6.49,11.47-49.75-.04-99.78-30.77-133.83-7.1-7.86-17.56-11.35-27.97-9.32-10.44,2.04-18.84,9.22-22.47,19.2l-37.58,103.25-18.8-6.84,37.58-103.25c3.81-10.45,10.74-19.06,19.69-24.85,5.29-3.43,11.29-5.88,17.75-7.14,17.36-3.38,34.8,2.43,46.64,15.55,17.01,18.84,29.29,42.71,35.52,69.01,6.28,26.56,6.25,55.16-.1,82.71Z"/>
            <path class="cls-2" d="M636.21,565.23c-12.85,25.19-31.2,47.12-53.09,63.43-21.68,16.15-46.42,26.53-71.57,30.03-8.29,1.16-16.48.25-24-2.48-8.35-3.04-15.86-8.35-21.72-15.59-4.14-5.12-7.16-10.84-9.01-16.87-3.13-10.19-2.91-21.24.89-31.69l37.58-103.26,18.8,6.84-37.58,103.26c-3.64,9.98-1.82,20.88,4.87,29.14,6.67,8.25,16.92,12.31,27.41,10.84,45.44-6.32,86.41-37.25,109.6-82.74,1.31-2.56,1.45-5.46.39-8.15-1.07-2.71-3.17-4.75-5.9-5.75l-54.47-19.82-10.16-3.7,6.84-18.79,10.15,3.69,54.48,19.83c8.02,2.92,14.43,9.12,17.6,17.04.02.06.05.11.07.17,3.14,7.99,2.71,16.94-1.18,24.57Z"/>
            <path class="cls-2" d="M588.93,489.2l-23.69,14.42-4.1,2.5c-4.02,2.45-5.78,7.28-4.27,11.74l1.54,4.56,8.87,26.27c4.38,12.96-.57,27.24-12.03,34.72l-28.89,18.86c-2.74,1.79-6.04,2.06-8.9,1.02-1.96-.71-3.71-2.05-4.94-3.93-3.02-4.62-1.72-10.82,2.91-13.84l28.89-18.86c3.82-2.49,5.47-7.25,4.01-11.57l-10.41-30.83c-4.52-13.39.75-27.87,12.82-35.22l27.79-16.92c3.9-2.38,5.69-7.08,4.37-11.45l-10.01-33.02c-1.61-5.28,1.38-10.87,6.66-12.47,5.29-1.6,10.87,1.38,12.48,6.67l10.01,33.02c3.97,13.09-1.42,27.21-13.11,34.33Z"/>
          </g>
          <g>
            <path class="cls-2" d="M551.67,392.39l-37.58,103.25-18.8-6.84,37.58-103.25c3.64-9.99,1.81-20.88-4.87-29.15-6.67-8.25-16.92-12.3-27.41-10.84-45.44,6.32-86.41,37.25-109.6,82.74-1.31,2.57-1.45,5.46-.39,8.15,1.07,2.71,3.17,4.76,5.9,5.75l54.47,19.82,10.16,3.7-6.85,18.8-10.15-3.7-54.47-19.82c-8.02-2.92-14.43-9.13-17.6-17.05-.02-.06-.05-.11-.07-.17-3.14-7.98-2.71-16.94,1.18-24.57,12.84-25.18,31.2-47.11,53.09-63.42,21.68-16.15,46.42-26.54,71.57-30.04,17.5-2.44,34.6,4.32,45.72,18.07,4.14,5.12,7.16,10.85,9.01,16.88,3.13,10.19,2.91,21.24-.89,31.69Z"/>
            <path class="cls-2" d="M514.09,495.64l-37.58,103.26c-3.81,10.45-10.74,19.05-19.69,24.85-5.29,3.42-11.29,5.87-17.75,7.13-9.14,1.78-18.31,1.02-26.66-2.02-7.51-2.74-14.37-7.31-19.98-13.52-17.01-18.85-29.3-42.71-35.52-69.01-6.28-26.57-6.25-55.17.1-82.72,1.93-8.35,7.35-15.48,14.89-19.57.05-.03.11-.06.16-.09,7.53-4.03,16.42-4.67,24.44-1.75l54.47,19.82,10.16,3.7-6.85,18.8-10.15-3.7-54.47-19.82c-2.73-1-5.65-.78-8.21.61-2.55,1.38-4.3,3.69-4.95,6.49-11.47,49.76.04,99.79,30.77,133.83,7.1,7.87,17.56,11.35,27.97,9.32,10.44-2.04,18.84-9.21,22.47-19.19l37.58-103.26,18.8,6.84Z"/>
            <path class="cls-2" d="M493.95,398.92l-28.89,18.86c-3.82,2.5-5.47,7.25-4.01,11.58l10.41,30.82c4.52,13.39-.75,27.87-12.82,35.22l-27.79,16.93c-3.9,2.37-5.69,7.08-4.37,11.44l10.01,33.02c1.61,5.29-1.38,10.87-6.66,12.47-2.16.66-4.36.55-6.32-.17-2.86-1.04-5.21-3.36-6.16-6.49l-10.01-33.03c-3.97-13.09,1.42-27.21,13.11-34.32l23.68-14.43,4.11-2.5c4.02-2.45,5.78-7.28,4.27-11.74l-1.54-4.56-8.87-26.26c-4.38-12.97.57-27.25,12.03-34.73l28.89-18.86c4.63-3.01,10.82-1.71,13.84,2.91,3.02,4.63,1.72,10.82-2.91,13.84Z"/>
          </g>
          <path class="cls-2" d="M686.92,401.4c-15.6-39.43-42.87-69.42-64.78-93.52-12.54-13.79-23.37-25.7-30.24-36.99-2.44-3.99-7.31-5.77-11.75-4.27-12.51,4.23-28.47,6.39-46.94,8.89-32.28,4.38-72.44,9.83-109.74,30-43.74,23.67-75.25,62.6-96.32,119.01-.34.89-.67,1.8-1,2.72-39.61,108.81,8.27,226.49,106.72,262.32,98.44,35.83,210.76-23.54,250.36-132.35.33-.92.67-1.83.97-2.71,20.13-56.78,21.01-106.86,2.72-153.1ZM665.35,547.84c-.3.84-.6,1.68-.91,2.53-35.83,98.44-136.65,152.45-224.73,120.39-88.09-32.06-130.6-138.23-94.77-236.68.31-.85.62-1.69.94-2.54,43.46-116.34,124.72-127.36,190.01-136.21,15.56-2.11,30.4-4.12,43.2-7.53,7.62,10.84,17.69,21.92,28.25,33.54,44.33,48.75,99.5,109.42,58.01,226.5Z"/>
          <path class="cls-3" d="M632.88,516.34c-.65,2.81-2.4,5.11-4.95,6.49-2.56,1.4-5.48,1.61-8.21.62l-54.48-19.83,23.69-14.42c11.69-7.12,17.08-21.24,13.11-34.33l-10.01-33.02c-1.61-5.29-7.19-8.27-12.48-6.67-5.28,1.6-8.27,7.19-6.66,12.47l10.01,33.02c1.32,4.37-.47,9.07-4.37,11.45l-27.79,16.92c-12.07,7.35-17.34,21.83-12.82,35.22l10.41,30.83c1.46,4.32-.19,9.08-4.01,11.57l-28.89,18.86c-4.63,3.02-5.93,9.22-2.91,13.84,1.23,1.88,2.98,3.22,4.94,3.93,2.86,1.04,6.16.77,8.9-1.02l28.89-18.86c11.46-7.48,16.41-21.76,12.03-34.72l-8.87-26.27,54.47,19.82c2.73,1,4.83,3.04,5.9,5.75,1.06,2.69.92,5.59-.39,8.15-23.19,45.49-64.16,76.42-109.6,82.74-10.49,1.47-20.74-2.59-27.41-10.84-6.69-8.26-8.51-19.16-4.87-29.14l37.58-103.26,37.58-103.25c3.63-9.98,12.03-17.16,22.47-19.2,10.41-2.03,20.87,1.46,27.97,9.32,30.73,34.05,42.24,84.08,30.77,133.83Z"/>
          <path class="cls-3" d="M532.87,385.55l-37.58,103.25-37.58,103.26c-3.63,9.98-12.03,17.15-22.47,19.19-10.41,2.03-20.87-1.45-27.97-9.32-30.73-34.04-42.24-84.07-30.77-133.83.65-2.8,2.4-5.11,4.95-6.49,2.56-1.39,5.48-1.61,8.21-.61l54.47,19.82-23.68,14.43c-11.69,7.11-17.08,21.23-13.11,34.32l10.01,33.03c.95,3.13,3.3,5.45,6.16,6.49,1.96.72,4.16.83,6.32.17,5.28-1.6,8.27-7.18,6.66-12.47l-10.01-33.02c-1.32-4.36.47-9.07,4.37-11.44l27.79-16.93c12.07-7.35,17.34-21.83,12.82-35.22l-10.41-30.82c-1.46-4.33.19-9.08,4.01-11.58l28.89-18.86c4.63-3.02,5.93-9.21,2.91-13.84-3.02-4.62-9.21-5.92-13.84-2.91l-28.89,18.86c-11.46,7.48-16.41,21.76-12.03,34.73l8.87,26.26-54.47-19.82c-2.73-.99-4.83-3.04-5.9-5.75-1.06-2.69-.92-5.58.39-8.15,23.19-45.49,64.16-76.42,109.6-82.74,10.49-1.46,20.74,2.59,27.41,10.84,6.68,8.27,8.51,19.16,4.87,29.15Z"/>
        </g>
        <g>
          <path class="cls-5" d="M316.62,356.65c-7.06,1.24-14.14-.53-20.47-5.14-18.44-13.43-32.28-52.58-41.11-116.38-5.15-37.17-6.67-69.31-4.4-92.95,2.49-25.95,9.31-39.55,20.83-41.58,11.53-2.03,22.58,8.42,33.8,31.95,10.22,21.43,19.78,52.16,27.66,88.85,13.52,62.97,13.91,104.49,1.17,123.42-4.37,6.5-10.42,10.59-17.48,11.83ZM275.23,121.91c-3.92,8.54-10.27,39.05-.38,110.47,11.27,81.39,28.16,99.38,33.07,102.95,2.49,1.81,4.1,1.81,5.23,1.62s2.64-.75,4.36-3.31c3.39-5.04,13.11-27.72-4.13-108.06-15.13-70.5-31.54-97-38.14-103.68Z"/>
          <path class="cls-2" d="M316.62,356.65c-21.83,3.85-41.77-.55-57.67-12.73-23.98-18.37-38.37-52.84-42.77-102.43-7.53-84.76,22.12-135.03,55.29-140.88,33.17-5.85,78.22,31.25,100.14,113.48h0c12.83,48.11,11.09,85.42-5.16,110.88-10.77,16.88-28,27.84-49.84,31.69ZM274.94,120.29c-20.21,3.56-45.63,42.97-38.84,119.42,3.83,43.17,15.94,73.71,35.01,88.33,11.49,8.81,25.63,11.8,42.03,8.91,16.4-2.89,28.66-10.55,36.45-22.75,12.92-20.26,13.85-53.1,2.69-94.98h0c-19.77-74.16-57.13-102.5-77.34-98.93Z"/>
        </g>
        <path class="cls-1" d="M146.1,218.25c-19.29,7.02-37.47,50.24-17.52,124.35,11.27,41.85,28.5,69.82,49.82,80.91,12.85,6.68,27.29,7.17,42.94,1.48s26.4-15.36,31.94-28.73c9.21-22.19,4.42-54.7-13.84-94h0c-32.35-69.6-74.06-91.02-93.35-84Z"/>
        <g>
          <path class="cls-5" d="M228.18,443.77c-6.74,2.45-14.02,1.93-21.05-1.51-20.5-10.02-40.92-46.18-60.7-107.47-11.52-35.71-18.6-67.1-20.47-90.77-2.05-25.98,2.3-40.56,13.3-44.57s23.7,4.37,38.83,25.59c13.78,19.33,28.54,47.93,42.66,82.7,24.25,59.66,31.85,100.49,22.59,121.34-3.18,7.16-8.42,12.24-15.16,14.69ZM146.66,219.79c-2.37,9.09-3.33,40.24,18.81,108.86,25.23,78.2,44.99,92.98,50.45,95.65,2.76,1.35,4.35,1.08,5.43.68s2.47-1.2,3.72-4.01c2.46-5.55,8.1-29.57-22.84-105.7-27.15-66.8-47.91-90.05-55.57-95.48Z"/>
          <path class="cls-2" d="M228.18,443.77c-20.83,7.58-41.24,6.71-59-2.53-26.8-13.93-46.96-45.37-59.91-93.45-22.13-82.17-1.67-136.82,29.99-148.34s82.46,17.19,118.32,94.36h0c20.99,45.15,25.75,82.2,14.18,110.09-7.68,18.5-22.74,32.28-43.58,39.86ZM146.1,218.25c-19.29,7.02-37.47,50.24-17.52,124.35,11.27,41.85,28.5,69.82,49.82,80.91,12.85,6.68,27.29,7.17,42.94,1.48s26.4-15.36,31.94-28.73c9.21-22.19,4.42-54.7-13.84-94h0c-32.35-69.6-74.06-91.02-93.35-84Z"/>
        </g>
      </g>
      <rect id="frame" class="cls-4" width="800" height="800"/>
    </g>
  </g>
</svg>