<svg width="92" height="92" viewBox="0 0 92 92" fill="none" xmlns="http://www.w3.org/2000/svg">
<g opacity="0.65">
<path d="M79.35 45.9998C79.35 64.4182 64.4184 79.3498 46 79.3498C27.5816 79.3498 12.65 64.4182 12.65 45.9998H17.25C17.25 53.6795 20.24 60.8992 25.6703 66.3295C31.1006 71.7598 38.3203 74.7498 46 74.7498C53.6797 74.7498 60.8994 71.7598 66.3297 66.3295C71.76 60.8992 74.75 53.6795 74.75 45.9998H79.35Z" fill="white"/>
<path d="M46 80.4999C36.7851 80.4999 28.1209 76.9107 21.6051 70.3948C15.0891 63.8789 11.5 55.2148 11.5 45.9999C11.5 45.3651 12.0152 44.8499 12.65 44.8499H17.25C17.8848 44.8499 18.4 45.3651 18.4 45.9999C18.4 53.3725 21.2704 60.3036 26.4833 65.5165C31.6963 70.7295 38.6273 73.5999 46 73.5999C53.3727 73.5999 60.3037 70.7295 65.5167 65.5165C70.7296 60.3036 73.6 53.3725 73.6 45.9999C73.6 45.3651 74.1152 44.8499 74.75 44.8499H79.35C79.9848 44.8499 80.5 45.3651 80.5 45.9999C80.5 55.2148 76.9109 63.8789 70.395 70.3948C63.8791 76.9107 55.215 80.4999 46 80.4999ZM13.8207 47.1499C14.4279 64.3746 28.6304 78.1999 46 78.1999C63.3696 78.1999 77.5721 64.3746 78.1793 47.1499H75.8782C75.5941 54.7054 72.5178 61.7675 67.1427 67.1426C61.4951 72.7902 53.9868 75.8999 46 75.8999C38.0133 75.8999 30.5037 72.7902 24.8572 67.1426C19.2107 61.4949 16.4059 54.7054 16.1219 47.1499H13.8207Z" fill="black"/>
<path d="M74.75 45.9998C74.75 53.6795 71.76 60.8992 66.3297 66.3295C60.8994 71.7598 53.6797 74.7498 46 74.7498C38.3203 74.7498 31.1006 71.7598 25.6703 66.3295C20.24 60.8992 17.25 53.6795 17.25 45.9998H35.65C35.65 48.7644 36.7264 51.3634 38.6814 53.3184C40.6364 55.2734 43.2354 56.3498 46 56.3498C48.7646 56.3498 51.3636 55.2734 53.3186 53.3184C55.2736 51.3634 56.35 48.7644 56.35 45.9998H74.75Z" fill="white"/>
<path d="M46 75.8999C38.0132 75.8999 30.5037 72.7902 24.8572 67.1426C19.2107 61.4949 16.1 53.9866 16.1 45.9999C16.1 45.3651 16.6152 44.8499 17.25 44.8499H35.65C36.2848 44.8499 36.8 45.3651 36.8 45.9999C36.8 48.4574 37.7568 50.7678 39.4944 52.5054C41.2321 54.2431 43.5424 55.1999 46 55.1999C48.4575 55.1999 50.7679 54.2431 52.5055 52.5054C54.2432 50.7678 55.2 48.4574 55.2 45.9999C55.2 45.3651 55.7152 44.8499 56.35 44.8499H74.75C75.3848 44.8499 75.9 45.3651 75.9 45.9999C75.9 53.9866 72.7904 61.4961 67.1427 67.1426C61.4951 72.7891 53.9867 75.8999 46 75.8999ZM18.423 47.1499C18.7059 54.0913 21.5429 60.5761 26.4833 65.5165C31.6963 70.7295 38.6273 73.5999 46 73.5999C53.3726 73.5999 60.3037 70.7295 65.5166 65.5165C70.457 60.5761 73.2941 54.0913 73.577 47.1499H57.4436C57.1837 49.7868 56.0303 52.2329 54.1316 54.1315C51.9593 56.3039 49.0716 57.4999 46 57.4999C42.9283 57.4999 40.0407 56.3039 37.8683 54.1315C35.9697 52.2329 34.8162 49.7868 34.5563 47.1499H18.423Z" fill="black"/>
<path d="M56.35 45.9998C56.35 48.7644 55.2736 51.3634 53.3186 53.3184C51.3636 55.2734 48.7646 56.3498 46 56.3498C43.2354 56.3498 40.6364 55.2734 38.6814 53.3184C36.7264 51.3634 35.65 48.7644 35.65 45.9998C35.65 46.9209 36.7264 47.788 38.6814 48.4389C40.6364 49.091 43.2354 49.4498 46 49.4498C48.7646 49.4498 51.3636 49.091 53.3186 48.4389C55.2736 47.788 56.35 46.9209 56.35 45.9998Z" fill="white"/>
<path d="M46 57.4999C42.9284 57.4999 40.0407 56.3039 37.8684 54.1315C35.696 51.9592 34.5 49.0715 34.5 45.9999C34.5 45.3651 35.0152 44.8499 35.65 44.8499C36.2848 44.8499 36.8 45.3651 36.8 45.9999C36.8 46.0988 37.1898 46.7301 39.0448 47.3477C40.8859 47.9618 43.355 48.2999 46 48.2999C48.645 48.2999 51.1141 47.9618 52.9552 47.3477C54.8102 46.7301 55.2 46.0988 55.2 45.9999C55.2 45.3651 55.7152 44.8499 56.35 44.8499C56.9848 44.8499 57.5 45.3651 57.5 45.9999C57.5 49.0715 56.304 51.9592 54.1316 54.1315C51.9593 56.3039 49.0717 57.4999 46 57.4999ZM37.3566 49.167C37.8097 50.4067 38.533 51.544 39.4944 52.5054C41.2321 54.2431 43.5424 55.1999 46 55.1999C48.4576 55.1999 50.7679 54.2431 52.5056 52.5054C53.467 51.544 54.1891 50.4067 54.6434 49.167C54.3525 49.2923 54.0327 49.4142 53.682 49.5304C51.6143 50.2204 48.8854 50.5999 46 50.5999C43.1146 50.5999 40.3857 50.2204 38.318 49.5304C37.9684 49.4142 37.6487 49.2923 37.3578 49.167H37.3566Z" fill="black"/>
<path d="M32.2196 29.8998C32.2196 31.5754 31.9068 33.236 31.1236 34.5895C30.3405 35.9431 28.9317 36.9459 27.5356 37.7543C26.1395 38.5628 24.6767 39.247 23.0012 39.247C21.3256 39.247 19.7996 38.5743 18.446 37.7911C17.0499 36.9838 15.8815 35.8741 15.0731 34.478C14.2899 33.1244 13.8966 31.5777 13.8966 29.901C13.8966 28.2243 14.1381 26.589 14.9213 25.2354C15.7044 23.8819 17.0775 22.8653 18.4736 22.0568C19.8697 21.2484 21.3256 20.7056 23.0012 20.7056C24.6767 20.7056 26.1901 21.2484 27.5437 22.0315C28.9398 22.8388 30.0852 23.9474 30.8925 25.3447C31.6756 26.6982 32.2196 28.2243 32.2196 29.901V29.8998Z" fill="white"/>
<path d="M23 40.3971C20.8967 40.3971 19.0636 39.4783 17.8687 38.786C16.2403 37.8441 14.965 36.5883 14.0772 35.0531C13.194 33.5259 12.7455 31.7928 12.7455 29.8999C12.7455 27.7448 13.1307 26.0302 13.9242 24.6594C14.9259 22.9275 16.5727 21.8269 17.8963 21.061C19.6478 20.0479 21.3164 19.5557 23 19.5557C24.6836 19.5557 26.396 20.0398 28.1187 21.0357C29.7241 21.9638 30.9914 23.2196 31.8872 24.7675C32.8705 26.4672 33.3696 28.1945 33.3696 29.8988C33.3696 31.9584 32.9487 33.7306 32.1184 35.1646C31.1489 36.8402 29.5481 37.9166 28.1106 38.7492C26.703 39.5634 24.9953 40.396 23 40.396V40.3971ZM23 21.8557C21.7316 21.8557 20.439 22.2467 19.0475 23.0517C17.9722 23.6738 16.644 24.5501 15.9149 25.8105C15.3295 26.8225 15.0455 28.16 15.0455 29.8999C15.0455 31.3823 15.3893 32.7289 16.0678 33.9008C16.7521 35.083 17.7457 36.057 19.021 36.7953C20.577 37.6958 21.804 38.0971 23 38.0971C24.4502 38.0971 25.8152 37.4209 26.9583 36.7597C28.1336 36.08 29.4285 35.2221 30.1277 34.0146C30.7441 32.9497 31.0696 31.5272 31.0696 29.9011C31.0696 28.5878 30.6855 27.286 29.8966 25.9209C29.2054 24.7261 28.2199 23.752 26.9675 23.0275C25.6048 22.2398 24.3076 21.8557 23.0012 21.8557H23Z" fill="black"/>
<g style="mix-blend-mode:multiply">
<path d="M27.615 29.9C27.615 31.1708 27.1182 32.353 26.2856 33.1856C25.453 34.0182 24.2708 34.569 23 34.569C21.7293 34.569 20.5712 33.994 19.7386 33.1614C18.906 32.3288 18.3908 31.1696 18.3908 29.9C18.3908 28.6304 18.852 27.4171 19.6846 26.5845C20.5172 25.7519 21.7304 25.3667 23 25.3667C24.2696 25.3667 25.4725 25.7634 26.3051 26.596C27.1377 27.4287 27.615 28.6304 27.615 29.9012V29.9Z" fill="white"/>
</g>
<path d="M46 28.7497C49.8107 28.7497 52.9 25.6605 52.9 21.8497C52.9 18.0389 49.8107 14.9497 46 14.9497C42.1892 14.9497 39.1 18.0389 39.1 21.8497C39.1 25.6605 42.1892 28.7497 46 28.7497Z" fill="white"/>
<path d="M46 29.8998C41.561 29.8998 37.95 26.2888 37.95 21.8498C37.95 17.4108 41.561 13.7998 46 13.7998C50.4389 13.7998 54.0499 17.4108 54.0499 21.8498C54.0499 26.2888 50.4389 29.8998 46 29.8998ZM46 16.0998C42.8294 16.0998 40.25 18.6793 40.25 21.8498C40.25 25.0204 42.8294 27.5998 46 27.5998C49.1705 27.5998 51.7499 25.0204 51.7499 21.8498C51.7499 18.6793 49.1705 16.0998 46 16.0998Z" fill="black"/>
<g style="mix-blend-mode:multiply" opacity="0.5">
<path d="M48.3 20.6999C48.9352 20.6999 49.45 20.185 49.45 19.5499C49.45 18.9148 48.9352 18.3999 48.3 18.3999C47.6649 18.3999 47.15 18.9148 47.15 19.5499C47.15 20.185 47.6649 20.6999 48.3 20.6999Z" fill="white"/>
</g>
<path d="M78.1999 31.1649C78.1999 33.5833 77.7342 35.8914 76.8855 38.0074C76.3657 39.3034 74.812 39.8324 73.6034 39.1344L63.2499 33.1567C61.717 32.2712 61.717 30.0586 63.2499 29.1731L73.6034 23.1954C74.8132 22.4973 76.3657 23.0263 76.8855 24.3224C77.733 26.4372 78.1999 28.7464 78.1999 31.1649Z" fill="white"/>
<path d="M74.7557 40.5926C74.1554 40.5926 73.5597 40.4362 73.0284 40.1292L62.675 34.1515C61.5951 33.5282 60.95 32.4115 60.95 31.1638C60.95 29.916 61.5951 28.7994 62.675 28.1761L73.0284 22.1984C73.8967 21.697 74.9385 21.5981 75.8862 21.9258C76.8292 22.2524 77.5824 22.9689 77.9538 23.8935C78.8807 26.205 79.3499 28.651 79.3499 31.1638C79.3499 33.6765 78.8796 36.1214 77.9538 38.4341C77.5835 39.3587 76.8303 40.0763 75.8862 40.4017C75.5182 40.5294 75.1363 40.5915 74.7557 40.5915V40.5926ZM74.7534 24.0361C74.5545 24.0361 74.3589 24.089 74.1795 24.1925L63.8261 30.1702C63.3075 30.4703 63.2511 30.966 63.2511 31.1661C63.2511 31.3662 63.3075 31.863 63.8261 32.162L74.1795 38.1397C74.4739 38.3099 74.8132 38.3421 75.1352 38.2305C75.4526 38.1213 75.6952 37.8901 75.8194 37.5808C76.6371 35.5418 77.0511 33.3844 77.0511 31.1672C77.0511 28.95 76.6371 26.7915 75.8194 24.7537C75.6952 24.4443 75.4526 24.2132 75.1352 24.1039C75.0098 24.0602 74.881 24.0384 74.7545 24.0384L74.7534 24.0361Z" fill="black"/>
<mask id="mask0_1623_6511" style="mask-type:luminance" maskUnits="userSpaceOnUse" x="62" y="22" width="17" height="18">
<path d="M78.2 31.1649C78.2 33.5833 77.7342 35.8914 76.8855 38.0074C76.3657 39.3034 74.8121 39.8324 73.6034 39.1344L63.25 33.1567C61.717 32.2712 61.717 30.0586 63.25 29.1731L73.6034 23.1954C74.8132 22.4973 76.3657 23.0263 76.8855 24.3224C77.7331 26.4372 78.2 28.7464 78.2 31.1649Z" fill="white"/>
</mask>
<g mask="url(#mask0_1623_6511)">
<path d="M58.65 42.5498C65.0013 42.5498 70.15 37.4011 70.15 31.0498C70.15 24.6985 65.0013 19.5498 58.65 19.5498C52.2987 19.5498 47.15 24.6985 47.15 31.0498C47.15 37.4011 52.2987 42.5498 58.65 42.5498Z" fill="white"/>
</g>
<path d="M74.7557 40.5926C74.1554 40.5926 73.5597 40.4362 73.0284 40.1292L62.675 34.1515C61.5951 33.5282 60.95 32.4115 60.95 31.1638C60.95 29.916 61.5951 28.7994 62.675 28.1761L73.0284 22.1984C73.8967 21.697 74.9385 21.5981 75.8862 21.9258C76.8292 22.2524 77.5824 22.9689 77.9538 23.8935C78.8807 26.205 79.3499 28.651 79.3499 31.1638C79.3499 33.6765 78.8796 36.1214 77.9538 38.4341C77.5835 39.3587 76.8303 40.0763 75.8862 40.4017C75.5182 40.5294 75.1363 40.5915 74.7557 40.5915V40.5926ZM74.7534 24.0361C74.5545 24.0361 74.3589 24.089 74.1795 24.1925L63.8261 30.1702C63.3075 30.4703 63.2511 30.966 63.2511 31.1661C63.2511 31.3662 63.3075 31.863 63.8261 32.162L74.1795 38.1397C74.4739 38.3099 74.8132 38.3421 75.1352 38.2305C75.4526 38.1213 75.6952 37.8901 75.8194 37.5808C76.6371 35.5418 77.0511 33.3844 77.0511 31.1672C77.0511 28.95 76.6371 26.7915 75.8194 24.7537C75.6952 24.4443 75.4526 24.2132 75.1352 24.1039C75.0098 24.0602 74.881 24.0384 74.7545 24.0384L74.7534 24.0361Z" fill="black"/>
</g>
</svg>
