<?xml version="1.0" encoding="UTF-8"?>
<svg xmlns="http://www.w3.org/2000/svg" xmlns:xlink="http://www.w3.org/1999/xlink" viewBox="0 0 800 800">
  <defs>
    <style>
      .cls-1 {
        fill: #e0eaca;
      }

      .cls-1, .cls-2, .cls-3, .cls-4, .cls-5, .cls-6, .cls-7, .cls-8, .cls-9, .cls-10 {
        stroke-width: 0px;
      }

      .cls-2, .cls-5 {
        fill: #6f6784;
      }

      .cls-3 {
        fill: #a9d182;
      }

      .cls-11 {
        isolation: isolate;
      }

      .cls-5 {
        opacity: .5;
      }

      .cls-5, .cls-12 {
        mix-blend-mode: multiply;
      }

      .cls-6 {
        fill: none;
      }

      .cls-7 {
        fill: #fff4b6;
      }

      .cls-13 {
        clip-path: url(#clippath);
      }

      .cls-8 {
        fill: #f4bd45;
      }

      .cls-9 {
        fill: #bbdb83;
      }

      .cls-10 {
        fill: #fcda86;
      }
    </style>
    <clipPath id="clippath">
      <path class="cls-6" d="M680,271c0,21.03-4.05,41.1-11.43,59.5-4.52,11.27-18.03,15.87-28.54,9.8l-90.03-51.98c-13.33-7.7-13.33-26.94,0-34.64l90.03-51.98c10.52-6.07,24.02-1.47,28.54,9.8,7.37,18.39,11.43,38.47,11.43,59.5Z"/>
    </clipPath>
  </defs>
  <g class="cls-11">
    <g id="Layer_2" data-name="Layer 2">
      <g id="_과일" data-name="과일">
        <g id="_과일-2" data-name="과일">
          <g id="hover">
            <g>
              <path class="cls-3" d="M690,400c0,160.16-129.84,290-290,290S110,560.16,110,400h40c0,66.78,26,129.56,73.22,176.78s110,73.22,176.78,73.22,129.56-26,176.78-73.22,73.22-110,73.22-176.78h40Z"/>
              <path class="cls-4" d="M400,700c-80.13,0-155.47-31.21-212.13-87.87-56.66-56.66-87.87-132-87.87-212.13,0-5.52,4.48-10,10-10h40c5.52,0,10,4.48,10,10,0,64.11,24.96,124.38,70.29,169.71,45.33,45.33,105.6,70.29,169.71,70.29s124.38-24.96,169.71-70.29c45.33-45.33,70.29-105.6,70.29-169.71,0-5.52,4.48-10,10-10h40c5.52,0,10,4.48,10,10,0,80.13-31.21,155.47-87.87,212.13-56.66,56.66-132,87.87-212.13,87.87ZM120.18,410c5.28,149.78,128.78,270,279.82,270s274.54-120.22,279.82-270h-20.01c-2.47,65.7-29.22,127.11-75.96,173.85-49.11,49.11-114.4,76.15-183.85,76.15s-134.75-27.04-183.85-76.15-73.49-108.15-75.96-173.85h-20.01Z"/>
            </g>
            <g>
              <path class="cls-10" d="M650,400c0,66.78-26,129.56-73.22,176.78s-110,73.22-176.78,73.22-129.56-26-176.78-73.22-73.22-110-73.22-176.78h160c0,24.04,9.36,46.64,26.36,63.64s39.6,26.36,63.64,26.36,46.64-9.36,63.64-26.36,26.36-39.6,26.36-63.64h160Z"/>
              <path class="cls-4" d="M400,660c-69.45,0-134.75-27.04-183.85-76.15s-76.15-114.4-76.15-183.85c0-5.52,4.48-10,10-10h160c5.52,0,10,4.48,10,10,0,21.37,8.32,41.46,23.43,56.57,15.11,15.11,35.2,23.43,56.57,23.43s41.46-8.32,56.57-23.43c15.11-15.11,23.43-35.2,23.43-56.57,0-5.52,4.48-10,10-10h160c5.52,0,10,4.48,10,10,0,69.45-27.04,134.75-76.15,183.85s-114.4,76.15-183.85,76.15ZM160.2,410c2.46,60.36,27.13,116.75,70.09,159.71,45.33,45.33,105.6,70.29,169.71,70.29s124.38-24.96,169.71-70.29c42.96-42.96,67.63-99.35,70.09-159.71h-140.29c-2.26,22.93-12.29,44.2-28.8,60.71-18.89,18.89-44,29.29-70.71,29.29s-51.82-10.4-70.71-29.29c-16.51-16.51-26.54-37.78-28.8-60.71h-140.29Z"/>
            </g>
            <g>
              <path class="cls-8" d="M490,400c0,24.04-9.36,46.64-26.36,63.64s-39.6,26.36-63.64,26.36-46.64-9.36-63.64-26.36-26.36-39.6-26.36-63.64c0,8.01,9.36,15.55,26.36,21.21,17,5.67,39.6,8.79,63.64,8.79s46.64-3.12,63.64-8.79c17-5.66,26.36-13.2,26.36-21.21Z"/>
              <path class="cls-4" d="M400,500c-26.71,0-51.82-10.4-70.71-29.29-18.89-18.89-29.29-44-29.29-70.71,0-5.52,4.48-10,10-10s10,4.48,10,10c0,.86,3.39,6.35,19.52,11.72,16.01,5.34,37.48,8.28,60.48,8.28s44.47-2.94,60.48-8.28c16.13-5.37,19.52-10.86,19.52-11.72,0-5.52,4.48-10,10-10s10,4.48,10,10c0,26.71-10.4,51.82-29.29,70.71-18.89,18.89-44,29.29-70.71,29.29ZM324.84,427.54c3.94,10.78,10.23,20.67,18.59,29.03,15.11,15.11,35.2,23.43,56.57,23.43s41.46-8.32,56.57-23.43c8.36-8.36,14.64-18.25,18.59-29.03-2.53,1.09-5.31,2.15-8.36,3.16-17.98,6-41.71,9.3-66.8,9.3s-48.82-3.3-66.8-9.3c-3.04-1.01-5.82-2.07-8.35-3.16Z"/>
            </g>
            <g>
              <g>
                <path class="cls-7" d="M280.17,260c0,14.57-2.72,29.01-9.53,40.78s-19.06,20.49-31.2,27.52-24.86,12.98-39.43,12.98-27.84-5.85-39.61-12.66c-12.14-7.02-22.3-16.67-29.33-28.81-6.81-11.77-10.23-25.22-10.23-39.8s2.1-28.8,8.91-40.57,18.75-20.61,30.89-27.64,24.8-11.75,39.37-11.75,27.73,4.72,39.5,11.53c12.14,7.02,22.1,16.66,29.12,28.81,6.81,11.77,11.54,25.04,11.54,39.62Z"/>
                <path class="cls-4" d="M200,351.28c-18.29,0-34.23-7.99-44.62-14.01-14.16-8.19-25.25-19.11-32.97-32.46-7.68-13.28-11.58-28.35-11.58-44.81,0-18.74,3.35-33.65,10.25-45.57,8.71-15.06,23.03-24.63,34.54-31.29,15.23-8.81,29.74-13.09,44.38-13.09s29.53,4.21,44.51,12.87c13.96,8.07,24.98,18.99,32.77,32.45,8.55,14.78,12.89,29.8,12.89,44.62,0,17.91-3.66,33.32-10.88,45.79-8.43,14.57-22.35,23.93-34.85,31.17-12.24,7.08-27.09,14.32-44.44,14.32ZM200,190.05c-11.03,0-22.27,3.4-34.37,10.4-9.35,5.41-20.9,13.03-27.24,23.99-5.09,8.8-7.56,20.43-7.56,35.56,0,12.89,2.99,24.6,8.89,34.79,5.95,10.28,14.59,18.75,25.68,25.17,13.53,7.83,24.2,11.32,34.6,11.32,12.61,0,24.48-5.88,34.42-11.63,10.22-5.91,21.48-13.37,27.56-23.87,5.36-9.26,8.19-21.63,8.19-35.77,0-11.42-3.34-22.74-10.2-34.61-6.01-10.39-14.58-18.86-25.47-25.16-11.85-6.85-23.13-10.19-34.49-10.19Z"/>
              </g>
              <g class="cls-12">
                <path class="cls-7" d="M240.13,260c0,11.05-4.32,21.33-11.56,28.57s-17.52,12.03-28.57,12.03-21.12-5-28.36-12.24-11.72-17.32-11.72-28.36,4.01-21.59,11.25-28.83,17.79-10.59,28.83-10.59,21.5,3.45,28.74,10.69,11.39,17.69,11.39,28.74Z"/>
              </g>
            </g>
            <g>
              <circle class="cls-2" cx="400" cy="190" r="60"/>
              <path class="cls-4" d="M400,260c-38.6,0-70-31.4-70-70s31.4-70,70-70,70,31.4,70,70-31.4,70-70,70ZM400,140c-27.57,0-50,22.43-50,50s22.43,50,50,50,50-22.43,50-50-22.43-50-50-50Z"/>
            </g>
            <circle class="cls-5" cx="420" cy="170" r="10"/>
            <g>
              <path class="cls-9" d="M680,271c0,21.03-4.05,41.1-11.43,59.5-4.52,11.27-18.03,15.87-28.54,9.8l-90.03-51.98c-13.33-7.7-13.33-26.94,0-34.64l90.03-51.98c10.52-6.07,24.02-1.47,28.54,9.8,7.37,18.39,11.43,38.47,11.43,59.5Z"/>
              <path class="cls-4" d="M650.05,352.98c-5.22,0-10.4-1.36-15.02-4.03l-90.03-51.98c-9.39-5.42-15-15.13-15-25.98s5.61-20.56,15-25.98l90.03-51.98c7.55-4.36,16.61-5.22,24.85-2.37,8.2,2.84,14.75,9.07,17.98,17.11,8.06,20.1,12.14,41.37,12.14,63.22s-4.09,43.11-12.14,63.22c-3.22,8.04-9.77,14.28-17.98,17.11-3.2,1.11-6.52,1.65-9.83,1.65ZM650.03,209.01c-1.73,0-3.43.46-4.99,1.36l-90.03,51.98c-4.51,2.61-5,6.92-5,8.66s.49,6.06,5,8.66l90.03,51.98c2.56,1.48,5.51,1.76,8.31.79,2.76-.95,4.87-2.96,5.95-5.65,7.11-17.73,10.71-36.49,10.71-55.77s-3.6-38.05-10.71-55.77c-1.08-2.69-3.19-4.7-5.95-5.65-1.09-.38-2.21-.57-3.31-.57Z"/>
            </g>
            <g class="cls-13">
              <circle class="cls-1" cx="510" cy="270" r="100"/>
            </g>
            <path class="cls-4" d="M650.05,352.98c-5.22,0-10.4-1.36-15.02-4.03l-90.03-51.98c-9.39-5.42-15-15.13-15-25.98s5.61-20.56,15-25.98l90.03-51.98c7.55-4.36,16.61-5.22,24.85-2.37,8.2,2.84,14.75,9.07,17.98,17.11,8.06,20.1,12.14,41.37,12.14,63.22s-4.09,43.11-12.14,63.22c-3.22,8.04-9.77,14.28-17.98,17.11-3.2,1.11-6.52,1.65-9.83,1.65ZM650.03,209.01c-1.73,0-3.43.46-4.99,1.36l-90.03,51.98c-4.51,2.61-5,6.92-5,8.66s.49,6.06,5,8.66l90.03,51.98c2.56,1.48,5.51,1.76,8.31.79,2.76-.95,4.87-2.96,5.95-5.65,7.11-17.73,10.71-36.49,10.71-55.77s-3.6-38.05-10.71-55.77c-1.08-2.69-3.19-4.7-5.95-5.65-1.09-.38-2.21-.57-3.31-.57Z"/>
          </g>
          <rect id="frame" class="cls-6" width="800" height="800"/>
        </g>
      </g>
    </g>
  </g>
</svg>