<?xml version="1.0" encoding="UTF-8"?>
<svg id="Layer_2" data-name="Layer 2" xmlns="http://www.w3.org/2000/svg" viewBox="0 0 800 800">
  <defs>
    <style>
      .cls-1 {
        fill: #846e5f;
      }

      .cls-1, .cls-2, .cls-3, .cls-4, .cls-5, .cls-6 {
        stroke-width: 0px;
      }

      .cls-3 {
        fill: #d9a26c;
      }

      .cls-4 {
        fill: none;
      }

      .cls-5 {
        fill: #fddf89;
      }

      .cls-6 {
        fill: #bca179;
      }
    </style>
  </defs>
  <g id="_마른_안주" data-name="마른 안주">
    <g id="_마른_안주-2" data-name="마른 안주">
      <g id="hover">
        <g>
          <g>
            <path class="cls-6" d="M678.15,375.53c-6.85,18.83-29.95,28.9-40.57,44.46-11.26,16.49-12.6,41.61-27.01,53.81-15.21,12.87-40.14,9.7-57.59,17.07s-33.78,27.53-52.96,28.4-36.13-17.39-54.81-24.19c-18.69-6.8-43.4-3.7-57.54-16.7-14.13-12.99-13.31-38.21-22.31-55.8-8.63-16.86-29.77-30.46-33.14-50.09-3.2-18.61,11.92-38.71,13.9-58.58,1.86-18.74-9.35-41.31-2.5-60.13,6.85-18.83,29.95-28.9,40.57-44.46,11.26-16.49,12.6-41.61,27.01-53.81,15.21-12.87,40.14-9.7,57.59-17.07,18.2-7.68,33.78-27.53,52.96-28.4s36.13,17.39,54.81,24.19c18.69,6.8,43.4,3.7,57.54,16.7,14.13,12.99,13.31,38.21,22.31,55.8s29.77,30.46,33.14,50.09c3.2,18.61-11.92,38.71-13.9,58.58-1.86,18.74,9.35,41.31,2.5,60.13Z"/>
            <path class="cls-2" d="M498.66,529.29c-14.2,0-26.28-7.47-37.97-14.7-6.56-4.06-12.76-7.9-18.89-10.12-6.12-2.23-13.34-3.28-20.97-4.38-14.19-2.06-28.86-4.19-39.92-14.35-10.77-9.9-14.27-23.98-17.66-37.59-1.93-7.77-3.76-15.1-6.78-21.01-2.89-5.64-7.82-11.27-13.04-17.22-8.7-9.92-18.55-21.17-21.06-35.73-2.31-13.4,2.53-26.19,7.2-38.55,3.03-8.02,5.9-15.6,6.6-22.71.64-6.43-.7-14.05-2.12-22.11-2.22-12.63-4.74-26.94.18-40.45,4.92-13.51,16.05-22.85,25.87-31.1,6.27-5.27,12.19-10.24,15.84-15.58,4.03-5.9,6.71-13.54,9.54-21.64,4.37-12.48,8.89-25.38,19.27-34.16,11.28-9.54,26.06-11.82,39.1-13.83,7.83-1.21,15.22-2.35,21.06-4.81,6.12-2.58,12.23-7.03,18.7-11.74,11.35-8.25,23.08-16.78,37.69-17.45,14.99-.68,27.61,7.12,39.8,14.66,6.56,4.06,12.76,7.9,18.89,10.12,6.12,2.23,13.34,3.28,20.97,4.38,14.19,2.06,28.86,4.19,39.92,14.35,10.77,9.9,14.27,23.98,17.66,37.59,1.93,7.77,3.76,15.1,6.78,21.01,2.89,5.64,7.82,11.27,13.04,17.22,8.7,9.92,18.55,21.17,21.06,35.73,2.31,13.4-2.53,26.19-7.2,38.55-3.03,8.02-5.9,15.6-6.6,22.71-.64,6.43.7,14.05,2.12,22.11,2.22,12.63,4.74,26.94-.18,40.45-4.92,13.51-16.05,22.85-25.87,31.1-6.27,5.27-12.19,10.24-15.84,15.58-4.03,5.9-6.71,13.54-9.54,21.64-4.37,12.48-8.89,25.38-19.27,34.16-11.28,9.54-26.06,11.82-39.1,13.83-7.83,1.21-15.22,2.35-21.06,4.81-6.12,2.58-12.23,7.03-18.7,11.74-11.35,8.25-23.08,16.78-37.69,17.45-.61.03-1.22.04-1.83.04ZM523.06,120c-.29,0-.57,0-.86.02-8.61.39-17.46,6.83-26.83,13.64-7.1,5.17-14.45,10.51-22.68,13.98-8.12,3.43-17.1,4.81-25.79,6.15-11.44,1.77-22.25,3.43-29.23,9.33-6.23,5.27-9.67,15.1-13.31,25.51-3.14,8.96-6.38,18.23-11.9,26.31-5.19,7.61-12.46,13.71-19.49,19.61-8.66,7.27-16.85,14.15-19.93,22.62-3.09,8.48-1.23,19,.73,30.14,1.59,9.04,3.24,18.39,2.33,27.56-.97,9.73-4.44,18.92-7.79,27.8-3.9,10.31-7.58,20.06-6.2,28.1,1.55,9,8.76,17.23,16.39,25.94,5.79,6.61,11.79,13.45,15.8,21.29,4.07,7.96,6.27,16.77,8.39,25.29,2.8,11.24,5.44,21.86,11.79,27.7,6.5,5.98,17.55,7.58,29.25,9.28,8.3,1.21,16.89,2.45,24.94,5.38s15.43,7.5,22.57,11.91c10.05,6.22,19.57,12.1,28.37,11.69,8.61-.39,17.46-6.83,26.83-13.64,7.1-5.17,14.45-10.51,22.68-13.98,8.12-3.43,17.1-4.81,25.79-6.15,11.44-1.77,22.25-3.43,29.23-9.33,6.23-5.27,9.67-15.1,13.31-25.51,3.14-8.96,6.38-18.23,11.9-26.31,5.19-7.61,12.46-13.71,19.49-19.61,8.66-7.27,16.85-14.15,19.93-22.62h0c3.09-8.48,1.23-19-.73-30.14-1.59-9.04-3.24-18.39-2.33-27.56.97-9.73,4.44-18.92,7.79-27.8,3.9-10.31,7.58-20.06,6.2-28.1-1.55-9-8.76-17.23-16.39-25.94-5.79-6.61-11.79-13.45-15.8-21.29-4.07-7.96-6.27-16.77-8.39-25.29-2.8-11.24-5.44-21.86-11.79-27.7-6.5-5.98-17.55-7.58-29.25-9.28-8.3-1.21-16.89-2.45-24.94-5.38s-15.43-7.5-22.57-11.91c-9.73-6.02-18.93-11.71-27.51-11.71Z"/>
          </g>
          <g>
            <path class="cls-1" d="M591.32,257.15c-1.15,0-2.31-.2-3.42-.6-3.36-1.22-5.81-4.14-6.43-7.66l-11.51-65.28c-.96-5.44,2.67-10.63,8.11-11.58,5.44-.96,10.63,2.67,11.58,8.11l8.5,48.22,16.68-14c4.23-3.55,10.54-3,14.09,1.23s3,10.54-1.23,14.09l-29.95,25.13c-1.83,1.53-4.11,2.34-6.43,2.34Z"/>
            <path class="cls-1" d="M609.55,360.56c-1.15,0-2.31-.2-3.42-.6-3.36-1.22-5.81-4.14-6.43-7.66l-18.23-103.4c-.62-3.52.68-7.1,3.42-9.4l29.95-25.13c4.23-3.55,10.54-3,14.09,1.23s3,10.54-1.23,14.09l-25.53,21.42,14.22,80.66,19.05-15.98c4.23-3.55,10.54-3,14.09,1.23,3.55,4.23,3,10.54-1.23,14.09l-32.32,27.12c-1.83,1.53-4.11,2.34-6.43,2.34Z"/>
            <path class="cls-1" d="M430.45,392.14c-1.15,0-2.31-.2-3.42-.6-3.36-1.22-5.81-4.14-6.43-7.66l-18.23-103.4c-.62-3.52.68-7.1,3.42-9.4l80.43-67.49c2.74-2.3,6.49-2.96,9.85-1.74,3.36,1.22,5.81,4.14,6.43,7.66l18.23,103.4c.62,3.52-.68,7.1-3.42,9.4l-80.43,67.49c-1.83,1.53-4.11,2.34-6.43,2.34ZM423.07,282.68l14.22,80.66,62.74-52.65-14.22-80.66-62.74,52.65Z"/>
            <path class="cls-1" d="M529.12,428.05c-1.15,0-2.31-.2-3.42-.6-3.36-1.22-5.81-4.14-6.43-7.66l-18.23-103.4c-.62-3.52.68-7.1,3.42-9.4l80.43-67.49c2.74-2.3,6.49-2.96,9.85-1.74,3.36,1.22,5.81,4.14,6.43,7.66l18.23,103.4c.62,3.52-.68,7.1-3.42,9.4l-80.43,67.49c-1.83,1.53-4.11,2.34-6.43,2.34ZM521.74,318.6l14.22,80.66,62.74-52.65-14.22-80.66-62.74,52.65Z"/>
            <path class="cls-1" d="M616.87,402.1c-4.76,0-8.98-3.41-9.84-8.27l-7.33-41.54c-.62-3.52.68-7.1,3.42-9.4l32.32-27.12c4.23-3.55,10.54-3,14.09,1.23,3.55,4.23,3,10.54-1.23,14.09l-27.89,23.41,6.32,35.86c.96,5.44-2.67,10.63-8.11,11.58-.59.1-1.17.15-1.75.15Z"/>
            <path class="cls-1" d="M535.9,466.56c-4.76,0-8.98-3.41-9.84-8.27l-6.79-38.5c-.62-3.52.68-7.1,3.42-9.4l80.43-67.49c2.74-2.3,6.49-2.96,9.85-1.74,3.36,1.22,5.81,4.14,6.43,7.66l7.33,41.54c.96,5.44-2.67,10.63-8.11,11.58-5.44.96-10.63-2.67-11.58-8.11l-4.32-24.49-62.74,52.65,5.79,32.82c.96,5.44-2.67,10.63-8.11,11.58-.59.1-1.17.15-1.75.15Z"/>
            <path class="cls-1" d="M492.65,221.24c-1.15,0-2.31-.2-3.42-.6-3.36-1.22-5.81-4.14-6.43-7.66l-6.79-38.5c-.96-5.44,2.67-10.63,8.11-11.58,5.44-.96,10.63,2.67,11.58,8.11l3.78,21.45,37.51-31.47c4.23-3.55,10.54-3,14.09,1.23,3.55,4.23,3,10.54-1.23,14.09l-50.78,42.61c-1.83,1.53-4.11,2.34-6.43,2.34Z"/>
            <path class="cls-1" d="M441.95,457.42c-4.76,0-8.98-3.41-9.84-8.27l-8.5-48.22-16.68,14c-4.23,3.55-10.54,3-14.09-1.23s-3-10.54,1.23-14.09l29.95-25.13c2.74-2.3,6.49-2.96,9.85-1.74,3.36,1.22,5.81,4.14,6.43,7.66l11.51,65.28c.96,5.44-2.67,10.63-8.11,11.58-.59.1-1.17.15-1.75.15Z"/>
            <path class="cls-1" d="M478.35,470.66c-2.85,0-5.69-1.21-7.67-3.57-3.55-4.23-3-10.54,1.23-14.09l50.78-42.61c2.74-2.3,6.49-2.96,9.85-1.74,3.36,1.22,5.81,4.14,6.43,7.66l6.79,38.5c.96,5.44-2.67,10.63-8.11,11.58-5.44.96-10.63-2.67-11.58-8.11l-3.78-21.45-37.51,31.47c-1.87,1.57-4.15,2.34-6.42,2.34Z"/>
            <path class="cls-1" d="M478.35,470.66c-2.85,0-5.69-1.21-7.67-3.57-3.55-4.23-3-10.54,1.23-14.09l46.35-38.89-14.22-80.66-62.74,52.65,10.51,59.59c.96,5.44-2.67,10.63-8.11,11.58-5.43.96-10.62-2.67-11.58-8.11l-11.51-65.28c-.62-3.52.68-7.1,3.42-9.4l80.43-67.49c2.74-2.3,6.49-2.96,9.85-1.74s5.81,4.14,6.43,7.66l18.23,103.4c.62,3.52-.68,7.1-3.42,9.4l-50.78,42.61c-1.87,1.57-4.15,2.34-6.42,2.34Z"/>
            <path class="cls-1" d="M412.22,288.73c-1.15,0-2.31-.2-3.42-.6-3.36-1.22-5.81-4.14-6.43-7.66l-7.33-41.54c-.96-5.44,2.67-10.63,8.11-11.58,5.44-.96,10.63,2.67,11.58,8.11l4.32,24.49,62.74-52.65-5.79-32.82c-.96-5.44,2.67-10.63,8.11-11.58,5.44-.96,10.63,2.67,11.58,8.11l6.79,38.5c.62,3.52-.68,7.1-3.42,9.4l-80.43,67.49c-1.83,1.53-4.11,2.34-6.43,2.34Z"/>
            <path class="cls-1" d="M379.91,315.85c-2.85,0-5.69-1.21-7.67-3.57-3.55-4.23-3-10.54,1.23-14.09l27.89-23.41-6.32-35.86c-.96-5.44,2.67-10.63,8.11-11.58,5.44-.96,10.63,2.67,11.58,8.11l7.33,41.54c.62,3.52-.68,7.1-3.42,9.4l-32.32,27.12c-1.87,1.57-4.15,2.34-6.42,2.34Z"/>
            <path class="cls-1" d="M400.51,417.27c-2.85,0-5.69-1.21-7.67-3.57-3.55-4.23-3-10.54,1.23-14.09l25.53-21.42-14.22-80.66-19.05,15.98c-4.23,3.55-10.54,3-14.09-1.23-3.55-4.23-3-10.54,1.23-14.09l32.32-27.12c2.74-2.3,6.49-2.96,9.85-1.74,3.36,1.22,5.81,4.14,6.43,7.66l18.23,103.4c.62,3.52-.68,7.1-3.42,9.4l-29.95,25.13c-1.87,1.57-4.15,2.34-6.42,2.34Z"/>
          </g>
        </g>
        <g>
          <g>
            <path class="cls-5" d="M341.9,248.59c96.65,167.4,128.47,329.97,71.08,363.11-57.39,33.13-182.27-75.71-278.92-243.11-6.48-11.22-11.62-22.75-15.48-34.37,17.26,9.29,50.24,5.6,86.68-9.45-26.47-2.34-56.86-17.75-86.67-43.22-2.86-2.45-5.73-5-8.58-7.63,1.97-40.56,20.25-76.33,52.97-95.23,32.73-18.89,72.85-16.84,108.95,1.74.86,3.79,1.63,7.55,2.32,11.24,7.16,38.56,5.3,72.58-5.9,96.67,31.25-24.03,50.94-50.75,51.53-70.34,8.13,9.15,15.55,19.37,22.02,30.59Z"/>
            <path class="cls-2" d="M417.97,620.36c-16.77,9.68-37.89,9.75-62.78.21-22.29-8.54-47.03-24.59-73.53-47.69-53.49-46.62-108.99-117.4-156.27-199.29-6.69-11.59-12.18-23.78-16.31-36.22-1.29-3.89-.08-8.17,3.06-10.81,3.14-2.63,7.56-3.09,11.17-1.15,9.55,5.14,26.41,5.11,46.44.44-18.69-7.68-38.17-20.04-57.68-36.71-3.03-2.6-6.02-5.25-8.87-7.9-2.17-2.01-3.34-4.87-3.2-7.82,2.22-45.72,23.34-83.41,57.96-103.4,34.62-19.99,77.82-19.44,118.53,1.5,2.63,1.35,4.52,3.8,5.18,6.68.86,3.79,1.67,7.7,2.4,11.62,4.68,25.23,5.65,48.3,2.96,68.32,14.06-15.01,22.52-29.6,22.84-40.44.12-4.1,2.72-7.7,6.58-9.1,3.85-1.4,8.17-.31,10.89,2.75,8.71,9.8,16.52,20.64,23.21,32.23,47.28,81.89,80.83,165.35,94.46,234.98,6.75,34.5,8.28,63.95,4.53,87.52-4.18,26.33-14.81,44.58-31.57,54.26ZM135.09,348.87c2.3,5,4.84,9.92,7.62,14.73,46.21,80.03,100.22,149.01,152.09,194.22,48.5,42.27,89.74,58.76,113.17,45.23,23.42-13.52,29.77-57.49,17.41-120.62-13.22-67.53-45.94-148.79-92.15-228.83-2.78-4.81-5.76-9.47-8.94-13.96-8.37,18.14-25.78,38.14-49.85,56.64-3.65,2.81-8.75,2.76-12.35-.12s-4.76-7.84-2.81-12.02c10.12-21.76,11.95-53.95,5.14-90.63-.39-2.08-.8-4.17-1.24-6.24-33.27-15.74-67.74-15.77-95.21.09-27.47,15.86-44.68,45.72-47.68,82.41,1.57,1.41,3.18,2.81,4.79,4.2,28.35,24.23,57.14,38.74,81.05,40.86,4.59.41,8.31,3.89,9,8.45.7,4.55-1.81,8.99-6.07,10.75-28.06,11.59-54.08,16.67-73.98,14.85Z"/>
          </g>
          <g>
            <path class="cls-5" d="M411.99,622.68h10c5.52,0,10,4.48,10,10v10c0,22.08-17.92,40-40,40h-10c-5.52,0-10-4.48-10-10v-10c0-22.08,17.92-40,40-40Z" transform="translate(-272.48 288.44) rotate(-30)"/>
            <path class="cls-2" d="M413.33,692.32l-8.66,5c-9.55,5.51-21.81,2.23-27.32-7.32l-5-8.66c-13.79-23.88-5.58-54.52,18.3-68.3l8.66-5c9.55-5.51,21.81-2.23,27.32,7.32l5,8.66c13.79,23.88,5.58,54.52-18.3,68.3ZM400.65,630.36c-14.33,8.27-19.25,26.65-10.98,40.98l5,8.66,8.66-5c14.33-8.27,19.25-26.65,10.98-40.98l-5-8.66-8.66,5Z"/>
          </g>
          <g>
            <path class="cls-5" d="M433.96,592.68h10c22.08,0,40,17.92,40,40v10c0,5.52-4.48,10-10,10h-10c-22.08,0-40-17.92-40-40v-10c0-5.52,4.48-10,10-10Z" transform="translate(1158.43 934.97) rotate(150)"/>
            <path class="cls-2" d="M491.28,647.32l-8.66,5c-23.88,13.79-54.52,5.58-68.3-18.3l-5-8.66c-5.51-9.55-2.23-21.81,7.32-27.32l8.66-5c23.88-13.79,54.52-5.58,68.3,18.3l5,8.66c5.51,9.55,2.23,21.81-7.32,27.32ZM426.64,615.36l5,8.66c8.27,14.33,26.65,19.25,40.98,10.98l8.66-5s.01,0,.01,0l-5.01-8.65c-8.27-14.33-26.65-19.25-40.98-10.98l-8.66,5Z"/>
          </g>
          <circle class="cls-2" cx="171.99" cy="254.31" r="10"/>
          <circle class="cls-2" cx="223.96" cy="224.31" r="10"/>
          <path class="cls-2" d="M254.37,212.53c-3.72,2.15-8.56,1.72-11.85-1.38-26.75-25.16-56.01-34.5-74.54-23.8-18.53,10.7-25.07,40.71-16.66,76.46,1.26,5.38-2.07,10.76-7.44,12.02-5.38,1.26-10.76-2.07-12.02-7.44-10.64-45.22-.63-82.91,26.13-98.36,26.75-15.45,64.4-5.27,98.24,26.55,4.02,3.78,4.22,10.11.44,14.14-.69.73-1.46,1.34-2.29,1.81Z"/>
          <g>
            <path class="cls-3" d="M387.97,568.4c-4.78,2.76-10.9,1.12-13.66-3.66l-130-225.17c-2.76-4.78-1.12-10.9,3.66-13.66,4.78-2.76,10.9-1.12,13.66,3.66l130,225.17c2.76,4.78,1.12,10.9-3.66,13.66Z"/>
            <g>
              <g>
                <path class="cls-3" d="M297.62,331.9c-2.22,1.28-4.92,1.71-7.59,1l-13.66-3.66c-5.33-1.43-8.5-6.91-7.07-12.25,1.43-5.33,6.91-8.5,12.25-7.07l13.66,3.66c5.33,1.43,8.5,6.91,7.07,12.25-.71,2.67-2.44,4.79-4.66,6.07Z"/>
                <path class="cls-3" d="M323.6,316.9c-2.22,1.28-4.92,1.71-7.59,1-5.33-1.43-8.5-6.91-7.07-12.25l3.66-13.66c1.43-5.33,6.91-8.5,12.25-7.07,5.33,1.43,8.5,6.91,7.07,12.25l-3.66,13.66c-.71,2.67-2.44,4.79-4.66,6.07Z"/>
              </g>
              <g>
                <path class="cls-3" d="M317.62,366.54c-2.22,1.28-4.92,1.71-7.59,1l-13.66-3.66c-5.33-1.43-8.5-6.91-7.07-12.25,1.43-5.33,6.91-8.5,12.25-7.07l13.66,3.66c5.33,1.43,8.5,6.91,7.07,12.25-.71,2.67-2.44,4.79-4.66,6.07Z"/>
                <path class="cls-3" d="M343.6,351.54c-2.22,1.28-4.92,1.71-7.59,1-5.33-1.43-8.5-6.91-7.07-12.25l3.66-13.66c1.43-5.33,6.91-8.5,12.25-7.07,5.33,1.43,8.5,6.91,7.07,12.25l-3.66,13.66c-.71,2.67-2.44,4.79-4.66,6.07Z"/>
              </g>
              <g>
                <path class="cls-3" d="M337.62,401.18c-2.22,1.28-4.92,1.71-7.59,1l-13.66-3.66c-5.33-1.43-8.5-6.91-7.07-12.25,1.43-5.33,6.91-8.5,12.25-7.07l13.66,3.66c5.33,1.43,8.5,6.91,7.07,12.25-.71,2.67-2.44,4.79-4.66,6.07Z"/>
                <path class="cls-3" d="M363.6,386.18c-2.22,1.28-4.92,1.71-7.59,1-5.33-1.43-8.5-6.91-7.07-12.25l3.66-13.66c1.43-5.33,6.91-8.5,12.25-7.07,5.33,1.43,8.5,6.91,7.07,12.25l-3.66,13.66c-.71,2.67-2.44,4.79-4.66,6.07Z"/>
              </g>
              <g>
                <path class="cls-3" d="M357.62,435.82c-2.22,1.28-4.92,1.71-7.59,1l-13.66-3.66c-5.33-1.43-8.5-6.91-7.07-12.25,1.43-5.33,6.91-8.5,12.25-7.07l13.66,3.66c5.33,1.43,8.5,6.91,7.07,12.25-.71,2.67-2.44,4.79-4.66,6.07Z"/>
                <path class="cls-3" d="M383.6,420.82c-2.22,1.28-4.92,1.71-7.59,1-5.33-1.43-8.5-6.91-7.07-12.25l3.66-13.66c1.43-5.33,6.91-8.5,12.25-7.07,5.33,1.43,8.5,6.91,7.07,12.25l-3.66,13.66c-.71,2.67-2.44,4.79-4.66,6.07Z"/>
              </g>
              <g>
                <path class="cls-3" d="M377.62,470.46c-2.22,1.28-4.92,1.71-7.59,1l-13.66-3.66c-5.33-1.43-8.5-6.91-7.07-12.25,1.43-5.33,6.91-8.5,12.25-7.07l13.66,3.66c5.33,1.43,8.5,6.91,7.07,12.25-.71,2.67-2.44,4.79-4.66,6.07Z"/>
                <path class="cls-3" d="M394.94,460.46c-2.22,1.28-4.92,1.71-7.59,1-5.33-1.43-8.5-6.91-7.07-12.25l3.66-13.66c1.43-5.33,6.91-8.5,12.25-7.07,5.33,1.43,8.5,6.91,7.07,12.25l-3.66,13.66c-.71,2.67-2.44,4.79-4.66,6.07Z"/>
              </g>
              <g>
                <path class="cls-3" d="M397.62,505.1c-2.22,1.28-4.92,1.71-7.59,1l-13.66-3.66c-5.33-1.43-8.5-6.91-7.07-12.25,1.43-5.33,6.91-8.5,12.25-7.07l13.66,3.66c5.33,1.43,8.5,6.91,7.07,12.25-.71,2.67-2.44,4.79-4.66,6.07Z"/>
                <path class="cls-3" d="M406.28,500.1c-2.22,1.28-4.92,1.71-7.59,1-5.33-1.43-8.5-6.91-7.07-12.25l3.66-13.66c1.43-5.33,6.91-8.5,12.25-7.07,5.33,1.43,8.5,6.91,7.07,12.25l-3.66,13.66c-.71,2.67-2.44,4.79-4.66,6.07Z"/>
              </g>
              <g>
                <path class="cls-3" d="M417.62,539.74c-2.22,1.28-4.92,1.71-7.59,1l-13.66-3.66c-5.33-1.43-8.5-6.91-7.07-12.25,1.43-5.33,6.91-8.5,12.25-7.07l13.66,3.66c5.33,1.43,8.5,6.91,7.07,12.25-.71,2.67-2.44,4.79-4.66,6.07Z"/>
                <path class="cls-3" d="M417.62,539.74c-2.22,1.28-4.92,1.71-7.59,1-5.33-1.43-8.5-6.91-7.07-12.25l3.66-13.66c1.43-5.33,6.91-8.5,12.25-7.07,5.33,1.43,8.5,6.91,7.07,12.25l-3.66,13.66c-.71,2.67-2.44,4.79-4.66,6.07Z"/>
              </g>
            </g>
            <g>
              <g>
                <path class="cls-3" d="M228.33,371.9c-2.22,1.28-4.92,1.71-7.59,1-5.33-1.43-8.5-6.91-7.07-12.25l3.66-13.66c1.43-5.33,6.91-8.5,12.25-7.07,5.33,1.43,8.5,6.91,7.07,12.25l-3.66,13.66c-.71,2.67-2.44,4.79-4.66,6.07Z"/>
                <path class="cls-3" d="M202.35,386.9c-2.22,1.28-4.92,1.71-7.59,1l-13.66-3.66c-5.33-1.43-8.5-6.91-7.07-12.25,1.43-5.33,6.91-8.5,12.25-7.07l13.66,3.66c5.33,1.43,8.5,6.91,7.07,12.25-.71,2.67-2.44,4.79-4.66,6.07Z"/>
              </g>
              <g>
                <path class="cls-3" d="M248.33,406.54c-2.22,1.28-4.92,1.71-7.59,1-5.33-1.43-8.5-6.91-7.07-12.25l3.66-13.66c1.43-5.33,6.91-8.5,12.25-7.07,5.33,1.43,8.5,6.91,7.07,12.25l-3.66,13.66c-.71,2.67-2.44,4.79-4.66,6.07Z"/>
                <path class="cls-3" d="M222.35,421.54c-2.22,1.28-4.92,1.71-7.59,1l-13.66-3.66c-5.33-1.43-8.5-6.91-7.07-12.25,1.43-5.33,6.91-8.5,12.25-7.07l13.66,3.66c5.33,1.43,8.5,6.91,7.07,12.25-.71,2.67-2.44,4.79-4.66,6.07Z"/>
              </g>
              <g>
                <path class="cls-3" d="M268.33,441.18c-2.22,1.28-4.92,1.71-7.59,1-5.33-1.43-8.5-6.91-7.07-12.25l3.66-13.66c1.43-5.33,6.91-8.5,12.25-7.07,5.33,1.43,8.5,6.91,7.07,12.25l-3.66,13.66c-.71,2.67-2.44,4.79-4.66,6.07Z"/>
                <path class="cls-3" d="M242.35,456.18c-2.22,1.28-4.92,1.71-7.59,1l-13.66-3.66c-5.33-1.43-8.5-6.91-7.07-12.25,1.43-5.33,6.91-8.5,12.25-7.07l13.66,3.66c5.33,1.43,8.5,6.91,7.07,12.25-.71,2.67-2.44,4.79-4.66,6.07Z"/>
              </g>
              <g>
                <path class="cls-3" d="M288.33,475.82c-2.22,1.28-4.92,1.71-7.59,1-5.33-1.43-8.5-6.91-7.07-12.25l3.66-13.66c1.43-5.33,6.91-8.5,12.25-7.07,5.33,1.43,8.5,6.91,7.07,12.25l-3.66,13.66c-.71,2.67-2.44,4.79-4.66,6.07Z"/>
                <path class="cls-3" d="M262.35,490.82c-2.22,1.28-4.92,1.71-7.59,1l-13.66-3.66c-5.33-1.43-8.5-6.91-7.07-12.25,1.43-5.33,6.91-8.5,12.25-7.07l13.66,3.66c5.33,1.43,8.5,6.91,7.07,12.25-.71,2.67-2.44,4.79-4.66,6.07Z"/>
              </g>
              <g>
                <path class="cls-3" d="M308.33,510.46c-2.22,1.28-4.92,1.71-7.59,1-5.33-1.43-8.5-6.91-7.07-12.25l3.66-13.66c1.43-5.33,6.91-8.5,12.25-7.07,5.33,1.43,8.5,6.91,7.07,12.25l-3.66,13.66c-.71,2.67-2.44,4.79-4.66,6.07Z"/>
                <path class="cls-3" d="M291.01,520.46c-2.22,1.28-4.92,1.71-7.59,1l-13.66-3.66c-5.33-1.43-8.5-6.91-7.07-12.25,1.43-5.33,6.91-8.5,12.25-7.07l13.66,3.66c5.33,1.43,8.5,6.91,7.07,12.25-.71,2.67-2.44,4.79-4.66,6.07Z"/>
              </g>
              <g>
                <path class="cls-3" d="M328.33,545.1c-2.22,1.28-4.92,1.71-7.59,1-5.33-1.43-8.5-6.91-7.07-12.25l3.66-13.66c1.43-5.33,6.91-8.5,12.25-7.07,5.33,1.43,8.5,6.91,7.07,12.25l-3.66,13.66c-.71,2.67-2.44,4.79-4.66,6.07Z"/>
                <path class="cls-3" d="M319.67,550.1c-2.22,1.28-4.92,1.71-7.59,1l-13.66-3.66c-5.33-1.43-8.5-6.91-7.07-12.25,1.43-5.33,6.91-8.5,12.25-7.07l13.66,3.66c5.33,1.43,8.5,6.91,7.07,12.25-.71,2.67-2.44,4.79-4.66,6.07Z"/>
              </g>
              <g>
                <path class="cls-3" d="M348.33,579.74c-2.22,1.28-4.92,1.71-7.59,1-5.33-1.43-8.5-6.91-7.07-12.25l3.66-13.66c1.43-5.33,6.91-8.5,12.25-7.07,5.33,1.43,8.5,6.91,7.07,12.25l-3.66,13.66c-.71,2.67-2.44,4.79-4.66,6.07Z"/>
                <path class="cls-3" d="M348.33,579.74c-2.22,1.28-4.92,1.71-7.59,1l-13.66-3.66c-5.33-1.43-8.5-6.91-7.07-12.25,1.43-5.33,6.91-8.5,12.25-7.07l13.66,3.66c5.33,1.43,8.5,6.91,7.07,12.25-.71,2.67-2.44,4.79-4.66,6.07Z"/>
              </g>
            </g>
          </g>
        </g>
      </g>
      <rect id="frame" class="cls-4" width="800" height="800"/>
    </g>
  </g>
</svg>