<svg width="92" height="92" viewBox="0 0 92 92" fill="none" xmlns="http://www.w3.org/2000/svg">
<g opacity="0.65" clip-path="url(#clip0_1623_6385)">
<path d="M77.9872 43.1859C77.1994 45.3514 74.5429 46.5094 73.3216 48.2988C72.0267 50.1952 71.8726 53.084 70.2155 54.487C68.4663 55.967 65.5994 55.6025 63.5926 56.45C61.5859 57.2976 59.7079 59.616 57.5022 59.716C55.2965 59.8161 53.3473 57.7162 51.1991 56.9342C49.0497 56.1522 46.2081 56.5087 44.582 55.0137C42.957 53.5198 43.0513 50.6195 42.0163 48.5967C41.0239 46.6578 38.5928 45.0938 38.2052 42.8363C37.8372 40.6962 39.576 38.3847 39.8037 36.0996C40.0176 33.9445 38.7285 31.349 39.5162 29.1847C40.304 27.0192 42.9605 25.8612 44.1818 24.0718C45.4767 22.1754 45.6308 19.2866 47.2879 17.8836C49.0371 16.4036 51.904 16.7681 53.9108 15.9206C56.0038 15.0374 57.7955 12.7546 60.0012 12.6546C62.2069 12.5545 64.1561 14.6544 66.3043 15.4364C68.4537 16.2184 71.2953 15.8619 72.9214 17.3569C74.5464 18.8508 74.4521 21.7511 75.4871 23.7739C76.5221 25.7968 78.9106 27.2768 79.2982 29.5343C79.6662 31.6744 77.9274 33.9859 77.6997 36.271C77.4858 38.4261 78.7749 41.0216 77.9872 43.1859Z" fill="white"/>
<path d="M57.3458 60.8684C55.7128 60.8684 54.3236 60.0094 52.9793 59.1779C52.2249 58.711 51.5119 58.2694 50.8069 58.0141C50.1031 57.7577 49.2728 57.6369 48.3954 57.5104C46.7635 57.2735 45.0765 57.0286 43.8046 55.8602C42.566 54.7217 42.1635 53.1025 41.7737 51.5373C41.5517 50.6438 41.3413 49.8008 40.994 49.1212C40.6616 48.4726 40.0947 47.8251 39.4944 47.1409C38.4939 46.0001 37.3611 44.7063 37.0725 43.0319C36.8068 41.4909 37.3634 40.0201 37.9005 38.5987C38.2489 37.6764 38.579 36.8047 38.6595 35.987C38.7331 35.2476 38.579 34.3713 38.4157 33.4444C38.1604 31.9919 37.8706 30.3463 38.4364 28.7926C39.0022 27.239 40.2821 26.1649 41.4114 25.2161C42.1325 24.6101 42.8133 24.0385 43.233 23.4244C43.6965 22.7459 44.0047 21.8673 44.3301 20.9358C44.8327 19.5006 45.3525 18.0171 46.5462 17.0074C47.8434 15.9103 49.5431 15.6481 51.0427 15.417C51.9431 15.2778 52.793 15.1467 53.4646 14.8638C54.1684 14.5671 54.871 14.0554 55.6151 13.5137C56.9203 12.565 58.2693 11.584 59.9494 11.507C61.6733 11.4288 63.1246 12.3258 64.5264 13.1929C65.2808 13.6598 65.9938 14.1014 66.6988 14.3567C67.4026 14.6131 68.2329 14.7339 69.1103 14.8604C70.7422 15.0973 72.4292 15.3422 73.7011 16.5106C74.9397 17.6491 75.3422 19.2683 75.732 20.8335C75.954 21.727 76.1644 22.57 76.5117 23.2496C76.8441 23.8982 77.411 24.5457 78.0113 25.2299C79.0118 26.3707 80.1446 27.6645 80.4332 29.3389C80.6989 30.8799 80.1423 32.3507 79.6052 33.7721C79.2568 34.6944 78.9267 35.5661 78.8462 36.3838C78.7726 37.1232 78.9267 37.9995 79.09 38.9264C79.3453 40.3789 79.6351 42.0245 79.0693 43.5782C78.5035 45.1318 77.2236 46.2059 76.0943 47.1547C75.3732 47.7607 74.6924 48.3323 74.2727 48.9464C73.8092 49.6249 73.501 50.5035 73.1756 51.435C72.673 52.8702 72.1532 54.3537 70.9595 55.3634C69.6623 56.4605 67.9626 56.7227 66.463 56.9538C65.5626 57.093 64.7127 57.2241 64.0411 57.507C63.3373 57.8037 62.6347 58.3154 61.8906 58.8571C60.5854 59.8058 59.2364 60.7868 57.5563 60.8638C57.4861 60.8673 57.416 60.8684 57.3458 60.8684ZM60.1518 13.8001C60.1185 13.8001 60.0863 13.8001 60.0529 13.8024C59.0628 13.8472 58.045 14.5878 56.9675 15.371C56.151 15.9655 55.3057 16.5796 54.3593 16.9787C53.4255 17.3731 52.3928 17.5318 51.3934 17.6859C50.0778 17.8895 48.8347 18.0804 48.032 18.7589C47.3155 19.3649 46.9199 20.4954 46.5013 21.6925C46.1402 22.7229 45.7676 23.789 45.1328 24.7182C44.536 25.5933 43.6999 26.2948 42.8915 26.9733C41.8956 27.8094 40.9537 28.6006 40.5995 29.5746C40.2442 30.5498 40.4581 31.7596 40.6835 33.0407C40.8663 34.0803 41.0561 35.1556 40.9514 36.2101C40.8399 37.3291 40.4408 38.3859 40.0556 39.4071C39.6071 40.5928 39.1839 41.714 39.3426 42.6386C39.5208 43.6736 40.35 44.6201 41.2274 45.6217C41.8933 46.3819 42.5833 47.1685 43.0444 48.0701C43.5125 48.9855 43.7655 49.9986 44.0093 50.9784C44.3313 52.271 44.6349 53.4923 45.3651 54.1639C46.1126 54.8516 47.3834 55.0356 48.7289 55.2311C49.6834 55.3703 50.6712 55.5129 51.597 55.8498C52.5227 56.1868 53.3714 56.7123 54.1925 57.2195C55.3483 57.9348 56.4431 58.611 57.4551 58.5638C58.4452 58.519 59.463 57.7784 60.5405 56.9952C61.357 56.4007 62.2023 55.7866 63.1487 55.3875C64.0825 54.9931 65.1152 54.8344 66.1146 54.6803C67.4302 54.4767 68.6733 54.2858 69.476 53.6073C70.1925 53.0013 70.5881 51.8708 71.0067 50.6737C71.3678 49.6433 71.7404 48.5772 72.3752 47.648C72.972 46.7729 73.8081 46.0714 74.6165 45.3929C75.6124 44.5568 76.5543 43.7656 76.9085 42.7916C77.2638 41.8164 77.0499 40.6066 76.8245 39.3255C76.6417 38.2859 76.4519 37.2106 76.5566 36.1561C76.6681 35.0371 77.0672 33.9803 77.4524 32.9591C77.9009 31.7734 78.3241 30.6522 78.1654 29.7276C77.9872 28.6926 77.158 27.7461 76.2806 26.7445C75.6147 25.9843 74.9247 25.1977 74.4636 24.2961C73.9955 23.3807 73.7425 22.3676 73.4987 21.3878C73.1767 20.0952 72.8731 18.8739 72.1429 18.2023C71.3954 17.5146 70.1246 17.3306 68.7791 17.1351C67.8246 16.9959 66.8368 16.8533 65.911 16.5164C64.9853 16.1794 64.1366 15.6539 63.3155 15.1467C62.1965 14.4544 61.1385 13.8001 60.1518 13.8001Z" fill="black"/>
<path d="M68.0017 29.5721C67.8694 29.5721 67.736 29.5491 67.6084 29.5031C67.222 29.3628 66.9402 29.027 66.8689 28.6222L65.5453 21.115C65.4349 20.4894 65.8523 19.8926 66.4779 19.7833C67.1035 19.6729 67.7004 20.0904 67.8096 20.716L68.7871 26.2613L70.7053 24.6513C71.1918 24.243 71.9174 24.3063 72.3257 24.7927C72.7339 25.2792 72.6707 26.0048 72.1842 26.4131L68.74 29.303C68.5295 29.479 68.2673 29.5721 68.0005 29.5721H68.0017Z" fill="white"/>
<path d="M70.0981 41.4643C69.9659 41.4643 69.8325 41.4413 69.7049 41.3953C69.3185 41.255 69.0367 40.9192 68.9654 40.5144L66.8689 28.6234C66.7976 28.2186 66.9472 27.8069 67.2623 27.5424L70.7065 24.6525C71.193 24.2442 71.9186 24.3075 72.3268 24.7939C72.7351 25.2804 72.6719 26.006 72.1854 26.4143L69.2494 28.8776L70.8848 38.1535L73.0755 36.3158C73.5619 35.9075 74.2876 35.9708 74.6959 36.4572C75.1041 36.9437 75.0408 37.6693 74.5544 38.0776L70.8376 41.1964C70.6271 41.3723 70.3649 41.4655 70.0981 41.4655V41.4643Z" fill="white"/>
<path d="M49.5016 45.0962C49.3693 45.0962 49.2359 45.0732 49.1083 45.0272C48.7219 44.8869 48.4401 44.5511 48.3688 44.1463L46.2724 32.2553C46.2011 31.8505 46.3506 31.4388 46.6657 31.1743L55.9151 23.4129C56.2302 23.1484 56.6615 23.0725 57.0479 23.2128C57.4343 23.3531 57.716 23.6889 57.7873 24.0937L59.8838 35.9847C59.9551 36.3895 59.8056 36.8012 59.4905 37.0657L50.241 44.8271C50.0306 45.003 49.7684 45.0962 49.5016 45.0962ZM48.6529 32.5083L50.2882 41.7842L57.5033 35.7294L55.868 26.4535L48.6529 32.5083Z" fill="white"/>
<path d="M60.8488 49.2258C60.7165 49.2258 60.5831 49.2028 60.4555 49.1568C60.0691 49.0165 59.7873 48.6807 59.716 48.2759L57.6196 36.3849C57.5483 35.9801 57.6978 35.5684 58.0129 35.3039L67.2623 27.5426C67.5774 27.2781 68.0087 27.2022 68.3951 27.3425C68.7815 27.4828 69.0632 27.8186 69.1345 28.2234L71.231 40.1144C71.3023 40.5192 71.1528 40.9309 70.8377 41.1954L61.5882 48.9567C61.3778 49.1326 61.1156 49.2258 60.8488 49.2258ZM60.0001 36.6391L61.6354 45.9149L68.8505 39.8602L67.2152 30.5843L60.0001 36.6391Z" fill="white"/>
<path d="M70.9399 46.2416C70.3925 46.2416 69.9072 45.8494 69.8083 45.2905L68.9654 40.5134C68.8941 40.1086 69.0436 39.6969 69.3587 39.4324L73.0755 36.3136C73.5619 35.9054 74.2876 35.9686 74.6958 36.4551C75.1041 36.9415 75.0408 37.6672 74.5544 38.0754L71.347 40.7676L72.0738 44.8915C72.1842 45.5171 71.7668 46.1139 71.1412 46.2232C71.0733 46.2347 71.0066 46.2404 70.9399 46.2404V46.2416Z" fill="white"/>
<path d="M61.6284 53.6543C61.081 53.6543 60.5957 53.2622 60.4968 52.7033L59.716 48.2758C59.6447 47.871 59.7942 47.4593 60.1093 47.1948L69.3587 39.4334C69.6738 39.1689 70.1051 39.093 70.4915 39.2333C70.8779 39.3736 71.1596 39.7094 71.2309 40.1142L72.0739 44.8913C72.1843 45.5169 71.7668 46.1138 71.1412 46.223C70.5156 46.3334 69.9188 45.916 69.8095 45.2904L69.3127 42.474L62.0976 48.5288L62.7635 52.3031C62.8739 52.9287 62.4564 53.5255 61.8308 53.6348C61.763 53.6463 61.6963 53.652 61.6296 53.652L61.6284 53.6543Z" fill="white"/>
<path d="M56.6547 25.4425C56.5224 25.4425 56.389 25.4195 56.2614 25.3735C55.875 25.2332 55.5932 24.8974 55.5219 24.4926L54.7411 20.0651C54.6307 19.4395 55.0481 18.8427 55.6737 18.7334C56.2993 18.623 56.8962 19.0405 57.0054 19.6661L57.4401 22.1328L61.7538 18.5138C62.2402 18.1055 62.9659 18.1688 63.3741 18.6552C63.7824 19.1417 63.7191 19.8673 63.2327 20.2756L57.393 25.1757C57.1825 25.3517 56.9203 25.4448 56.6535 25.4448L56.6547 25.4425Z" fill="white"/>
<path d="M50.8242 52.6034C50.2768 52.6034 49.7915 52.2112 49.6926 51.6523L48.7151 46.107L46.7969 47.717C46.3104 48.1253 45.5848 48.062 45.1765 47.5756C44.7683 47.0891 44.8315 46.3635 45.318 45.9552L48.7622 43.0653C49.0773 42.8008 49.5086 42.7249 49.895 42.8652C50.2814 43.0055 50.5631 43.3413 50.6344 43.7461L51.9581 51.2533C52.0685 51.8789 51.651 52.4757 51.0254 52.585C50.9576 52.5965 50.8909 52.6022 50.8242 52.6022V52.6034Z" fill="white"/>
<path d="M55.0101 54.1259C54.6824 54.1259 54.3558 53.9868 54.1281 53.7154C53.7198 53.2289 53.7831 52.5033 54.2695 52.095L60.1092 47.1949C60.4243 46.9304 60.8556 46.8545 61.242 46.9948C61.6284 47.1351 61.9101 47.4709 61.9814 47.8757L62.7623 52.3032C62.8727 52.9288 62.4552 53.5256 61.8296 53.6349C61.204 53.7453 60.6072 53.3278 60.4979 52.7022L60.0632 50.2355L55.7496 53.8545C55.5345 54.0351 55.2723 54.1236 55.0113 54.1236L55.0101 54.1259Z" fill="white"/>
<path d="M55.0101 54.1258C54.6824 54.1258 54.3558 53.9867 54.1281 53.7153C53.7198 53.2288 53.7831 52.5032 54.2695 52.0949L59.5998 47.6226L57.9645 38.3467L50.7494 44.4014L51.958 51.2543C52.0684 51.8799 51.651 52.4767 51.0254 52.586C50.4009 52.6964 49.8041 52.2789 49.6937 51.6533L48.37 44.1461C48.2987 43.7413 48.4482 43.3296 48.7633 43.0651L58.0128 35.3038C58.3279 35.0393 58.7591 34.9634 59.1455 35.1037C59.5319 35.244 59.8137 35.5798 59.885 35.9846L61.9814 47.8756C62.0527 48.2804 61.9032 48.6921 61.5881 48.9566L55.7484 53.8567C55.5334 54.0373 55.2712 54.1258 55.0101 54.1258Z" fill="white"/>
<path d="M47.4051 33.204C47.2729 33.204 47.1395 33.181 47.0118 33.135C46.6254 32.9947 46.3437 32.6589 46.2724 32.2541L45.4294 27.477C45.319 26.8514 45.7365 26.2545 46.3621 26.1453C46.9877 26.0349 47.5845 26.4523 47.6938 27.0779L48.1906 29.8943L55.4057 23.8395L54.7398 20.0652C54.6294 19.4396 55.0469 18.8428 55.6725 18.7335C56.2981 18.6231 56.8949 19.0406 57.0042 19.6662L57.785 24.0937C57.8563 24.4985 57.7068 24.9102 57.3917 25.1747L48.1423 32.936C47.9318 33.112 47.6696 33.2051 47.4028 33.2051L47.4051 33.204Z" fill="white"/>
<path d="M43.6896 36.3228C43.3618 36.3228 43.0352 36.1837 42.8075 35.9123C42.3992 35.4258 42.4625 34.7002 42.9489 34.2919L46.1563 31.5998L45.4295 27.4759C45.3191 26.8503 45.7365 26.2534 46.3621 26.1442C46.9877 26.0338 47.5846 26.4512 47.6938 27.0768L48.5368 31.8539C48.6081 32.2587 48.4586 32.6704 48.1435 32.9349L44.4267 36.0537C44.2117 36.2343 43.9494 36.3228 43.6884 36.3228H43.6896Z" fill="white"/>
<path d="M46.0586 47.9859C45.7308 47.9859 45.4042 47.8468 45.1765 47.5754C44.7682 47.0889 44.8315 46.3633 45.318 45.955L48.2539 43.4917L46.6186 34.2158L44.4278 36.0535C43.9414 36.4618 43.2157 36.3985 42.8075 35.9121C42.3992 35.4256 42.4625 34.7 42.9489 34.2917L46.6658 31.1729C46.9809 30.9084 47.4121 30.8325 47.7985 30.9728C48.1849 31.1131 48.4667 31.4489 48.538 31.8537L50.6344 43.7447C50.7057 44.1495 50.5562 44.5612 50.2411 44.8257L46.7968 47.7157C46.5818 47.8962 46.3196 47.9848 46.0586 47.9848V47.9859Z" fill="white"/>
<path d="M39.3185 28.5878C50.4332 47.8388 54.0925 66.5343 47.4927 70.3454C40.8928 74.1554 26.5316 61.6388 15.4169 42.3878C14.6717 41.0975 14.0806 39.7715 13.6367 38.4352C15.6216 39.5036 19.4143 39.0792 23.6049 37.3485C20.5608 37.0794 17.066 35.3072 13.6378 32.3782C13.3089 32.0964 12.9789 31.8032 12.6511 31.5007C12.8777 26.8363 14.9799 22.7228 18.7427 20.5493C22.5066 18.3769 27.1204 18.6127 31.2719 20.7494C31.3708 21.1852 31.4594 21.6176 31.5387 22.042C32.3621 26.4764 32.1482 30.3887 30.8602 33.159C34.454 30.3956 36.7183 27.3228 36.7862 25.0699C37.7211 26.1222 38.5744 27.2975 39.3185 28.5878Z" fill="white"/>
<path d="M48.0665 71.3414C46.138 72.4546 43.7092 72.4626 40.8468 71.3655C38.2835 70.3834 35.4384 68.5377 32.3909 65.8812C26.2395 60.5199 19.857 52.3802 14.4198 42.9628C13.6505 41.63 13.0191 40.2281 12.5442 38.7975C12.3958 38.3502 12.535 37.858 12.8961 37.5544C13.2572 37.2519 13.7655 37.199 14.1806 37.4221C15.2789 38.0132 17.2178 38.0098 19.5212 37.4727C17.3719 36.5895 15.1317 35.1681 12.888 33.2511C12.5396 32.9521 12.1957 32.6473 11.868 32.3426C11.6184 32.1114 11.4839 31.7825 11.5 31.4433C11.7553 26.1855 14.1841 21.8511 18.1654 19.5523C22.1467 17.2534 27.1147 17.3167 31.7963 19.7248C32.0988 19.88 32.3161 20.1618 32.392 20.493C32.4909 20.9288 32.5841 21.3785 32.668 21.8293C33.2062 24.7307 33.3178 27.3838 33.0084 29.6861C34.6253 27.9599 35.5982 26.2821 35.635 25.0355C35.6488 24.564 35.9478 24.15 36.3917 23.989C36.8345 23.828 37.3313 23.9533 37.6441 24.3052C38.6457 25.4322 39.5439 26.6788 40.3132 28.0117C45.7504 37.429 49.6087 47.0269 51.1761 55.0344C51.9524 59.0019 52.1283 62.3886 51.6971 65.0992C51.2164 68.1271 49.9939 70.2259 48.0665 71.3391V71.3414ZM15.5353 40.12C15.7998 40.695 16.0919 41.2608 16.4116 41.814C21.7258 51.0174 27.9369 58.9501 33.902 64.1493C39.4795 69.0103 44.2221 70.9067 46.9165 69.3507C49.6098 67.7959 50.3401 62.7394 48.9187 55.4794C47.3984 47.7135 43.6356 38.3686 38.3214 29.164C38.0017 28.6108 37.659 28.0749 37.2933 27.5586C36.3308 29.6447 34.3286 31.9447 31.5606 34.0722C31.1408 34.3953 30.5543 34.3896 30.1403 34.0584C29.7263 33.7272 29.5929 33.1568 29.8172 32.6761C30.981 30.1737 31.1914 26.4718 30.4083 22.2536C30.3634 22.0144 30.3163 21.7741 30.2657 21.536C26.4396 19.7259 22.4756 19.7225 19.3165 21.5464C16.1575 23.3703 14.1783 26.8042 13.8333 31.0235C14.0139 31.1857 14.199 31.3467 14.3842 31.5065C17.6444 34.293 20.9553 35.9616 23.7049 36.2054C24.2328 36.2526 24.6606 36.6528 24.7399 37.1772C24.8204 37.7004 24.5318 38.211 24.0419 38.4134C20.815 39.7463 17.8227 40.3305 15.5342 40.1212L15.5353 40.12Z" fill="black"/>
<path d="M45.5002 71.4957L46.4961 70.9207C47.0459 70.6033 47.7497 70.7918 48.0671 71.3416L48.6421 72.3375C49.9117 74.5365 49.1573 77.3516 46.9583 78.6212L45.9624 79.1962C45.4127 79.5136 44.7089 79.3251 44.3915 78.7753L43.8165 77.7794C42.5469 75.5804 43.3012 72.7653 45.5002 71.4957Z" fill="white"/>
<path d="M47.533 79.6169L46.5371 80.1919C45.4388 80.8255 44.0289 80.4483 43.3953 79.3501L42.8203 78.3542C41.2344 75.608 42.1786 72.0844 44.9248 70.4997L45.9207 69.9247C47.0189 69.291 48.4288 69.6682 49.0625 70.7665L49.6375 71.7624C51.2233 74.5086 50.2792 78.0322 47.533 79.6169ZM46.0748 72.4915C44.4268 73.4425 43.861 75.5562 44.8121 77.2042L45.3871 78.2001L46.383 77.6251C48.0309 76.674 48.5967 74.5603 47.6457 72.9124L47.0707 71.9165L46.0748 72.4915Z" fill="black"/>
<path d="M55.9209 73.4476L54.925 74.0226C52.726 75.2922 49.9109 74.5379 48.6413 72.3388L48.0663 71.3429C47.7489 70.7932 47.9375 70.0894 48.4872 69.772L49.4832 69.197C51.6822 67.9274 54.4973 68.6817 55.7669 70.8807L56.3419 71.8766C56.6593 72.4264 56.4707 73.1302 55.9209 73.4476Z" fill="white"/>
<path d="M56.4972 74.4417L55.5013 75.0167C52.7551 76.6026 49.2315 75.6584 47.6468 72.9122L47.0718 71.9163C46.4381 70.8181 46.8153 69.4082 47.9136 68.7745L48.9095 68.1995C51.6557 66.6137 55.1793 67.5578 56.764 70.304L57.339 71.2999C57.9726 72.3982 57.5954 73.8081 56.4972 74.4417ZM49.0636 70.7663L49.6386 71.7622C50.5896 73.4102 52.7033 73.976 54.3513 73.0249L55.3472 72.4499H55.3483L54.7722 71.4552C53.8211 69.8072 51.7074 69.2414 50.0595 70.1925L49.0636 70.7675V70.7663Z" fill="black"/>
<path d="M19.7788 30.3957C20.4139 30.3957 20.9288 29.8808 20.9288 29.2457C20.9288 28.6106 20.4139 28.0957 19.7788 28.0957C19.1437 28.0957 18.6288 28.6106 18.6288 29.2457C18.6288 29.8808 19.1437 30.3957 19.7788 30.3957Z" fill="black"/>
<path d="M25.7553 26.9455C26.3905 26.9455 26.9053 26.4306 26.9053 25.7955C26.9053 25.1604 26.3905 24.6455 25.7553 24.6455C25.1202 24.6455 24.6053 25.1604 24.6053 25.7955C24.6053 26.4306 25.1202 26.9455 25.7553 26.9455Z" fill="black"/>
<path d="M29.2524 24.4409C28.8246 24.6881 28.268 24.6387 27.8897 24.2822C24.8134 21.3888 21.4485 20.3147 19.3176 21.5452C17.1866 22.7757 16.4345 26.2268 17.4017 30.3381C17.5466 30.9568 17.1636 31.5755 16.5461 31.7204C15.9274 31.8653 15.3087 31.4823 15.1638 30.8648C13.9402 25.6645 15.0913 21.3301 18.1687 19.5534C21.245 17.7766 25.5747 18.9473 29.4663 22.6066C29.9286 23.0413 29.9516 23.7693 29.5169 24.2327C29.4376 24.3167 29.349 24.3868 29.2536 24.4409H29.2524Z" fill="black"/>
<path d="M44.6164 65.3659C44.0667 65.6833 43.3629 65.4947 43.0455 64.945L28.0955 39.0505C27.7781 38.5008 27.9667 37.797 28.5164 37.4796C29.0661 37.1622 29.7699 37.3508 30.0873 37.9005L45.0373 63.795C45.3547 64.3447 45.1661 65.0485 44.6164 65.3659Z" fill="white"/>
<path d="M34.2262 38.1685C33.9709 38.3157 33.6604 38.3651 33.3533 38.2835L31.7824 37.8626C31.1695 37.6981 30.8049 37.0679 30.9694 36.4538C31.1338 35.8409 31.764 35.4763 32.3781 35.6408L33.949 36.0617C34.562 36.2261 34.9266 36.8563 34.7621 37.4704C34.6805 37.7775 34.4815 38.0213 34.2262 38.1685Z" fill="white"/>
<path d="M37.2139 36.4435C36.9586 36.5907 36.6481 36.6401 36.341 36.5585C35.7281 36.394 35.3635 35.7638 35.528 35.1497L35.9489 33.5788C36.1133 32.9659 36.7435 32.6013 37.3576 32.7658C37.9706 32.9302 38.3351 33.5604 38.1707 34.1745L37.7498 35.7454C37.6681 36.0525 37.4692 36.2963 37.2139 36.4435Z" fill="white"/>
<path d="M36.5262 42.1521C36.2709 42.2993 35.9604 42.3488 35.6534 42.2671L34.0825 41.8462C33.4695 41.6818 33.105 41.0516 33.2694 40.4375C33.4339 39.8245 34.0641 39.46 34.6782 39.6244L36.2491 40.0453C36.862 40.2098 37.2266 40.84 37.0621 41.4541C36.9805 41.7611 36.7815 42.0049 36.5262 42.1521Z" fill="white"/>
<path d="M39.5139 40.4271C39.2586 40.5743 38.9481 40.6238 38.6411 40.5421C38.0281 40.3777 37.6636 39.7475 37.828 39.1334L38.2489 37.5625C38.4134 36.9495 39.0436 36.585 39.6577 36.7494C40.2706 36.9139 40.6352 37.5441 40.4707 38.1582L40.0498 39.7291C39.9682 40.0361 39.7692 40.2799 39.5139 40.4271Z" fill="white"/>
<path d="M38.8262 46.1358C38.5709 46.283 38.2604 46.3324 37.9533 46.2508L36.3824 45.8299C35.7695 45.6654 35.4049 45.0352 35.5694 44.4211C35.7338 43.8082 36.364 43.4436 36.9781 43.6081L38.549 44.029C39.162 44.1934 39.5265 44.8236 39.3621 45.4377C39.2804 45.7448 39.0815 45.9886 38.8262 46.1358Z" fill="white"/>
<path d="M41.8139 44.4108C41.5586 44.558 41.2481 44.6074 40.941 44.5258C40.3281 44.3613 39.9635 43.7311 40.128 43.117L40.5489 41.5461C40.7133 40.9332 41.3435 40.5686 41.9576 40.7331C42.5706 40.8975 42.9351 41.5277 42.7707 42.1418L42.3498 43.7127C42.2681 44.0198 42.0692 44.2636 41.8139 44.4108Z" fill="white"/>
<path d="M41.1262 50.1192C40.8709 50.2664 40.5604 50.3158 40.2534 50.2342L38.6825 49.8133C38.0695 49.6488 37.705 49.0186 37.8694 48.4045C38.0339 47.7916 38.6641 47.427 39.2782 47.5915L40.8491 48.0124C41.462 48.1768 41.8266 48.807 41.6621 49.4211C41.5805 49.7282 41.3815 49.972 41.1262 50.1192Z" fill="white"/>
<path d="M44.1139 48.3942C43.8586 48.5414 43.5481 48.5908 43.2411 48.5092C42.6281 48.3447 42.2636 47.7145 42.428 47.1004L42.8489 45.5295C43.0134 44.9166 43.6436 44.552 44.2577 44.7165C44.8706 44.8809 45.2352 45.5111 45.0707 46.1252L44.6498 47.6961C44.5682 48.0032 44.3692 48.247 44.1139 48.3942Z" fill="white"/>
<path d="M43.4262 54.1031C43.1709 54.2503 42.8604 54.2997 42.5533 54.2181L40.9824 53.7972C40.3695 53.6327 40.0049 53.0025 40.1693 52.3884C40.3338 51.7755 40.964 51.4109 41.5781 51.5754L43.149 51.9963C43.762 52.1607 44.1265 52.7909 43.9621 53.405C43.8804 53.7121 43.6815 53.9559 43.4262 54.1031Z" fill="white"/>
<path d="M45.418 52.953C45.1627 53.1002 44.8522 53.1497 44.5451 53.068C43.9322 52.9036 43.5676 52.2734 43.7321 51.6593L44.153 50.0884C44.3174 49.4754 44.9476 49.1109 45.5617 49.2753C46.1747 49.4398 46.5392 50.07 46.3748 50.6841L45.9539 52.255C45.8722 52.562 45.6733 52.8058 45.418 52.953Z" fill="white"/>
<path d="M45.7262 58.0867C45.4709 58.2339 45.1604 58.2833 44.8533 58.2017L43.2824 57.7808C42.6695 57.6163 42.3049 56.9861 42.4694 56.372C42.6338 55.7591 43.264 55.3945 43.8781 55.559L45.449 55.9799C46.062 56.1443 46.4266 56.7745 46.2621 57.3886C46.1805 57.6957 45.9815 57.9395 45.7262 58.0867Z" fill="white"/>
<path d="M46.7221 57.5116C46.4668 57.6588 46.1563 57.7083 45.8492 57.6266C45.2363 57.4622 44.8717 56.832 45.0362 56.2179L45.4571 54.647C45.6215 54.034 46.2517 53.6695 46.8658 53.8339C47.4788 53.9984 47.8433 54.6286 47.6789 55.2427L47.258 56.8136C47.1763 57.1206 46.9774 57.3644 46.7221 57.5116Z" fill="white"/>
<path d="M48.0262 62.0701C47.7709 62.2173 47.4604 62.2667 47.1534 62.1851L45.5825 61.7642C44.9695 61.5997 44.605 60.9695 44.7694 60.3554C44.9339 59.7425 45.5641 59.3779 46.1782 59.5424L47.7491 59.9633C48.362 60.1277 48.7266 60.7579 48.5621 61.372C48.4805 61.6791 48.2815 61.9229 48.0262 62.0701Z" fill="white"/>
<path d="M48.0263 62.0702C47.771 62.2174 47.4605 62.2668 47.1534 62.1852C46.5405 62.0207 46.1759 61.3905 46.3404 60.7764L46.7613 59.2055C46.9257 58.5926 47.5559 58.228 48.17 58.3925C48.783 58.5569 49.1475 59.1871 48.9831 59.8012L48.5622 61.3721C48.4805 61.6792 48.2816 61.923 48.0263 62.0702Z" fill="white"/>
<path d="M26.2578 42.7684C26.0025 42.9156 25.692 42.9651 25.385 42.8834C24.772 42.719 24.4075 42.0888 24.5719 41.4747L24.9928 39.9038C25.1573 39.2908 25.7875 38.9263 26.4016 39.0907C27.0145 39.2552 27.3791 39.8854 27.2146 40.4995L26.7937 42.0704C26.7121 42.3774 26.5131 42.6212 26.2578 42.7684Z" fill="white"/>
<path d="M23.2701 44.4934C23.0148 44.6406 22.7043 44.6901 22.3973 44.6084L20.8264 44.1875C20.2134 44.0231 19.8489 43.3929 20.0133 42.7788C20.1778 42.1658 20.808 41.8013 21.4221 41.9657L22.993 42.3866C23.6059 42.5511 23.9705 43.1813 23.806 43.7954C23.7244 44.1024 23.5254 44.3462 23.2701 44.4934Z" fill="white"/>
<path d="M28.5579 46.7521C28.3026 46.8993 27.9921 46.9487 27.685 46.8671C27.0721 46.7026 26.7075 46.0724 26.872 45.4583L27.2929 43.8874C27.4573 43.2745 28.0875 42.9099 28.7016 43.0744C29.3146 43.2388 29.6791 43.869 29.5147 44.4831L29.0938 46.054C29.0121 46.3611 28.8132 46.6049 28.5579 46.7521Z" fill="white"/>
<path d="M25.5702 48.4771C25.3149 48.6243 25.0044 48.6737 24.6973 48.5921L23.1264 48.1712C22.5135 48.0067 22.1489 47.3765 22.3134 46.7624C22.4778 46.1495 23.108 45.7849 23.7221 45.9494L25.293 46.3703C25.906 46.5347 26.2705 47.1649 26.1061 47.779C26.0244 48.0861 25.8255 48.3299 25.5702 48.4771Z" fill="white"/>
<path d="M30.8578 50.7357C30.6025 50.8829 30.292 50.9324 29.985 50.8507C29.372 50.6863 29.0075 50.0561 29.1719 49.442L29.5928 47.8711C29.7573 47.2581 30.3875 46.8936 31.0016 47.058C31.6145 47.2225 31.9791 47.8527 31.8146 48.4668L31.3937 50.0377C31.3121 50.3447 31.1131 50.5885 30.8578 50.7357Z" fill="white"/>
<path d="M27.8701 52.4607C27.6148 52.6079 27.3043 52.6574 26.9973 52.5757L25.4264 52.1548C24.8134 51.9904 24.4489 51.3602 24.6133 50.7461C24.7778 50.1331 25.408 49.7686 26.0221 49.933L27.593 50.3539C28.2059 50.5184 28.5705 51.1486 28.406 51.7627C28.3244 52.0697 28.1254 52.3135 27.8701 52.4607Z" fill="white"/>
<path d="M33.1579 54.7191C32.9026 54.8663 32.5921 54.9158 32.285 54.8341C31.6721 54.6697 31.3075 54.0395 31.472 53.4254L31.8929 51.8545C32.0573 51.2415 32.6875 50.877 33.3016 51.0414C33.9146 51.2059 34.2791 51.8361 34.1147 52.4502L33.6938 54.0211C33.6121 54.3281 33.4132 54.5719 33.1579 54.7191Z" fill="white"/>
<path d="M30.1702 56.4441C29.9149 56.5913 29.6044 56.6408 29.2973 56.5591L27.7264 56.1382C27.1135 55.9738 26.7489 55.3436 26.9134 54.7295C27.0778 54.1165 27.708 53.752 28.3221 53.9164L29.893 54.3373C30.506 54.5018 30.8705 55.132 30.7061 55.7461C30.6244 56.0531 30.4255 56.2969 30.1702 56.4441Z" fill="white"/>
<path d="M35.4579 58.7028C35.2026 58.85 34.8921 58.8994 34.5851 58.8178C33.9721 58.6533 33.6076 58.0231 33.772 57.409L34.1929 55.8381C34.3574 55.2252 34.9876 54.8606 35.6017 55.0251C36.2146 55.1895 36.5792 55.8197 36.4147 56.4338L35.9938 58.0047C35.9122 58.3118 35.7132 58.5556 35.4579 58.7028Z" fill="white"/>
<path d="M33.4661 59.8528C33.2108 60 32.9003 60.0495 32.5932 59.9678L31.0223 59.5469C30.4094 59.3825 30.0448 58.7523 30.2093 58.1382C30.3737 57.5252 31.0039 57.1607 31.618 57.3251L33.1889 57.746C33.8019 57.9105 34.1664 58.5407 34.002 59.1548C33.9203 59.4618 33.7214 59.7056 33.4661 59.8528Z" fill="white"/>
<path d="M37.7578 62.6864C37.5025 62.8336 37.192 62.8831 36.885 62.8014C36.272 62.637 35.9075 62.0068 36.0719 61.3927L36.4928 59.8218C36.6573 59.2088 37.2875 58.8443 37.9016 59.0087C38.5145 59.1732 38.8791 59.8034 38.7146 60.4175L38.2937 61.9884C38.2121 62.2954 38.0131 62.5392 37.7578 62.6864Z" fill="white"/>
<path d="M36.762 63.2615C36.5067 63.4087 36.1962 63.4581 35.8891 63.3765L34.3182 62.9556C33.7053 62.7912 33.3407 62.161 33.5052 61.5469C33.6696 60.9339 34.2998 60.5694 34.9139 60.7338L36.4848 61.1547C37.0978 61.3192 37.4623 61.9494 37.2979 62.5635C37.2162 62.8705 37.0173 63.1143 36.762 63.2615Z" fill="white"/>
<path d="M40.0579 66.67C39.8026 66.8172 39.4921 66.8667 39.185 66.785C38.5721 66.6206 38.2075 65.9904 38.372 65.3763L38.7929 63.8054C38.9573 63.1924 39.5875 62.8279 40.2016 62.9923C40.8146 63.1568 41.1791 63.787 41.0147 64.4011L40.5938 65.972C40.5121 66.279 40.3132 66.5228 40.0579 66.67Z" fill="white"/>
<path d="M40.0579 66.6699C39.8026 66.8171 39.4921 66.8666 39.185 66.7849L37.6141 66.364C37.0012 66.1996 36.6366 65.5694 36.8011 64.9553C36.9655 64.3424 37.5957 63.9778 38.2098 64.1422L39.7807 64.5631C40.3937 64.7276 40.7582 65.3578 40.5938 65.9719C40.5121 66.2789 40.3132 66.5227 40.0579 66.6699Z" fill="white"/>
</g>
<defs>
<clipPath id="clip0_1623_6385">
<rect width="92" height="92" fill="white"/>
</clipPath>
</defs>
</svg>
