<?xml version="1.0" encoding="UTF-8"?>
<svg id="Layer_2" data-name="Layer 2" xmlns="http://www.w3.org/2000/svg" viewBox="0 0 800 800">
  <defs>
    <style>
      .cls-1 {
        fill: #db644d;
      }

      .cls-1, .cls-2, .cls-3, .cls-4, .cls-5 {
        stroke-width: 0px;
      }

      .cls-3 {
        fill: none;
      }

      .cls-4 {
        fill: #63aa5b;
      }

      .cls-5 {
        fill: #ef795e;
      }
    </style>
  </defs>
  <g id="_매운_음식" data-name="매운 음식">
    <g id="_매운_음식-2" data-name="매운 음식">
      <g id="hover">
        <g>
          <g>
            <path class="cls-2" d="M401.97,700c-17.57,0-35.26-1.54-52.92-4.65-79.26-13.98-148.33-57.98-194.5-123.91-46.16-65.93-63.89-145.89-49.91-225.16.96-5.44,6.15-9.07,11.58-8.11,5.44.96,9.07,6.15,8.11,11.58-4.52,25.61,7.08,52.81,32.65,76.58,26.74,24.86,65.18,42.73,108.22,50.32,43.04,7.59,85.27,3.94,118.91-10.27,32.16-13.59,52.35-35.18,56.87-60.79,5.4-30.61,20.95-54.93,44.97-70.36,21.89-14.05,50.14-20.38,81.72-18.31,6.98.46,14.06,1.32,21.06,2.56,7.01,1.23,13.96,2.85,20.65,4.8,24.84,7.23,46.1,19.26,61.47,34.77,19.59,19.75,29.66,44.99,29.11,72.98-.01.75-.03,1.5-.07,2.25-.02.56-.05,1.11-.08,1.68,0,.25-.02.5-.03.75-.05.72-.09,1.39-.15,2.06-.05.67-.11,1.42-.19,2.18-.06.64-.12,1.29-.2,1.94-.06.53-.12,1.06-.19,1.6-.13,1.11-.28,2.21-.46,3.33l-.04.29c-.02.13-.04.26-.06.39-.04.23-.08.46-.11.69,0,.03-.02.12-.02.15-.09.55-.18,1.09-.27,1.64-.14.8-.29,1.61-.46,2.42-.05.27-.1.54-.16.81-14.7,78.41-58.92,146.62-124.53,192.09-50.94,35.3-110.23,53.71-170.98,53.71ZM120.38,414.09c2.76,51.94,19.97,102.21,50.55,145.87,43.1,61.55,107.59,102.64,181.59,115.69,151.14,26.66,297.08-74.37,325.32-225.22.01-.07.03-.13.04-.2.02-.11.05-.22.06-.33.02-.13.05-.26.07-.4.14-.69.27-1.38.39-2.07.08-.43.14-.84.21-1.26.05-.35.11-.71.17-1.07l.05-.32c.14-.93.27-1.83.37-2.74.01-.09.02-.19.04-.28.05-.35.09-.7.12-1.04,0-.04,0-.08.01-.12.06-.49.11-.97.15-1.45,0-.05,0-.1.01-.15.06-.6.11-1.19.16-1.79.05-.64.09-1.2.12-1.75,0-.12,0-.25.01-.37.03-.58.06-1.07.07-1.56,0-.03,0-.07,0-.1.03-.57.04-1.14.05-1.71,0-.02,0-.03,0-.05.45-22.79-7.4-42.49-23.32-58.54-12.99-13.11-31.27-23.36-52.86-29.65-5.99-1.75-12.23-3.19-18.53-4.3-6.3-1.12-12.65-1.89-18.89-2.3-57.54-3.78-97.04,23.21-105.68,72.18-5.73,32.52-30.16,59.42-68.78,75.74-37.14,15.69-83.37,19.79-130.16,11.54-46.79-8.25-88.83-27.91-118.36-55.36-9.21-8.56-16.89-17.58-22.99-26.89Z"/>
            <path class="cls-2" d="M606.58,343.88c-.94,0-1.88-.13-2.8-.4-5.99-1.75-12.22-3.19-18.53-4.3-6.3-1.12-12.65-1.89-18.89-2.3-2.83-.19-5.46-1.57-7.21-3.81-1.75-2.23-2.47-5.11-1.98-7.91l12.4-70.31c1.4-7.92,5.79-14.82,12.38-19.42,6.58-4.61,14.57-6.38,22.48-4.98,14.4,2.52,24.87,14.98,24.87,29.61,0,1.76-.16,3.53-.47,5.27l-12.39,70.29c-.49,2.8-2.15,5.25-4.57,6.76-1.6,1-3.43,1.51-5.28,1.51ZM578.74,317.98c3.34.42,6.67.92,9.99,1.51,3.31.58,6.62,1.25,9.88,2l10.52-59.65c.11-.6.16-1.19.16-1.78,0-4.9-3.5-9.06-8.33-9.91-2.67-.47-5.35.12-7.55,1.67-2.21,1.55-3.68,3.86-4.15,6.51l-10.52,59.65Z"/>
          </g>
          <g>
            <path class="cls-2" d="M400,260c-27.57,0-50-22.43-50-50,0-63.41,41.18-105.32,42.93-107.07,3.91-3.91,10.24-3.91,14.14,0,1.75,1.75,42.93,43.66,42.93,107.07,0,27.57-22.43,50-50,50ZM400.02,125.45c-10.76,14.06-30.02,44.78-30.02,84.55,0,16.54,13.46,30,30,30s30-13.46,30-30c0-39.96-19.21-70.55-29.98-84.55Z"/>
            <path class="cls-2" d="M290,280c-22.06,0-40-17.94-40-40,0-49.12,32.23-76.54,33.6-77.68,3.71-3.09,9.1-3.09,12.8,0,1.37,1.14,33.6,28.56,33.6,77.68,0,22.06-17.94,40-40,40ZM289.98,184.38c-7.83,9.36-19.98,28.29-19.98,55.62,0,11.03,8.97,20,20,20s20-8.97,20-20c0-27.23-12.2-46.24-20.02-55.62Z"/>
            <path class="cls-2" d="M510,280c-22.06,0-40-17.94-40-40,0-49.12,32.23-76.54,33.6-77.68,3.71-3.09,9.1-3.09,12.8,0,1.37,1.14,33.6,28.56,33.6,77.68,0,22.06-17.94,40-40,40ZM509.98,184.38c-7.83,9.36-19.98,28.29-19.98,55.62,0,11.03,8.97,20,20,20s20-8.97,20-20c0-27.23-12.2-46.24-20.02-55.62Z"/>
          </g>
        </g>
        <path class="cls-1" d="M120.38,414.09c2.76,51.94,19.97,102.21,50.55,145.87,43.1,61.55,107.59,102.64,181.59,115.69,151.14,26.66,297.08-74.37,325.32-225.22.01-.07.03-.13.04-.2.02-.11.05-.22.06-.33.02-.13.05-.26.07-.4.14-.69.27-1.38.39-2.07.08-.43.14-.84.21-1.26.05-.35.11-.71.17-1.07l.05-.32c.14-.93.27-1.83.37-2.74.01-.09.02-.19.04-.28.05-.35.09-.7.12-1.04,0-.04,0-.08.01-.12.06-.49.11-.97.15-1.45,0-.05,0-.1.01-.15.06-.6.11-1.19.16-1.79.05-.64.09-1.2.12-1.75,0-.12,0-.25.01-.37.03-.58.06-1.07.07-1.56,0-.03,0-.07,0-.1.03-.57.04-1.14.05-1.71,0-.02,0-.03,0-.05.45-22.79-7.4-42.49-23.32-58.54-12.99-13.11-31.27-23.36-52.86-29.65-5.99-1.75-12.23-3.19-18.53-4.3-6.3-1.12-12.65-1.89-18.89-2.3-57.54-3.78-97.04,23.21-105.68,72.18-5.73,32.52-30.16,59.42-68.78,75.74-37.14,15.69-83.37,19.79-130.16,11.54-46.79-8.25-88.83-27.91-118.36-55.36-9.21-8.56-16.89-17.58-22.99-26.89Z"/>
        <path class="cls-4" d="M578.74,317.98c3.34.42,6.67.92,9.99,1.51,3.31.58,6.62,1.25,9.88,2l10.52-59.65c.11-.6.16-1.19.16-1.78,0-4.9-3.5-9.06-8.33-9.91-2.67-.47-5.35.12-7.55,1.67-2.21,1.55-3.68,3.86-4.15,6.51l-10.52,59.65Z"/>
        <path class="cls-5" d="M289.98,184.38c-7.83,9.36-19.98,28.29-19.98,55.62,0,11.03,8.97,20,20,20s20-8.97,20-20c0-27.23-12.2-46.24-20.02-55.62Z"/>
        <path class="cls-5" d="M400.02,125.45c-10.76,14.06-30.02,44.78-30.02,84.55,0,16.54,13.46,30,30,30s30-13.46,30-30c0-39.96-19.21-70.55-29.98-84.55Z"/>
        <path class="cls-5" d="M509.98,184.38c-7.83,9.36-19.98,28.29-19.98,55.62,0,11.03,8.97,20,20,20s20-8.97,20-20c0-27.23-12.2-46.24-20.02-55.62Z"/>
      </g>
      <rect id="frame" class="cls-3" width="800" height="800"/>
    </g>
  </g>
</svg>