<svg width="92" height="92" viewBox="0 0 92 92" fill="none" xmlns="http://www.w3.org/2000/svg">
<g opacity="0.65">
<path d="M46.2266 80.5C44.206 80.5 42.1717 80.3229 40.1408 79.9652C31.0259 78.3575 23.0828 73.2975 17.7733 65.7156C12.4649 58.1336 10.4259 48.9382 12.0336 39.8222C12.144 39.1966 12.7409 38.7791 13.3653 38.8895C13.9909 38.9999 14.4084 39.5968 14.298 40.2212C13.7782 43.1664 15.1122 46.2944 18.0527 49.0279C21.1278 51.8868 25.5484 53.9419 30.498 54.8147C35.4476 55.6876 40.3041 55.2678 44.1727 53.6337C47.8711 52.0708 50.1929 49.588 50.7127 46.6428C51.3337 43.1227 53.122 40.3259 55.8843 38.5514C58.4016 36.9357 61.6504 36.2077 65.2821 36.4458C66.0848 36.4987 66.899 36.5976 67.704 36.7402C68.5101 36.8816 69.3094 37.0679 70.0787 37.2922C72.9353 38.1236 75.3802 39.5071 77.1478 41.2907C79.4006 43.562 80.5587 46.4646 80.4954 49.6834C80.4943 49.7697 80.492 49.8559 80.4874 49.9422C80.4851 50.0066 80.4816 50.0698 80.4782 50.1354C80.4782 50.1641 80.4759 50.1929 80.4747 50.2216C80.469 50.3044 80.4644 50.3815 80.4575 50.4585C80.4517 50.5356 80.4448 50.6218 80.4356 50.7092C80.4287 50.7828 80.4218 50.8576 80.4126 50.9323C80.4057 50.9933 80.3988 51.0542 80.3908 51.1163C80.3758 51.244 80.3586 51.3705 80.3379 51.4993L80.3333 51.5326C80.331 51.5476 80.3287 51.5625 80.3264 51.5775C80.3218 51.6039 80.3172 51.6304 80.3137 51.6568C80.3137 51.6603 80.3114 51.6706 80.3114 51.6741C80.3011 51.7373 80.2907 51.7994 80.2804 51.8627C80.2643 51.9547 80.247 52.0478 80.2275 52.141C80.2217 52.172 80.216 52.2031 80.2091 52.2341C78.5186 61.2513 73.4333 69.0954 65.8881 74.3245C60.03 78.384 53.2117 80.5011 46.2254 80.5011L46.2266 80.5ZM13.8437 47.6203C14.1611 53.5934 16.1403 59.3745 19.657 64.3954C24.6135 71.4736 32.0298 76.199 40.5398 77.6997C57.9209 80.7656 74.704 69.1472 77.9516 51.7994C77.9528 51.7914 77.9551 51.7845 77.9562 51.7764C77.9585 51.7638 77.962 51.7511 77.9631 51.7385C77.9654 51.7235 77.9689 51.7086 77.9712 51.6925C77.9873 51.6131 78.0022 51.5338 78.016 51.4544C78.0252 51.405 78.0321 51.3578 78.0402 51.3095C78.0459 51.2693 78.0528 51.2279 78.0597 51.1865L78.0655 51.1497C78.0816 51.0427 78.0965 50.9392 78.108 50.8346C78.1092 50.8242 78.1103 50.8127 78.1126 50.8024C78.1184 50.7621 78.123 50.7219 78.1264 50.6828C78.1264 50.6782 78.1264 50.6736 78.1276 50.669C78.1345 50.6126 78.1402 50.5574 78.1448 50.5022C78.1448 50.4965 78.1448 50.4907 78.146 50.485C78.1529 50.416 78.1586 50.3481 78.1644 50.2791C78.1701 50.2055 78.1747 50.1411 78.1782 50.0779C78.1782 50.0641 78.1782 50.0491 78.1793 50.0353C78.1828 49.9686 78.1862 49.9123 78.1874 49.8559C78.1874 49.8525 78.1874 49.8479 78.1874 49.8444C78.1908 49.7789 78.192 49.7133 78.1931 49.6478C78.1931 49.6455 78.1931 49.6443 78.1931 49.642C78.2449 47.0212 77.3421 44.7557 75.5113 42.9099C74.0175 41.4023 71.9153 40.2235 69.4324 39.5002C68.7436 39.2989 68.026 39.1333 67.3015 39.0057C66.577 38.8769 65.8467 38.7883 65.1291 38.7412C58.512 38.3065 53.9695 41.4103 52.9759 47.0419C52.317 50.7817 49.5075 53.8752 45.0662 55.752C40.7951 57.5563 35.4787 58.0278 30.0978 57.0791C24.717 56.1303 19.8824 53.8694 16.4864 50.7127C15.4273 49.7283 14.5441 48.691 13.8426 47.6203H13.8437Z" fill="black"/>
<path d="M69.7568 39.5462C69.6487 39.5462 69.5406 39.5312 69.4348 39.5002C68.7459 39.2989 68.0295 39.1333 67.3038 39.0057C66.5793 38.8769 65.8491 38.7883 65.1315 38.7412C64.806 38.7193 64.5036 38.5606 64.3023 38.303C64.1011 38.0466 64.0183 37.7154 64.0746 37.3934L65.5006 29.3077C65.6616 28.3969 66.1665 27.6034 66.9243 27.0744C67.681 26.5443 68.5999 26.3407 69.5095 26.5017C71.1655 26.7915 72.3696 28.2244 72.3696 29.9069C72.3696 30.1093 72.3512 30.3128 72.3155 30.5129L70.8907 38.5963C70.8343 38.9183 70.6434 39.2 70.3651 39.3737C70.1811 39.4887 69.9707 39.5473 69.7579 39.5473L69.7568 39.5462ZM66.5552 36.5677C66.9393 36.616 67.3222 36.6735 67.704 36.7413C68.0847 36.808 68.4653 36.8851 68.8402 36.9713L70.05 30.1116C70.0627 30.0426 70.0684 29.9747 70.0684 29.9069C70.0684 29.3434 69.6659 28.865 69.1105 28.7672C68.8034 28.7132 68.4952 28.781 68.2422 28.9593C67.9881 29.1375 67.819 29.4032 67.765 29.7079L66.5552 36.5677Z" fill="black"/>
<path d="M46 29.9C42.8295 29.9 40.25 27.3206 40.25 24.15C40.25 16.8579 44.9857 12.0382 45.1869 11.837C45.6366 11.3873 46.3646 11.3873 46.8131 11.837C47.0143 12.0382 51.75 16.8579 51.75 24.15C51.75 27.3206 49.1706 29.9 46 29.9ZM46.0023 14.4268C44.7649 16.0437 42.55 19.5765 42.55 24.15C42.55 26.0521 44.0979 27.6 46 27.6C47.9021 27.6 49.45 26.0521 49.45 24.15C49.45 19.5546 47.2408 16.0368 46.0023 14.4268Z" fill="black"/>
<path d="M33.35 32.2001C30.8131 32.2001 28.75 30.137 28.75 27.6001C28.75 21.9513 32.4565 18.798 32.614 18.6669C33.0407 18.3116 33.6605 18.3116 34.086 18.6669C34.2435 18.798 37.95 21.9513 37.95 27.6001C37.95 30.137 35.8869 32.2001 33.35 32.2001ZM33.3477 21.2038C32.4473 22.2802 31.05 24.4572 31.05 27.6001C31.05 28.8686 32.0816 29.9001 33.35 29.9001C34.6185 29.9001 35.65 28.8686 35.65 27.6001C35.65 24.4687 34.247 22.2825 33.3477 21.2038Z" fill="black"/>
<path d="M58.65 32.2001C56.1131 32.2001 54.05 30.137 54.05 27.6001C54.05 21.9513 57.7564 18.798 57.914 18.6669C58.3406 18.3116 58.9605 18.3116 59.386 18.6669C59.5435 18.798 63.25 21.9513 63.25 27.6001C63.25 30.137 61.1869 32.2001 58.65 32.2001ZM58.6477 21.2038C57.7472 22.2802 56.35 24.4572 56.35 27.6001C56.35 28.8686 57.3815 29.9001 58.65 29.9001C59.9184 29.9001 60.95 28.8686 60.95 27.6001C60.95 24.4687 59.547 22.2825 58.6477 21.2038Z" fill="black"/>
<path d="M13.8437 47.6204C14.1611 53.5935 16.1403 59.3745 19.657 64.3954C24.6135 71.4737 32.0298 76.199 40.5398 77.6998C57.9209 80.7657 74.704 69.1472 77.9516 51.7995C77.9528 51.7914 77.9551 51.7845 77.9562 51.7765C77.9585 51.7638 77.962 51.7512 77.9631 51.7385C77.9654 51.7236 77.9689 51.7086 77.9712 51.6925C77.9873 51.6132 78.0022 51.5338 78.016 51.4545C78.0252 51.405 78.0321 51.3579 78.0402 51.3096C78.0459 51.2693 78.0528 51.2279 78.0597 51.1865L78.0655 51.1497C78.0816 51.0428 78.0965 50.9393 78.108 50.8346C78.1092 50.8243 78.1103 50.8128 78.1126 50.8024C78.1184 50.7622 78.123 50.7219 78.1264 50.6828C78.1264 50.6782 78.1264 50.6736 78.1276 50.669C78.1345 50.6127 78.1402 50.5575 78.1448 50.5023C78.1448 50.4965 78.1448 50.4908 78.146 50.485C78.1529 50.416 78.1586 50.3482 78.1644 50.2792C78.1701 50.2056 78.1747 50.1412 78.1782 50.0779C78.1782 50.0641 78.1782 50.0492 78.1793 50.0354C78.1828 49.9687 78.1862 49.9123 78.1874 49.856C78.1874 49.8525 78.1874 49.8479 78.1874 49.8445C78.1908 49.7789 78.192 49.7134 78.1931 49.6478C78.1931 49.6455 78.1931 49.6444 78.1931 49.6421C78.2449 47.0212 77.3421 44.7557 75.5113 42.91C74.0175 41.4023 71.9153 40.2236 69.4324 39.5002C68.7436 39.299 68.026 39.1334 67.3015 39.0057C66.577 38.8769 65.8467 38.7884 65.1291 38.7412C58.512 38.3065 53.9695 41.4104 52.9759 47.0419C52.317 50.7817 49.5075 53.8752 45.0662 55.752C40.7951 57.5564 35.4787 58.0279 30.0978 57.0791C24.717 56.1304 19.8824 53.8695 16.4864 50.7127C15.4273 49.7283 14.5441 48.691 13.8426 47.6204H13.8437Z" fill="white"/>
<path d="M66.5551 36.5676C66.9392 36.6159 67.3222 36.6734 67.704 36.7412C68.0846 36.8079 68.4653 36.885 68.8402 36.9712L70.05 30.1115C70.0626 30.0425 70.0684 29.9746 70.0684 29.9068C70.0684 29.3433 69.6659 28.8649 69.1104 28.7671C68.8034 28.7131 68.4952 28.7809 68.2422 28.9592C67.988 29.1374 67.819 29.4031 67.7649 29.7078L66.5551 36.5676Z" fill="white"/>
<path d="M33.3478 21.2036C32.4473 22.28 31.05 24.457 31.05 27.5999C31.05 28.8684 32.0816 29.8999 33.35 29.8999C34.6185 29.8999 35.65 28.8684 35.65 27.5999C35.65 24.4685 34.2471 22.2823 33.3478 21.2036Z" fill="white"/>
<path d="M46.0023 14.4268C44.7649 16.0437 42.55 19.5765 42.55 24.15C42.55 26.0521 44.0979 27.6 46 27.6C47.9021 27.6 49.45 26.0521 49.45 24.15C49.45 19.5546 47.2409 16.0368 46.0023 14.4268Z" fill="white"/>
<path d="M58.6477 21.2036C57.7473 22.28 56.35 24.457 56.35 27.5999C56.35 28.8684 57.3816 29.8999 58.65 29.8999C59.9185 29.8999 60.95 28.8684 60.95 27.5999C60.95 24.4685 59.547 22.2823 58.6477 21.2036Z" fill="white"/>
</g>
</svg>
