<svg width="92" height="92" viewBox="0 0 92 92" fill="none" xmlns="http://www.w3.org/2000/svg">
<g opacity="0.65">
<path d="M79.35 56.3503C79.35 55.1761 78.7635 54.1411 77.8677 53.5178C78.5715 52.6841 78.8693 51.5318 78.5657 50.3979C78.2621 49.264 77.4272 48.4153 76.4014 48.045C76.8649 47.0571 76.8557 45.8669 76.268 44.8503C75.6815 43.8337 74.6557 43.2299 73.5678 43.1379C73.7599 42.0638 73.4425 40.9173 72.6122 40.087C71.7819 39.2567 70.6353 38.9393 69.5612 39.1313C69.4692 38.0446 68.8655 37.0188 67.8489 36.4311C66.8323 35.8446 65.642 35.8343 64.6542 36.2977C64.2839 35.2719 63.4352 34.437 62.3013 34.1334C61.1674 33.8298 60.0151 34.1277 59.1813 34.8315C58.558 33.9356 57.5219 33.3491 56.3489 33.3491C55.1759 33.3491 54.1397 33.9356 53.5164 34.8315C52.6827 34.1277 51.5304 33.8298 50.3965 34.1334C49.2626 34.437 48.4139 35.2719 48.0436 36.2977C47.0557 35.8343 45.8655 35.8435 44.8489 36.4311C43.8323 37.0176 43.2285 38.0434 43.1365 39.1313C42.0624 38.9393 40.9159 39.2567 40.0856 40.087C39.2553 40.9173 38.9379 42.0638 39.1299 43.1379C38.0432 43.2299 37.0174 43.8337 36.4297 44.8503C35.8432 45.8669 35.8329 47.0571 36.2963 48.045C35.2705 48.4153 34.4356 49.264 34.132 50.3979C33.8284 51.5318 34.1263 52.6841 34.8301 53.5178C33.9342 54.1411 33.3477 55.1773 33.3477 56.3503C33.3477 57.5233 33.9342 58.5594 34.8301 59.1827C34.1263 60.0165 33.8284 61.1688 34.132 62.3027C34.4356 63.4366 35.2705 64.2853 36.2963 64.6556C35.8329 65.6434 35.8421 66.8337 36.4297 67.8503C37.0162 68.8669 38.042 69.4706 39.1299 69.5626C38.9379 70.6367 39.2553 71.7833 40.0856 72.6136C40.9159 73.4439 42.0624 73.7613 43.1365 73.5692C43.2285 74.656 43.8323 75.6818 44.8489 76.2694C45.8655 76.8559 47.0557 76.8663 48.0436 76.4028C48.4139 77.4286 49.2626 78.2635 50.3965 78.5671C51.5304 78.8707 52.6827 78.5729 53.5164 77.8691C54.1397 78.7649 55.1759 79.3514 56.3489 79.3514C57.5219 79.3514 58.558 78.7649 59.1813 77.8691C60.0151 78.5729 61.1674 78.8707 62.3013 78.5671C63.4352 78.2635 64.2839 77.4286 64.6542 76.4028C65.642 76.8663 66.8323 76.8571 67.8489 76.2694C68.8655 75.6829 69.4692 74.6571 69.5612 73.5692C70.6353 73.7613 71.7819 73.4439 72.6122 72.6136C73.4425 71.7833 73.7599 70.6367 73.5678 69.5626C74.6546 69.4706 75.6804 68.8669 76.268 67.8503C76.8545 66.8337 76.8649 65.6434 76.4014 64.6556C77.4272 64.2853 78.2621 63.4366 78.5657 62.3027C78.8693 61.1688 78.5715 60.0165 77.8677 59.1827C78.7635 58.5594 79.35 57.5233 79.35 56.3503Z" fill="white"/>
<path d="M56.35 80.5002C55.2242 80.5002 54.1501 80.0873 53.3209 79.3605C52.3308 79.847 51.1865 79.9689 50.0998 79.6768C49.013 79.3858 48.0827 78.7085 47.4686 77.7919C46.3864 78.0058 45.2502 77.8264 44.275 77.2641C43.2998 76.7017 42.5765 75.8059 42.2211 74.7628C41.1206 74.6892 40.0695 74.2223 39.2737 73.4265C38.4779 72.6307 38.011 71.5785 37.9374 70.4791C36.8932 70.1237 35.9985 69.4004 35.4361 68.4252C34.8738 67.45 34.6944 66.3138 34.9083 65.2316C33.9917 64.6175 33.3144 63.6872 33.0234 62.6004C32.7325 61.5137 32.8532 60.3694 33.3397 59.3793C32.614 58.549 32.2 57.4749 32.2 56.3502C32.2 55.2255 32.6129 54.1502 33.3397 53.3211C32.8532 52.3309 32.7313 51.1867 33.0234 50.0999C33.3144 49.0132 33.9917 48.0828 34.9083 47.4687C34.6944 46.3866 34.8738 45.2504 35.4361 44.2752C35.9985 43.3 36.8943 42.5766 37.9374 42.2213C38.011 41.1207 38.4779 40.0696 39.2737 39.2738C40.0695 38.478 41.1217 38.0111 42.2211 37.9375C42.5765 36.8933 43.2998 35.9986 44.275 35.4363C45.2502 34.8739 46.3864 34.6945 47.4686 34.9084C48.0827 33.9919 49.013 33.3145 50.0998 33.0236C51.1865 32.7326 52.3308 32.8534 53.3209 33.3398C54.1512 32.6142 55.2242 32.2002 56.35 32.2002C57.4759 32.2002 58.55 32.613 59.3791 33.3398C60.3693 32.8534 61.5135 32.7315 62.6003 33.0236C63.687 33.3145 64.6174 33.9919 65.2315 34.9084C66.3136 34.6945 67.4498 34.8728 68.425 35.4363C69.4002 35.9986 70.1236 36.8945 70.4789 37.9375C71.5795 38.0111 72.6306 38.478 73.4264 39.2738C74.2222 40.0696 74.6891 41.1219 74.7627 42.2213C75.8069 42.5766 76.7016 43.3 77.2639 44.2752C77.8263 45.2504 78.0057 46.3866 77.7918 47.4687C78.7083 48.0828 79.3857 49.0132 79.6766 50.0999C79.9676 51.1867 79.8468 52.3309 79.3604 53.3211C80.086 54.1514 80.5 55.2243 80.5 56.3502C80.5 57.476 80.0872 58.5501 79.3604 59.3793C79.8468 60.3694 79.9687 61.5137 79.6766 62.6004C79.3857 63.6872 78.7083 64.6175 77.7918 65.2316C78.0057 66.3138 77.8263 67.45 77.2639 68.4252C76.7016 69.4004 75.8057 70.1237 74.7627 70.4791C74.6891 71.5796 74.2222 72.6307 73.4264 73.4265C72.6306 74.2223 71.5783 74.6892 70.4789 74.7628C70.1236 75.807 69.4002 76.7017 68.425 77.2641C67.4498 77.8264 66.3136 78.0058 65.2315 77.7919C64.6174 78.7085 63.687 79.3858 62.6003 79.6768C61.5135 79.9677 60.3693 79.847 59.3791 79.3605C58.5488 80.0862 57.4759 80.5002 56.35 80.5002ZM53.5176 76.7178C53.567 76.7178 53.6176 76.7213 53.6682 76.7282C53.9891 76.7707 54.2766 76.9455 54.4617 77.2112C54.893 77.8299 55.5991 78.2002 56.3512 78.2002C57.1033 78.2002 57.8094 77.831 58.2406 77.2112C58.4258 76.9455 58.7133 76.7707 59.0341 76.7282C59.355 76.6856 59.6781 76.7811 59.9254 76.9892C60.5015 77.4757 61.2801 77.6505 62.0057 77.455C62.7325 77.2606 63.319 76.7201 63.5743 76.0106C63.6836 75.7058 63.917 75.462 64.216 75.339C64.515 75.2148 64.852 75.2228 65.1452 75.3608C65.8283 75.6817 66.6241 75.6483 67.275 75.2723C67.9259 74.8962 68.3526 74.2235 68.417 73.4714C68.4446 73.1494 68.6056 72.8527 68.8632 72.656C69.1196 72.4594 69.4474 72.3789 69.7659 72.4364C70.5088 72.5698 71.269 72.3317 71.8014 71.7993C72.3327 71.268 72.5708 70.5067 72.4385 69.7638C72.381 69.4452 72.4615 69.1175 72.6582 68.861C72.8548 68.6046 73.1515 68.4424 73.4735 68.4148C74.2256 68.3516 74.8984 67.9249 75.2744 67.2729C75.6505 66.6208 75.6838 65.825 75.363 65.1419C75.225 64.8487 75.2181 64.5117 75.3411 64.2127C75.4642 63.9137 75.7091 63.6814 76.0139 63.571C76.7234 63.3146 77.2628 62.7281 77.4583 62.0024C77.6526 61.2756 77.479 60.4982 76.9925 59.9221C76.7844 59.6748 76.6889 59.3517 76.7315 59.0308C76.774 58.71 76.9488 58.4225 77.2145 58.2373C77.8332 57.8061 78.2035 57.1 78.2035 56.3479C78.2035 55.5958 77.8343 54.8897 77.2145 54.4584C76.9488 54.2733 76.774 53.9858 76.7315 53.6649C76.6889 53.3441 76.7844 53.0209 76.9925 52.7737C77.479 52.1975 77.6538 51.419 77.4583 50.6933C77.2639 49.9665 76.7234 49.38 76.0139 49.1247C75.7091 49.0143 75.4653 48.782 75.3411 48.483C75.2169 48.184 75.225 47.8471 75.363 47.5538C75.6838 46.8707 75.6505 46.0749 75.2744 45.4229C74.8984 44.7708 74.2256 44.3453 73.4735 44.2809C73.1515 44.2533 72.8548 44.0923 72.6582 43.8347C72.4615 43.5783 72.381 43.2505 72.4385 42.932C72.5719 42.1891 72.3339 41.4289 71.8014 40.8965C71.2701 40.3652 70.51 40.1271 69.7659 40.2594C69.4474 40.3169 69.1196 40.2364 68.8632 40.0397C68.6067 39.8431 68.4446 39.5464 68.417 39.2244C68.3537 38.4723 67.9271 37.7995 67.275 37.4235C66.6241 37.0474 65.8272 37.0141 65.1452 37.3349C64.852 37.4729 64.515 37.4798 64.216 37.3568C63.917 37.2326 63.6847 36.9888 63.5743 36.6852C63.3179 35.9756 62.7314 35.4363 62.0057 35.2408C61.2789 35.0464 60.5015 35.2201 59.9254 35.7065C59.6781 35.9147 59.3538 36.0101 59.0341 35.9676C58.7133 35.925 58.4258 35.7502 58.2406 35.4846C57.8094 34.8659 57.1033 34.4956 56.3512 34.4956C55.5991 34.4956 54.893 34.8647 54.4617 35.4846C54.2766 35.7502 53.9891 35.925 53.6682 35.9676C53.3474 36.0101 53.0242 35.9147 52.777 35.7065C52.2008 35.2201 51.4223 35.0453 50.6966 35.2408C49.9698 35.4351 49.3833 35.9756 49.128 36.6852C49.0188 36.9899 48.7853 37.2337 48.4863 37.3568C48.1873 37.481 47.8504 37.4729 47.5571 37.3349C46.874 37.0141 46.0782 37.0474 45.4273 37.4235C44.7764 37.7995 44.3498 38.4723 44.2854 39.2244C44.2578 39.5464 44.0968 39.8431 43.8392 40.0397C43.5827 40.2364 43.255 40.3169 42.9364 40.2594C42.1935 40.126 41.4334 40.364 40.9009 40.8965C40.3696 41.4278 40.1316 42.1891 40.2638 42.932C40.3213 43.2505 40.2408 43.5783 40.0442 43.8347C39.8475 44.0912 39.5508 44.2533 39.2288 44.2809C38.4767 44.3442 37.804 44.7708 37.4279 45.4229C37.0519 46.0749 37.0185 46.8707 37.3394 47.5538C37.4774 47.8471 37.4843 48.184 37.3612 48.483C37.2382 48.782 36.9932 49.0143 36.6885 49.1247C35.9789 49.3812 35.4396 49.9677 35.2441 50.6933C35.0497 51.4201 35.2234 52.1975 35.7098 52.7737C35.918 53.0209 36.0134 53.3452 35.9709 53.6649C35.9283 53.9858 35.7535 54.2733 35.4879 54.4584C34.8692 54.8897 34.4989 55.5958 34.4989 56.3479C34.4989 57.1 34.868 57.8061 35.4879 58.2373C35.7535 58.4225 35.9283 58.71 35.9709 59.0308C36.0134 59.3517 35.918 59.6748 35.7098 59.9221C35.2234 60.4982 35.0486 61.2768 35.2441 62.0024C35.4384 62.7292 35.9789 63.3157 36.6885 63.571C36.9932 63.6814 37.237 63.9137 37.3612 64.2127C37.4854 64.5117 37.4774 64.8487 37.3394 65.1419C37.0185 65.825 37.0519 66.6208 37.4279 67.2729C37.804 67.9249 38.4767 68.3504 39.2288 68.4148C39.5508 68.4424 39.8475 68.6034 40.0442 68.861C40.2408 69.1175 40.3213 69.4452 40.2638 69.7638C40.1304 70.5067 40.3685 71.2668 40.9009 71.7993C41.4322 72.3306 42.1935 72.5686 42.9364 72.4364C43.255 72.3789 43.5827 72.4594 43.8392 72.656C44.0956 72.8527 44.2578 73.1494 44.2854 73.4714C44.3486 74.2235 44.7753 74.8962 45.4273 75.2723C46.0782 75.6483 46.8752 75.6817 47.5571 75.3608C47.8504 75.2228 48.1873 75.2159 48.4863 75.339C48.7853 75.4632 49.0176 75.707 49.128 76.0106C49.3845 76.7201 49.971 77.2606 50.6966 77.455C51.4234 77.6493 52.2008 77.4757 52.777 76.9892C52.9851 76.8133 53.2485 76.7178 53.5187 76.7178H53.5176Z" fill="black"/>
<path d="M56.35 48.3002C56.9851 48.3002 57.5 47.7854 57.5 47.1502C57.5 46.5151 56.9851 46.0002 56.35 46.0002C55.7148 46.0002 55.2 46.5151 55.2 47.1502C55.2 47.7854 55.7148 48.3002 56.35 48.3002Z" fill="black"/>
<path d="M56.35 57.5002C56.9851 57.5002 57.5 56.9853 57.5 56.3502C57.5 55.7151 56.9851 55.2002 56.35 55.2002C55.7148 55.2002 55.2 55.7151 55.2 56.3502C55.2 56.9853 55.7148 57.5002 56.35 57.5002Z" fill="black"/>
<path d="M47.15 48.3002C47.7851 48.3002 48.3 47.7854 48.3 47.1502C48.3 46.5151 47.7851 46.0002 47.15 46.0002C46.5149 46.0002 46 46.5151 46 47.1502C46 47.7854 46.5149 48.3002 47.15 48.3002Z" fill="black"/>
<path d="M47.15 57.5002C47.7851 57.5002 48.3 56.9853 48.3 56.3502C48.3 55.7151 47.7851 55.2002 47.15 55.2002C46.5149 55.2002 46 55.7151 46 56.3502C46 56.9853 46.5149 57.5002 47.15 57.5002Z" fill="black"/>
<path d="M47.15 66.7001C47.7851 66.7001 48.3 66.1853 48.3 65.5501C48.3 64.915 47.7851 64.4001 47.15 64.4001C46.5149 64.4001 46 64.915 46 65.5501C46 66.1853 46.5149 66.7001 47.15 66.7001Z" fill="black"/>
<path d="M56.35 66.7001C56.9851 66.7001 57.5 66.1853 57.5 65.5501C57.5 64.915 56.9851 64.4001 56.35 64.4001C55.7148 64.4001 55.2 64.915 55.2 65.5501C55.2 66.1853 55.7148 66.7001 56.35 66.7001Z" fill="black"/>
<path d="M65.55 66.7001C66.1852 66.7001 66.7 66.1853 66.7 65.5501C66.7 64.915 66.1852 64.4001 65.55 64.4001C64.9149 64.4001 64.4 64.915 64.4 65.5501C64.4 66.1853 64.9149 66.7001 65.55 66.7001Z" fill="black"/>
<path d="M65.55 57.5002C66.1852 57.5002 66.7 56.9853 66.7 56.3502C66.7 55.7151 66.1852 55.2002 65.55 55.2002C64.9149 55.2002 64.4 55.7151 64.4 56.3502C64.4 56.9853 64.9149 57.5002 65.55 57.5002Z" fill="black"/>
<path d="M65.55 48.3002C66.1852 48.3002 66.7 47.7854 66.7 47.1502C66.7 46.5151 66.1852 46.0002 65.55 46.0002C64.9149 46.0002 64.4 46.5151 64.4 47.1502C64.4 47.7854 64.9149 48.3002 65.55 48.3002Z" fill="black"/>
<path d="M41.2873 32.905C40.2121 34.1873 38.402 34.4897 36.9886 33.7146C36.8265 33.6261 36.6689 33.5226 36.5194 33.4064L36.5171 33.4087C35.6006 32.5842 34.27 32.2806 33.0303 32.7325C31.893 33.1465 30.7315 33.3489 29.5861 33.3581C27.83 33.3754 26.1154 32.9407 24.5974 32.1276C23.5325 31.5584 22.5653 30.8017 21.75 29.8828C20.9059 28.9329 20.2239 27.8117 19.7639 26.5467C19.1119 24.7561 20.0353 22.777 21.8259 22.1249C23.6164 21.4729 25.5956 22.3963 26.2476 24.1869C26.8893 25.951 28.819 26.8721 30.5877 26.2764C30.5889 26.2764 30.5912 26.2764 30.5935 26.2741C30.5958 26.2741 30.5981 26.2741 30.6015 26.2718C30.6234 26.2661 30.6464 26.258 30.6694 26.2488C30.6924 26.2396 30.7131 26.2327 30.7326 26.2235C30.7338 26.2235 30.7349 26.2235 30.7349 26.2235C30.7384 26.2235 30.7418 26.2224 30.7441 26.2201C30.7464 26.2201 30.7476 26.2201 30.7487 26.2189C31.5917 25.9199 32.4691 25.7336 33.3546 25.6612C35.3085 25.499 37.3083 25.8889 39.1 26.8526C39.3082 26.9641 39.5129 27.0826 39.7153 27.2102C40.0775 27.4391 40.4306 27.6932 40.771 27.9727C40.802 27.9968 40.8331 28.0221 40.863 28.0486C42.3235 29.2733 42.5132 31.4503 41.2885 32.9085L41.2873 32.905Z" fill="white"/>
<path d="M38.6366 35.2856C37.8856 35.2856 37.1278 35.1027 36.4355 34.7221C36.248 34.6186 36.0663 34.5024 35.895 34.3748C35.8432 34.3414 35.7938 34.3035 35.7478 34.2621C35.1141 33.6928 34.2229 33.5192 33.4225 33.8113C32.1839 34.2621 30.8959 34.4955 29.5941 34.5059C27.6713 34.5243 25.7566 34.0528 24.0534 33.1385C22.8551 32.498 21.7902 31.6585 20.8898 30.6442C19.9249 29.5586 19.1832 28.312 18.6829 26.9377C17.8158 24.5538 19.0486 21.9088 21.4326 21.0417C23.8165 20.1746 26.4615 21.4074 27.3286 23.7913C27.7576 24.9701 29.0214 25.5819 30.2094 25.1886C30.2312 25.1805 30.2531 25.1736 30.2749 25.1667C30.2922 25.1598 30.3083 25.1529 30.3255 25.146C30.3336 25.1426 30.3416 25.1403 30.3497 25.1368C30.3508 25.1368 30.3531 25.1368 30.3543 25.1357C30.3577 25.1345 30.3612 25.1334 30.3658 25.1322C31.2996 24.8022 32.2736 24.5929 33.2615 24.5124C35.4844 24.3284 37.6924 24.7861 39.6451 25.8372C39.8774 25.9614 40.1086 26.0959 40.3282 26.2351C40.7342 26.4915 41.1252 26.7744 41.4909 27.0746C41.53 27.1056 41.5691 27.1378 41.6082 27.17C42.5431 27.9543 43.1204 29.0629 43.2274 30.2877C43.3343 31.5124 42.9583 32.7038 42.1682 33.6457C41.2712 34.7152 39.9637 35.2879 38.6377 35.2879L38.6366 35.2856ZM37.2071 32.4842C37.2129 32.4888 37.2186 32.4934 37.2244 32.4968C37.3244 32.5739 37.4314 32.6452 37.5429 32.7061C38.4986 33.2305 39.7038 33.004 40.4064 32.1656C40.8009 31.6953 40.9895 31.0996 40.9354 30.4866C40.8814 29.8748 40.5927 29.3205 40.1224 28.9249C40.0971 28.9031 40.0775 28.8881 40.0591 28.8732C40.0522 28.8674 40.0453 28.8628 40.0396 28.8571C39.744 28.6144 39.4278 28.3856 39.1 28.1786C38.9264 28.0693 38.7435 27.9624 38.5572 27.8623C36.9944 27.0217 35.2303 26.656 33.4501 26.8032C32.6681 26.8676 31.8976 27.0309 31.1593 27.2896C31.1202 27.3057 31.0868 27.3184 31.0638 27.3264C31.0443 27.3333 31.0178 27.3437 30.9856 27.354C30.9592 27.3632 30.9316 27.3724 30.9051 27.3805C28.5361 28.1498 26.0234 26.9262 25.1689 24.5779C24.7354 23.3865 23.4129 22.7701 22.2215 23.2037C21.0301 23.6372 20.4137 24.9597 20.8472 26.1511C21.2474 27.2505 21.842 28.2487 22.6125 29.117C23.3324 29.9277 24.1834 30.5982 25.1425 31.1111C26.5075 31.8425 28.0405 32.2197 29.5769 32.2059C30.6176 32.1978 31.6469 32.0104 32.6382 31.6493C34.2068 31.0789 35.9479 31.3986 37.2094 32.483L37.2071 32.4842Z" fill="black"/>
<path d="M32.7313 21.8249C33.1925 23.0899 33.3903 24.3882 33.3546 25.6578C32.4691 25.7303 31.5928 25.9177 30.7487 26.2156C30.7487 26.2167 30.7464 26.2179 30.7441 26.2167C30.7418 26.219 30.7384 26.2202 30.7349 26.2202C30.7349 26.2202 30.7349 26.2213 30.7326 26.2202L30.6004 26.2685C30.6004 26.2685 30.5958 26.2719 30.5923 26.2708C30.59 26.2731 30.5889 26.2731 30.5866 26.2731C28.8179 26.8688 26.8882 25.9476 26.2465 24.1835C25.5944 22.393 23.6153 21.4695 21.8247 22.1216C20.0342 22.7736 19.1107 24.7528 19.7628 26.5433C20.2239 27.8083 20.9059 28.9296 21.7488 29.8795C20.148 31.0122 18.8669 32.5958 18.1137 34.4852C18.0263 34.7049 17.9458 34.9268 17.8722 35.1545C15.9068 33.6584 14.3221 31.6183 13.3722 29.1538C13.34 29.071 13.309 28.9882 13.2779 28.9043C13.2469 28.8203 13.2181 28.7364 13.1894 28.6524C11.4092 23.3475 14.1761 17.563 19.4638 15.639C20.6011 15.225 21.7626 15.0226 22.908 15.0134C27.1711 14.972 31.1892 17.5894 32.7302 21.8249H32.7313Z" fill="white"/>
<path d="M17.8733 36.3056C17.6249 36.3056 17.38 36.2251 17.1764 36.071C14.9822 34.4001 13.2952 32.1518 12.3004 29.5677C12.2671 29.4838 12.2326 29.3918 12.1981 29.2975C12.1636 29.2044 12.1314 29.1112 12.1003 29.0181C11.1424 26.1649 11.3344 23.0967 12.6408 20.3804C13.9495 17.6595 16.2334 15.5918 19.0716 14.5591C20.3102 14.1083 21.5982 13.8749 22.9 13.8645C22.9368 13.8645 22.9747 13.8645 23.0115 13.8645C27.8277 13.8645 32.1587 16.8936 33.8112 21.4327C34.3115 22.8058 34.5437 24.2387 34.5023 25.6911C34.4862 26.2776 34.0308 26.7572 33.4466 26.8043C32.6646 26.8687 31.8941 27.032 31.1535 27.2919C31.1363 27.2988 31.1179 27.3046 31.1007 27.3115L31.0294 27.3379C30.988 27.3552 30.9454 27.3701 30.9017 27.3816C28.5315 28.151 26.0199 26.9274 25.1655 24.5791C24.7319 23.3877 23.4094 22.7713 22.218 23.2048C21.0266 23.6384 20.4102 24.9609 20.8438 26.1523C21.244 27.2517 21.8385 28.2499 22.609 29.1181C22.8264 29.3631 22.9287 29.6885 22.8919 30.0128C22.8551 30.3371 22.6803 30.6315 22.4135 30.8201C20.9553 31.8505 19.8387 33.2661 19.1832 34.9118C19.1038 35.1108 19.0314 35.3097 18.9693 35.5064C18.8554 35.8617 18.576 36.14 18.2195 36.2527C18.1068 36.2883 17.9895 36.3056 17.8745 36.3056H17.8733ZM23.0104 16.1634C22.9805 16.1634 22.9506 16.1634 22.9207 16.1634C21.8799 16.1714 20.8507 16.3589 19.8594 16.72C15.1329 18.4404 12.6834 23.5211 14.2819 28.2867C14.3072 28.3626 14.3336 28.4362 14.3601 28.5109C14.3877 28.5857 14.4153 28.6593 14.444 28.7317C15.103 30.4429 16.1161 31.977 17.411 33.2397C18.0746 31.8908 18.998 30.6879 20.1319 29.6943C19.5282 28.8502 19.0429 27.9267 18.6829 26.9377C17.8158 24.5538 19.0486 21.9088 21.4326 21.0417C23.8165 20.1746 26.4615 21.4074 27.3286 23.7913C27.7576 24.9701 29.0215 25.5819 30.2094 25.1886L30.3336 25.1437C30.3336 25.1437 30.3451 25.1391 30.3509 25.138H30.3543C30.3543 25.138 30.3623 25.1334 30.3658 25.1322C30.9569 24.9229 31.5641 24.7631 32.1817 24.6527C32.1173 23.8258 31.9402 23.0105 31.6515 22.2193C30.3302 18.5876 26.8652 16.1634 23.0104 16.1634Z" fill="black"/>
<path d="M39.215 19.4651C39.2461 19.549 39.2748 19.633 39.3036 19.7169C40.1603 22.2159 40.2581 24.7976 39.7141 27.2069C39.5129 27.0792 39.307 26.9608 39.0989 26.8492C37.3083 25.8855 35.3085 25.4957 33.3535 25.6578C33.3891 24.3882 33.1913 23.091 32.7302 21.8249C31.1892 17.5894 27.1711 14.972 22.908 15.0134C23.7912 14.2843 24.8113 13.6932 25.9486 13.2792C31.2363 11.3541 37.0737 14.0072 39.1196 19.2155C39.1518 19.2983 39.1828 19.3811 39.2139 19.4651H39.215Z" fill="white"/>
<path d="M39.713 28.3568C39.4991 28.3568 39.2852 28.297 39.0989 28.1797C38.9241 28.0693 38.7412 27.9635 38.5549 27.8634C36.9921 27.0228 35.228 26.6571 33.4478 26.8043C33.1212 26.8319 32.7992 26.718 32.5623 26.4926C32.3242 26.2672 32.1943 25.9521 32.2035 25.6255C32.2368 24.4652 32.0505 23.3186 31.6492 22.2192C30.3278 18.5875 26.8629 16.1633 23.0092 16.1633C22.9793 16.1633 22.9494 16.1633 22.9195 16.1633C22.4354 16.1714 21.9949 15.8655 21.8282 15.4078C21.6614 14.9501 21.8006 14.4372 22.1766 14.1267C23.1806 13.2975 24.3168 12.6489 25.5553 12.1981C28.3935 11.1654 31.4721 11.2804 34.2229 12.5247C36.9702 13.7656 39.0885 15.9931 40.1902 18.7945C40.2259 18.8854 40.2604 18.9774 40.2949 19.0705C40.3294 19.1637 40.3616 19.2568 40.3926 19.35C41.2885 21.9616 41.4414 24.7676 40.8342 27.4575C40.7526 27.822 40.4984 28.1233 40.1523 28.2671C40.0108 28.3257 39.8613 28.3545 39.7118 28.3545L39.713 28.3568ZM34.4736 24.4744C35.9812 24.5077 37.4613 24.8355 38.8367 25.4415C39.0172 23.6429 38.8079 21.8179 38.2145 20.0894C38.1869 20.0066 38.1605 19.933 38.134 19.8583C38.1064 19.7835 38.0788 19.7099 38.0501 19.6363C36.2112 14.957 31.0696 12.6397 26.3442 14.359C29.7425 15.3928 32.5531 17.9746 33.8112 21.4315C34.1711 22.4205 34.3919 23.4394 34.4724 24.4744H34.4736Z" fill="black"/>
<path d="M36.516 33.4077C35.0509 35.0418 33.1741 36.3494 30.9673 37.1532C28.7604 37.9571 26.4823 38.1618 24.3088 37.8513C24.4813 36.6311 25.3058 35.5432 26.5444 35.0913C27.6817 34.6773 28.7018 34.0862 29.585 33.3571C30.7292 33.3479 31.8919 33.1455 33.0292 32.7315C34.2689 32.2807 35.5995 32.5843 36.516 33.4077Z" fill="white"/>
<path d="M26.2339 39.1369C25.5358 39.1369 24.8378 39.0875 24.1466 38.9886C23.5187 38.8989 23.0817 38.317 23.1703 37.6891C23.4083 36.002 24.5514 34.5921 26.1522 34.0091C27.1435 33.648 28.052 33.1293 28.8536 32.4681C29.0571 32.3002 29.3124 32.207 29.5769 32.2047C30.6154 32.1967 31.6446 32.0092 32.6359 31.6481C34.2367 31.0662 36.0181 31.4112 37.2854 32.5497C37.7569 32.9741 37.796 33.6997 37.3728 34.1724C35.7455 35.9882 33.6663 37.3912 31.3606 38.2307C29.7149 38.8299 27.9738 39.1346 26.2339 39.1346V39.1369ZM25.9797 36.8346C27.5368 36.8668 29.0997 36.6092 30.574 36.0722C32.0483 35.5363 33.4122 34.7278 34.584 33.7032C34.2011 33.6399 33.802 33.6733 33.4225 33.8113C32.3128 34.2149 31.1639 34.4449 30.0001 34.4955C29.0767 35.2039 28.0486 35.7674 26.9388 36.1711C26.5593 36.3091 26.2316 36.5402 25.9797 36.8346Z" fill="black"/>
<path d="M29.585 33.3571C28.7018 34.0862 27.6817 34.6773 26.5444 35.0913C25.3047 35.5421 24.4813 36.63 24.3088 37.8513C24.3088 37.8513 24.3065 37.8513 24.3053 37.8513C24.2651 38.0376 24.211 38.217 24.1443 38.3895C23.5601 39.8914 21.9789 40.824 20.3309 40.5319C18.4541 40.2019 17.2006 38.4125 17.533 36.5357C17.5399 36.4966 17.5468 36.4575 17.5548 36.4184C17.6353 35.9848 17.7434 35.5639 17.8734 35.1557C17.9458 34.928 18.0263 34.706 18.1149 34.4864C18.8681 32.5969 20.1492 31.0134 21.75 29.8806C22.5654 30.7995 23.5325 31.5562 24.5974 32.1254C26.1154 32.9385 27.8301 33.3732 29.5861 33.3559L29.585 33.3571Z" fill="white"/>
<path d="M20.9278 41.7348C20.6644 41.7348 20.3976 41.7118 20.1308 41.6646C18.921 41.4519 17.8665 40.7803 17.1615 39.7729C16.4566 38.7666 16.1863 37.5453 16.4002 36.3355C16.4071 36.2941 16.4163 36.2447 16.4267 36.1964C16.5141 35.7306 16.6325 35.2637 16.7786 34.806C16.8579 34.5576 16.9488 34.3058 17.0477 34.0585C17.8676 32 19.2649 30.2302 21.0865 28.9422C21.5649 28.6041 22.2215 28.68 22.6102 29.1181C23.329 29.9289 24.18 30.5993 25.1391 31.1122C26.5041 31.8436 28.0394 32.222 29.5735 32.207C29.5769 32.207 29.5815 32.207 29.585 32.207C30.068 32.207 30.4992 32.5083 30.6648 32.9626C30.8316 33.4203 30.6924 33.9332 30.3164 34.2437C29.3124 35.0728 28.1762 35.7214 26.9377 36.1722C26.1373 36.4632 25.5657 37.1681 25.4473 38.0122C25.4381 38.0743 25.4243 38.1353 25.4059 38.1939C25.3564 38.4021 25.292 38.6068 25.215 38.8057C24.5215 40.5905 22.7931 41.7348 20.9266 41.7348H20.9278ZM21.65 31.4227C20.5632 32.3761 19.7191 33.5663 19.1832 34.9118C19.1039 35.1108 19.0314 35.3097 18.9693 35.5064C18.8509 35.8755 18.7554 36.2539 18.6853 36.6299C18.6841 36.638 18.6818 36.646 18.6807 36.6541C18.6761 36.6782 18.6715 36.7024 18.6669 36.7265C18.5588 37.3406 18.6933 37.9513 19.0464 38.455C19.3983 38.9587 19.9261 39.2945 20.531 39.4003C21.6086 39.5912 22.6769 38.9909 23.0725 37.9731C23.1185 37.8558 23.1553 37.7328 23.1818 37.6086C23.1829 37.6017 23.1852 37.5936 23.1864 37.5867C23.4555 35.9457 24.5836 34.5806 26.1522 34.0102C25.4277 33.7906 24.7251 33.4996 24.0535 33.1397C23.176 32.6705 22.371 32.0955 21.6488 31.4227H21.65Z" fill="black"/>
</g>
</svg>
