<?xml version="1.0" encoding="UTF-8"?>
<svg id="Layer_2" data-name="Layer 2" xmlns="http://www.w3.org/2000/svg" viewBox="0 0 800 800">
  <defs>
    <style>
      .cls-1 {
        fill: #a9d182;
      }

      .cls-1, .cls-2, .cls-3, .cls-4, .cls-5, .cls-6, .cls-7, .cls-8 {
        stroke-width: 0px;
      }

      .cls-3 {
        fill: none;
      }

      .cls-4 {
        fill: #fff;
      }

      .cls-5 {
        fill: #e57557;
      }

      .cls-6 {
        fill: #e2e2e2;
      }

      .cls-7 {
        fill: #fddf89;
      }

      .cls-8 {
        fill: #fffae1;
      }
    </style>
  </defs>
  <g id="_양식" data-name="양식">
    <g id="_양식-2" data-name="양식">
      <g id="hover">
        <g>
          <g>
            <path class="cls-4" d="M360,140h20c11.05,0,20,8.95,20,20v9.64c0,5.66,4.7,10.2,10.36,9.99l269.64-9.63"/>
            <path class="cls-2" d="M409.98,189.64c-5.2,0-10.1-1.98-13.86-5.61-3.94-3.8-6.11-8.91-6.11-14.39v-9.64c0-5.51-4.49-10-10-10h-20c-5.52,0-10-4.48-10-10s4.48-10,10-10h20c16.54,0,30,13.46,30,30v9.64l269.64-9.63c5.51-.21,10.15,4.12,10.35,9.64s-4.12,10.15-9.64,10.35l-269.64,9.63c-.25,0-.49.01-.74.01Z"/>
          </g>
          <g>
            <path class="cls-6" d="M330,260h50c11.05,0,20-8.95,20-20v-9.64c0-5.66,4.7-10.2,10.36-9.99l269.64,9.63c5.52,0,10-13.43,10-30s-4.48-30-10-30l-269.64,9.63c-5.66.2-10.36-4.33-10.36-9.99v-9.64c0-11.05-8.95-20-20-20h-20s-30,0-30,0"/>
            <path class="cls-2" d="M380,270h-50c-5.52,0-10-4.48-10-10s4.48-10,10-10h50c5.51,0,10-4.49,10-10v-9.64c0-5.48,2.17-10.59,6.11-14.39,3.94-3.8,9.14-5.79,14.6-5.59l266.2,9.51c1.38-3.2,3.09-10.28,3.09-19.88s-1.71-16.68-3.09-19.88l-266.2,9.51c-5.48.19-10.66-1.79-14.6-5.59-3.94-3.8-6.11-8.91-6.11-14.39v-9.64c0-5.51-4.49-10-10-10h-50c-5.52,0-10-4.48-10-10s4.48-10,10-10h50c16.54,0,30,13.46,30,30v9.64l269.82-9.64h.18c14.75,0,20,20.66,20,40s-5.25,40-20,40h-.36s-269.64-9.64-269.64-9.64v9.64c0,16.54-13.46,30-30,30Z"/>
          </g>
          <path class="cls-2" d="M350,190h-20c-5.52,0-10-4.48-10-10s4.48-10,10-10h20c5.52,0,10,4.48,10,10s-4.48,10-10,10Z"/>
          <path class="cls-2" d="M350,230h-20c-5.52,0-10-4.48-10-10s4.48-10,10-10h20c5.52,0,10,4.48,10,10s-4.48,10-10,10Z"/>
        </g>
        <g>
          <g>
            <path class="cls-8" d="M330,360.26v-210.26c0-22.09-17.91-40-40-40h-40c-22.09,0-40,17.91-40,40v261.44"/>
            <path class="cls-2" d="M210,421.44c-5.52,0-10-4.48-10-10V150c0-27.57,22.43-50,50-50h40c27.57,0,50,22.43,50,50v210.26c0,5.52-4.48,10-10,10s-10-4.48-10-10v-210.26c0-16.54-13.46-30-30-30h-40c-16.54,0-30,13.46-30,30v261.44c0,5.52-4.48,10-10,10Z"/>
          </g>
          <path class="cls-2" d="M250,390c-5.52,0-10-4.48-10-10V110c0-5.52,4.48-10,10-10s10,4.48,10,10v270c0,5.52-4.48,10-10,10Z"/>
          <path class="cls-2" d="M290,370c-5.52,0-10-4.48-10-10V110c0-5.52,4.48-10,10-10s10,4.48,10,10v250c0,5.52-4.48,10-10,10Z"/>
        </g>
        <g>
          <path class="cls-4" d="M400,550H130c-5.52,0-10.52,2.24-14.14,5.86s-5.86,8.62-5.86,14.14c0,11.05,8.95,20,20,20h10c22.09,0,40,17.91,40,40,0,33.14,58.2,60,130,60h20s70,0,70,0h90c71.8,0,130-26.86,130-60,0-22.09,17.91-40,40-40h10c11.05,0,20-8.95,20-20,0-5.52-2.24-10.52-5.86-14.14s-8.62-5.86-14.14-5.86h-270Z"/>
          <path class="cls-2" d="M490,700h-180c-36.14,0-70.28-6.57-96.12-18.49-28.3-13.06-43.88-31.35-43.88-51.51,0-16.54-13.46-30-30-30h-10c-16.54,0-30-13.46-30-30,0-8.01,3.12-15.54,8.79-21.21,5.67-5.67,13.2-8.79,21.21-8.79h540c8.01,0,15.54,3.12,21.21,8.79,5.67,5.67,8.79,13.2,8.79,21.21,0,16.54-13.46,30-30,30h-10c-16.54,0-30,13.46-30,30,0,20.15-15.58,38.45-43.88,51.51-25.84,11.93-59.97,18.49-96.12,18.49ZM130,560c-2.67,0-5.18,1.04-7.07,2.93s-2.93,4.4-2.93,7.07c0,5.51,4.49,10,10,10h10c27.57,0,50,22.43,50,50,0,23.65,49.28,50,120,50h180c70.72,0,120-26.35,120-50,0-27.57,22.43-50,50-50h10c5.51,0,10-4.49,10-10,0-2.67-1.04-5.18-2.93-7.07s-4.4-2.93-7.07-2.93H130Z"/>
        </g>
        <g>
          <g>
            <path class="cls-8" d="M310,550h-130c0-.29,0-.58.01-.88v-.02c0-.28,0-.57.01-.85v-.15c0-.07.01-.13.01-.2.03-.81.07-1.62.13-2.42.11-1.79.31-3.57.58-5.32.14-.96.31-1.91.49-2.85.35-1.76.77-3.5,1.26-5.21.27-.93.55-1.85.86-2.76,4.31-12.88,12.56-23.97,23.3-31.83.74-.54,1.49-1.07,2.25-1.57.17-.11.33-.22.5-.33.72-.48,1.45-.94,2.2-1.38,2.71-1.63,5.54-3.06,8.49-4.29.83-.34,1.66-.67,2.51-.97.62-.24,1.24-.45,1.87-.66.34-.12.68-.23,1.03-.33.3-.1.61-.19.92-.28.86-.26,1.72-.5,2.59-.72,1.54-.39,3.1-.72,4.67-1,1.58-.27,3.17-.49,4.78-.66,2.15-.21,4.33-.32,6.54-.32,35.9,0,65,29.1,65,65Z"/>
            <path class="cls-2" d="M320,560h-150v-10c0-.34,0-.68,0-1.02,0-.3,0-.59.01-.88,0-.24,0-.46.02-.67.03-.88.08-1.76.14-2.63.13-2.01.35-4.08.67-6.17.13-.9.31-1.95.55-3.21.42-2.1.91-4.13,1.47-6.08.36-1.26.68-2.27,1.01-3.23,4.93-14.73,14.22-27.43,26.86-36.67,1-.73,1.84-1.32,2.66-1.85l.45-.3h0c.9-.6,1.76-1.14,2.64-1.66,3.1-1.86,6.38-3.52,9.75-4.92.87-.36,1.84-.75,2.89-1.12.7-.27,1.39-.51,2.1-.74.44-.15.87-.29,1.32-.43.34-.11.68-.21,1.03-.31.99-.3,1.99-.58,2.97-.82,1.7-.43,3.51-.82,5.37-1.15,1.85-.32,3.67-.57,5.48-.76,2.58-.25,5.1-.38,7.59-.38,41.35,0,75,33.65,75,75v10ZM190.9,540h108.19c-4.71-25.57-27.18-45-54.09-45-1.84,0-3.72.09-5.57.27-1.31.14-2.7.33-4.07.56-1.32.24-2.65.52-3.9.84-.72.18-1.44.38-2.15.6l-.11.03c-.18.05-.36.1-.54.16l-.42.13c-.15.04-.3.09-.45.15l-.17.06c-.48.16-.95.31-1.42.5l-.29.11c-.69.24-1.37.52-2.05.79-2.43,1.01-4.84,2.23-7.12,3.6l-.09.06c-.56.33-1.12.68-1.71,1.08l-.62.41c-.56.37-1.18.81-1.79,1.25-9.13,6.68-16.14,16.25-19.71,26.92-.24.71-.47,1.44-.74,2.37-.4,1.4-.76,2.88-1.06,4.38-.05.24-.09.49-.14.74Z"/>
          </g>
          <g>
            <path class="cls-8" d="M420,550h-110c0-35.9-29.1-65-65-65-2.21,0-4.39.11-6.54.32-1.61.17-3.2.39-4.78.66-1.57.28-3.13.61-4.67,1-.87.22-1.73.46-2.59.72-.31.09-.62.18-.92.28-.35.1-.69.21-1.03.33-.63.21-1.25.42-1.87.66-.85.3-1.68.63-2.51.97-2.95,1.23-5.78,2.66-8.49,4.29-.75.44-1.48.9-2.2,1.38-.17.11-.33.22-.5.33-.76.5-1.51,1.03-2.25,1.57-10.74,7.86-18.99,18.95-23.3,31.83-.31.91-.59,1.83-.86,2.76-.49,1.71-.91,3.45-1.26,5.21-.18.94-.35,1.89-.49,2.85-.27,1.75-.47,3.53-.58,5.32-.06.8-.1,1.61-.13,2.42.59-34.99,16.18-66.34,40.6-87.9h158.74c24.91,21.98,40.63,54.16,40.63,90Z"/>
            <path class="cls-2" d="M430,560h-130v-10c0-30.33-24.67-55-55-55-1.84,0-3.72.09-5.57.27-1.31.14-2.7.33-4.07.56-1.32.24-2.65.52-3.9.84-.72.18-1.44.38-2.15.6l-.11.03c-.18.05-.36.1-.54.16l-.42.13c-.15.04-.3.09-.45.15l-.17.06c-.48.16-.95.31-1.42.5l-.29.11c-.69.24-1.37.52-2.05.79-2.43,1.01-4.84,2.23-7.12,3.6l-.09.06c-.56.33-1.12.68-1.71,1.08l-.62.41c-.56.37-1.18.81-1.79,1.25-9.13,6.68-16.14,16.25-19.71,26.92-.24.71-.47,1.44-.74,2.37-.4,1.4-.76,2.88-1.06,4.38-.14.73-.28,1.53-.4,2.34-.25,1.59-.41,3.07-.49,4.49v.14c-.06.67-.09,1.36-.12,2.04l-19.99-.54c.61-36.38,16.64-71.09,43.98-95.23l2.84-2.5h166.3l2.83,2.5c27.97,24.68,44.01,60.22,44.01,97.5v10ZM319.34,540h90.21c-2.43-26.61-14.51-51.55-34.05-70h-150.99c-3.91,3.69-7.52,7.65-10.81,11.83.84-.39,1.69-.76,2.55-1.12.87-.36,1.84-.75,2.89-1.12.7-.27,1.39-.5,2.1-.74.44-.15.87-.29,1.32-.43.34-.11.69-.21,1.03-.31.99-.3,1.99-.58,2.97-.82,1.7-.43,3.51-.82,5.37-1.15,1.85-.32,3.67-.57,5.48-.76,2.58-.25,5.1-.38,7.59-.38,37.97,0,69.43,28.35,74.34,65Z"/>
          </g>
          <g>
            <path class="cls-4" d="M220.63,460c-24.42,21.56-40.01,52.91-40.6,87.9,0,.07-.01.13-.01.2.38-32.71,10.58-63.07,27.79-88.26.71.09,1.44.14,2.19.15.13.01.26.01.39.01h10.24Z"/>
            <path class="cls-2" d="M189.99,548.79c.01-.19.02-.38.03-.58h0s-20-.11-20-.11c0-.05,0-.11,0-.16.4-33.63,10.61-66.05,29.53-93.74l3.45-5.05,6.07.77c.33.04.69.07,1.06.07h.37s36.56,0,36.56,0l-19.82,17.5c-23.13,20.42-36.69,49.77-37.22,80.54,0,.26-.02.51-.04.75Z"/>
          </g>
          <g>
            <path class="cls-8" d="M500,550h-80c0-35.84-15.72-68.02-40.63-90h92.93c2.23,3.27,4.34,6.62,6.32,10.05,13.6,23.52,21.38,50.83,21.38,79.95Z"/>
            <path class="cls-2" d="M510,560h-100v-10c0-31.54-13.58-61.62-37.25-82.5l-19.83-17.5h124.66l2.98,4.37c2.38,3.49,4.64,7.08,6.72,10.69,14.86,25.7,22.72,55.08,22.72,84.95v10ZM429.61,540h60.05c-1.52-22.88-8.26-45.15-19.7-64.94-.98-1.69-2-3.38-3.06-5.06h-64.45c15.67,20.08,25.18,44.42,27.15,70Z"/>
          </g>
          <g>
            <path class="cls-8" d="M610,550h-100c0-27.61,22.39-50,50-50s49.3,21.7,49.98,48.71c.02.43.02.86.02,1.29Z"/>
            <path class="cls-2" d="M620,560h-120v-10c0-33.08,26.92-60,60-60,15.76,0,30.64,6.06,41.91,17.07,11.23,10.97,17.64,25.63,18.06,41.29.02.55.03,1.09.03,1.64v10ZM521.27,540h77.45c-4.5-17.18-20.3-30-38.72-30s-34.28,12.77-38.73,30Z"/>
          </g>
          <g>
            <path class="cls-8" d="M609.98,548.71c-.68-27.01-22.8-48.71-49.98-48.71s-50,22.39-50,50h-10c0-29.12-7.78-56.43-21.38-79.95,12.39-6.42,26.46-10.05,41.38-10.05,49.28,0,89.3,39.59,89.98,88.71Z"/>
            <path class="cls-2" d="M520,560h-30v-10c0-26.36-6.93-52.27-20.04-74.94l-5.24-9.07,9.3-4.82c14.1-7.31,30-11.17,45.98-11.17,26.47,0,51.41,10.23,70.24,28.82,18.81,18.57,29.37,43.34,29.74,69.75l-20,.39c-.54-21.48-18.48-38.96-39.98-38.96s-40,17.94-40,40v10ZM492.51,474.83c7.18,14.57,12.23,30.12,15,46.13,10.25-18.45,29.94-30.96,52.49-30.96,5.03,0,9.96.62,14.72,1.81-14.35-13.51-33.64-21.81-54.72-21.81-9.53,0-18.74,1.62-27.49,4.83Z"/>
          </g>
          <g>
            <path class="cls-4" d="M520,460c-14.92,0-28.99,3.63-41.38,10.05-1.98-3.43-4.09-6.78-6.32-10.05h47.7Z"/>
            <path class="cls-2" d="M474.74,483.32l-4.78-8.28c-1.83-3.17-3.82-6.34-5.92-9.41l-10.66-15.63h66.63v20c-12.97,0-25.35,3-36.78,8.93l-8.48,4.4Z"/>
          </g>
          <g>
            <path class="cls-8" d="M609.98,548.71c-.68-49.12-40.7-88.71-89.98-88.71h51.97c1.69,0,3.3-.19,4.81-.56,20.46,24.12,32.91,55.24,33.2,89.27Z"/>
            <path class="cls-2" d="M599.98,548.85c-.6-43.48-36.48-78.85-79.98-78.85v-20h51.97c.87,0,1.69-.09,2.43-.27l6.01-1.47,4,4.72c22.64,26.69,35.27,60.66,35.57,95.65l-20,.22Z"/>
          </g>
        </g>
        <g>
          <g>
            <path class="cls-5" d="M576.78,459.44c-1.51.37-3.12.56-4.81.56H210.39c-.13,0-.26,0-.39-.01-.75-.01-1.48-.06-2.19-.15-15.43-1.89-23.09-20.54-12.57-32.91,4.63-5.44,9.55-10.61,14.76-15.49,31.72-29.77,73.66-48.78,120-51.18,3.31-.17,6.64-.26,10-.26,31.26,0,60.74,7.54,86.75,20.92,3.87,1.99,8.3,2.62,12.58,1.84,9.95-1.81,20.2-2.76,30.67-2.76,44.68,0,85.33,17.23,115.66,45.41,12.04,11.19,5.89,30.53-8.88,34.03Z"/>
            <path class="cls-2" d="M571.97,470H210.39c-.24,0-.49,0-.73-.01-1.05-.02-2.1-.1-3.11-.23-10.82-1.32-20.07-8.55-24.08-18.84-4.09-10.47-2.16-21.86,5.16-30.46,4.88-5.74,10.11-11.22,15.54-16.31,34.41-32.3,79.28-51.43,126.32-53.87,3.53-.18,7.07-.27,10.52-.27,32.19,0,62.91,7.41,91.32,22.03,1.88.96,4.08,1.28,6.21.9,10.66-1.94,21.58-2.92,32.46-2.92,45.6,0,89.09,17.08,122.47,48.08,8.22,7.64,11.42,18.64,8.57,29.45-2.85,10.8-11.25,19.09-21.91,21.63-2.28.56-4.69.84-7.15.84ZM210.5,450h361.47c.87,0,1.69-.09,2.43-.27l.07-.02c4.17-.99,6.46-4.41,7.22-7.28.56-2.11.93-6.19-2.84-9.69-29.66-27.56-68.32-42.73-108.85-42.73-9.68,0-19.4.87-28.88,2.6-6.44,1.17-13.17.18-18.94-2.79-25.56-13.15-53.21-19.81-82.18-19.81-3.11,0-6.3.08-9.49.25-42.32,2.19-82.69,19.41-113.67,48.48-4.89,4.58-9.59,9.52-13.99,14.68-3.56,4.18-2.42,8.55-1.76,10.23,1.36,3.48,4.32,5.83,7.93,6.27.38.05.74.07,1.11.08h.37Z"/>
          </g>
          <path class="cls-7" d="M318.93,410.07c-2.56,0-5.12-.98-7.07-2.93-3.9-3.91-3.9-10.24,0-14.14l14.14-14.14c3.91-3.91,10.24-3.91,14.14,0,3.9,3.91,3.9,10.24,0,14.14l-14.14,14.14c-1.95,1.95-4.51,2.93-7.07,2.93Z"/>
          <path class="cls-7" d="M367.07,440.07c-2.56,0-5.12-.98-7.07-2.93l-14.14-14.14c-3.9-3.91-3.9-10.24,0-14.14,3.91-3.91,10.24-3.91,14.14,0l14.14,14.14c3.9,3.91,3.9,10.24,0,14.14-1.95,1.95-4.51,2.93-7.07,2.93Z"/>
          <path class="cls-7" d="M409.77,430.18c-.72,0-1.45-.08-2.19-.24l-19.52-4.35c-5.39-1.2-8.79-6.55-7.58-11.94,1.2-5.39,6.54-8.79,11.94-7.58l19.52,4.35c5.39,1.2,8.79,6.55,7.58,11.94-1.04,4.66-5.17,7.83-9.75,7.83Z"/>
          <path class="cls-7" d="M450.76,426.66c-3.19,0-6.32-1.52-8.26-4.35-3.12-4.55-1.96-10.78,2.59-13.9l16.49-11.31c4.55-3.12,10.78-1.96,13.9,2.59,3.12,4.55,1.96,10.78-2.59,13.9l-16.49,11.31c-1.73,1.19-3.7,1.75-5.65,1.75Z"/>
          <g>
            <path class="cls-1" d="M430,340h10c5.52,0,10,4.48,10,10v10c0,16.56-13.44,30-30,30h-10c-5.52,0-10-4.48-10-10v-10c0-16.56,13.44-30,30-30Z"/>
            <path class="cls-2" d="M420,400h-10c-11.03,0-20-8.97-20-20v-10c0-22.06,17.94-40,40-40h10c11.03,0,20,8.97,20,20v10c0,22.06-17.94,40-40,40ZM430,350c-11.03,0-20,8.97-20,20v10h10c11.03,0,20-8.97,20-20v-10h-10Z"/>
          </g>
          <g>
            <path class="cls-1" d="M360,340h10c16.56,0,30,13.44,30,30v10c0,5.52-4.48,10-10,10h-10c-16.56,0-30-13.44-30-30v-10c0-5.52,4.48-10,10-10Z" transform="translate(750 730) rotate(-180)"/>
            <path class="cls-2" d="M390,400h-10c-22.06,0-40-17.94-40-40v-10c0-11.03,8.97-20,20-20h10c22.06,0,40,17.94,40,40v10c0,11.03-8.97,20-20,20ZM360,350v10c0,11.03,8.97,20,20,20h10v-10c0-11.03-8.97-20-20-20h-10Z"/>
          </g>
        </g>
      </g>
      <rect id="frame" class="cls-3" width="800" height="800"/>
    </g>
  </g>
</svg>