<svg width="92" height="92" viewBox="0 0 92 92" fill="none" xmlns="http://www.w3.org/2000/svg">
<g opacity="0.65">
<path d="M37.9501 29.9001H43.7001C44.9708 29.9001 46.0001 28.8708 46.0001 27.6001V26.4915C46.0001 25.8406 46.5406 25.3185 47.1915 25.3426L78.2001 26.4501C78.8349 26.4501 79.3501 24.9056 79.3501 23.0001C79.3501 21.0945 78.8349 19.5501 78.2001 19.5501L47.1915 20.6575C46.5406 20.6805 46.0001 20.1596 46.0001 19.5087V18.4001C46.0001 17.1293 44.9708 16.1001 43.7001 16.1001H41.4001H37.9501" fill="white"/>
<path d="M43.7 31.0501H37.95C37.3152 31.0501 36.8 30.5349 36.8 29.9001C36.8 29.2653 37.3152 28.7501 37.95 28.7501H43.7C44.3337 28.7501 44.85 28.2337 44.85 27.6001V26.4915C44.85 25.8613 45.0996 25.2736 45.5527 24.8366C46.0058 24.3996 46.6038 24.1708 47.2317 24.1938L77.8447 25.2874C78.0034 24.9194 78.2 24.1052 78.2 23.0012C78.2 21.8972 78.0034 21.083 77.8447 20.715L47.2317 21.8087C46.6015 21.8305 46.0058 21.6028 45.5527 21.1658C45.0996 20.7288 44.85 20.1412 44.85 19.511V18.4024C44.85 17.7687 44.3337 17.2524 43.7 17.2524H37.95C37.3152 17.2524 36.8 16.7372 36.8 16.1024C36.8 15.4676 37.3152 14.9524 37.95 14.9524H43.7C45.6021 14.9524 47.15 16.5003 47.15 18.4024V19.511L78.1793 18.4024H78.2C79.8963 18.4024 80.5 20.7783 80.5 23.0024C80.5 25.2265 79.8963 27.6024 78.2 27.6024H78.1586L47.15 26.4938V27.6024C47.15 29.5045 45.6021 31.0524 43.7 31.0524V31.0501Z" fill="black"/>
<path d="M40.25 21.85H37.95C37.3152 21.85 36.8 21.3348 36.8 20.7C36.8 20.0652 37.3152 19.55 37.95 19.55H40.25C40.8848 19.55 41.4 20.0652 41.4 20.7C41.4 21.3348 40.8848 21.85 40.25 21.85Z" fill="black"/>
<path d="M40.25 26.4501H37.95C37.3152 26.4501 36.8 25.9349 36.8 25.3001C36.8 24.6653 37.3152 24.1501 37.95 24.1501H40.25C40.8848 24.1501 41.4 24.6653 41.4 25.3001C41.4 25.9349 40.8848 26.4501 40.25 26.4501Z" fill="black"/>
<path d="M37.95 41.4298V17.2499C37.95 14.7096 35.8904 12.6499 33.35 12.6499H28.75C26.2097 12.6499 24.15 14.7096 24.15 17.2499V47.3155" fill="white"/>
<path d="M24.15 48.4656C23.5152 48.4656 23 47.9504 23 47.3156V17.25C23 14.0794 25.5794 11.5 28.75 11.5H33.35C36.5205 11.5 39.1 14.0794 39.1 17.25V41.4299C39.1 42.0647 38.5848 42.5799 37.95 42.5799C37.3152 42.5799 36.8 42.0647 36.8 41.4299V17.25C36.8 15.3479 35.2521 13.8 33.35 13.8H28.75C26.8479 13.8 25.3 15.3479 25.3 17.25V47.3156C25.3 47.9504 24.7848 48.4656 24.15 48.4656Z" fill="black"/>
<path d="M28.75 44.85C28.1152 44.85 27.6 44.3348 27.6 43.7V12.65C27.6 12.0152 28.1152 11.5 28.75 11.5C29.3848 11.5 29.9 12.0152 29.9 12.65V43.7C29.9 44.3348 29.3848 44.85 28.75 44.85Z" fill="black"/>
<path d="M33.35 42.55C32.7152 42.55 32.2 42.0348 32.2 41.4V12.65C32.2 12.0152 32.7152 11.5 33.35 11.5C33.9848 11.5 34.5 12.0152 34.5 12.65V41.4C34.5 42.0348 33.9848 42.55 33.35 42.55Z" fill="black"/>
<path d="M46 63.25H14.95C14.3152 63.25 13.7402 63.5076 13.3239 63.9239C12.9076 64.3402 12.65 64.9152 12.65 65.55C12.65 66.8207 13.6793 67.85 14.95 67.85H16.1C18.6404 67.85 20.7 69.9096 20.7 72.45C20.7 76.2611 27.393 79.35 35.65 79.35H37.95H46H56.35C64.607 79.35 71.3 76.2611 71.3 72.45C71.3 69.9096 73.3597 67.85 75.9 67.85H77.05C78.3208 67.85 79.35 66.8207 79.35 65.55C79.35 64.9152 79.0924 64.3402 78.6761 63.9239C78.2598 63.5076 77.6848 63.25 77.05 63.25H46Z" fill="white"/>
<path d="M56.35 80.5001H35.65C31.4939 80.5001 27.5678 79.7445 24.5962 78.3737C21.3417 76.8718 19.55 74.7685 19.55 72.4501C19.55 70.548 18.0021 69.0001 16.1 69.0001H14.95C13.0479 69.0001 11.5 67.4522 11.5 65.5501C11.5 64.6289 11.8588 63.763 12.5109 63.1109C13.1629 62.4589 14.0289 62.1001 14.95 62.1001H77.05C77.9712 62.1001 78.8371 62.4589 79.4892 63.1109C80.1412 63.763 80.5 64.6289 80.5 65.5501C80.5 67.4522 78.9521 69.0001 77.05 69.0001H75.9C73.9979 69.0001 72.45 70.548 72.45 72.4501C72.45 74.7673 70.6583 76.8718 67.4038 78.3737C64.4322 79.7457 60.5073 80.5001 56.35 80.5001ZM14.95 64.4001C14.643 64.4001 14.3543 64.5197 14.137 64.737C13.9196 64.9544 13.8 65.243 13.8 65.5501C13.8 66.1837 14.3163 66.7001 14.95 66.7001H16.1C19.2706 66.7001 21.85 69.2795 21.85 72.4501C21.85 75.1698 27.5172 78.2001 35.65 78.2001H56.35C64.4828 78.2001 70.15 75.1698 70.15 72.4501C70.15 69.2795 72.7295 66.7001 75.9 66.7001H77.05C77.6837 66.7001 78.2 66.1837 78.2 65.5501C78.2 65.243 78.0804 64.9544 77.8631 64.737C77.6457 64.5197 77.357 64.4001 77.05 64.4001H14.95Z" fill="black"/>
<path d="M35.6501 63.2499H20.7001C20.7001 63.2166 20.7001 63.1832 20.7012 63.1487V63.1464C20.7012 63.1142 20.7012 63.0809 20.7024 63.0487V63.0314C20.7024 63.0233 20.7035 63.0165 20.7035 63.0084C20.707 62.9153 20.7116 62.8221 20.7185 62.7301C20.7311 62.5242 20.7541 62.3195 20.7852 62.1183C20.8013 62.0079 20.8208 61.8987 20.8415 61.7906C20.8818 61.5882 20.9301 61.388 20.9864 61.1914C21.0175 61.0844 21.0497 60.9787 21.0853 60.874C21.581 59.3928 22.5297 58.1175 23.7648 57.2136C23.8499 57.1515 23.9362 57.0905 24.0236 57.033C24.0431 57.0204 24.0615 57.0077 24.0811 56.9951C24.1639 56.9399 24.2478 56.887 24.3341 56.8364C24.6457 56.6489 24.9712 56.4845 25.3104 56.343C25.4059 56.3039 25.5013 56.266 25.5991 56.2315C25.6704 56.2039 25.7417 56.1797 25.8141 56.1556C25.8532 56.1418 25.8923 56.1291 25.9326 56.1176C25.9671 56.1061 26.0027 56.0958 26.0384 56.0854C26.1373 56.0555 26.2362 56.0279 26.3362 56.0026C26.5133 55.9578 26.6927 55.9198 26.8733 55.8876C27.055 55.8566 27.2378 55.8313 27.423 55.8117C27.6702 55.7876 27.9209 55.7749 28.1751 55.7749C32.3036 55.7749 35.6501 59.1214 35.6501 63.2499Z" fill="white"/>
<path d="M36.8 64.4H19.55V63.25C19.55 63.2109 19.55 63.1718 19.55 63.1327C19.55 63.0982 19.55 63.0648 19.5512 63.0315C19.5512 63.0039 19.5512 62.9786 19.5535 62.9545C19.5569 62.8533 19.5627 62.752 19.5696 62.652C19.5845 62.4208 19.6098 62.1828 19.6466 61.9425C19.6616 61.839 19.6823 61.7182 19.7099 61.5733C19.7582 61.3318 19.8145 61.0984 19.8789 60.8741C19.9203 60.7292 19.9571 60.613 19.9951 60.5026C20.562 58.8087 21.6304 57.3482 23.084 56.2856C23.199 56.2017 23.2956 56.1338 23.3899 56.0728L23.4416 56.0384C23.5451 55.9694 23.644 55.9073 23.7452 55.8475C24.1017 55.6336 24.4789 55.4426 24.8665 55.2816C24.9665 55.2402 25.0781 55.1954 25.1988 55.1528C25.2793 55.1218 25.3587 55.0942 25.4403 55.0678C25.4909 55.0505 25.5404 55.0344 25.5921 55.0183C25.6312 55.0057 25.6703 54.9941 25.7106 54.9826C25.8245 54.9481 25.9394 54.916 26.0521 54.8884C26.2476 54.8389 26.4558 54.7941 26.6697 54.7561C26.8824 54.7193 27.0917 54.6906 27.2999 54.6687C27.5966 54.64 27.8864 54.625 28.1727 54.625C32.928 54.625 36.7978 58.4948 36.7978 63.25V64.4H36.8ZM21.9535 62.1H34.3954C33.8537 59.1595 31.2697 56.925 28.175 56.925C27.9634 56.925 27.7472 56.9353 27.5345 56.956C27.3838 56.9721 27.224 56.994 27.0664 57.0204C26.9146 57.048 26.7617 57.0803 26.6179 57.1171C26.5351 57.1378 26.4523 57.1607 26.3707 57.186L26.358 57.1895C26.3373 57.1952 26.3166 57.201 26.2959 57.2079L26.2476 57.2228C26.2304 57.2274 26.2131 57.2332 26.1959 57.2401L26.1763 57.247C26.1211 57.2654 26.0671 57.2826 26.013 57.3045L25.9797 57.3172C25.9003 57.3448 25.8221 57.377 25.7439 57.408C25.4645 57.5242 25.1873 57.6644 24.9251 57.822L24.9148 57.8289C24.8504 57.8668 24.786 57.9071 24.7181 57.9531L24.6468 58.0003C24.5824 58.0428 24.5111 58.0934 24.441 58.144C23.391 58.9122 22.5849 60.0128 22.1743 61.2398C22.1467 61.3215 22.1203 61.4054 22.0892 61.5124C22.0432 61.6734 22.0018 61.8436 21.9673 62.0161C21.9616 62.0437 21.957 62.0724 21.9512 62.1012L21.9535 62.1Z" fill="black"/>
<path d="M48.3 63.2499H35.65C35.65 59.1214 32.3035 55.7749 28.175 55.7749C27.9209 55.7749 27.6702 55.7876 27.4229 55.8117C27.2378 55.8313 27.0549 55.8566 26.8732 55.8876C26.6927 55.9198 26.5133 55.9578 26.3362 56.0026C26.2361 56.0279 26.1372 56.0555 26.0383 56.0854C26.0027 56.0958 25.967 56.1061 25.9325 56.1176C25.8923 56.1291 25.8532 56.1418 25.8141 56.1556C25.7416 56.1797 25.6703 56.2039 25.599 56.2315C25.5013 56.266 25.4058 56.3039 25.3104 56.343C24.9711 56.4845 24.6457 56.6489 24.334 56.8364C24.2478 56.887 24.1638 56.9398 24.081 56.995C24.0615 57.0077 24.0431 57.0204 24.0235 57.033C23.9361 57.0905 23.8499 57.1515 23.7648 57.2136C22.5297 58.1175 21.5809 59.3928 21.0853 60.874C21.0496 60.9787 21.0174 61.0844 20.9864 61.1914C20.93 61.388 20.8817 61.5882 20.8415 61.7906C20.8208 61.8987 20.8012 62.0079 20.7851 62.1183C20.7541 62.3195 20.7311 62.5242 20.7184 62.7301C20.7115 62.8221 20.7069 62.9153 20.7035 63.0084C20.7713 58.9846 22.5642 55.3793 25.3725 52.8999H43.6276C46.4922 55.4276 48.3 59.1283 48.3 63.2499Z" fill="white"/>
<path d="M49.4501 64.3998H34.5001V63.2498C34.5001 59.7619 31.663 56.9248 28.1751 56.9248C27.9635 56.9248 27.7473 56.9352 27.5345 56.9559C27.3839 56.972 27.224 56.9938 27.0665 57.0203C26.9147 57.0479 26.7617 57.0801 26.618 57.1169C26.5352 57.1376 26.4524 57.1606 26.3707 57.1859L26.3581 57.1893C26.3374 57.1951 26.3167 57.2008 26.296 57.2077L26.2477 57.2227C26.2304 57.2273 26.2132 57.233 26.1959 57.2399L26.1764 57.2468C26.1212 57.2652 26.0671 57.2825 26.0131 57.3043L25.9797 57.317C25.9004 57.3446 25.8222 57.3768 25.744 57.4078C25.4645 57.524 25.1874 57.6643 24.9252 57.8218L24.9148 57.8287C24.8504 57.8667 24.786 57.9069 24.7182 57.9529L24.6469 58.0001C24.5825 58.0426 24.5112 58.0932 24.441 58.1438C23.3911 58.912 22.5849 60.0126 22.1744 61.2396C22.1468 61.3213 22.1203 61.4052 22.0893 61.5122C22.0433 61.6732 22.0019 61.8434 21.9674 62.0159C21.9513 62.0998 21.9352 62.1918 21.9214 62.285C21.8926 62.4678 21.8742 62.638 21.865 62.8013V62.8174C21.8581 62.8945 21.8547 62.9738 21.8512 63.052L19.5524 62.9899C19.6225 58.8062 21.466 54.8146 24.6101 52.0385L24.9367 51.751H44.0612L44.3866 52.0385C47.6032 54.8767 49.4478 58.9638 49.4478 63.251V64.401L49.4501 64.3998ZM36.7242 62.0998H47.0983C46.8189 59.0397 45.4297 56.1716 43.1826 54.0498H25.8187C25.3691 54.4742 24.9539 54.9296 24.5756 55.4103C24.6722 55.3654 24.7699 55.3229 24.8688 55.2815C24.9689 55.2401 25.0804 55.1952 25.2012 55.1527C25.2817 55.1216 25.361 55.0952 25.4427 55.0676C25.4933 55.0503 25.5427 55.0342 25.5945 55.0181C25.6336 55.0055 25.6738 54.994 25.7129 54.9825C25.8268 54.948 25.9418 54.9158 26.0545 54.8882C26.25 54.8387 26.4581 54.7939 26.672 54.7559C26.8848 54.7191 27.0941 54.6904 27.3022 54.6685C27.5989 54.6398 27.8887 54.6248 28.1751 54.6248C32.5416 54.6248 36.1595 57.8851 36.7242 62.0998Z" fill="black"/>
<path d="M25.3725 52.8997C22.5642 55.3791 20.7714 58.9844 20.7035 63.0083C20.7035 63.0163 20.7024 63.0232 20.7024 63.0312C20.7461 59.2696 21.9191 55.7782 23.8982 52.8813C23.9799 52.8917 24.0638 52.8974 24.1501 52.8986C24.165 52.8997 24.18 52.8997 24.1949 52.8997H25.3725Z" fill="white"/>
<path d="M21.8489 63.1107C21.8501 63.0888 21.8512 63.067 21.8524 63.044L19.5524 63.0313C19.5524 63.0256 19.5524 63.0187 19.5524 63.013C19.5984 59.1455 20.7725 55.4172 22.9483 52.2329L23.3451 51.6521L24.0431 51.7407C24.0811 51.7453 24.1225 51.7487 24.165 51.7487H24.2076H28.412L26.1327 53.7612C23.4727 56.1095 21.9133 59.4848 21.8524 63.0233C21.8524 63.0532 21.8501 63.082 21.8478 63.1096L21.8489 63.1107Z" fill="black"/>
<path d="M57.5 63.2499H48.3C48.3 59.1283 46.4922 55.4276 43.6276 52.8999H54.3145C54.571 53.276 54.8136 53.6612 55.0413 54.0557C56.6053 56.7605 57.5 59.9011 57.5 63.2499Z" fill="white"/>
<path d="M58.65 64.4H47.15V63.25C47.15 59.6229 45.5883 56.1637 42.8663 53.7625L40.5858 51.75H54.9217L55.2644 52.2525C55.5381 52.6539 55.798 53.0668 56.0372 53.4819C57.7461 56.4374 58.65 59.8161 58.65 63.2512V64.4012V64.4ZM49.4052 62.1H56.3109C56.1361 59.4688 55.361 56.9078 54.0454 54.6319C53.9327 54.4376 53.8154 54.2432 53.6935 54.05H46.2818C48.0838 56.3592 49.1775 59.1583 49.404 62.1H49.4052Z" fill="black"/>
<path d="M70.15 63.2498H58.65C58.65 60.0746 61.2249 57.4998 64.4 57.4998C67.5752 57.4998 70.0695 59.9953 70.1477 63.1014C70.15 63.1509 70.15 63.2003 70.15 63.2498Z" fill="white"/>
<path d="M71.3 64.3999H57.5V63.2499C57.5 59.4457 60.5958 56.3499 64.4 56.3499C66.2124 56.3499 67.9236 57.0468 69.2196 58.3129C70.5111 59.5745 71.2482 61.2604 71.2965 63.0613C71.2988 63.1245 71.3 63.1866 71.3 63.2499V64.3999ZM59.9461 62.0999H68.8528C68.3353 60.1242 66.5183 58.6499 64.4 58.6499C62.2817 58.6499 60.4578 60.1184 59.9461 62.0999Z" fill="black"/>
<path d="M70.1478 63.1016C70.0696 59.9954 67.5258 57.4999 64.4001 57.4999C61.2744 57.4999 58.6501 60.0748 58.6501 63.2499H57.5001C57.5001 59.9011 56.6054 56.7605 55.0414 54.0557C56.4662 53.3174 58.0843 52.8999 59.8001 52.8999C65.4673 52.8999 70.0696 57.4528 70.1478 63.1016Z" fill="white"/>
<path d="M59.8001 64.4H56.3501V63.25C56.3501 60.2186 55.5531 57.239 54.0455 54.6319L53.4429 53.5888L54.5124 53.0346C56.1339 52.1939 57.9624 51.75 59.8001 51.75C62.8441 51.75 65.7122 52.9265 67.8777 55.0643C70.0408 57.1999 71.2552 60.0484 71.2978 63.0856L68.9978 63.1304C68.9357 60.6602 66.8726 58.65 64.4001 58.65C61.9276 58.65 59.8001 60.7131 59.8001 63.25V64.4ZM56.6387 54.6054C57.4644 56.281 58.0452 58.0693 58.3637 59.9104C59.5425 57.7887 61.8068 56.35 64.4001 56.35C64.9785 56.35 65.5455 56.4213 66.0929 56.5582C64.4426 55.0045 62.2243 54.05 59.8001 54.05C58.7041 54.05 57.645 54.2363 56.6387 54.6054Z" fill="black"/>
<path d="M59.8001 52.8999C58.0843 52.8999 56.4662 53.3174 55.0414 54.0556C54.8137 53.6612 54.571 53.276 54.3146 52.8999H59.8001Z" fill="white"/>
<path d="M54.5952 55.5818L54.0455 54.6296C53.835 54.265 53.6062 53.9005 53.3647 53.5474L52.1388 51.75H59.8012V54.05C58.3097 54.05 56.886 54.395 55.5715 55.0769L54.5963 55.5829L54.5952 55.5818Z" fill="black"/>
<path d="M70.1477 63.1015C70.0695 57.4527 65.4672 52.8998 59.8 52.8998H65.7766C65.9709 52.8998 66.1561 52.878 66.3298 52.8354C68.6827 55.6092 70.1144 59.1881 70.1477 63.1015Z" fill="white"/>
<path d="M68.9977 63.1177C68.9287 58.1175 64.8025 54.0499 59.8 54.0499V51.7499H65.7766C65.8766 51.7499 65.971 51.7396 66.0561 51.7189L66.7472 51.5498L67.2072 52.0926C69.8108 55.162 71.2632 59.0685 71.2977 63.0924L68.9977 63.1177Z" fill="black"/>
<path d="M66.3297 52.8357C66.156 52.8783 65.9708 52.9001 65.7765 52.9001H24.1948C24.1799 52.9001 24.1649 52.9001 24.15 52.899C24.0637 52.8978 23.9798 52.8921 23.8981 52.8817C22.1237 52.6644 21.2428 50.5196 22.4526 49.0971C22.985 48.4715 23.5508 47.8769 24.15 47.3157C27.7978 43.8922 32.6209 41.706 37.95 41.43C38.3306 41.4105 38.7136 41.4001 39.1 41.4001C42.6949 41.4001 46.0851 42.2672 49.0762 43.8059C49.5213 44.0348 50.0307 44.1072 50.5229 44.0175C51.6671 43.8094 52.8459 43.7001 54.0499 43.7001C59.1881 43.7001 63.8629 45.6816 67.3508 48.9223C68.7354 50.2091 68.0282 52.4332 66.3297 52.8357Z" fill="white"/>
<path d="M65.7765 54.0501H24.1948C24.1672 54.0501 24.1385 54.0501 24.1109 54.0489C23.9901 54.0466 23.8694 54.0374 23.7532 54.0225C22.5089 53.8707 21.4452 53.0392 20.984 51.8559C20.5137 50.6518 20.7356 49.342 21.5774 48.353C22.1386 47.6929 22.7401 47.0627 23.3645 46.4773C27.3217 42.7628 32.4817 40.5629 37.8913 40.2823C38.2973 40.2616 38.7044 40.2512 39.1011 40.2512C42.803 40.2512 46.3358 41.1034 49.6029 42.7847C49.8191 42.8951 50.0721 42.9319 50.3171 42.8882C51.543 42.6651 52.7988 42.5524 54.05 42.5524C59.294 42.5524 64.2953 44.5166 68.134 48.0816C69.0793 48.9602 69.4473 50.2252 69.1196 51.4683C68.7918 52.7103 67.8258 53.6637 66.5999 53.9558C66.3377 54.0202 66.0606 54.0524 65.7777 54.0524L65.7765 54.0501ZM24.2075 51.7501H65.7765C65.8766 51.7501 65.9709 51.7397 66.056 51.719L66.064 51.7167C66.5436 51.6029 66.8069 51.2096 66.8943 50.8795C66.9587 50.6369 67.0013 50.1677 66.5677 49.7652C63.1568 46.5958 58.7109 44.8512 54.05 44.8512C52.9368 44.8512 51.819 44.9513 50.7288 45.1502C49.9882 45.2848 49.2142 45.1709 48.5507 44.8294C45.6113 43.3171 42.4315 42.5512 39.1 42.5512C38.7423 42.5512 38.3755 42.5604 38.0086 42.58C33.1418 42.8318 28.4993 44.8121 24.9366 48.1552C24.3742 48.6819 23.8337 49.25 23.3277 49.8434C22.9183 50.3241 23.0494 50.8266 23.1253 51.0198C23.2817 51.42 23.6221 51.6903 24.0373 51.7409C24.081 51.7466 24.1224 51.7489 24.1649 51.7501H24.2075Z" fill="black"/>
<path d="M36.6769 47.1581C36.3825 47.1581 36.0881 47.0454 35.8638 46.8211C35.4153 46.3715 35.4153 45.6435 35.8638 45.195L37.4899 43.5689C37.9396 43.1193 38.6675 43.1193 39.116 43.5689C39.5645 44.0186 39.5645 44.7465 39.116 45.195L37.4899 46.8211C37.2657 47.0454 36.9713 47.1581 36.6769 47.1581Z" fill="white"/>
<path d="M42.213 50.608C41.9186 50.608 41.6242 50.4953 41.4 50.2711L39.7739 48.645C39.3254 48.1953 39.3254 47.4674 39.7739 47.0189C40.2235 46.5692 40.9515 46.5692 41.4 47.0189L43.0261 48.645C43.4746 49.0946 43.4746 49.8226 43.0261 50.2711C42.8018 50.4953 42.5074 50.608 42.213 50.608Z" fill="white"/>
<path d="M47.1235 49.4707C47.0407 49.4707 46.9568 49.4615 46.8717 49.4431L44.6269 48.9428C44.007 48.8048 43.616 48.1896 43.7552 47.5697C43.8932 46.9499 44.5073 46.5589 45.1283 46.698L47.3731 47.1983C47.9929 47.3363 48.3839 47.9515 48.2448 48.5714C48.1252 49.1073 47.6502 49.4718 47.1235 49.4718V49.4707Z" fill="white"/>
<path d="M51.8374 49.0659C51.4705 49.0659 51.1106 48.8911 50.8875 48.5657C50.5287 48.0424 50.6621 47.326 51.1853 46.9672L53.0817 45.6665C53.6049 45.3077 54.3214 45.4411 54.6802 45.9644C55.039 46.4876 54.9056 47.2041 54.3823 47.5629L52.486 48.8635C52.287 49.0004 52.0605 49.0648 51.8362 49.0648L51.8374 49.0659Z" fill="white"/>
<path d="M49.45 39.0999H50.6C51.2348 39.0999 51.75 39.6151 51.75 40.2499V41.3999C51.75 43.3043 50.2044 44.8499 48.3 44.8499H47.15C46.5152 44.8499 46 44.3347 46 43.6999V42.5499C46 40.6455 47.5456 39.0999 49.45 39.0999Z" fill="white"/>
<path d="M48.3 46H47.15C45.8815 46 44.85 44.9684 44.85 43.7V42.55C44.85 40.0131 46.9131 37.95 49.45 37.95H50.6C51.8684 37.95 52.9 38.9815 52.9 40.25V41.4C52.9 43.9369 50.8369 46 48.3 46ZM49.45 40.25C48.1815 40.25 47.15 41.2815 47.15 42.55V43.7H48.3C49.5684 43.7 50.6 42.6684 50.6 41.4V40.25H49.45Z" fill="black"/>
<path d="M44.85 44.8499H43.7C41.7956 44.8499 40.25 43.3043 40.25 41.3999V40.2499C40.25 39.6151 40.7652 39.0999 41.4 39.0999H42.55C44.4544 39.0999 46 40.6455 46 42.5499V43.6999C46 44.3347 45.4848 44.8499 44.85 44.8499Z" fill="white"/>
<path d="M44.85 46H43.7C41.1631 46 39.1 43.9369 39.1 41.4V40.25C39.1 38.9815 40.1315 37.95 41.4 37.95H42.55C45.0869 37.95 47.15 40.0131 47.15 42.55V43.7C47.15 44.9684 46.1184 46 44.85 46ZM41.4 40.25V41.4C41.4 42.6684 42.4315 43.7 43.7 43.7H44.85V42.55C44.85 41.2815 43.8184 40.25 42.55 40.25H41.4Z" fill="black"/>
</g>
</svg>
