<?xml version="1.0" encoding="UTF-8"?>
<svg id="Layer_2" data-name="Layer 2" xmlns="http://www.w3.org/2000/svg" viewBox="0 0 800 800">
  <defs>
    <style>
      .cls-1 {
        fill: #846e5f;
      }

      .cls-1, .cls-2, .cls-3, .cls-4, .cls-5, .cls-6, .cls-7 {
        stroke-width: 0px;
      }

      .cls-2 {
        fill: #a9d182;
      }

      .cls-4 {
        fill: none;
      }

      .cls-5 {
        fill: #5b483b;
      }

      .cls-6 {
        fill: #fff;
      }

      .cls-7 {
        fill: #e57557;
      }
    </style>
  </defs>
  <g id="_육류" data-name="육류">
    <g id="_육류-2" data-name="육류">
      <g id="hover">
        <g>
          <circle class="cls-6" cx="400" cy="400" r="290"/>
          <path class="cls-3" d="M400,700c-80.13,0-155.47-31.21-212.13-87.87-56.66-56.66-87.87-132-87.87-212.13s31.21-155.47,87.87-212.13c56.66-56.66,132-87.87,212.13-87.87s155.47,31.21,212.13,87.87c56.66,56.66,87.87,132,87.87,212.13s-31.21,155.47-87.87,212.13c-56.66,56.66-132,87.87-212.13,87.87ZM400,120c-154.39,0-280,125.61-280,280s125.61,280,280,280,280-125.61,280-280S554.39,120,400,120Z"/>
        </g>
        <g>
          <circle class="cls-7" cx="200" cy="480" r="40"/>
          <path class="cls-3" d="M200,530c-27.57,0-50-22.43-50-50s22.43-50,50-50,50,22.43,50,50-22.43,50-50,50ZM200,450c-16.54,0-30,13.46-30,30s13.46,30,30,30,30-13.46,30-30-13.46-30-30-30Z"/>
        </g>
        <g>
          <circle class="cls-7" cx="270" cy="570" r="40"/>
          <path class="cls-3" d="M270,620c-27.57,0-50-22.43-50-50s22.43-50,50-50,50,22.43,50,50-22.43,50-50,50ZM270,540c-16.54,0-30,13.46-30,30s13.46,30,30,30,30-13.46,30-30-13.46-30-30-30Z"/>
        </g>
        <g>
          <path class="cls-1" d="M520,200h-40c-44.18,0-80,35.82-80,80v33.45c0,50.46-16.4,99.28-45.46,140.54-9.16,13.01-14.54,28.88-14.54,46.01v20c0,44.18,35.82,80,80,80h60c66.27,0,120-53.73,120-120v-200c0-44.18-35.82-80-80-80Z"/>
          <g>
            <path class="cls-5" d="M370,580c-2.56,0-5.12-.98-7.07-2.93-3.9-3.91-3.9-10.24,0-14.14l225-225c3.91-3.91,10.24-3.91,14.14,0,3.9,3.91,3.9,10.24,0,14.14l-225,225c-1.95,1.95-4.51,2.93-7.07,2.93Z"/>
            <path class="cls-5" d="M345,505c-2.56,0-5.12-.98-7.07-2.93-3.91-3.91-3.91-10.24,0-14.14l240-240c3.91-3.91,10.24-3.91,14.14,0s3.91,10.24,0,14.14l-240,240c-1.95,1.95-4.51,2.93-7.07,2.93Z"/>
            <path class="cls-5" d="M440,610c-2.56,0-5.12-.98-7.07-2.93-3.9-3.91-3.9-10.24,0-14.14l160-160c3.91-3.91,10.24-3.91,14.14,0,3.9,3.91,3.9,10.24,0,14.14l-160,160c-1.95,1.95-4.51,2.93-7.07,2.93Z"/>
            <path class="cls-5" d="M400,350c-2.56,0-5.12-.98-7.07-2.93-3.9-3.91-3.9-10.24,0-14.14l135-135c3.91-3.91,10.24-3.91,14.14,0,3.9,3.91,3.9,10.24,0,14.14l-135,135c-1.95,1.95-4.51,2.93-7.07,2.93Z"/>
            <path class="cls-5" d="M580,550c-2.56,0-5.12-.98-7.07-2.93l-180-180c-3.9-3.91-3.9-10.24,0-14.14,3.91-3.9,10.24-3.9,14.14,0l180,180c3.9,3.91,3.9,10.24,0,14.14-1.95,1.95-4.51,2.93-7.07,2.93Z"/>
            <path class="cls-5" d="M600,470c-2.56,0-5.12-.98-7.07-2.93l-195-195c-3.9-3.91-3.9-10.24,0-14.14,3.91-3.9,10.24-3.9,14.14,0l195,195c3.9,3.91,3.9,10.24,0,14.14-1.95,1.95-4.51,2.93-7.07,2.93Z"/>
            <path class="cls-5" d="M525,595c-2.56,0-5.12-.98-7.07-2.93l-155-155c-3.9-3.91-3.9-10.24,0-14.14,3.91-3.91,10.24-3.91,14.14,0l155,155c3.9,3.91,3.9,10.24,0,14.14-1.95,1.95-4.51,2.93-7.07,2.93Z"/>
            <path class="cls-5" d="M440,610c-2.56,0-5.12-.98-7.07-2.93l-95-95c-3.91-3.91-3.91-10.24,0-14.14s10.24-3.91,14.14,0l95,95c3.91,3.91,3.91,10.24,0,14.14-1.95,1.95-4.51,2.93-7.07,2.93Z"/>
            <path class="cls-5" d="M600,370c-2.56,0-5.12-.98-7.07-2.93l-150-150c-3.9-3.91-3.9-10.24,0-14.14,3.91-3.91,10.24-3.91,14.14,0l150,150c3.9,3.91,3.9,10.24,0,14.14-1.95,1.95-4.51,2.93-7.07,2.93Z"/>
            <path class="cls-5" d="M595,275c-2.56,0-5.12-.98-7.07-2.93l-60-60c-3.9-3.91-3.9-10.24,0-14.14,3.91-3.91,10.24-3.91,14.14,0l60,60c3.9,3.91,3.9,10.24,0,14.14-1.95,1.95-4.51,2.93-7.07,2.93Z"/>
          </g>
          <path class="cls-3" d="M480,610h-60c-49.63,0-90-40.37-90-90v-20c0-18.66,5.66-36.56,16.37-51.76,28.54-40.54,43.63-87.15,43.63-134.78v-33.45c0-49.63,40.37-90,90-90h40c49.63,0,90,40.37,90,90v200c0,71.68-58.32,130-130,130ZM480,210c-38.6,0-70,31.4-70,70v33.45c0,51.78-16.35,102.37-47.28,146.3-8.32,11.82-12.72,25.74-12.72,40.25v20c0,38.6,31.4,70,70,70h60c60.65,0,110-49.35,110-110v-200c0-38.6-31.4-70-70-70h-40Z"/>
        </g>
        <g>
          <g>
            <path class="cls-6" d="M286.4,271.69c-11.37,78.38-6.13,155.79,15.67,231.92"/>
            <path class="cls-3" d="M305.6,514.89c-5.25,1.71-11.19-2.04-13.1-8.41-22.22-77.59-27.56-156.48-15.97-236.36,1.03-6.52,6.4-10.99,11.84-10.01,5.43.98,8.91,6.85,7.92,13.12-11.12,76.94-5.98,152.75,15.37,227.49,1.84,6.13-.8,12.45-6.05,14.16Z"/>
          </g>
          <g>
            <path class="cls-2" d="M306.07,274.79c-7.84-1.24-11.75-1.86-19.59-3.09-.05,0-.08-.06-.07-.11,1.46-9.23,2.29-13.83,4.16-23,4.57-22.49,26.18-41.28,49.81-34.18,7.63,2.29,11.45,3.43,19.08,5.72.04.01.07.06.05.11-2.38,7.95-3.48,11.94-5.5,19.96-5.28,20.94-25.7,37.9-47.94,34.58Z"/>
            <path class="cls-3" d="M304.44,285.95c-7.86-1.06-11.79-1.59-19.65-2.65-5.51-.74-9.28-6.7-8.25-13.26,1.49-9.4,2.34-14.09,4.24-23.44,6.09-27.31,33.08-53.3,62.86-42.6,7.58,2.46,11.37,3.69,18.94,6.15,5.29,1.72,8.15,7.52,6.51,12.97-2.33,7.78-3.41,11.68-5.39,19.53-5.9,26.19-32.44,46.33-59.27,43.29ZM298.2,261.9c3.9.71,5.85,1.06,9.76,1.77,16.63,3.55,32.5-10.65,36.36-25.9,1.03-4.1,1.57-6.14,2.7-10.22-3.86-1.06-5.78-1.59-9.64-2.66-16.99-4.61-34.25,8.93-36.99,25.7-.92,4.52-1.36,6.78-2.18,11.31Z"/>
          </g>
          <g>
            <path class="cls-2" d="M300.04,342.02c-7.93-.18-11.9-.27-19.83-.44-.05,0-.08-.05-.08-.1.21-9.31.42-13.97,1.04-23.26,1.51-22.89,20.47-44.13,44.74-40.29,7.87,1.24,11.8,1.86,19.67,3.11.05,0,.08.05.07.1-1.28,8.13-1.83,12.21-2.75,20.38-2.42,21.42-20.46,40.82-42.86,40.5Z"/>
            <path class="cls-3" d="M299.92,353.26c-7.93,0-11.9,0-19.83,0-5.56,0-10.1-5.39-9.95-12.01.21-9.49.43-14.23,1.06-23.71,2.38-27.88,25.7-56.86,56.52-50.3,7.84,1.42,11.76,2.13,19.6,3.55,5.47.99,9.09,6.32,8.21,11.9-1.26,7.96-1.79,11.95-2.69,19.94-2.33,26.7-26.03,50.05-52.92,50.63ZM290.51,330.34c3.96.18,5.94.27,9.91.44,16.89,1.29,30.77-14.77,32.54-30.38.47-4.17.73-6.26,1.29-10.42-3.96-.54-5.95-.8-9.91-1.34-17.38-2.28-32.72,13.27-33.19,30.25-.31,4.58-.44,6.87-.64,11.45Z"/>
          </g>
          <g>
            <path class="cls-2" d="M303.06,409.4c-7.88.89-11.83,1.33-19.71,2.21-.05,0-.09-.03-.09-.09-1.04-9.27-1.45-13.91-2.08-23.21-1.56-22.89,14.4-46.41,38.95-45.85,7.96.18,11.95.27,19.91.45.05,0,.08.04.08.09-.18,8.21-.18,12.32,0,20.52.46,21.54-14.83,43.19-37.06,45.87Z"/>
            <path class="cls-3" d="M304.44,420.58c-7.86,1.06-11.79,1.59-19.65,2.65-5.51.74-10.73-4-11.47-10.59-1.06-9.45-1.48-14.18-2.12-23.65-1.37-27.96,17.88-59.68,49.28-57.31,7.96.36,11.94.53,19.9.89,5.55.25,9.86,5.03,9.73,10.66-.18,8.03-.18,12.05,0,20.08,1.26,26.76-19.11,53.11-45.67,57.27ZM292.05,399.08c3.95-.35,5.93-.53,9.88-.89,16.9-.98,28.52-18.75,28.19-34.45-.09-4.19-.12-6.29-.12-10.48h-10c-17.52.07-30.66,17.49-28.85,34.38.31,4.58.49,6.87.9,11.44Z"/>
          </g>
          <g>
            <path class="cls-2" d="M266.73,268.58c7.84,1.24,11.75,1.86,19.59,3.09.05,0,.09-.03.1-.08,1.46-9.23,2.29-13.83,4.16-23,4.45-21.66-3.5-49.94-26.82-57.17-7.63-2.29-11.45-3.43-19.08-5.72-.04-.01-.09.02-.11.08-3,10.01-4.39,15.04-6.93,25.14-5.74,22.61,2.73,53.44,29.08,57.67Z"/>
            <path class="cls-3" d="M284.62,283.27c-7.86-1.06-11.79-1.59-19.65-2.65-33.92-3.48-43.47-44.67-37.02-72.15,2.59-10.27,4-15.39,7.05-25.57,2.14-7.13,8.33-11.51,13.62-9.79,7.58,2.46,11.37,3.69,18.94,6.15,27.85,9.94,38.92,44.31,32.82,71.32-1.84,8.99-2.65,13.51-4.08,22.56-1,6.32-6.16,10.86-11.67,10.12ZM250.61,200.97c-1.36,4.94-2.02,7.42-3.27,12.38-4.89,16.67,2.6,39.6,21.42,43.22,3.9.71,5.85,1.06,9.76,1.77.85-4.71,1.3-7.06,2.26-11.75,3.21-15.61-2.7-38.58-20.54-42.96l-9.64-2.66Z"/>
          </g>
          <g>
            <path class="cls-2" d="M260.22,341.13c7.93.18,11.9.27,19.83.44.05,0,.08-.04.09-.1.21-9.31.42-13.97,1.04-23.26,1.51-22.05-10.29-48.76-34.29-52.76-7.87-1.24-11.8-1.86-19.67-3.11-.05,0-.09.04-.1.09-1.62,10.24-2.31,15.38-3.47,25.67-2.65,23.15,9.98,52.36,36.57,53.03Z"/>
            <path class="cls-3" d="M279.92,353.26c-7.93,0-11.9,0-19.83,0-33.96,1.08-49.07-38.21-46.37-66.28,1.18-10.47,1.88-15.69,3.52-26.11,1.15-7.3,6.69-12.42,12.16-11.43,7.84,1.42,11.76,2.13,19.6,3.55,28.84,6.06,44.58,38.31,42.15,65.88-.61,9.12-.82,13.69-1.02,22.82-.14,6.37-4.65,11.56-10.21,11.56ZM235.15,276.59c-.68,5.05-.99,7.57-1.56,12.63-2.61,17.16,7.98,38.72,27.04,39.78,3.96.18,5.94.27,9.91.44.21-4.76.35-7.14.67-11.9,1.09-15.9-7.94-37.68-26.14-39.61-3.96-.54-5.95-.8-9.91-1.34Z"/>
          </g>
          <g>
            <path class="cls-2" d="M263.47,413.84c7.88-.89,11.83-1.33,19.71-2.21.05,0,.08-.05.07-.11-1.04-9.27-1.45-13.91-2.08-23.21-1.45-22.06-16.73-46.88-41.03-47.63-7.96-.18-11.95-.27-19.91-.45-.05,0-.08.05-.09.11-.23,10.34-.23,15.51,0,25.84.47,23.29,16.9,50.56,43.33,47.66Z"/>
            <path class="cls-3" d="M284.62,423.25c-7.86,1.06-11.79,1.59-19.65,2.65-33.5,5.62-53.74-31.34-54.82-59.5-.23-10.51-.23-15.77,0-26.29.16-7.37,4.97-13.16,10.52-12.91,7.96.36,11.94.53,19.9.89,29.37,2.14,49.31,31.88,50.59,59.54.61,9.12,1.02,13.68,2.04,22.77.71,6.34-3.06,12.1-8.57,12.84ZM230,353.26c0,5.08.03,7.62.14,12.7-.29,17.35,13.09,37.29,32.11,35.79,3.95-.35,5.93-.53,9.88-.89-.43-4.75-.61-7.13-.93-11.89-1.04-15.91-12.91-36.24-31.2-35.72-4,0-6,0-10,0Z"/>
          </g>
        </g>
      </g>
      <rect id="frame" class="cls-4" width="800" height="800"/>
    </g>
  </g>
</svg>