<svg width="92" height="92" viewBox="0 0 92 92" fill="none" xmlns="http://www.w3.org/2000/svg">
<g opacity="0.65">
<path d="M46 79.3499C64.4187 79.3499 79.35 64.4186 79.35 45.9999C79.35 27.5812 64.4187 12.6499 46 12.6499C27.5813 12.6499 12.65 27.5812 12.65 45.9999C12.65 64.4186 27.5813 79.3499 46 79.3499Z" fill="white"/>
<path d="M46 80.5C36.7851 80.5 28.1209 76.9109 21.6051 70.395C15.0891 63.8791 11.5 55.215 11.5 46C11.5 36.7851 15.0891 28.1209 21.6051 21.6051C28.1209 15.0891 36.7851 11.5 46 11.5C55.215 11.5 63.8791 15.0891 70.395 21.6051C76.9109 28.1209 80.5 36.7851 80.5 46C80.5 55.215 76.9109 63.8791 70.395 70.395C63.8791 76.9109 55.215 80.5 46 80.5ZM46 13.8C28.2451 13.8 13.8 28.2451 13.8 46C13.8 63.7549 28.2451 78.2 46 78.2C63.7549 78.2 78.2 63.7549 78.2 46C78.2 28.2451 63.7549 13.8 46 13.8Z" fill="black"/>
<path d="M23 59.8001C25.5405 59.8001 27.6 57.7406 27.6 55.2001C27.6 52.6596 25.5405 50.6001 23 50.6001C20.4595 50.6001 18.4 52.6596 18.4 55.2001C18.4 57.7406 20.4595 59.8001 23 59.8001Z" fill="white"/>
<path d="M23 60.9502C19.8295 60.9502 17.25 58.3707 17.25 55.2002C17.25 52.0296 19.8295 49.4502 23 49.4502C26.1706 49.4502 28.75 52.0296 28.75 55.2002C28.75 58.3707 26.1706 60.9502 23 60.9502ZM23 51.7502C21.0979 51.7502 19.55 53.2981 19.55 55.2002C19.55 57.1023 21.0979 58.6502 23 58.6502C24.9021 58.6502 26.45 57.1023 26.45 55.2002C26.45 53.2981 24.9021 51.7502 23 51.7502Z" fill="black"/>
<path d="M31.0501 70.1497C33.5906 70.1497 35.6501 68.0902 35.6501 65.5497C35.6501 63.0092 33.5906 60.9497 31.0501 60.9497C28.5096 60.9497 26.4501 63.0092 26.4501 65.5497C26.4501 68.0902 28.5096 70.1497 31.0501 70.1497Z" fill="white"/>
<path d="M31.05 71.2998C27.8795 71.2998 25.3 68.7204 25.3 65.5498C25.3 62.3793 27.8795 59.7998 31.05 59.7998C34.2206 59.7998 36.8 62.3793 36.8 65.5498C36.8 68.7204 34.2206 71.2998 31.05 71.2998ZM31.05 62.0998C29.1479 62.0998 27.6 63.6477 27.6 65.5498C27.6 67.4519 29.1479 68.9998 31.05 68.9998C32.9521 68.9998 34.5 67.4519 34.5 65.5498C34.5 63.6477 32.9521 62.0998 31.05 62.0998Z" fill="black"/>
<path d="M59.8 23.0002H55.2C50.1193 23.0002 46 27.1195 46 32.2002V36.047C46 41.8499 44.114 47.4642 40.7721 52.2091C39.7187 53.7052 39.1 55.5303 39.1 57.5002V59.8002C39.1 64.8809 43.2193 69.0002 48.3 69.0002H55.2C62.821 69.0002 69 62.8213 69 55.2002V32.2002C69 27.1195 64.8807 23.0002 59.8 23.0002Z" fill="white"/>
<path d="M42.5499 66.7002C42.2555 66.7002 41.9611 66.5875 41.7369 66.3632C41.2884 65.9136 41.2884 65.1856 41.7369 64.7371L67.6119 38.8621C68.0615 38.4125 68.7895 38.4125 69.238 38.8621C69.6865 39.3118 69.6865 40.0397 69.238 40.4882L43.363 66.3632C43.1387 66.5875 42.8443 66.7002 42.5499 66.7002Z" fill="white"/>
<path d="M39.6749 58.0751C39.3805 58.0751 39.0861 57.9624 38.8619 57.7381C38.4122 57.2885 38.4122 56.5605 38.8619 56.112L66.4619 28.512C66.9115 28.0624 67.6395 28.0624 68.088 28.512C68.5365 28.9617 68.5376 29.6896 68.088 30.1381L40.488 57.7381C40.2637 57.9624 39.9693 58.0751 39.6749 58.0751Z" fill="white"/>
<path d="M50.6 70.15C50.3056 70.15 50.0112 70.0373 49.7869 69.813C49.3384 69.3634 49.3384 68.6354 49.7869 68.1869L68.1869 49.7869C68.6366 49.3373 69.3645 49.3373 69.813 49.7869C70.2615 50.2366 70.2615 50.9645 69.813 51.413L51.413 69.813C51.1888 70.0373 50.8944 70.15 50.6 70.15Z" fill="white"/>
<path d="M45.9999 40.2501C45.7055 40.2501 45.4111 40.1374 45.1868 39.9131C44.7383 39.4635 44.7383 38.7355 45.1868 38.287L60.7118 22.762C61.1615 22.3124 61.8894 22.3124 62.3379 22.762C62.7864 23.2117 62.7864 23.9396 62.3379 24.3881L46.8129 39.9131C46.5887 40.1374 46.2943 40.2501 45.9999 40.2501Z" fill="white"/>
<path d="M66.6999 63.2502C66.4055 63.2502 66.1111 63.1375 65.8868 62.9132L45.1868 42.2132C44.7383 41.7636 44.7383 41.0356 45.1868 40.5871C45.6365 40.1386 46.3644 40.1386 46.8129 40.5871L67.5129 61.2871C67.9614 61.7368 67.9614 62.4647 67.5129 62.9132C67.2887 63.1375 66.9943 63.2502 66.6999 63.2502Z" fill="white"/>
<path d="M69 54.0501C68.7056 54.0501 68.4112 53.9374 68.1869 53.7132L45.7619 31.2882C45.3134 30.8385 45.3134 30.1106 45.7619 29.6621C46.2116 29.2136 46.9395 29.2136 47.388 29.6621L69.813 52.0871C70.2615 52.5367 70.2615 53.2647 69.813 53.7132C69.5888 53.9374 69.2944 54.0501 69 54.0501Z" fill="white"/>
<path d="M60.3749 68.4251C60.0805 68.4251 59.7861 68.3124 59.5619 68.0881L41.7369 50.2631C41.2884 49.8135 41.2884 49.0855 41.7369 48.637C42.1865 48.1874 42.9145 48.1874 43.363 48.637L61.188 66.462C61.6365 66.9117 61.6365 67.6396 61.188 68.0881C60.9637 68.3124 60.6693 68.4251 60.3749 68.4251Z" fill="white"/>
<path d="M50.5999 70.1502C50.3055 70.1502 50.0111 70.0375 49.7869 69.8132L38.8619 58.8882C38.4122 58.4386 38.4122 57.7106 38.8619 57.2621C39.3115 56.8136 40.0395 56.8124 40.488 57.2621L51.413 68.1871C51.8626 68.6367 51.8626 69.3647 51.413 69.8132C51.1887 70.0375 50.8943 70.1502 50.5999 70.1502Z" fill="white"/>
<path d="M68.9999 42.55C68.7055 42.55 68.4111 42.4373 68.1868 42.2131L50.9368 24.9631C50.4883 24.5134 50.4883 23.7855 50.9368 23.337C51.3865 22.8873 52.1144 22.8873 52.5629 23.337L69.8129 40.587C70.2614 41.0366 70.2614 41.7646 69.8129 42.2131C69.5887 42.4373 69.2943 42.55 68.9999 42.55Z" fill="white"/>
<path d="M68.4249 31.6251C68.1305 31.6251 67.8361 31.5124 67.6119 31.2881L60.7119 24.3881C60.2634 23.9385 60.2634 23.2105 60.7119 22.762C61.1615 22.3124 61.8895 22.3124 62.338 22.762L69.238 29.662C69.6865 30.1117 69.6865 30.8396 69.238 31.2881C69.0137 31.5124 68.7193 31.6251 68.4249 31.6251Z" fill="white"/>
<path d="M55.2 70.1502H48.3C42.5925 70.1502 37.95 65.5076 37.95 59.8002V57.5002C37.95 55.3543 38.6009 53.2958 39.8325 51.5478C43.1146 46.8857 44.85 41.5255 44.85 36.0481V32.2013C44.85 26.4939 49.4925 21.8513 55.2 21.8513H59.8C65.5074 21.8513 70.15 26.4939 70.15 32.2013V55.2013C70.15 63.4445 63.4432 70.1513 55.2 70.1513V70.1502ZM55.2 24.1502C50.761 24.1502 47.15 27.7612 47.15 32.2002V36.0469C47.15 42.0016 45.2697 47.8195 41.7128 52.8714C40.756 54.2307 40.25 55.8315 40.25 57.5002V59.8002C40.25 64.2392 43.861 67.8502 48.3 67.8502H55.2C62.1747 67.8502 67.85 62.1749 67.85 55.2002V32.2002C67.85 27.7612 64.239 24.1502 59.8 24.1502H55.2Z" fill="black"/>
<path d="M32.9359 31.2441C31.6284 40.2578 32.231 49.16 34.738 57.9149L32.9359 31.2441Z" fill="white"/>
<path d="M35.1439 59.2122C34.5402 59.4088 33.8571 58.9776 33.6374 58.245C31.0821 49.3222 30.468 40.2498 31.8009 31.0636C31.9193 30.3138 32.5369 29.7998 33.1625 29.9125C33.7869 30.0252 34.1871 30.7002 34.0733 31.4213C32.7945 40.2694 33.3856 48.9875 35.8408 57.5826C36.0524 58.2876 35.7488 59.0144 35.1451 59.211L35.1439 59.2122Z" fill="black"/>
<path d="M35.1979 31.6006C34.2963 31.458 33.8466 31.3867 32.945 31.2452C32.9393 31.2452 32.9358 31.2383 32.937 31.2326C33.1049 30.1711 33.2003 29.6421 33.4154 28.5876C33.9409 26.0012 36.4261 23.8404 39.1435 24.6569C40.021 24.9202 40.4603 25.0513 41.3377 25.3147C41.3423 25.3158 41.3458 25.3216 41.3435 25.3273C41.0698 26.2416 40.9433 26.7004 40.711 27.6227C40.1038 30.0308 37.7555 31.9812 35.1979 31.5994V31.6006Z" fill="white"/>
<path d="M35.0105 32.8841C34.1066 32.7622 33.6546 32.7012 32.7507 32.5793C32.1171 32.4942 31.6835 31.8088 31.802 31.0544C31.9733 29.9734 32.0711 29.4341 32.2896 28.3588C32.9899 25.2182 36.0938 22.2293 39.5185 23.4598C40.3902 23.7427 40.826 23.8842 41.6966 24.1671C42.3049 24.3649 42.6338 25.0319 42.4452 25.6586C42.1773 26.5533 42.0531 27.0018 41.8254 27.9046C41.1469 30.9164 38.0948 33.2325 35.0093 32.8829L35.0105 32.8841ZM34.2929 30.1183C34.7414 30.2 34.9656 30.2402 35.4153 30.3219C37.3277 30.7301 39.1528 29.0971 39.5967 27.3434C39.7151 26.8719 39.7772 26.6373 39.9072 26.1681C39.4633 26.0462 39.2425 25.9852 38.7986 25.8622C36.8447 25.332 34.8598 26.8891 34.5447 28.8177C34.4389 29.3375 34.3883 29.5974 34.294 30.1183H34.2929Z" fill="black"/>
<path d="M34.5046 39.3323C33.5927 39.3116 33.1361 39.3012 32.2242 39.2817C32.2184 39.2817 32.215 39.2759 32.215 39.2702C32.2391 38.1995 32.2633 37.6636 32.3346 36.5953C32.5082 33.9629 34.6886 31.5203 37.4797 31.9619C38.3847 32.1045 38.8367 32.1758 39.7417 32.3196C39.7475 32.3196 39.7509 32.3253 39.7498 32.3311C39.6026 33.266 39.5393 33.7352 39.4335 34.6748C39.1552 37.1381 37.0806 39.3691 34.5046 39.3323Z" fill="white"/>
<path d="M34.4908 40.6248C33.5788 40.6248 33.1223 40.6248 32.2103 40.6248C31.5709 40.6248 31.0488 40.005 31.0661 39.2437C31.0902 38.1523 31.1155 37.6072 31.188 36.517C31.4617 33.3108 34.1435 29.9781 37.6878 30.7325C38.5894 30.8958 39.0402 30.9775 39.9418 31.1408C40.5708 31.2546 40.9871 31.8676 40.8859 32.5093C40.741 33.4247 40.6801 33.8835 40.5766 34.8024C40.3086 37.8729 37.5831 40.5581 34.4908 40.6248ZM33.4086 37.989C33.864 38.0097 34.0917 38.0201 34.5483 38.0396C36.4906 38.188 38.0868 36.3411 38.2904 34.5459C38.3444 34.0664 38.3743 33.826 38.4387 33.3476C37.9833 33.2855 37.7545 33.2556 37.2991 33.1935C35.3004 32.9313 33.5363 34.7196 33.4822 36.6723C33.4466 37.199 33.4316 37.4623 33.4086 37.989Z" fill="black"/>
<path d="M34.8519 47.0808C33.9457 47.1832 33.4914 47.2338 32.5852 47.335C32.5795 47.335 32.5749 47.3315 32.5749 47.3246C32.4553 46.2586 32.4081 45.725 32.3357 44.6555C32.1563 42.0231 33.9917 39.3183 36.8149 39.3827C37.7303 39.4034 38.1892 39.4138 39.1046 39.4345C39.1103 39.4345 39.1138 39.4391 39.1138 39.4448C39.0931 40.389 39.0931 40.8616 39.1138 41.8046C39.1667 44.2817 37.4083 46.7715 34.8519 47.0797V47.0808Z" fill="white"/>
<path d="M35.0105 48.3666C34.1066 48.4885 33.6547 48.5494 32.7508 48.6713C32.1171 48.7564 31.5168 48.2113 31.4317 47.4535C31.3098 46.3667 31.2615 45.8228 31.1879 44.7337C31.0304 41.5183 33.2441 37.8705 36.8551 38.1431C37.7705 38.1845 38.2282 38.204 39.1436 38.2454C39.7819 38.2742 40.2775 38.8239 40.2626 39.4713C40.2419 40.3948 40.2419 40.8571 40.2626 41.7805C40.4075 44.8579 38.0649 47.8882 35.0105 48.3666ZM33.5857 45.8941C34.0399 45.8538 34.2676 45.8331 34.7219 45.7917C36.6654 45.679 38.0017 43.6355 37.9637 41.83C37.9534 41.3481 37.9499 41.1066 37.9499 40.6248H36.7999C34.7851 40.6328 33.274 42.6361 33.4822 44.5785C33.5178 45.1052 33.5385 45.3685 33.5857 45.8941Z" fill="black"/>
<path d="M30.6738 30.8866C31.5754 31.0292 32.0251 31.1005 32.9267 31.242C32.9324 31.242 32.937 31.2385 32.9382 31.2328C33.1061 30.1713 33.2015 29.6423 33.4166 28.5878C33.9283 26.0969 33.0141 22.8447 30.3323 22.0132C29.4548 21.7499 29.0155 21.6188 28.1381 21.3554C28.1335 21.3543 28.1277 21.3577 28.1254 21.3646C27.7804 22.5158 27.6206 23.0942 27.3285 24.2557C26.6684 26.8559 27.6424 30.4013 30.6727 30.8878L30.6738 30.8866Z" fill="white"/>
<path d="M32.7312 32.5759C31.8273 32.454 31.3753 32.393 30.4714 32.2711C26.5706 31.8709 25.4724 27.1341 26.2141 23.9739C26.512 22.7928 26.6741 22.204 27.0249 21.0333C27.271 20.2134 27.9828 19.7097 28.5912 19.9075C29.4629 20.1904 29.8987 20.3318 30.7693 20.6147C33.972 21.7578 35.2451 25.7104 34.5436 28.8165C34.332 29.8504 34.2388 30.3702 34.0744 31.4109C33.9594 32.1377 33.366 32.6598 32.7323 32.5747L32.7312 32.5759ZM28.82 23.1114C28.6636 23.6795 28.5877 23.9647 28.444 24.5351C27.8816 26.4521 28.743 29.0891 30.9073 29.5054C31.3558 29.587 31.58 29.6273 32.0297 29.7089C32.1274 29.1673 32.1792 28.897 32.2896 28.3577C32.6587 26.5625 31.9791 23.921 29.9275 23.4173L28.8189 23.1114H28.82Z" fill="black"/>
<path d="M29.9252 39.2298C30.8372 39.2505 31.2937 39.2608 32.2057 39.2804C32.2114 39.2804 32.2149 39.2758 32.216 39.2689C32.2402 38.1982 32.2643 37.6623 32.3356 36.594C32.5093 34.0582 31.1523 30.9866 28.3923 30.5266C27.4872 30.384 27.0353 30.3127 26.1302 30.1689C26.1245 30.1689 26.1199 30.1735 26.1187 30.1793C25.9324 31.3569 25.8531 31.948 25.7197 33.1313C25.4149 35.7936 26.8674 39.1527 29.9252 39.2298Z" fill="white"/>
<path d="M32.1907 40.6248C31.2788 40.6248 30.8222 40.6248 29.9103 40.6248C26.0049 40.749 24.2672 36.2306 24.5777 33.0026C24.7134 31.7985 24.7939 31.1982 24.9825 29.9999C25.1148 29.1604 25.7519 28.5716 26.3809 28.6855C27.2825 28.8488 27.7333 28.9304 28.6349 29.0937C31.9515 29.7906 33.7616 33.4994 33.4822 36.6699C33.412 37.7187 33.3879 38.2443 33.3649 39.2942C33.3488 40.0268 32.8301 40.6236 32.1907 40.6236V40.6248ZM27.0422 31.8077C26.964 32.3885 26.9283 32.6783 26.8628 33.2602C26.5626 35.2336 27.7805 37.713 29.9724 37.8349C30.4278 37.8556 30.6555 37.8659 31.112 37.8855C31.1362 37.3381 31.1523 37.0644 31.1891 36.517C31.3144 34.6885 30.276 32.1838 28.183 31.9618C27.7276 31.8997 27.4987 31.8698 27.0433 31.8077H27.0422Z" fill="black"/>
<path d="M30.2989 47.5914C31.2051 47.489 31.6594 47.4384 32.5656 47.3372C32.5713 47.3372 32.5748 47.3315 32.5736 47.3246C32.454 46.2585 32.4069 45.7249 32.3344 44.6554C32.1677 42.1185 30.4105 39.2642 27.616 39.178C26.7006 39.1573 26.2417 39.1469 25.3263 39.1262C25.3206 39.1262 25.3171 39.132 25.316 39.1389C25.2895 40.328 25.2895 40.9225 25.316 42.1105C25.37 44.7888 27.2595 47.9249 30.2989 47.5914Z" fill="white"/>
<path d="M32.7312 48.6736C31.8273 48.7955 31.3754 48.8564 30.4715 48.9783C26.619 49.6246 24.2914 45.3742 24.1672 42.1358C24.1407 40.9272 24.1407 40.3223 24.1672 39.1125C24.1856 38.2649 24.7387 37.5991 25.377 37.6279C26.2924 37.6693 26.7501 37.6888 27.6655 37.7302C31.043 37.9763 33.3361 41.3964 33.4833 44.5773C33.5535 45.6261 33.6006 46.1505 33.7179 47.1958C33.7996 47.9249 33.366 48.5873 32.7324 48.6724L32.7312 48.6736ZM26.4499 40.6247C26.4499 41.2089 26.4534 41.501 26.466 42.0852C26.4327 44.0805 27.9714 46.3736 30.1587 46.2011C30.6129 46.1608 30.8406 46.1401 31.2949 46.0987C31.2454 45.5525 31.2247 45.2788 31.1879 44.7314C31.0683 42.9017 29.7033 40.5638 27.5999 40.6236C27.1399 40.6236 26.9099 40.6236 26.4499 40.6236V40.6247Z" fill="black"/>
</g>
</svg>
