<?xml version="1.0" encoding="UTF-8"?>
<svg id="Layer_2" data-name="Layer 2" xmlns="http://www.w3.org/2000/svg" viewBox="0 0 800 800">
  <defs>
    <style>
      .cls-1, .cls-2, .cls-3, .cls-4, .cls-5, .cls-6, .cls-7 {
        stroke-width: 0px;
      }

      .cls-2 {
        fill: #ffc099;
      }

      .cls-3 {
        fill: #fffcd2;
      }

      .cls-4 {
        fill: none;
      }

      .cls-5 {
        fill: #ffe299;
      }

      .cls-6 {
        fill: #fddf89;
      }

      .cls-7 {
        fill: #d6ad7c;
      }
    </style>
  </defs>
  <g id="_치즈" data-name="치즈">
    <g id="_치즈-2" data-name="치즈">
      <g id="hover">
        <g>
          <path class="cls-6" d="M387.43,150.05c3.83-.16,7.58.04,11.23.57,5.99.87,11.34-3.85,11.34-9.9v-10.72c0-11.05-8.95-20-20-20h-151.27c-4.58,0-8.54,3.13-9.69,7.56-3.35,12.91-15.08,22.44-29.04,22.44s-25.69-9.53-29.04-22.44c-1.15-4.44-5.11-7.56-9.69-7.56h-31.27c-11.05,0-20,8.95-20,20v70.84c0,6.15,5.51,10.9,11.58,9.87,3.8-.65,7.74-.86,11.77-.6,25.33,1.66,45.61,22.5,46.61,47.87,1.12,28.53-21.68,52.02-49.96,52.02-2.88,0-5.7-.24-8.44-.71-6.06-1.03-11.56,3.73-11.56,9.87v70.84c0,11.05,8.95,20,20,20h280v-130.71c0-6.13-5.46-10.74-11.53-9.88-2.77.39-5.59.59-8.47.59-34.17,0-61.66-28.55-59.92-63.09,1.54-30.74,26.61-55.58,57.36-56.85ZM250,360c-16.57,0-30-13.43-30-30s13.43-30,30-30,30,13.43,30,30-13.43,30-30,30Z"/>
          <path class="cls-1" d="M410,420H130c-16.54,0-30-13.46-30-30v-70.84c0-5.92,2.6-11.51,7.12-15.33,4.48-3.78,10.36-5.39,16.12-4.41,2.22.38,4.49.57,6.76.57,10.98,0,21.22-4.36,28.84-12.28,7.61-7.92,11.56-18.34,11.13-29.34-.79-20.15-17.16-36.97-37.27-38.28-3.18-.21-6.36-.05-9.44.48-5.78.98-11.66-.63-16.15-4.42-4.52-3.82-7.11-9.4-7.11-15.31v-70.84c0-16.54,13.46-30,30-30h31.27c9.1,0,17.07,6.19,19.37,15.05,2.29,8.8,10.25,14.95,19.36,14.95s17.07-6.15,19.36-14.95c2.3-8.86,10.27-15.05,19.37-15.05h151.27c16.54,0,30,13.46,30,30v10.72c0,5.82-2.52,11.34-6.92,15.15-4.37,3.78-10.15,5.48-15.85,4.65-3.07-.44-6.22-.6-9.38-.47h0c-25.52,1.06-46.5,21.86-47.78,47.36-.7,13.87,4.17,27.03,13.7,37.04,9.54,10.03,22.4,15.55,36.24,15.55,2.37,0,4.75-.17,7.07-.49,5.81-.82,11.67.9,16.08,4.73,4.36,3.79,6.86,9.27,6.86,15.05v130.71c0,5.52-4.48,10-10,10ZM120.02,319.17l-.02,70.83c0,5.51,4.49,10,10,10h270v-120.71s-.1.02-.14.02c-3.24.46-6.56.69-9.86.69-19.37,0-37.38-7.73-50.73-21.76-13.34-14.03-20.15-32.43-19.18-51.83,1.79-35.72,31.19-64.86,66.93-66.34h0c4.34-.18,8.71.04,12.96.65l.02-10.71c0-5.51-4.49-10-10-10h-151.26s-.01.03-.03.08c-4.58,17.62-20.5,29.92-38.72,29.92s-34.14-12.3-38.72-29.92c-.02-.07-.04-.09-.05-.09h-31.23c-5.51.01-10,4.5-10,10.01v70.83c4.6-.77,9.31-1.01,14.01-.7,14.72.96,28.55,7.37,38.94,18.05,10.38,10.67,16.42,24.66,17,39.41.65,16.49-5.28,32.12-16.7,43.99-11.42,11.88-26.78,18.42-43.26,18.42-3.34,0-6.7-.28-9.98-.83ZM250,370c-22.06,0-40-17.94-40-40s17.94-40,40-40,40,17.94,40,40-17.94,40-40,40ZM250,310c-11.03,0-20,8.97-20,20s8.97,20,20,20,20-8.97,20-20-8.97-20-20-20Z"/>
        </g>
        <g>
          <g>
            <path class="cls-3" d="M671.27,661.2l-430,27.45c-11.52.74-21.27-8.41-21.27-19.96v-198.68l470-30v201.24c0,10.55-8.2,19.29-18.73,19.96Z"/>
            <path class="cls-1" d="M240.02,698.68c-7.59,0-14.99-2.9-20.55-8.12-6.02-5.65-9.47-13.62-9.47-21.88v-198.68c0-5.28,4.1-9.64,9.36-9.98l470-30c2.76-.18,5.46.8,7.48,2.69,2.01,1.89,3.16,4.53,3.16,7.29v201.24c0,15.78-12.34,28.93-28.09,29.94h0l-430,27.45c-.63.04-1.26.06-1.89.06ZM230,479.38v189.3c0,2.79,1.12,5.38,3.16,7.29,2.04,1.91,4.69,2.87,7.48,2.69l430-27.45c5.25-.34,9.36-4.72,9.36-9.98v-190.58l-450,28.72Z"/>
          </g>
          <g>
            <path class="cls-3" d="M690,440l-470,30,340.32-194.47c6.2-3.54,13.83-3.54,19.99.08,55.34,32.5,100.26,98.45,109.69,164.39Z"/>
            <path class="cls-1" d="M220,480c-4.39,0-8.3-2.88-9.57-7.13-1.34-4.46.58-9.25,4.62-11.56l340.33-194.47c9.31-5.32,20.81-5.27,30.02.14,58.77,34.51,104.79,103.47,114.52,171.6.39,2.76-.38,5.56-2.14,7.72-1.76,2.16-4.34,3.49-7.12,3.67l-470,30c-.21.01-.43.02-.64.02ZM570.28,282.88c-1.72,0-3.44.44-4.99,1.33l-302.86,173.06,415.82-26.54c-11.92-58.84-52.28-116.71-103-146.5-1.52-.9-3.25-1.34-4.97-1.34Z"/>
          </g>
          <rect class="cls-7" x="610" y="580" width="40" height="40" rx="10" ry="10" transform="translate(-239.74 621.21) rotate(-45)"/>
          <rect class="cls-5" x="292" y="482" width="40" height="40" rx="10" ry="10" transform="translate(-119.3 97.86) rotate(-15)"/>
          <rect class="cls-2" x="487" y="497" width="40" height="40" rx="10" ry="10" transform="translate(-146.25 204.58) rotate(-20)"/>
          <rect class="cls-5" x="590" y="470" width="40" height="40" rx="10" ry="10"/>
          <rect class="cls-7" x="390" y="400" width="40" height="40" rx="10" ry="10" transform="translate(-74.82 750.84) rotate(-80)"/>
          <rect class="cls-2" x="520" y="310" width="40" height="40" rx="10" ry="10" transform="translate(-67.01 151.01) rotate(-15)"/>
          <rect class="cls-5" x="523" y="387" width="40" height="40" rx="10" ry="10" transform="translate(-106.46 210.26) rotate(-20)"/>
          <rect class="cls-5" x="604" y="366" width="40" height="40" rx="10" ry="10" transform="translate(-22.29 733.4) rotate(-60)"/>
          <rect class="cls-5" x="464" y="604" width="40" height="40" rx="10" ry="10" transform="translate(582.99 -159.47) rotate(45)"/>
          <rect class="cls-2" x="254" y="604" width="40" height="40" rx="10" ry="10" transform="translate(521.49 -10.98) rotate(45)"/>
          <rect class="cls-5" x="360" y="550" width="40" height="40" rx="10" ry="10" transform="translate(-48.23 35.29) rotate(-5)"/>
        </g>
      </g>
      <rect id="frame" class="cls-4" width="800" height="800"/>
    </g>
  </g>
</svg>