<svg width="92" height="92" viewBox="0 0 92 92" fill="none" xmlns="http://www.w3.org/2000/svg">
<g opacity="0.65">
<path d="M44.5545 17.2557C44.9949 17.2373 45.4262 17.2603 45.8459 17.3212C46.5348 17.4213 47.15 16.8785 47.15 16.1827V14.9499C47.15 13.6792 46.1208 12.6499 44.85 12.6499H27.454C26.9273 12.6499 26.4719 13.0099 26.3396 13.5193C25.9544 15.004 24.6054 16.0999 23 16.0999C21.3946 16.0999 20.0457 15.004 19.6604 13.5193C19.5282 13.0087 19.0728 12.6499 18.5461 12.6499H14.95C13.6793 12.6499 12.65 13.6792 12.65 14.9499V23.0965C12.65 23.8038 13.2837 24.35 13.9817 24.2316C14.4187 24.1568 14.8718 24.1327 15.3353 24.1626C18.2482 24.3535 20.5804 26.7501 20.6954 29.6676C20.8242 32.9486 18.2022 35.6499 14.95 35.6499C14.6188 35.6499 14.2945 35.6223 13.9794 35.5683C13.2825 35.4498 12.65 35.9972 12.65 36.7033V44.8499C12.65 46.1207 13.6793 47.1499 14.95 47.1499H47.15V32.1183C47.15 31.4133 46.5221 30.8832 45.8241 30.9821C45.5055 31.0269 45.1812 31.0499 44.85 31.0499C40.9205 31.0499 37.7591 27.7667 37.9592 23.7946C38.1363 20.2595 41.0194 17.4029 44.5556 17.2568L44.5545 17.2557ZM28.75 41.3999C26.8445 41.3999 25.3 39.8555 25.3 37.9499C25.3 36.0444 26.8445 34.4999 28.75 34.4999C30.6556 34.4999 32.2 36.0444 32.2 37.9499C32.2 39.8555 30.6556 41.3999 28.75 41.3999Z" fill="white"/>
<path d="M47.15 48.3H14.95C13.0479 48.3 11.5 46.7521 11.5 44.85V36.7034C11.5 36.0226 11.799 35.3798 12.3188 34.9405C12.834 34.5058 13.5102 34.3206 14.1726 34.4333C14.4279 34.477 14.6889 34.4988 14.95 34.4988C16.2127 34.4988 17.3903 33.9975 18.2666 33.0867C19.1417 32.1758 19.596 30.9776 19.5465 29.7126C19.4557 27.3953 17.5731 25.461 15.2605 25.3104C14.8948 25.2862 14.5291 25.3046 14.1749 25.3656C13.5102 25.4783 12.834 25.2931 12.3176 24.8573C11.7979 24.418 11.5 23.7763 11.5 23.0966V14.95C11.5 13.0479 13.0479 11.5 14.95 11.5H18.546C19.5925 11.5 20.5091 12.2119 20.7736 13.2308C21.0369 14.2428 21.9523 14.95 23 14.95C24.0476 14.95 24.963 14.2428 25.2264 13.2308C25.4909 12.2119 26.4074 11.5 27.4539 11.5H44.85C46.7521 11.5 48.3 13.0479 48.3 14.95V16.1828C48.3 16.8521 48.0102 17.4869 47.5042 17.925C47.0016 18.3597 46.3369 18.5553 45.6814 18.4598C45.3284 18.4092 44.9661 18.3908 44.6027 18.4058C41.6679 18.5277 39.2552 20.9197 39.108 23.8522C39.0275 25.4472 39.5876 26.9606 40.6835 28.1118C41.7806 29.2652 43.2595 29.9 44.8511 29.9C45.1237 29.9 45.3974 29.8805 45.6642 29.8437C46.3323 29.7494 47.0062 29.9472 47.5134 30.3876C48.0148 30.8235 48.3023 31.4537 48.3023 32.1184V47.15C48.3023 47.7848 47.7871 48.3 47.1523 48.3H47.15ZM13.8023 36.7046L13.8 44.85C13.8 45.4837 14.3163 46 14.95 46H46V32.1184C46 32.1184 45.9885 32.1207 45.9839 32.1207C45.6113 32.1736 45.2295 32.2 44.85 32.2C42.6224 32.2 40.5513 31.3111 39.016 29.6976C37.4819 28.0842 36.6988 25.9682 36.8103 23.7372C37.0162 19.6294 40.3972 16.2783 44.5073 16.1081C45.0064 16.0874 45.5089 16.1127 45.9977 16.1828L46 14.9511C46 14.3175 45.4836 13.8012 44.85 13.8012H27.4551C27.4551 13.8012 27.4539 13.8046 27.4516 13.8103C26.9249 15.8366 25.0941 17.2511 22.9988 17.2511C20.9035 17.2511 19.0727 15.8366 18.546 13.8103C18.5437 13.8023 18.5414 13.8 18.5403 13.8H14.9489C14.3152 13.8012 13.7988 14.3175 13.7988 14.9511V23.0966C14.3278 23.0081 14.8695 22.9805 15.41 23.0161C17.1028 23.1265 18.6932 23.8637 19.8881 25.0919C21.0818 26.3189 21.7764 27.9278 21.8431 29.624C21.9178 31.5204 21.2359 33.3178 19.9226 34.6829C18.6093 36.0491 16.8429 36.8012 14.9477 36.8012C14.5636 36.8012 14.1772 36.769 13.8 36.7057L13.8023 36.7046ZM28.75 42.55C26.2131 42.55 24.15 40.4869 24.15 37.95C24.15 35.4131 26.2131 33.35 28.75 33.35C31.2869 33.35 33.35 35.4131 33.35 37.95C33.35 40.4869 31.2869 42.55 28.75 42.55ZM28.75 35.65C27.4815 35.65 26.45 36.6816 26.45 37.95C26.45 39.2185 27.4815 40.25 28.75 40.25C30.0184 40.25 31.05 39.2185 31.05 37.95C31.05 36.6816 30.0184 35.65 28.75 35.65Z" fill="black"/>
<path d="M77.1961 76.0382L27.7461 79.1949C26.4213 79.28 25.3 78.2278 25.3 76.8995V54.0513L79.35 50.6013V73.7439C79.35 74.9572 78.4071 75.9623 77.1961 76.0393V76.0382Z" fill="white"/>
<path d="M27.6023 80.3483C26.7295 80.3483 25.8785 80.0148 25.2391 79.4145C24.5468 78.7647 24.15 77.8482 24.15 76.8983V54.0501C24.15 53.4429 24.6215 52.9415 25.2264 52.9024L79.2764 49.4524C79.5938 49.4317 79.9043 49.5444 80.1366 49.7617C80.3678 49.9791 80.5 50.2827 80.5 50.6001V73.7427C80.5 75.5574 79.0809 77.0696 77.2697 77.1858L27.8197 80.3425C27.7472 80.3471 27.6748 80.3494 27.6023 80.3494V80.3483ZM26.45 55.1288V76.8983C26.45 77.2191 26.5788 77.517 26.8134 77.7366C27.048 77.9563 27.3528 78.0667 27.6736 78.046L77.1236 74.8892C77.7274 74.8501 78.2 74.3464 78.2 73.7415V51.8248L26.45 55.1276V55.1288Z" fill="black"/>
<path d="M79.35 50.6001L25.3 54.0501L64.4368 31.686C65.1498 31.2789 66.0272 31.2789 66.7356 31.6952C73.0997 35.4327 78.2655 43.017 79.35 50.6001Z" fill="white"/>
<path d="M25.3 55.2001C24.7952 55.2001 24.3455 54.8689 24.1995 54.3801C24.0454 53.8672 24.2662 53.3164 24.7308 53.0507L63.8687 30.6867C64.9394 30.0749 66.2619 30.0806 67.321 30.7028C74.0796 34.6714 79.3719 42.6018 80.4908 50.4368C80.5357 50.7542 80.4471 51.0762 80.2447 51.3246C80.0423 51.573 79.7456 51.7259 79.4259 51.7466L25.3759 55.1966C25.3518 55.1978 25.3265 55.1989 25.3023 55.1989L25.3 55.2001ZM65.5822 32.5313C65.3844 32.5313 65.1866 32.5818 65.0084 32.6842L30.1795 52.5861L77.9988 49.534C76.628 42.7674 71.9866 36.1124 66.1538 32.6865C65.979 32.583 65.78 32.5324 65.5822 32.5324V32.5313Z" fill="black"/>
<path d="M71.637 66.5602L70.0107 68.1866C69.5616 68.6357 69.5616 69.3638 70.0107 69.8129L71.637 71.4393C72.0861 71.8884 72.8143 71.8884 73.2634 71.4393L74.8897 69.8129C75.3388 69.3638 75.3388 68.6357 74.8897 68.1866L73.2634 66.5602C72.8143 66.1111 72.0861 66.1111 71.637 66.5602Z" fill="white"/>
<path d="M36.3951 55.2111L34.1734 55.8064C33.56 55.9707 33.1959 56.6013 33.3603 57.2148L33.9555 59.4364C34.1199 60.0499 34.7505 60.414 35.364 60.2496L37.5856 59.6543C38.1991 59.49 38.5632 58.8594 38.3988 58.2459L37.8035 56.0243C37.6391 55.4108 37.0086 55.0467 36.3951 55.2111Z" fill="white"/>
<path d="M58.5989 56.9001L56.4376 57.6868C55.8408 57.904 55.533 58.5639 55.7503 59.1607L56.5369 61.322C56.7541 61.9188 57.414 62.2266 58.0109 62.0093L60.1722 61.2227C60.769 61.0055 61.0767 60.3455 60.8595 59.7487L60.0728 57.5874C59.8556 56.9906 59.1957 56.6829 58.5989 56.9001Z" fill="white"/>
<path d="M71.3 54.05H69C68.3649 54.05 67.85 54.5649 67.85 55.2V57.5001C67.85 58.1352 68.3649 58.6501 69 58.6501H71.3C71.9352 58.6501 72.45 58.1352 72.45 57.5001V55.2C72.45 54.5649 71.9352 54.05 71.3 54.05Z" fill="white"/>
<path d="M45.0841 46.7682L44.6847 49.0332C44.5744 49.6587 44.992 50.2552 45.6175 50.3655L47.8826 50.7649C48.5081 50.8751 49.1045 50.4575 49.2148 49.832L49.6142 47.567C49.7245 46.9415 49.3068 46.345 48.6814 46.2347L46.4163 45.8354C45.7908 45.7251 45.1944 46.1427 45.0841 46.7682Z" fill="white"/>
<path d="M62.6156 35.431L60.394 36.0263C59.7805 36.1907 59.4164 36.8213 59.5808 37.4348L60.1761 39.6564C60.3405 40.2699 60.971 40.634 61.5845 40.4696L63.8062 39.8743C64.4196 39.7099 64.7837 39.0793 64.6193 38.4659L64.024 36.2442C63.8597 35.6307 63.2291 35.2667 62.6156 35.431Z" fill="white"/>
<path d="M62.7385 44.2502L60.5772 45.0369C59.9803 45.2541 59.6726 45.914 59.8898 46.5108L60.6765 48.6721C60.8937 49.2689 61.5536 49.5767 62.1505 49.3594L64.3117 48.5728C64.9086 48.3556 65.2163 47.6956 64.9991 47.0988L64.2124 44.9375C63.9952 44.3407 63.3353 44.033 62.7385 44.2502Z" fill="white"/>
<path d="M70.3427 42.2441L69.1927 44.236C68.8751 44.786 69.0636 45.4894 69.6136 45.8069L71.6055 46.9569C72.1555 47.2745 72.8588 47.086 73.1764 46.536L74.3264 44.5441C74.644 43.9941 74.4555 43.2908 73.9055 42.9732L71.9136 41.8232C71.3636 41.5057 70.6602 41.6941 70.3427 42.2441Z" fill="white"/>
<path d="M58.0989 70.9473L56.4726 69.321C56.0235 68.8719 55.2954 68.8719 54.8463 69.321L53.2199 70.9473C52.7708 71.3964 52.7708 72.1246 53.2199 72.5737L54.8463 74.2C55.2954 74.6491 56.0235 74.6491 56.4726 74.2L58.0989 72.5737C58.548 72.1246 58.548 71.3964 58.0989 70.9473Z" fill="white"/>
<path d="M33.9498 70.9471L32.3235 69.3207C31.8744 68.8716 31.1462 68.8716 30.6971 69.3207L29.0708 70.9471C28.6217 71.3962 28.6217 72.1243 29.0708 72.5734L30.6971 74.1998C31.1462 74.6489 31.8744 74.6489 32.3235 74.1998L33.9498 72.5734C34.3989 72.1243 34.3989 71.3962 33.9498 70.9471Z" fill="white"/>
<path d="M44.6455 63.1588L42.3542 63.3592C41.7215 63.4146 41.2535 63.9724 41.3088 64.6051L41.5093 66.8963C41.5647 67.5291 42.1224 67.9971 42.7552 67.9417L45.0464 67.7413C45.6791 67.6859 46.1472 67.1281 46.0918 66.4954L45.8913 64.2042C45.836 63.5715 45.2782 63.1034 44.6455 63.1588Z" fill="white"/>
</g>
</svg>
