<?xml version="1.0" encoding="UTF-8"?>
<svg id="Layer_2" data-name="Layer 2" xmlns="http://www.w3.org/2000/svg" viewBox="0 0 800 800">
  <defs>
    <style>
      .cls-1 {
        fill: #8c8c8c;
      }

      .cls-1, .cls-2, .cls-3, .cls-4 {
        stroke-width: 0px;
      }

      .cls-3 {
        fill: none;
      }

      .cls-4 {
        fill: #ef795e;
      }
    </style>
  </defs>
  <g id="_탕" data-name="탕">
    <g id="_탕-2" data-name="탕">
      <g id="hover">
        <g>
          <path class="cls-4" d="M430,660c0,16.57-13.43,30-30,30s-30-13.43-30-30c0-45,30-60,30-60,0,0,30,15,30,60Z"/>
          <path class="cls-2" d="M400,700c-22.06,0-40-17.94-40-40,0-50.6,34.08-68.22,35.53-68.94l4.47-2.24,4.47,2.24c1.45.73,35.53,18.35,35.53,68.94,0,22.06-17.94,40-40,40ZM400.01,612.02c-7.07,5.71-20.01,19.99-20.01,47.98,0,11.03,8.97,20,20,20s20-8.97,20-20c0-28.03-12.93-42.29-19.99-47.98Z"/>
        </g>
        <g>
          <path class="cls-4" d="M530,660c0,16.57-13.43,30-30,30s-30-13.43-30-30c0-45,30-60,30-60,0,0,30,15,30,60Z"/>
          <path class="cls-2" d="M500,700c-22.06,0-40-17.94-40-40,0-50.6,34.08-68.22,35.53-68.94l4.47-2.24,4.47,2.24c1.45.73,35.53,18.35,35.53,68.94,0,22.06-17.94,40-40,40ZM500.01,612.02c-7.07,5.71-20.01,19.99-20.01,47.98,0,11.03,8.97,20,20,20s20-8.97,20-20c0-28.03-12.93-42.29-19.99-47.98Z"/>
        </g>
        <g>
          <path class="cls-4" d="M330,660c0,16.57-13.43,30-30,30s-30-13.43-30-30c0-45,30-60,30-60,0,0,30,15,30,60Z"/>
          <path class="cls-2" d="M300,700c-22.06,0-40-17.94-40-40,0-50.6,34.08-68.22,35.53-68.94l4.47-2.24,4.47,2.24c1.45.73,35.53,18.35,35.53,68.94,0,22.06-17.94,40-40,40ZM300.01,612.02c-7.07,5.71-20.01,19.99-20.01,47.98,0,11.03,8.97,20,20,20s20-8.97,20-20c0-28.03-12.93-42.29-19.99-47.98Z"/>
        </g>
        <path class="cls-2" d="M412,240c-5.52,0-10-4.48-10-10,0-11.49-4.11-16.64-9.81-23.75-6.32-7.9-14.19-17.74-14.19-36.25s7.87-28.34,14.19-36.25c5.69-7.12,9.81-12.26,9.81-23.75,0-5.52,4.48-10,10-10s10,4.48,10,10c0,18.51-7.87,28.34-14.19,36.25-5.69,7.12-9.81,12.26-9.81,23.75s4.11,16.64,9.81,23.75c6.32,7.9,14.19,17.74,14.19,36.25,0,5.52-4.48,10-10,10Z"/>
        <path class="cls-2" d="M312,250c-5.52,0-10-4.48-10-10,0-8.48-3.67-12.29-9.21-18.07-6.59-6.86-14.79-15.4-14.79-31.93s8.2-25.06,14.79-31.93c5.55-5.78,9.21-9.6,9.21-18.07,0-5.52,4.48-10,10-10s10,4.48,10,10c0,16.52-8.2,25.06-14.79,31.93-5.55,5.78-9.21,9.6-9.21,18.07s3.67,12.29,9.21,18.07c6.59,6.86,14.79,15.4,14.79,31.93,0,5.52-4.48,10-10,10Z"/>
        <path class="cls-2" d="M512,250c-5.52,0-10-4.48-10-10,0-8.48-3.67-12.29-9.21-18.07-6.59-6.86-14.79-15.4-14.79-31.93s8.2-25.06,14.79-31.93c5.55-5.78,9.21-9.6,9.21-18.07,0-5.52,4.48-10,10-10s10,4.48,10,10c0,16.52-8.2,25.06-14.79,31.93-5.55,5.78-9.21,9.6-9.21,18.07s3.67,12.29,9.21,18.07c6.59,6.86,14.79,15.4,14.79,31.93,0,5.52-4.48,10-10,10Z"/>
        <g>
          <path class="cls-1" d="M690,339.78c.06,5.61-2.19,10.69-5.86,14.36s-8.62,5.86-14.14,5.86h-9.96c-11.07,0-20.04,8.97-20.04,20.04v79.93c0,60.77-49.27,110.04-110.04,110.04h-259.93c-60.77,0-110.04-49.27-110.04-110.04v-79.93c0-11.07-8.97-20.04-20.04-20.04h-9.96c-5.52,0-10.52-2.24-14.14-5.86s-5.92-8.75-5.86-14.36c.12-11.05,9.5-19.78,20.55-19.78h9.48c11.03,0,19.96-8.94,19.96-19.96h0c0-11.07,8.97-20.04,20.04-20.04h439.93c11.07,0,20.04,8.97,20.04,20.04h0c0,11.03,8.94,19.96,19.96,19.96h9.48c11.05,0,20.43,8.73,20.55,19.78Z"/>
          <path class="cls-2" d="M529.96,580h-259.93c-66.19,0-120.04-53.85-120.04-120.04v-79.93c0-5.53-4.5-10.04-10.04-10.04h-9.96c-8.01,0-15.54-3.12-21.21-8.79-5.75-5.76-8.88-13.41-8.79-21.54.18-16.36,13.88-29.67,30.55-29.67h9.48c5.49,0,9.96-4.47,9.96-9.96,0-16.56,13.47-30.04,30.04-30.04h439.93c16.56,0,30.04,13.47,30.04,30.04,0,5.49,4.47,9.96,9.96,9.96h9.48c16.67,0,30.37,13.31,30.55,29.67h0c.09,8.14-3.03,15.79-8.79,21.54-5.67,5.67-13.2,8.79-21.21,8.79h-9.96c-5.53,0-10.04,4.5-10.04,10.04v79.93c0,66.19-53.85,120.04-120.04,120.04ZM130.55,330c-5.76,0-10.49,4.44-10.55,9.89-.03,2.71,1.01,5.26,2.93,7.18,1.89,1.89,4.4,2.93,7.07,2.93h9.96c16.56,0,30.04,13.47,30.04,30.04v79.93c0,55.16,44.88,100.04,100.04,100.04h259.93c55.16,0,100.04-44.88,100.04-100.04v-79.93c0-16.56,13.47-30.04,30.04-30.04h9.96c2.67,0,5.18-1.04,7.07-2.93,1.92-1.92,2.96-4.47,2.93-7.18h0c-.06-5.45-4.79-9.89-10.55-9.89h-9.48c-16.52,0-29.96-13.44-29.96-29.96,0-5.53-4.5-10.04-10.04-10.04H180.04c-5.53,0-10.04,4.5-10.04,10.04,0,16.52-13.44,29.96-29.96,29.96h-9.48Z"/>
        </g>
        <path class="cls-2" d="M690,700H110c-5.52,0-10-4.48-10-10s4.48-10,10-10h580c5.52,0,10,4.48,10,10s-4.48,10-10,10Z"/>
      </g>
      <rect id="frame" class="cls-3" width="800" height="800"/>
    </g>
  </g>
</svg>