<svg width="92" height="92" viewBox="0 0 92 92" fill="none" xmlns="http://www.w3.org/2000/svg">
<g opacity="0.65">
<path d="M49.45 75.9C49.45 77.8055 47.9055 79.35 46 79.35C44.0944 79.35 42.55 77.8055 42.55 75.9C42.55 70.725 46 69 46 69C46 69 49.45 70.725 49.45 75.9Z" fill="white"/>
<path d="M46 80.5001C43.4631 80.5001 41.4 78.437 41.4 75.9001C41.4 70.0811 45.3192 68.0548 45.4859 67.972L46 67.7144L46.514 67.972C46.6808 68.0559 50.6 70.0822 50.6 75.9001C50.6 78.437 48.5369 80.5001 46 80.5001ZM46.0011 70.3824C45.1881 71.039 43.7 72.6812 43.7 75.9001C43.7 77.1685 44.7315 78.2001 46 78.2001C47.2684 78.2001 48.3 77.1685 48.3 75.9001C48.3 72.6766 46.813 71.0367 46.0011 70.3824Z" fill="black"/>
<path d="M60.95 75.9C60.95 77.8055 59.4055 79.35 57.5 79.35C55.5944 79.35 54.05 77.8055 54.05 75.9C54.05 70.725 57.5 69 57.5 69C57.5 69 60.95 70.725 60.95 75.9Z" fill="white"/>
<path d="M57.5 80.5001C54.9631 80.5001 52.9 78.437 52.9 75.9001C52.9 70.0811 56.8192 68.0548 56.9859 67.972L57.5 67.7144L58.014 67.972C58.1808 68.0559 62.1 70.0822 62.1 75.9001C62.1 78.437 60.0369 80.5001 57.5 80.5001ZM57.5011 70.3824C56.6881 71.039 55.2 72.6812 55.2 75.9001C55.2 77.1685 56.2315 78.2001 57.5 78.2001C58.7684 78.2001 59.8 77.1685 59.8 75.9001C59.8 72.6766 58.313 71.0367 57.5011 70.3824Z" fill="black"/>
<path d="M37.95 75.9C37.95 77.8055 36.4055 79.35 34.5 79.35C32.5944 79.35 31.05 77.8055 31.05 75.9C31.05 70.725 34.5 69 34.5 69C34.5 69 37.95 70.725 37.95 75.9Z" fill="white"/>
<path d="M34.5 80.5001C31.9631 80.5001 29.9 78.437 29.9 75.9001C29.9 70.0811 33.8192 68.0548 33.9859 67.972L34.5 67.7144L35.014 67.972C35.1808 68.0559 39.1 70.0822 39.1 75.9001C39.1 78.437 37.0369 80.5001 34.5 80.5001ZM34.5011 70.3824C33.6881 71.039 32.2 72.6812 32.2 75.9001C32.2 77.1685 33.2315 78.2001 34.5 78.2001C35.7684 78.2001 36.8 77.1685 36.8 75.9001C36.8 72.6766 35.313 71.0367 34.5011 70.3824Z" fill="black"/>
<path d="M47.38 27.6C46.7452 27.6 46.23 27.0848 46.23 26.45C46.23 25.1286 45.7573 24.5364 45.1018 23.7187C44.375 22.8102 43.47 21.6786 43.47 19.55C43.47 17.4213 44.375 16.2909 45.1018 15.3812C45.7562 14.5624 46.23 13.9713 46.23 12.65C46.23 12.0152 46.7452 11.5 47.38 11.5C48.0148 11.5 48.53 12.0152 48.53 12.65C48.53 14.7786 47.6249 15.9091 46.8981 16.8187C46.2438 17.6375 45.77 18.2286 45.77 19.55C45.77 20.8713 46.2426 21.4636 46.8981 22.2812C47.6249 23.1897 48.53 24.3213 48.53 26.45C48.53 27.0848 48.0148 27.6 47.38 27.6Z" fill="black"/>
<path d="M35.88 28.7502C35.2452 28.7502 34.73 28.235 34.73 27.6002C34.73 26.625 34.3079 26.1868 33.6708 25.5221C32.913 24.7332 31.97 23.7511 31.97 21.8502C31.97 19.9492 32.913 18.9683 33.6708 18.1782C34.3091 17.5135 34.73 17.0742 34.73 16.1002C34.73 15.4654 35.2452 14.9502 35.88 14.9502C36.5148 14.9502 37.03 15.4654 37.03 16.1002C37.03 18 36.087 18.9821 35.3291 19.7721C34.6909 20.4368 34.27 20.8761 34.27 21.8502C34.27 22.8242 34.692 23.2635 35.3291 23.9282C36.087 24.7171 37.03 25.6992 37.03 27.6002C37.03 28.235 36.5148 28.7502 35.88 28.7502Z" fill="black"/>
<path d="M58.88 28.7502C58.2452 28.7502 57.73 28.235 57.73 27.6002C57.73 26.625 57.3079 26.1868 56.6708 25.5221C55.913 24.7332 54.97 23.7511 54.97 21.8502C54.97 19.9492 55.913 18.9683 56.6708 18.1782C57.3091 17.5135 57.73 17.0742 57.73 16.1002C57.73 15.4654 58.2452 14.9502 58.88 14.9502C59.5148 14.9502 60.03 15.4654 60.03 16.1002C60.03 18 59.087 18.9821 58.3291 19.7721C57.6909 20.4368 57.27 20.8761 57.27 21.8502C57.27 22.8242 57.692 23.2635 58.3291 23.9282C59.087 24.7171 60.03 25.6992 60.03 27.6002C60.03 28.235 59.5148 28.7502 58.88 28.7502Z" fill="black"/>
<path d="M79.35 39.0747C79.3569 39.7198 79.0981 40.304 78.6761 40.7261C78.254 41.1481 77.6848 41.4 77.05 41.4H75.9046C74.6315 41.4 73.6 42.4315 73.6 43.7046V52.8965C73.6 59.8851 67.9339 65.5511 60.9454 65.5511H31.0534C24.0649 65.5511 18.3988 59.8851 18.3988 52.8965V43.7046C18.3988 42.4315 17.3673 41.4 16.0942 41.4H14.9488C14.314 41.4 13.739 41.1424 13.3227 40.7261C12.9064 40.3098 12.6419 39.7198 12.6488 39.0747C12.6626 37.8039 13.7413 36.8 15.0121 36.8H16.1023C17.3707 36.8 18.3977 35.7719 18.3977 34.5046C18.3977 33.2315 19.4292 32.2 20.7023 32.2H71.2942C72.5673 32.2 73.5988 33.2315 73.5988 34.5046C73.5988 35.773 74.6269 36.8 75.8942 36.8H76.9844C78.2552 36.8 79.3339 37.8039 79.3477 39.0747H79.35Z" fill="white"/>
<path d="M60.9454 66.7H31.0534C23.4416 66.7 17.2488 60.5072 17.2488 52.8954V43.7034C17.2488 43.0675 16.7313 42.5488 16.0942 42.5488H14.9488C14.0277 42.5488 13.1617 42.19 12.5097 41.538C11.8484 40.8756 11.4885 39.9958 11.4988 39.0609C11.5195 37.1795 13.095 35.6488 15.0121 35.6488H16.1023C16.7336 35.6488 17.2477 35.1348 17.2477 34.5034C17.2477 32.599 18.7967 31.0488 20.7023 31.0488H71.2942C73.1986 31.0488 74.7488 32.5979 74.7488 34.5034C74.7488 35.1348 75.2629 35.6488 75.8942 35.6488H76.9844C78.9015 35.6488 80.477 37.1795 80.4977 39.0609C80.508 39.997 80.1492 40.8767 79.4868 41.538C78.8348 42.19 77.9688 42.5488 77.0477 42.5488H75.9023C75.2663 42.5488 74.7477 43.0663 74.7477 43.7034V52.8954C74.7477 60.5072 68.5549 66.7 60.9431 66.7H60.9454ZM15.0132 37.95C14.3508 37.95 13.8069 38.4606 13.8 39.0873C13.7965 39.399 13.9161 39.6922 14.1369 39.913C14.3543 40.1304 14.6429 40.25 14.95 40.25H16.0954C17.9998 40.25 19.55 41.799 19.55 43.7046V52.8965C19.55 59.2399 24.7112 64.4011 31.0546 64.4011H60.9465C67.2899 64.4011 72.4511 59.2399 72.4511 52.8965V43.7046C72.4511 41.8002 74.0002 40.25 75.9057 40.25H77.0511C77.3582 40.25 77.6468 40.1304 77.8642 39.913C78.085 39.6922 78.2046 39.399 78.2011 39.0873C78.1942 38.4606 77.6503 37.95 76.9879 37.95H75.8977C73.9979 37.95 72.4523 36.4044 72.4523 34.5046C72.4523 33.8686 71.9348 33.35 71.2977 33.35H20.7046C20.0686 33.35 19.55 33.8675 19.55 34.5046C19.55 36.4044 18.0044 37.95 16.1046 37.95H15.0144H15.0132Z" fill="black"/>
<path d="M79.35 80.5002H12.65C12.0152 80.5002 11.5 79.985 11.5 79.3502C11.5 78.7154 12.0152 78.2002 12.65 78.2002H79.35C79.9848 78.2002 80.5 78.7154 80.5 79.3502C80.5 79.985 79.9848 80.5002 79.35 80.5002Z" fill="black"/>
</g>
</svg>
