<svg width="92" height="92" viewBox="0 0 92 92" fill="none" xmlns="http://www.w3.org/2000/svg">
<g opacity="0.65">
<path d="M72.2028 35.6512L61.3962 31.7182L64.0596 24.4019C64.1988 24.0189 64.1206 23.5831 63.8549 23.2657C62.4439 21.5763 62.1161 19.274 63.0016 17.2558C64.1597 14.6165 67.1175 13.2411 69.8821 14.0565C70.9688 14.3773 71.9268 14.9995 72.6513 15.8574C72.9296 16.1874 73.3505 16.3404 73.7748 16.2668C74.8811 16.0759 76.015 16.2139 77.0535 16.667C79.695 17.8193 81.0773 20.7748 80.2677 23.5405C79.649 25.6554 77.9183 27.209 75.7517 27.5966C75.3434 27.669 75.0042 27.9531 74.8639 28.336L72.2005 35.6523L72.2028 35.6512ZM64.3448 30.3428L70.8285 32.7026L72.7053 27.5471C73.1239 26.396 74.1382 25.5461 75.3503 25.3299C76.6521 25.0976 77.6906 24.1638 78.0632 22.8931C78.5485 21.2348 77.7205 19.4638 76.1369 18.7738C75.5113 18.5012 74.8305 18.4173 74.1693 18.5311C72.9319 18.745 71.7083 18.3 70.8975 17.3409C70.464 16.828 69.889 16.4542 69.2346 16.261C67.5775 15.7723 65.8053 16.5968 65.1107 18.1781C64.5783 19.3913 64.7749 20.7748 65.6225 21.7891C66.4125 22.7344 66.6425 24.0362 66.2239 25.1873L64.3471 30.3428H64.3448Z" fill="black"/>
<path d="M76.7499 52.4619C76.4969 50.8703 75.6574 49.5168 74.918 48.3231C74.5753 47.7711 74.2521 47.249 73.9968 46.7315C73.7404 46.2105 73.5196 45.6539 73.2873 45.064C73.1562 44.7328 73.0251 44.3993 72.8848 44.0681C72.434 43.0032 72.4098 41.806 72.8054 40.7193L73.9324 37.6212C74.2383 36.7817 74.2417 35.8513 73.8922 35.0291C73.5138 34.1378 72.7996 33.4605 71.8946 33.1316L63.2489 29.9852C61.4618 29.3343 59.4781 30.26 58.8272 32.0471L57.6748 35.2131C57.2792 36.2998 56.4915 37.2014 55.4622 37.727C55.1414 37.8903 54.8263 38.0616 54.5135 38.2307C53.9569 38.5331 53.4302 38.8172 52.8989 39.0518C52.3699 39.2841 51.7868 39.4761 51.1704 39.6797C49.8364 40.119 48.323 40.6169 47.1063 41.6726C46.0092 42.6248 45.3423 43.9025 44.6971 45.1376C44.3544 45.7931 44.0312 46.4118 43.6529 46.9741C43.3033 47.4939 42.8629 48.0034 42.396 48.5427C41.4829 49.5984 40.5387 50.6898 40.0166 52.1238C39.4945 53.5579 39.5163 55.0011 39.537 56.3961C39.5474 57.1091 39.5577 57.7818 39.491 58.4063C39.4197 59.0802 39.2691 59.7621 39.1104 60.4843C38.8102 61.8459 38.5009 63.2535 38.7286 64.6876C38.9816 66.2792 39.8211 67.6327 40.5606 68.8264C40.9033 69.3784 41.2264 69.9005 41.4817 70.418C41.7381 70.939 41.959 71.4956 42.1913 72.0855C42.7525 73.5069 43.3321 74.9755 44.5085 76.0818C45.7563 77.2548 47.3525 77.7297 48.8969 78.1886C49.4317 78.3473 49.9365 78.4979 50.4229 78.675C50.9094 78.8521 51.3924 79.0614 51.9053 79.2834C53.2853 79.8814 54.7101 80.4989 56.2857 80.4989C56.396 80.4989 56.5088 80.4955 56.6203 80.4897C58.2315 80.3989 59.6206 79.6456 60.9639 78.9177C61.5204 78.6152 62.0471 78.33 62.5784 78.0966C63.1074 77.8643 63.6905 77.6722 64.3069 77.4687C65.6409 77.0294 67.1543 76.5314 68.371 75.4757C69.4681 74.5235 70.1351 73.2459 70.7803 72.0108C71.1229 71.3553 71.4461 70.7366 71.8245 70.1742C72.1741 69.6544 72.6145 69.145 73.0814 68.6056C73.9945 67.5499 74.9387 66.4586 75.4608 65.0245C75.9828 63.5905 75.961 62.1472 75.9403 60.7523C75.93 60.0393 75.9196 59.3665 75.9863 58.7421C76.0576 58.0682 76.2083 57.3862 76.367 56.664C76.6671 55.3024 76.9765 53.8948 76.7488 52.4608L76.7499 52.4619ZM74.1222 56.1707C73.9566 56.9216 73.7852 57.699 73.7001 58.5006C73.6196 59.2619 73.6311 60.0381 73.6414 60.7879C73.6599 62.0299 73.6771 63.2029 73.2999 64.2391C72.9227 65.2752 72.1557 66.163 71.3426 67.1026C70.8516 67.6695 70.3444 68.256 69.9166 68.892C69.4669 69.5601 69.099 70.2651 68.7425 70.947C68.1709 72.0407 67.6315 73.0734 66.8633 73.7404C65.9962 74.4936 64.8267 74.8789 63.5882 75.286C62.9464 75.4976 62.2829 75.7161 61.6515 75.9932C61.0328 76.2658 60.4406 76.5866 59.8668 76.8971C58.6949 77.5319 57.5875 78.1322 56.4904 78.1943C55.3242 78.2587 54.1076 77.732 52.8184 77.1743C52.2975 76.9489 51.7593 76.7154 51.2084 76.5142C50.6576 76.3141 50.094 76.1462 49.5501 75.984C48.2046 75.5838 46.9327 75.2055 46.0817 74.4062C45.2801 73.653 44.8179 72.4823 44.3291 71.2414C44.0899 70.6342 43.8415 70.0075 43.5437 69.4014C43.2389 68.7839 42.8709 68.1893 42.5144 67.6155C41.8279 66.508 41.1793 65.4615 40.9987 64.3265C40.8389 63.3225 41.0895 62.184 41.3552 60.98C41.5208 60.229 41.6921 59.4516 41.7773 58.6501C41.8577 57.8888 41.8463 57.1125 41.8359 56.3627C41.8175 55.1207 41.8003 53.9477 42.1775 52.9116C42.5547 51.8754 43.3217 50.9876 44.1348 50.0481C44.6258 49.4811 45.1329 48.8946 45.5607 48.2587C46.0104 47.5905 46.3784 46.8856 46.7349 46.2025C47.3065 45.1088 47.8458 44.0761 48.614 43.4091C49.4811 42.6559 50.6506 42.2706 51.8892 41.8635C52.5309 41.6519 53.1944 41.4334 53.8258 41.1563C54.4445 40.8837 55.0368 40.5629 55.6106 40.2524C55.7072 40.2006 55.8027 40.1489 55.8981 40.0971C56.3075 39.8763 56.71 39.6647 57.1079 39.4853C58.2407 38.9736 59.1054 38.0099 59.5309 36.8415L59.5953 36.6644L60.9903 32.8337C61.1605 32.3668 61.6021 32.077 62.0725 32.077C62.2024 32.077 62.3358 32.0989 62.4646 32.146L71.0735 35.2798C71.3277 35.3718 71.5531 35.5385 71.6945 35.7685C71.882 36.0744 71.9165 36.4355 71.7969 36.7667L70.4019 40.5974L70.3375 40.7745C69.912 41.9417 69.9557 43.2366 70.4939 44.3567C70.6825 44.75 70.855 45.1698 71.0275 45.6033C71.0678 45.7045 71.108 45.8057 71.1483 45.9069C71.3875 46.5141 71.6359 47.1409 71.9337 47.7469C72.2385 48.3645 72.6065 48.959 72.963 49.5329C73.6495 50.6403 74.2981 51.6868 74.4787 52.8219C74.6385 53.8258 74.3878 54.9643 74.1222 56.1684V56.1707Z" fill="black"/>
<path d="M31.5054 58.7881C30.9316 58.7881 30.3635 58.6386 29.8483 58.3465C28.9846 57.8566 28.3337 57.0067 28.0635 56.0166L28.06 56.0028C24.4605 42.1614 24.4605 28.1256 28.06 14.2842L28.0635 14.2704C28.3337 13.2791 28.9846 12.4304 29.8483 11.9405C30.6349 11.4943 31.5434 11.3816 32.407 11.6231L32.4346 11.6312L34.6587 12.3131C36.424 12.8996 37.4291 14.8121 36.9449 16.6647C33.7698 28.9249 33.7698 41.3598 36.9449 53.6211C37.4279 55.4726 36.424 57.3839 34.6576 57.9716L34.6323 57.9796L32.4059 58.6616C32.108 58.7444 31.8056 58.7858 31.5043 58.7858L31.5054 58.7881ZM30.2841 55.4163C30.3934 55.8119 30.6544 56.1592 30.9833 56.3455C31.2363 56.4892 31.5043 56.5249 31.7768 56.4513L33.9446 55.7866C34.5575 55.5761 34.8979 54.8827 34.7208 54.2007C31.4456 41.5542 31.4456 28.7317 34.7208 16.0874C34.8991 15.4043 34.5587 14.7109 33.9457 14.5004L31.778 13.8357C31.5054 13.7621 31.2386 13.7978 30.9845 13.9415C30.6556 14.1278 30.3945 14.4751 30.2853 14.8707C26.7881 28.3223 26.7881 41.9636 30.2853 55.4151L30.2841 55.4163Z" fill="black"/>
<path d="M27.2217 73.5357C26.9859 73.5357 26.7479 73.5104 26.511 73.461C25.5392 73.2551 24.6629 72.641 24.1052 71.7785L24.0983 71.767C16.4876 59.6587 12.251 46.2773 11.5046 31.9954V31.9816C11.4621 30.9558 11.8266 29.9496 12.5028 29.2216C13.1181 28.5592 13.9507 28.1774 14.8465 28.1464H14.8879L17.1891 28.1245H17.2029C19.0636 28.151 20.5977 29.6701 20.6966 31.5837C21.3705 44.2303 25.1241 56.0845 31.8539 66.8151C32.8728 68.4343 32.4933 70.5595 30.9868 71.6532L30.9649 71.6693L29.049 72.9918C28.4993 73.3517 27.8691 73.5369 27.224 73.5369L27.2217 73.5357ZM26.0406 70.5354C26.2649 70.8792 26.6179 71.1322 26.9882 71.2104C27.2734 71.2714 27.5391 71.2242 27.7771 71.0713L29.6436 69.7833C30.1645 69.398 30.2795 68.6333 29.9046 68.0376C22.9644 56.97 19.0935 44.7455 18.3977 31.7022C18.3609 30.9972 17.8273 30.4383 17.1799 30.4234L14.9121 30.4441C14.6292 30.4567 14.3854 30.5706 14.1876 30.7845C13.93 31.0616 13.7862 31.471 13.8012 31.8816C14.528 45.7621 18.6461 58.7663 26.0406 70.5342V70.5354Z" fill="black"/>
<path d="M74.122 56.1706C73.9564 56.9215 73.7851 57.6989 73.7 58.5005C73.6195 59.2618 73.631 60.038 73.6413 60.7878C73.6597 62.0298 73.677 63.2028 73.2998 64.239C72.9226 65.2751 72.1555 66.1629 71.3425 67.1025C70.8514 67.6694 70.3443 68.2559 69.9165 68.8919C69.4668 69.56 69.0988 70.265 68.7423 70.9469C68.1708 72.0406 67.6314 73.0733 66.8632 73.7403C65.9961 74.4935 64.8266 74.8788 63.588 75.2859C62.9463 75.4975 62.2828 75.716 61.6514 75.9931C61.0327 76.2657 60.4405 76.5865 59.8666 76.897C58.6948 77.5318 57.5873 78.1321 56.4902 78.1942C55.3241 78.2586 54.1074 77.7319 52.8183 77.1742C52.2973 76.9488 51.7591 76.7153 51.2083 76.5141C50.6574 76.314 50.0939 76.1461 49.55 75.9839C48.2045 75.5837 46.9326 75.2054 46.0816 74.4061C45.28 73.6529 44.8177 72.4822 44.329 71.2413C44.0898 70.6341 43.8414 70.0074 43.5435 69.4013C43.2388 68.7838 42.8708 68.1892 42.5143 67.6154C41.8277 66.5079 41.1791 65.4614 40.9986 64.3264C40.8387 63.3224 41.0894 62.1839 41.3551 60.9799C41.5207 60.2289 41.692 59.4515 41.7771 58.65C41.8576 57.8887 41.8461 57.1124 41.8358 56.3626C41.8174 55.1206 41.8001 53.9476 42.1773 52.9115C42.5545 51.8753 43.3216 50.9875 44.1346 50.048C44.6257 49.481 45.1328 48.8945 45.5606 48.2586C46.0103 47.5904 46.3783 46.8855 46.7348 46.2024C47.3063 45.1087 47.8457 44.076 48.6139 43.409C49.481 42.6558 50.6505 42.2705 51.8891 41.8634C52.5308 41.6518 53.1943 41.4333 53.8257 41.1562C54.4444 40.8836 55.0366 40.5628 55.6105 40.2523C55.7071 40.2005 55.8025 40.1488 55.898 40.097C56.3074 39.8762 56.7099 39.6646 57.1078 39.4852C58.2405 38.9735 59.1053 38.0098 59.5308 36.8414L59.5952 36.6643L60.9902 32.8336C61.1604 32.3667 61.602 32.0769 62.0723 32.0769C62.2023 32.0769 62.3357 32.0988 62.4645 32.1459L71.0734 35.2797C71.3275 35.3717 71.5529 35.5384 71.6944 35.7684C71.8818 36.0743 71.9163 36.4354 71.7967 36.7666L70.4018 40.5973L70.3374 40.7744C69.9119 41.9416 69.9556 43.2365 70.4938 44.3566C70.6824 44.7499 70.8549 45.1697 71.0274 45.6032C71.0676 45.7044 71.1079 45.8056 71.1481 45.9068C71.3873 46.514 71.6357 47.1408 71.9336 47.7468C72.2383 48.3644 72.6063 48.9589 72.9628 49.5328C73.6494 50.6402 74.298 51.6867 74.4785 52.8218C74.6384 53.8257 74.3877 54.9642 74.122 56.1683V56.1706Z" fill="white"/>
<path d="M64.3448 30.3428L70.8285 32.7026L72.7053 27.5472C73.1239 26.396 74.1382 25.5462 75.3503 25.33C76.6521 25.0977 77.6906 24.1639 78.0632 22.8931C78.5485 21.2348 77.7205 19.4638 76.1369 18.7738C75.5113 18.5013 74.8305 18.4173 74.1693 18.5312C72.9319 18.7451 71.7083 18.3 70.8975 17.3409C70.464 16.828 69.889 16.4543 69.2346 16.2611C67.5775 15.7723 65.8053 16.5969 65.1107 18.1781C64.5783 19.3914 64.7749 20.7748 65.6225 21.7891C66.4125 22.7344 66.6425 24.0362 66.2239 25.1874L64.3471 30.3428H64.3448Z" fill="white"/>
<path d="M30.2841 55.4161C30.3934 55.8117 30.6544 56.159 30.9833 56.3453C31.2363 56.4891 31.5043 56.5247 31.7768 56.4511L33.9446 55.7864C34.5575 55.576 34.8979 54.8825 34.7208 54.2006C31.4456 41.554 31.4456 28.7315 34.7208 16.0873C34.8991 15.4042 34.5587 14.7107 33.9457 14.5003L31.778 13.8356C31.5054 13.762 31.2386 13.7976 30.9845 13.9414C30.6556 14.1277 30.3945 14.475 30.2853 14.8706C26.7881 28.3221 26.7881 41.9634 30.2853 55.415L30.2841 55.4161Z" fill="white"/>
<path d="M26.0406 70.5353C26.2649 70.8792 26.6179 71.1322 26.9882 71.2104C27.2734 71.2713 27.5391 71.2242 27.7771 71.0712L29.6436 69.7832C30.1645 69.398 30.2795 68.6332 29.9046 68.0375C22.9644 56.9699 19.0935 44.7454 18.3977 31.7021C18.3609 30.9972 17.8273 30.4383 17.1799 30.4233L14.9121 30.444C14.6292 30.4567 14.3854 30.5705 14.1876 30.7844C13.93 31.0616 13.7862 31.471 13.8012 31.8815C14.528 45.762 18.6461 58.7662 26.0406 70.5342V70.5353Z" fill="white"/>
</g>
</svg>
