<?xml version="1.0" encoding="UTF-8"?>
<svg id="Layer_2" data-name="Layer 2" xmlns="http://www.w3.org/2000/svg" viewBox="0 0 800 800">
  <defs>
    <style>
      .cls-1, .cls-2, .cls-3, .cls-4, .cls-5 {
        stroke-width: 0px;
      }

      .cls-2 {
        fill: #d9a26c;
      }

      .cls-3 {
        fill: none;
      }

      .cls-4 {
        fill: #fff;
      }

      .cls-5 {
        fill: #fddf89;
      }
    </style>
  </defs>
  <g id="_튀김" data-name="튀김">
    <g id="_튀김-2" data-name="튀김">
      <g id="hover">
        <g>
          <g>
            <path class="cls-1" d="M627.85,310.01l-93.97-34.2,23.16-63.62c1.21-3.33.53-7.12-1.78-9.88-12.27-14.69-15.12-34.71-7.42-52.26,10.07-22.95,35.79-34.91,59.83-27.82,9.45,2.79,17.78,8.2,24.08,15.66,2.42,2.87,6.08,4.2,9.77,3.56,9.62-1.66,19.48-.46,28.51,3.48,22.97,10.02,34.99,35.72,27.95,59.77h0c-5.38,18.39-20.43,31.9-39.27,35.27-3.55.63-6.5,3.1-7.72,6.43l-23.16,63.62ZM559.52,263.85l56.38,20.52,16.32-44.83c3.64-10.01,12.46-17.4,23-19.28,11.32-2.02,20.35-10.14,23.59-21.19,4.22-14.42-2.98-29.82-16.75-35.82-5.44-2.37-11.36-3.1-17.11-2.11-10.76,1.86-21.4-2.01-28.45-10.35-3.77-4.46-8.77-7.71-14.46-9.39-14.41-4.25-29.82,2.92-35.86,16.67-4.63,10.55-2.92,22.58,4.45,31.4,6.87,8.22,8.87,19.54,5.23,29.55l-16.32,44.83ZM688.4,201.88h.01-.01Z"/>
            <path class="cls-1" d="M667.39,456.19c-2.2-13.84-9.5-25.61-15.93-35.99-2.98-4.8-5.79-9.34-8.01-13.84-2.23-4.53-4.15-9.37-6.17-14.5-1.14-2.88-2.28-5.78-3.5-8.66-3.92-9.26-4.13-19.67-.69-29.12l9.8-26.94c2.66-7.3,2.69-15.39-.35-22.54-3.29-7.75-9.5-13.64-17.37-16.5l-75.18-27.36c-15.54-5.66-32.79,2.39-38.45,17.93l-10.02,27.53c-3.44,9.45-10.29,17.29-19.24,21.86-2.79,1.42-5.53,2.91-8.25,4.38-4.84,2.63-9.42,5.1-14.04,7.14-4.6,2.02-9.67,3.69-15.03,5.46-11.6,3.82-24.76,8.15-35.34,17.33-9.54,8.28-15.34,19.39-20.95,30.13-2.98,5.7-5.79,11.08-9.08,15.97-3.04,4.52-6.87,8.95-10.93,13.64-7.94,9.18-16.15,18.67-20.69,31.14-4.54,12.47-4.35,25.02-4.17,37.15.09,6.2.18,12.05-.4,17.48-.62,5.86-1.93,11.79-3.31,18.07-2.61,11.84-5.3,24.08-3.32,36.55,2.2,13.84,9.5,25.61,15.93,35.99,2.98,4.8,5.79,9.34,8.01,13.84,2.23,4.53,4.15,9.37,6.17,14.5,4.88,12.36,9.92,25.13,20.15,34.75,10.85,10.2,24.73,14.33,38.16,18.32,4.65,1.38,9.04,2.69,13.27,4.23,4.23,1.54,8.43,3.36,12.89,5.29,12,5.2,24.39,10.57,38.09,10.57.96,0,1.94-.03,2.91-.08,14.01-.79,26.09-7.34,37.77-13.67,4.84-2.63,9.42-5.11,14.04-7.14,4.6-2.02,9.67-3.69,15.03-5.46,11.6-3.82,24.76-8.15,35.34-17.33,9.54-8.28,15.34-19.39,20.95-30.13,2.98-5.7,5.79-11.08,9.08-15.97,3.04-4.52,6.87-8.95,10.93-13.64,7.94-9.18,16.15-18.67,20.69-31.14h0c4.54-12.47,4.35-25.02,4.17-37.15-.09-6.2-.18-12.05.4-17.48.62-5.86,1.93-11.79,3.31-18.07,2.61-11.84,5.3-24.08,3.32-36.55ZM644.54,488.44c-1.44,6.53-2.93,13.29-3.67,20.26-.7,6.62-.6,13.37-.51,19.89.16,10.8.31,21-2.97,30.01-3.28,9.01-9.95,16.73-17.02,24.9-4.27,4.93-8.68,10.03-12.4,15.56-3.91,5.81-7.11,11.94-10.21,17.87-4.97,9.51-9.66,18.49-16.34,24.29-7.54,6.55-17.71,9.9-28.48,13.44-5.58,1.84-11.35,3.74-16.84,6.15-5.38,2.37-10.53,5.16-15.52,7.86-10.19,5.52-19.82,10.74-29.36,11.28-10.14.56-20.72-4.02-31.93-8.87-4.53-1.96-9.21-3.99-14-5.74-4.79-1.74-9.69-3.2-14.42-4.61-11.7-3.48-22.76-6.77-30.16-13.72-6.97-6.55-10.99-16.73-15.24-27.52-2.08-5.28-4.24-10.73-6.83-16-2.65-5.37-5.85-10.54-8.95-15.53-5.97-9.63-11.61-18.73-13.18-28.6-1.39-8.73.79-18.63,3.1-29.1,1.44-6.53,2.93-13.29,3.67-20.26.7-6.62.6-13.37.51-19.89-.16-10.8-.31-21,2.97-30.01,3.28-9.01,9.95-16.73,17.02-24.9,4.27-4.93,8.68-10.03,12.4-15.56,3.91-5.81,7.11-11.94,10.21-17.88,4.97-9.51,9.66-18.49,16.34-24.29,7.54-6.55,17.71-9.9,28.48-13.44,5.58-1.84,11.35-3.74,16.84-6.15,5.38-2.37,10.53-5.16,15.52-7.86.84-.45,1.67-.9,2.5-1.35,3.56-1.92,7.06-3.76,10.52-5.32,9.85-4.45,17.37-12.83,21.07-22.99l.56-1.54,12.13-33.31c1.48-4.06,5.32-6.58,9.41-6.58,1.13,0,2.29.19,3.41.6l74.86,27.25c2.21.8,4.17,2.25,5.4,4.25,1.63,2.66,1.93,5.8.89,8.68l-12.13,33.31-.56,1.54c-3.7,10.15-3.32,21.41,1.36,31.15,1.64,3.42,3.14,7.07,4.64,10.84.35.88.7,1.76,1.05,2.64,2.08,5.28,4.24,10.73,6.83,16,2.65,5.37,5.85,10.54,8.95,15.53,5.97,9.63,11.61,18.73,13.18,28.6,1.39,8.73-.79,18.63-3.1,29.1Z"/>
          </g>
          <path class="cls-1" d="M273.96,511.2c-4.99,0-9.93-1.3-14.41-3.84-7.51-4.26-13.17-11.65-15.52-20.26l-.03-.12c-31.3-120.36-31.3-242.41,0-362.77l.03-.12c2.35-8.62,8.01-16,15.52-20.26,6.84-3.88,14.74-4.86,22.25-2.76l.24.07,19.34,5.93c15.35,5.1,24.09,21.73,19.88,37.84-27.61,106.61-27.61,214.74,0,321.36,4.2,16.1-4.53,32.72-19.89,37.83l-.22.07-19.36,5.93c-2.59.72-5.22,1.08-7.84,1.08ZM298.23,494.63h0,0ZM263.34,481.88c.95,3.44,3.22,6.46,6.08,8.08,2.2,1.25,4.53,1.56,6.9.92l18.85-5.78c5.33-1.83,8.29-7.86,6.75-13.79-28.48-109.97-28.48-221.47,0-331.42,1.55-5.94-1.41-11.97-6.74-13.8l-18.85-5.78c-2.37-.64-4.69-.33-6.9.92-2.86,1.62-5.13,4.64-6.08,8.08-30.41,116.97-30.41,235.59,0,352.56Z"/>
          <path class="cls-1" d="M236.71,639.44c-2.05,0-4.12-.22-6.18-.65-8.45-1.79-16.07-7.13-20.92-14.63l-.06-.1c-66.18-105.29-103.02-221.65-109.51-345.84v-.12c-.37-8.92,2.8-17.67,8.68-24,5.35-5.76,12.59-9.08,20.38-9.35h.36s20.01-.19,20.01-.19h.12c16.18.23,29.52,13.44,30.38,30.08,5.86,109.97,38.5,213.05,97.02,306.36,8.86,14.08,5.56,32.56-7.54,42.07l-.19.14-16.66,11.5c-4.78,3.13-10.26,4.74-15.87,4.74ZM226.44,613.35c1.95,2.99,5.02,5.19,8.24,5.87,2.48.53,4.79.12,6.86-1.21l16.23-11.2c4.53-3.35,5.53-10,2.27-15.18-60.35-96.24-94.01-202.54-100.06-315.96-.32-6.13-4.96-10.99-10.59-11.12l-19.72.18c-2.46.11-4.58,1.1-6.3,2.96-2.24,2.41-3.49,5.97-3.36,9.54,6.32,120.7,42.13,233.78,106.43,336.11ZM263.56,614.97h0,0Z"/>
        </g>
        <path class="cls-2" d="M644.54,488.44c-1.44,6.53-2.93,13.29-3.67,20.26-.7,6.62-.6,13.37-.51,19.89.16,10.8.31,21-2.97,30.01-3.28,9.01-9.95,16.73-17.02,24.9-4.27,4.93-8.68,10.03-12.4,15.56-3.91,5.81-7.11,11.94-10.21,17.87-4.97,9.51-9.66,18.49-16.34,24.29-7.54,6.55-17.71,9.9-28.48,13.44-5.58,1.84-11.35,3.74-16.84,6.15-5.38,2.37-10.53,5.16-15.52,7.86-10.19,5.52-19.82,10.74-29.36,11.28-10.14.56-20.72-4.02-31.93-8.87-4.53-1.96-9.21-3.99-14-5.74-4.79-1.74-9.69-3.2-14.42-4.61-11.7-3.48-22.76-6.77-30.16-13.72-6.97-6.55-10.99-16.73-15.24-27.52-2.08-5.28-4.24-10.73-6.83-16-2.65-5.37-5.85-10.54-8.95-15.53-5.97-9.63-11.61-18.73-13.18-28.6-1.39-8.73.79-18.63,3.1-29.1,1.44-6.53,2.93-13.29,3.67-20.26.7-6.62.6-13.37.51-19.89-.16-10.8-.31-21,2.97-30.01,3.28-9.01,9.95-16.73,17.02-24.9,4.27-4.93,8.68-10.03,12.4-15.56,3.91-5.81,7.11-11.94,10.21-17.88,4.97-9.51,9.66-18.49,16.34-24.29,7.54-6.55,17.71-9.9,28.48-13.44,5.58-1.84,11.35-3.74,16.84-6.15,5.38-2.37,10.53-5.16,15.52-7.86.84-.45,1.67-.9,2.5-1.35,3.56-1.92,7.06-3.76,10.52-5.32,9.85-4.45,17.37-12.83,21.07-22.99l.56-1.54,12.13-33.31c1.48-4.06,5.32-6.58,9.41-6.58,1.13,0,2.29.19,3.41.6l74.86,27.25c2.21.8,4.17,2.25,5.4,4.25,1.63,2.66,1.93,5.8.89,8.68l-12.13,33.31-.56,1.54c-3.7,10.15-3.32,21.41,1.36,31.15,1.64,3.42,3.14,7.07,4.64,10.84.35.88.7,1.76,1.05,2.64,2.08,5.28,4.24,10.73,6.83,16,2.65,5.37,5.85,10.54,8.95,15.53,5.97,9.63,11.61,18.73,13.18,28.6,1.39,8.73-.79,18.63-3.1,29.1Z"/>
        <path class="cls-4" d="M559.52,263.85l56.38,20.52,16.32-44.83c3.64-10.01,12.46-17.4,23-19.28,11.32-2.02,20.35-10.14,23.59-21.19,4.22-14.42-2.98-29.82-16.75-35.82-5.44-2.37-11.36-3.1-17.11-2.11-10.76,1.86-21.4-2.01-28.45-10.35-3.77-4.46-8.77-7.71-14.46-9.39-14.41-4.25-29.82,2.92-35.86,16.67-4.63,10.55-2.92,22.58,4.45,31.4,6.87,8.22,8.87,19.54,5.23,29.55l-16.32,44.83Z"/>
        <path class="cls-5" d="M263.34,481.88c.95,3.44,3.22,6.46,6.08,8.08,2.2,1.25,4.53,1.56,6.9.92l18.85-5.78c5.33-1.83,8.29-7.86,6.75-13.79-28.48-109.97-28.48-221.47,0-331.42,1.55-5.94-1.41-11.97-6.74-13.8l-18.85-5.78c-2.37-.64-4.69-.33-6.9.92-2.86,1.62-5.13,4.64-6.08,8.08-30.41,116.97-30.41,235.59,0,352.56Z"/>
        <path class="cls-5" d="M226.44,613.35c1.95,2.99,5.02,5.19,8.24,5.87,2.48.53,4.79.12,6.86-1.21l16.23-11.2c4.53-3.35,5.53-10,2.27-15.18-60.35-96.24-94.01-202.54-100.06-315.96-.32-6.13-4.96-10.99-10.59-11.12l-19.72.18c-2.46.11-4.58,1.1-6.3,2.96-2.24,2.41-3.49,5.97-3.36,9.54,6.32,120.7,42.13,233.78,106.43,336.11Z"/>
      </g>
      <rect id="frame" class="cls-3" width="800" height="800"/>
    </g>
  </g>
</svg>