<svg width="92" height="92" viewBox="0 0 92 92" fill="none" xmlns="http://www.w3.org/2000/svg">
<g opacity="0.65">
<path d="M57.0238 65.6661C54.3314 68.3586 49.9581 68.3586 47.2657 65.6661C46.368 64.7684 46.368 63.3112 47.2657 62.4134C49.9581 59.721 54.3314 59.721 57.0238 62.4134C57.9215 63.3112 57.9215 64.7684 57.0238 65.6661Z" fill="white"/>
<path d="M52.1444 68.8341C50.0825 68.8341 48.0217 68.0498 46.4519 66.48C45.1064 65.1345 45.1064 62.9461 46.4519 61.6006C49.5903 58.4622 54.6974 58.4622 57.8369 61.6006C59.1824 62.9461 59.1824 65.1345 57.8369 66.48C56.2672 68.0498 54.2064 68.8341 52.1444 68.8341ZM52.1444 61.5454C50.6724 61.5454 49.1993 62.1054 48.078 63.2267C47.6295 63.6752 47.6295 64.4043 48.078 64.8528C50.3205 67.0941 53.9683 67.0953 56.2097 64.8528C56.6582 64.4043 56.6582 63.6752 56.2097 63.2267C55.0884 62.1054 53.6164 61.5454 52.1444 61.5454Z" fill="black"/>
<path d="M63.5293 78.6779C62.6315 79.5756 61.1743 79.5756 60.2766 78.6779C57.5842 75.9855 57.5842 71.6122 60.2766 68.9198C61.1743 68.022 62.6315 68.022 63.5293 68.9198C66.2217 71.6122 66.2217 75.9855 63.5293 78.6779Z" fill="white"/>
<path d="M61.9022 80.4998C61.019 80.4998 60.1358 80.164 59.463 79.4913C56.3247 76.3529 56.3247 71.2458 59.463 68.1063C60.8085 66.7608 62.997 66.7608 64.3425 68.1063C67.4808 71.2446 67.4808 76.3518 64.3425 79.4913C63.6697 80.164 62.7865 80.4998 61.9033 80.4998H61.9022ZM61.9022 69.3966C61.6078 69.3966 61.3134 69.5081 61.0891 69.7324C58.8466 71.9737 58.8466 75.6227 61.0891 77.864C61.5376 78.3125 62.2667 78.3125 62.7152 77.864C64.9577 75.6227 64.9577 71.9737 62.7152 69.7324C62.491 69.5081 62.1966 69.3966 61.9022 69.3966Z" fill="black"/>
<path d="M29.9011 20.6999C29.8758 20.6999 29.8494 20.6999 29.8229 20.6976C29.6447 20.6861 25.4046 20.3986 21.0852 19.6787C18.5115 19.2497 16.4461 18.7541 14.9488 18.2044C14.0955 17.8916 11.4988 16.9394 11.4988 14.951C11.4988 14.2334 11.807 13.6021 12.3901 13.1237C13.2399 12.4268 15.1374 11.5723 21.7706 12.1956C25.8957 12.5832 30.2151 13.3824 32.4231 13.824C35.2854 14.3967 41.2401 14.9487 47.5536 14.8084C52.8574 14.6911 60.1956 14.0425 65.0336 11.6229C65.6017 11.3389 66.2929 11.5689 66.5769 12.137C66.861 12.7051 66.631 13.3962 66.0629 13.6803C60.812 16.3057 52.6815 17.1291 45.4641 17.1291C39.7911 17.1291 34.6828 16.6208 31.9734 16.0792C30.1001 15.7043 25.2781 14.7946 20.9564 14.4324C14.9316 13.9275 13.9184 14.8142 13.8057 14.943C13.9092 15.1201 14.8764 16.3598 21.9063 17.4833C25.9647 18.1319 29.9356 18.401 29.9759 18.4045C30.6095 18.447 31.0891 18.9944 31.0465 19.6281C31.0063 20.2353 30.5003 20.7022 29.9 20.7022L29.9011 20.6999Z" fill="black"/>
<path d="M44.6694 56.7121C45.0121 58.4785 44.2899 60.2817 42.826 61.3271L39.1264 63.9698L28.8661 71.2987L14.9051 61.3271C13.4412 60.2817 12.7178 58.4774 13.0617 56.7121C14.5015 49.2969 21.03 43.6987 28.8661 43.6987C36.7022 43.6987 43.2308 49.2969 44.6706 56.711L44.6694 56.7121Z" fill="white"/>
<path d="M28.865 72.4498C28.6304 72.4498 28.397 72.3785 28.1969 72.2359L14.2359 62.2643C12.4085 60.959 11.5046 58.6947 11.9313 56.4936C13.4999 48.4137 20.6218 42.5498 28.865 42.5498C37.1082 42.5498 44.229 48.4148 45.7988 56.4936C46.2266 58.6935 45.3215 60.959 43.4942 62.2643L29.5343 72.2359C29.3342 72.3785 29.0996 72.4498 28.8662 72.4498H28.865ZM28.865 44.8498C21.7212 44.8498 15.5492 49.9317 14.1899 56.9317C13.9334 58.2508 14.4762 59.6089 15.5733 60.3921L28.865 69.8865L42.1567 60.3921C43.2538 59.6089 43.7966 58.2508 43.5402 56.9317C42.1809 49.9305 36.0088 44.8498 28.865 44.8498Z" fill="black"/>
<path d="M39.1253 63.9709L38.3502 70.1683C38.1926 71.4287 37.0426 72.3223 35.7822 72.1647L28.8638 71.2999L39.1241 63.9709H39.1253Z" fill="white"/>
<path d="M36.0709 73.3331C35.9283 73.3331 35.7857 73.3239 35.6408 73.3066L28.7224 72.4418C28.252 72.3832 27.8668 72.0416 27.7506 71.5828C27.6345 71.1239 27.8116 70.6398 28.1968 70.3649L38.4571 63.036C38.8286 62.7703 39.3219 62.7496 39.7141 62.9842C40.1062 63.2177 40.3236 63.6616 40.2661 64.1147L39.491 70.312C39.2725 72.0554 37.7832 73.3342 36.0697 73.3342L36.0709 73.3331ZM31.9297 70.5236L35.926 71.0227C36.5562 71.1009 37.1312 70.6536 37.2094 70.0245L37.659 66.4308L31.9297 70.5225V70.5236Z" fill="black"/>
<path d="M18.6047 63.9707L19.3798 70.1681C19.5374 71.4285 20.6874 72.322 21.9478 72.1645L28.8662 71.2997L18.6059 63.9707H18.6047Z" fill="white"/>
<path d="M21.6591 73.3329C19.9456 73.3329 18.4564 72.0541 18.2379 70.3107L17.4628 64.1133C17.4064 63.6602 17.6226 63.2163 18.0148 62.9829C18.4069 62.7494 18.9003 62.7701 19.2717 63.0346L29.532 70.3636C29.9173 70.6384 30.0944 71.1226 29.9782 71.5814C29.8621 72.0403 29.4757 72.3818 29.0065 72.4405L22.0881 73.3053C21.9432 73.3237 21.7994 73.3317 21.658 73.3317L21.6591 73.3329ZM20.071 66.4317L20.5206 70.0255C20.5988 70.6545 21.1761 71.103 21.804 71.0237L25.8003 70.5246L20.071 66.4329V66.4317Z" fill="black"/>
<path d="M30.8637 61.1223C30.797 61.1223 30.7303 61.1166 30.6625 61.1051C30.0369 60.9947 29.6194 60.3978 29.7298 59.7734L32.4737 44.2116C32.5841 43.586 33.1798 43.1685 33.8054 43.2789C34.431 43.3893 34.8485 43.9862 34.7381 44.6106L31.9941 60.1724C31.8952 60.7302 31.4099 61.1235 30.8625 61.1235L30.8637 61.1223Z" fill="black"/>
<path d="M34.615 62.4885C34.4195 62.4885 34.2217 62.439 34.0412 62.3343C33.4914 62.0169 33.3028 61.3132 33.6202 60.7635L40.3673 49.076C40.6847 48.5263 41.3885 48.3377 41.9382 48.6551C42.4879 48.9725 42.6765 49.6763 42.3591 50.226L35.6121 61.9135C35.3993 62.2826 35.0129 62.4885 34.615 62.4885Z" fill="black"/>
<path d="M23.115 62.4885C22.7171 62.4885 22.3307 62.2826 22.118 61.9135L15.3709 50.226C15.0535 49.6763 15.2421 48.9725 15.7918 48.6551C16.3415 48.3377 17.0453 48.5263 17.3627 49.076L24.1098 60.7635C24.4272 61.3132 24.2386 62.0169 23.6889 62.3343C23.5083 62.439 23.3105 62.4885 23.115 62.4885Z" fill="black"/>
<path d="M26.8663 61.1223C26.3189 61.1223 25.8336 60.7301 25.7347 60.1712L22.9908 44.6094C22.8804 43.9838 23.2979 43.387 23.9235 43.2777C24.5491 43.1673 25.1459 43.5848 25.2552 44.2104L27.9991 59.7722C28.1095 60.3978 27.692 60.9946 27.0664 61.1039C26.9986 61.1154 26.9319 61.1211 26.8652 61.1211L26.8663 61.1223Z" fill="black"/>
<path d="M46 19.5498C48.3391 19.5498 50.623 19.7246 52.8264 20.057C56.3235 20.5825 59.6195 21.506 62.621 22.7583C72.6191 26.9271 79.35 34.7459 79.35 43.6998C79.35 52.6537 72.8514 60.2 63.1373 64.4217C62.4312 64.7287 61.6078 64.5091 61.1455 63.8938C60.6694 63.259 60.7062 62.3758 61.2375 61.787C63.1706 59.6503 64.3252 57.0847 64.3965 54.3212C64.3988 54.2315 64.4 54.1407 64.4 54.0498C64.4 51.2208 63.2649 48.5896 61.3168 46.4C59.7413 44.629 57.6357 43.1478 55.1701 42.0829C53.5141 41.3676 51.696 40.8398 49.7662 40.5396C48.5507 40.3499 47.2903 40.2498 46 40.2498V19.5498Z" fill="white"/>
<path d="M62.4714 65.7109C61.6089 65.7109 60.7717 65.3119 60.2255 64.5839C59.4193 63.5098 59.4861 62.0091 60.3854 61.0155C62.1954 59.0145 63.1856 56.6892 63.2477 54.2914C63.25 54.2109 63.2511 54.1304 63.2511 54.0499C63.2511 51.5993 62.2851 49.2176 60.4589 47.1649C58.9984 45.5238 57.0124 44.1312 54.7158 43.1387C53.1173 42.4487 51.3935 41.9565 49.5914 41.6759C48.4173 41.4931 47.2098 41.3999 46.0023 41.3999C45.3675 41.3999 44.8523 40.8847 44.8523 40.2499C44.8523 39.6151 45.3675 39.0999 46.0023 39.0999C47.3282 39.0999 48.6553 39.2023 49.9456 39.4035C51.9397 39.714 53.851 40.2603 55.6278 41.0273C58.2314 42.152 60.4957 43.7448 62.1782 45.6354C64.385 48.1159 65.5523 51.0254 65.5523 54.0499C65.5523 54.1511 65.5511 54.2523 65.5488 54.3512C65.4718 57.3056 64.2769 60.1437 62.0931 62.5576C61.9321 62.7359 61.9206 63.0073 62.0678 63.2028C62.2115 63.3937 62.4634 63.4615 62.6819 63.3661C72.2556 59.2065 78.2035 51.6706 78.2035 43.6999C78.2035 35.7293 72.0648 27.9403 62.1817 23.8199C59.2123 22.5813 56.0084 21.6981 52.6585 21.1944C50.4838 20.8667 48.2448 20.6999 46.0034 20.6999C45.3686 20.6999 44.8534 20.1847 44.8534 19.5499C44.8534 18.9151 45.3686 18.3999 46.0034 18.3999C48.3598 18.3999 50.7138 18.5747 53.0012 18.9197C56.5374 19.451 59.9242 20.386 63.0671 21.697C68.2341 23.8509 72.5777 26.9674 75.6298 30.7072C78.8187 34.6161 80.5035 39.1091 80.5035 43.6988C80.5035 48.2884 78.8728 52.6343 75.7885 56.4948C72.8376 60.1875 68.6228 63.2924 63.5996 65.4752C63.235 65.6339 62.8533 65.7098 62.476 65.7098L62.4714 65.7109Z" fill="black"/>
<path d="M46 19.5498C48.3391 19.5498 50.623 19.7246 52.8264 20.057C56.3235 20.5825 59.6195 21.506 62.621 22.7583C72.6191 26.9271 79.35 34.7459 79.35 43.6998C79.35 48.1388 77.6952 52.2995 74.8086 55.8737C73.3918 57.6286 70.8987 58.0748 68.946 56.9467L64.6312 54.4558C64.4886 54.3741 64.4011 54.2212 64.4011 54.0579V54.0498C64.4011 51.2208 63.2661 48.5896 61.318 46.4C59.7425 44.629 57.6368 43.1478 55.1712 42.0829C53.5152 41.3676 51.6971 40.8398 49.7674 40.5396C48.5519 40.3499 47.2915 40.2498 46.0012 40.2498V19.5498H46Z" fill="white"/>
<path d="M71.2643 58.7247C70.2799 58.7247 69.2829 58.4705 68.3698 57.9427L64.055 55.4518C63.5582 55.1654 63.25 54.6307 63.25 54.058C63.25 51.5993 62.284 49.2176 60.4578 47.1649C58.9973 45.5238 57.0112 44.1312 54.7147 43.1387C53.1162 42.4487 51.3923 41.9565 49.5903 41.6759C48.4161 41.4931 47.2086 41.3999 46.0011 41.3999C45.3663 41.3999 44.8511 40.8847 44.8511 40.2499C44.8511 39.6151 45.3663 39.0999 46.0011 39.0999C47.3271 39.0999 48.6542 39.2023 49.9445 39.4035C51.9386 39.714 53.8499 40.2603 55.6266 41.0273C58.2302 42.152 60.4946 43.7448 62.177 45.6354C64.2884 48.0078 65.4476 50.7736 65.5442 53.6555L69.5209 55.9509C71.0021 56.8065 72.849 56.4695 73.9139 55.1516C76.7188 51.6786 78.2 47.7192 78.2 43.6999C78.2 35.5579 72.0613 27.9403 62.1782 23.8199C59.2089 22.5813 56.005 21.6981 52.655 21.1944C50.4804 20.8667 48.2413 20.6999 46 20.6999C45.3652 20.6999 44.85 20.1847 44.85 19.5499C44.85 18.9151 45.3652 18.3999 46 18.3999C48.3563 18.3999 50.7104 18.5747 52.9977 18.9197C56.534 19.451 59.9207 20.386 63.0637 21.697C68.2306 23.8509 72.5742 26.9674 75.6263 30.7072C78.8152 34.6161 80.5 39.1091 80.5 43.6988C80.5 48.2884 78.8417 52.7102 75.7033 56.596C74.5809 57.9852 72.9422 58.7247 71.2655 58.7247H71.2643Z" fill="black"/>
<path d="M46 19.5498C48.3391 19.5498 50.623 19.7246 52.8264 20.057C56.3235 20.5825 59.6194 21.506 62.6209 22.7583C72.619 26.9271 79.35 34.7459 79.35 43.6998C79.35 43.8804 79.3477 44.0598 79.3419 44.2392C79.2568 47.0406 76.7038 49.1129 73.9438 48.6264L62.0701 46.5323C61.5997 46.4495 61.1662 46.2218 60.8315 45.8814C59.3193 44.3392 57.3896 43.042 55.1689 42.0829C53.5129 41.3676 51.6948 40.8398 49.7651 40.5396C48.5495 40.3499 47.2891 40.2498 45.9988 40.2498V19.5498H46Z" fill="white"/>
<path d="M74.7454 49.8467C74.413 49.8467 74.0784 49.8179 73.7449 49.7593L61.8711 47.6651C61.1593 47.5398 60.5164 47.2017 60.0116 46.6865C58.6097 45.2559 56.7778 44.0288 54.7147 43.1387C53.1162 42.4487 51.3923 41.9565 49.5903 41.6759C48.4161 41.4931 47.2086 41.3999 46.0011 41.3999C45.3663 41.3999 44.8511 40.8847 44.8511 40.2499C44.8511 39.6151 45.3663 39.0999 46.0011 39.0999C47.3271 39.0999 48.6542 39.2023 49.9445 39.4035C51.9386 39.714 53.8499 40.2603 55.6266 41.0273C57.9945 42.0497 60.0219 43.4124 61.6538 45.0765C61.8205 45.2467 62.0344 45.3582 62.2702 45.4008L74.1439 47.4949C75.1318 47.6686 76.1449 47.4064 76.9223 46.7727C77.6986 46.1414 78.162 45.2053 78.1919 44.2048C78.1965 44.0369 78.2 43.8667 78.2 43.6999C78.2 35.5579 72.0613 27.9403 62.1782 23.8199C59.2089 22.5813 56.005 21.6981 52.655 21.1944C50.4804 20.8667 48.2413 20.6999 46 20.6999C45.3652 20.6999 44.85 20.1847 44.85 19.5499C44.85 18.9151 45.3652 18.3999 46 18.3999C48.3563 18.3999 50.7104 18.5747 52.9977 18.9197C56.534 19.451 59.9207 20.386 63.0637 21.697C68.2306 23.8509 72.5742 26.9674 75.6263 30.7072C78.8152 34.6161 80.5 39.1091 80.5 43.6988C80.5 43.8885 80.4965 44.0817 80.4908 44.2726C80.4402 45.9401 79.6685 47.5018 78.3736 48.5552C77.3398 49.397 76.0564 49.8455 74.7442 49.8455L74.7454 49.8467Z" fill="black"/>
<path d="M46 19.55C58.4039 19.55 69.2254 24.4536 74.9708 31.7297C77.1213 34.4529 75.5596 38.4882 72.143 39.0908L55.8279 41.967C55.407 42.0417 54.9746 41.9946 54.5767 41.837C53.0828 41.2459 51.4683 40.8043 49.7663 40.5398C48.5507 40.3501 47.2903 40.25 46 40.25V19.55Z" fill="white"/>
<path d="M55.4323 43.1514C54.9976 43.1514 54.564 43.0686 54.1535 42.9065C52.716 42.3372 51.1807 41.9232 49.5903 41.676C48.4161 41.4931 47.2086 41.4 46.0011 41.4C45.3663 41.4 44.8511 40.8848 44.8511 40.25C44.8511 39.6152 45.3663 39.1 46.0011 39.1C47.3271 39.1 48.6542 39.2023 49.9445 39.4036C51.7028 39.6773 53.4037 40.1361 55.001 40.7686C55.2034 40.8491 55.4208 40.8721 55.6301 40.8353L71.9451 37.9592C73.1549 37.7464 74.1393 36.9311 74.5775 35.7811C75.011 34.6426 74.8213 33.3948 74.0703 32.4438C68.3514 25.2011 57.5966 20.7011 46.0011 20.7011C45.3663 20.7011 44.8511 20.1859 44.8511 19.5511C44.8511 18.9163 45.3663 18.4011 46.0011 18.4011C52.1433 18.4011 58.1727 19.596 63.4374 21.8557C68.5871 24.066 72.887 27.2343 75.8747 31.0178C77.1328 32.6105 77.4513 34.6978 76.7268 36.5999C75.9977 38.5146 74.359 39.8693 72.3442 40.2247L56.0291 43.1008C55.8325 43.1353 55.6324 43.1526 55.4334 43.1526L55.4323 43.1514Z" fill="black"/>
<path d="M46 19.55C51.382 19.55 56.465 20.4723 60.9649 22.1122C64.3011 23.3278 65.0877 27.684 62.368 29.9667L50.5437 39.8878C50.0618 40.2926 49.4339 40.4823 48.8094 40.4111C47.8929 40.3053 46.9545 40.2512 46 40.2512V19.5512V19.55Z" fill="white"/>
<path d="M49.0659 41.5748C48.9371 41.5748 48.8071 41.5679 48.6783 41.5529C47.7974 41.4517 46.897 41.4 46 41.4C45.3652 41.4 44.85 40.8848 44.85 40.25C44.85 39.6152 45.3652 39.1 46 39.1C46.9844 39.1 47.9734 39.1563 48.9405 39.2679C49.2499 39.3035 49.5638 39.2081 49.8042 39.0068L61.6285 29.0858C62.5818 28.2854 63.0223 27.0767 62.8072 25.8531C62.5899 24.618 61.7538 23.6244 60.5716 23.1932C56.0314 21.5395 51.129 20.7011 46 20.7011C45.3652 20.7011 44.85 20.1859 44.85 19.5511C44.85 18.9163 45.3652 18.4011 46 18.4011C51.3981 18.4011 56.565 19.2866 61.3582 21.0323C63.3224 21.7476 64.7105 23.4013 65.0727 25.4541C65.4327 27.4965 64.6978 29.5124 63.1074 30.8476L51.2831 40.7686C50.6609 41.2907 49.8697 41.5748 49.0659 41.5748Z" fill="black"/>
<path d="M27.6 19.5498H46C48.5392 19.5498 50.6 21.6106 50.6 24.1498V35.6498C50.6 38.189 48.5392 40.2498 46 40.2498H39.1C30.214 40.2498 23 33.0359 23 24.1498C23 21.6106 25.0608 19.5498 27.6 19.5498Z" fill="white"/>
<path d="M46 41.3999H39.1C29.5883 41.3999 21.85 33.6616 21.85 24.1499C21.85 20.9794 24.4294 18.3999 27.6 18.3999H46C49.1705 18.3999 51.75 20.9794 51.75 24.1499V35.6499C51.75 38.8205 49.1705 41.3999 46 41.3999ZM27.6 20.6999C25.6979 20.6999 24.15 22.2478 24.15 24.1499C24.15 32.3931 30.8568 39.0999 39.1 39.0999H46C47.9021 39.0999 49.45 37.552 49.45 35.6499V24.1499C49.45 22.2478 47.9021 20.6999 46 20.6999H27.6Z" fill="black"/>
<path d="M32.2 25.3C32.8351 25.3 33.35 24.7851 33.35 24.15C33.35 23.5149 32.8351 23 32.2 23C31.5649 23 31.05 23.5149 31.05 24.15C31.05 24.7851 31.5649 25.3 32.2 25.3Z" fill="black"/>
</g>
</svg>
