<?xml version="1.0" encoding="UTF-8"?>
<svg id="Layer_2" data-name="Layer 2" xmlns="http://www.w3.org/2000/svg" viewBox="0 0 800 800">
  <defs>
    <style>
      .cls-1 {
        fill: #f4d8ba;
      }

      .cls-1, .cls-2, .cls-3, .cls-4, .cls-5 {
        stroke-width: 0px;
      }

      .cls-3 {
        fill: none;
      }

      .cls-4 {
        fill: #fff;
      }

      .cls-5 {
        fill: #f4897d;
      }
    </style>
  </defs>
  <g id="_해산물" data-name="해산물">
    <g id="_해산물-2" data-name="해산물">
      <g id="hover">
        <g>
          <g>
            <g>
              <path class="cls-5" d="M433.43,516.88h0c33.11,0,60,26.89,60,60h0c0,11.04-8.96,20-20,20h0c-33.11,0-60-26.89-60-60h0c0-11.04,8.96-20,20-20Z" transform="translate(1167.83 630.02) rotate(135)"/>
              <path class="cls-2" d="M453.43,598.56c-17.93,0-35.85-6.82-49.5-20.47-11.7-11.7-11.7-30.73,0-42.43,27.29-27.29,71.7-27.29,99,0,11.7,11.7,11.7,30.73,0,42.43-13.65,13.65-31.57,20.47-49.5,20.47ZM453.43,535.18c-12.8,0-25.61,4.87-35.36,14.62-3.9,3.9-3.9,10.24,0,14.14,19.5,19.49,51.22,19.5,70.71,0,3.9-3.9,3.9-10.24,0-14.14-9.75-9.75-22.55-14.62-35.35-14.62Z"/>
            </g>
            <g>
              <path class="cls-5" d="M558.28,601.73h0c11.04,0,20,8.96,20,20h0c0,33.11-26.89,60-60,60h0c-11.04,0-20-8.96-20-20h0c0-33.11,26.89-60,60-60Z" transform="translate(1372.68 714.88) rotate(135)"/>
              <path class="cls-2" d="M538.28,700c-7.68,0-15.36-2.92-21.21-8.77-27.29-27.29-27.29-71.7,0-99,11.7-11.7,30.73-11.7,42.43,0,27.29,27.29,27.29,71.7,0,99-5.85,5.85-13.53,8.77-21.21,8.77ZM538.28,603.45c-2.56,0-5.12.97-7.07,2.92-19.5,19.49-19.5,51.22,0,70.71,3.9,3.9,10.24,3.9,14.14,0,19.5-19.49,19.5-51.22,0-70.71-1.95-1.95-4.51-2.92-7.07-2.92Z"/>
            </g>
          </g>
          <path class="cls-2" d="M260.01,180c-.22,0-.45,0-.68-.02-1.55-.1-38.42-2.6-75.98-8.86-22.38-3.73-40.34-8.04-53.36-12.82-7.42-2.72-30-11-30-28.29,0-6.24,2.68-11.73,7.75-15.89,7.39-6.06,23.89-13.49,81.57-8.07,35.87,3.37,73.43,10.32,92.63,14.16,24.89,4.98,76.67,9.78,131.57,8.56,46.12-1.02,109.93-6.66,152-27.7,4.94-2.47,10.95-.47,13.42,4.47,2.47,4.94.47,10.95-4.47,13.42-45.66,22.83-116.36,29.99-179.12,29.99-49.33,0-93.75-4.42-117.31-9.13-16.29-3.26-58.22-11.17-95.8-14.32-52.39-4.39-61.2,3.32-62.18,4.44.9,1.54,9.31,12.32,70.44,22.09,35.29,5.64,69.82,7.98,70.17,8.01,5.51.37,9.68,5.13,9.31,10.64-.35,5.28-4.75,9.34-9.97,9.34Z"/>
          <g>
            <g>
              <path class="cls-1" d="M388.43,493.15c2.98,15.36-3.3,31.04-16.03,40.13l-32.17,22.98-89.22,63.73-121.4-86.71c-12.73-9.09-19.02-24.78-16.03-40.13,12.52-64.48,69.29-113.16,137.43-113.16s124.91,48.68,137.43,113.15Z"/>
              <path class="cls-2" d="M251,630c-2.04,0-4.07-.62-5.81-1.86l-121.4-86.71c-15.89-11.35-23.75-31.04-20.04-50.18,13.64-70.26,75.57-121.25,147.25-121.25s133.6,51,147.25,121.25h0c3.72,19.13-4.15,38.83-20.04,50.18l-121.39,86.71c-1.74,1.24-3.78,1.86-5.81,1.86ZM251,390c-62.12,0-115.79,44.19-127.61,105.06-2.23,11.47,2.49,23.28,12.03,30.09l115.58,82.56,115.58-82.56c9.54-6.81,14.26-18.62,12.03-30.09h0c-11.82-60.88-65.49-105.06-127.61-105.06Z"/>
            </g>
            <g>
              <path class="cls-1" d="M340.22,556.27l-6.74,53.89c-1.37,10.96-11.37,18.73-22.33,17.36l-60.16-7.52,89.22-63.73Z"/>
              <path class="cls-2" d="M313.66,637.68c-1.24,0-2.48-.08-3.74-.23l-60.16-7.52c-4.09-.51-7.44-3.48-8.45-7.47-1.01-3.99.53-8.2,3.88-10.59l89.22-63.73c3.23-2.31,7.52-2.49,10.93-.45,3.41,2.03,5.3,5.89,4.8,9.83l-6.74,53.89c-1.9,15.16-14.85,26.28-29.75,26.28ZM277.65,613.25l34.75,4.34c5.48.68,10.48-3.21,11.16-8.68l3.91-31.25-49.82,35.58Z"/>
            </g>
            <g>
              <path class="cls-1" d="M161.78,556.27l6.74,53.89c1.37,10.96,11.37,18.73,22.33,17.36l60.16-7.52-89.22-63.73Z"/>
              <path class="cls-2" d="M188.34,637.68c-14.9,0-27.85-11.12-29.75-26.28l-6.74-53.89c-.49-3.94,1.39-7.8,4.8-9.83,3.41-2.03,7.7-1.85,10.93.45l89.22,63.73c3.35,2.39,4.89,6.6,3.88,10.59-1.01,3.99-4.37,6.96-8.45,7.47l-60.16,7.52c-1.26.16-2.51.23-3.74.23ZM174.53,577.67l3.91,31.25c.68,5.47,5.7,9.37,11.16,8.68l34.75-4.34-49.82-35.58Z"/>
            </g>
            <g>
              <g>
                <line class="cls-4" x1="268.37" y1="521.5" x2="292.23" y2="386.18"/>
                <path class="cls-2" d="M268.38,531.5c-.58,0-1.16-.05-1.75-.15-5.44-.96-9.07-6.15-8.11-11.58l23.86-135.32c.96-5.44,6.14-9.07,11.58-8.11,5.44.96,9.07,6.15,8.11,11.58l-23.86,135.32c-.86,4.85-5.08,8.27-9.84,8.27Z"/>
              </g>
              <g>
                <line class="cls-4" x1="359.68" y1="431.75" x2="301.01" y2="533.38"/>
                <path class="cls-2" d="M301,543.38c-1.7,0-3.42-.43-4.99-1.34-4.78-2.76-6.42-8.88-3.66-13.66l58.67-101.63c2.76-4.78,8.88-6.42,13.66-3.66,4.78,2.76,6.42,8.88,3.66,13.66l-58.67,101.63c-1.85,3.21-5.21,5-8.67,5Z"/>
              </g>
              <g>
                <line class="cls-4" x1="200.99" y1="533.38" x2="142.32" y2="431.75"/>
                <path class="cls-2" d="M201,543.38c-3.46,0-6.82-1.79-8.67-5l-58.67-101.63c-2.76-4.78-1.12-10.9,3.66-13.66,4.78-2.76,10.9-1.12,13.66,3.66l58.67,101.63c2.76,4.78,1.12,10.9-3.66,13.66-1.57.91-3.29,1.34-4.99,1.34Z"/>
              </g>
              <g>
                <line class="cls-4" x1="209.77" y1="386.18" x2="233.63" y2="521.5"/>
                <path class="cls-2" d="M233.62,531.5c-4.76,0-8.98-3.41-9.84-8.27l-23.86-135.32c-.96-5.44,2.67-10.63,8.11-11.58,5.44-.96,10.63,2.67,11.58,8.11l23.86,135.32c.96,5.44-2.67,10.63-8.11,11.58-.59.1-1.17.15-1.75.15Z"/>
              </g>
            </g>
          </g>
          <g>
            <path class="cls-5" d="M400,170c20.34,0,40.2,1.52,59.36,4.41,30.41,4.57,59.07,12.6,85.17,23.49,86.94,36.25,145.47,104.24,145.47,182.1s-56.51,143.48-140.98,180.19c-6.14,2.67-13.3.76-17.32-4.59h0c-4.14-5.52-3.82-13.2.8-18.32,16.81-18.58,26.85-40.89,27.47-64.92.02-.78.03-1.57.03-2.36,0-24.6-9.87-47.48-26.81-66.52-13.7-15.4-32.01-28.28-53.45-37.54-14.4-6.22-30.21-10.81-46.99-13.42-10.57-1.65-21.53-2.52-32.75-2.52v-180Z"/>
            <path class="cls-2" d="M543.23,571.4c-7.5,0-14.78-3.47-19.53-9.8-7.01-9.34-6.43-22.39,1.39-31.03,15.74-17.4,24.35-37.62,24.89-58.47.02-.7.03-1.4.03-2.1,0-21.31-8.4-42.02-24.28-59.87-12.7-14.27-29.97-26.38-49.94-35.01-13.9-6-28.89-10.28-44.56-12.72-10.21-1.59-20.71-2.4-31.21-2.4-5.52,0-10-4.48-10-10s4.48-10,10-10c11.53,0,23.07.89,34.29,2.64,17.34,2.7,33.96,7.45,49.41,14.12,22.64,9.78,42.33,23.63,56.96,40.07,19.19,21.57,29.34,46.87,29.34,73.17,0,.88-.01,1.76-.03,2.62-.67,25.69-11.06,50.37-30.05,71.36-1.4,1.55-1.5,3.91-.22,5.61,1.25,1.66,3.44,2.25,5.34,1.42,83.25-36.17,134.97-101.7,134.97-171.01s-53.38-137.04-139.32-172.87c-25.82-10.77-53.68-18.45-82.81-22.83-18.91-2.85-38.38-4.3-57.87-4.3-5.52,0-10-4.48-10-10s4.48-10,10-10c20.49,0,40.96,1.52,60.85,4.52,30.75,4.62,60.2,12.75,87.53,24.15,44.93,18.73,82.7,45.83,109.24,78.35,27.73,33.99,42.38,73.06,42.38,112.97s-14.18,77.7-41,111.27c-25.66,32.11-62.31,59.11-105.99,78.09-3.17,1.38-6.49,2.04-9.77,2.04Z"/>
          </g>
          <g>
            <path class="cls-5" d="M400,170c20.34,0,40.2,1.52,59.36,4.41,30.41,4.57,59.07,12.6,85.17,23.49,86.94,36.25,145.47,104.24,145.47,182.1,0,38.6-14.39,74.78-39.49,105.86-12.32,15.26-34,19.14-50.98,9.33l-37.52-21.66c-1.24-.71-2-2.04-2-3.46v-.07c0-24.6-9.87-47.48-26.81-66.52-13.7-15.4-32.01-28.28-53.45-37.54-14.4-6.22-30.21-10.81-46.99-13.42-10.57-1.65-21.53-2.52-32.75-2.52v-180Z"/>
            <path class="cls-2" d="M619.69,510.65c-8.56,0-17.23-2.21-25.17-6.8l-37.52-21.66c-4.32-2.49-7-7.14-7-12.12,0-21.38-8.4-42.09-24.28-59.94-12.7-14.27-29.97-26.38-49.94-35.01-13.9-6-28.89-10.28-44.56-12.72-10.21-1.59-20.71-2.4-31.21-2.4-5.52,0-10-4.48-10-10s4.48-10,10-10c11.53,0,23.07.89,34.29,2.64,17.34,2.7,33.96,7.45,49.41,14.12,22.64,9.78,42.33,23.63,56.96,40.07,18.36,20.63,28.44,44.68,29.28,69.74l34.58,19.96c12.88,7.44,28.94,4.51,38.2-6.95,24.39-30.2,37.27-64.63,37.27-99.58,0-70.8-53.38-137.04-139.32-172.87-25.82-10.77-53.68-18.45-82.81-22.83-18.91-2.85-38.38-4.3-57.87-4.3-5.52,0-10-4.48-10-10s4.48-10,10-10c20.49,0,40.96,1.52,60.85,4.52,30.75,4.62,60.2,12.75,87.53,24.15,44.93,18.73,82.7,45.83,109.24,78.35,27.73,33.99,42.38,73.06,42.38,112.97s-14.42,78.36-41.71,112.15c-9.76,12.08-24.01,18.51-38.59,18.51Z"/>
          </g>
          <g>
            <path class="cls-5" d="M400,170c20.34,0,40.2,1.52,59.36,4.41,30.41,4.57,59.07,12.6,85.17,23.49,86.94,36.25,145.47,104.24,145.47,182.1,0,1.57-.02,3.13-.07,4.69-.74,24.36-22.94,42.38-46.94,38.15l-103.25-18.21c-4.09-.72-7.86-2.7-10.77-5.66-13.15-13.41-29.93-24.69-49.24-33.03-14.4-6.22-30.21-10.81-46.99-13.42-10.57-1.65-21.53-2.52-32.75-2.52v-180Z"/>
            <path class="cls-2" d="M649.96,433.45c-2.89,0-5.8-.25-8.7-.76l-103.25-18.21c-6.19-1.09-11.78-4.03-16.17-8.51-12.19-12.44-28.12-23.11-46.06-30.85-13.9-6-28.89-10.28-44.56-12.72-10.21-1.59-20.71-2.4-31.21-2.4-5.52,0-10-4.48-10-10s4.48-10,10-10c11.53,0,23.07.89,34.29,2.64,17.34,2.7,33.96,7.45,49.41,14.12,20.59,8.89,38.22,20.74,52.41,35.21,1.45,1.48,3.31,2.45,5.36,2.82l103.25,18.21c8.59,1.51,17.4-.77,24.16-6.28,6.75-5.49,10.78-13.63,11.04-22.33.04-1.46.07-2.94.07-4.39,0-70.8-53.38-137.04-139.32-172.87-25.82-10.77-53.68-18.45-82.81-22.83-18.91-2.85-38.38-4.3-57.87-4.3-5.52,0-10-4.48-10-10s4.48-10,10-10c20.49,0,40.96,1.52,60.85,4.52,30.75,4.62,60.2,12.75,87.53,24.15,44.93,18.73,82.7,45.83,109.24,78.35,27.73,33.99,42.38,73.06,42.38,112.97,0,1.65-.03,3.33-.08,4.99-.44,14.5-7.15,28.08-18.41,37.24-8.99,7.32-20.15,11.22-31.56,11.22Z"/>
          </g>
          <g>
            <path class="cls-5" d="M400,170c107.86,0,201.96,42.64,251.92,105.91,18.7,23.68,5.12,58.77-24.59,64.01l-141.87,25.01c-3.66.65-7.42.24-10.88-1.13-12.99-5.14-27.03-8.98-41.83-11.28-10.57-1.65-21.53-2.52-32.75-2.52v-180Z"/>
            <path class="cls-2" d="M482.02,375.23c-3.78,0-7.55-.72-11.12-2.13-12.5-4.95-25.85-8.55-39.68-10.7-10.21-1.59-20.71-2.4-31.21-2.4-5.52,0-10-4.48-10-10s4.48-10,10-10c11.53,0,23.07.89,34.29,2.64,15.29,2.38,30.08,6.37,43.97,11.87,1.76.7,3.65.9,5.47.58l141.87-25.01c10.52-1.85,19.08-8.94,22.89-18.94,3.77-9.9,2.12-20.75-4.41-29.02-49.73-62.98-143.25-102.11-244.08-102.11-5.52,0-10-4.48-10-10s4.48-10,10-10c53.41,0,105.84,10.39,151.62,30.04,44.78,19.22,82.17,46.77,108.15,79.67,10.94,13.85,13.71,32,7.41,48.54-6.34,16.65-20.59,28.43-38.11,31.52l-141.87,25.01c-1.71.3-3.45.45-5.18.45Z"/>
          </g>
          <g>
            <path class="cls-5" d="M400,170c46.8,0,91,8.02,130.13,22.28,29.01,10.57,35.85,48.45,12.2,68.3l-102.82,86.27c-4.19,3.52-9.65,5.17-15.08,4.55-7.97-.92-16.13-1.39-24.43-1.39v-180Z"/>
            <path class="cls-2" d="M426.66,361.52c-1.12,0-2.25-.06-3.37-.19-7.66-.88-15.49-1.33-23.29-1.33-5.52,0-10-4.48-10-10s4.48-10,10-10c8.56,0,17.16.49,25.57,1.46,2.69.31,5.42-.52,7.51-2.27l102.82-86.27c8.29-6.96,12.12-17.47,10.25-28.11-1.89-10.74-9.16-19.38-19.44-23.13-39.48-14.38-82.11-21.67-126.71-21.67-5.52,0-10-4.48-10-10s4.48-10,10-10c46.94,0,91.87,7.7,133.55,22.88,17.08,6.22,29.15,20.6,32.3,38.45,3.13,17.76-3.26,35.29-17.09,46.9l-102.82,86.27c-5.41,4.54-12.29,7.01-19.28,7.01Z"/>
          </g>
          <g>
            <path class="cls-5" d="M240,170h160c22.08,0,40,17.92,40,40v100c0,22.08-17.92,40-40,40h-60c-77.27,0-140-62.73-140-140h0c0-22.08,17.92-40,40-40Z"/>
            <path class="cls-2" d="M400,360h-60c-82.71,0-150-67.29-150-150,0-27.57,22.43-50,50-50h160c27.57,0,50,22.43,50,50v100c0,27.57-22.43,50-50,50ZM240,180c-16.54,0-30,13.46-30,30,0,71.68,58.32,130,130,130h60c16.54,0,30-13.46,30-30v-100c0-16.54-13.46-30-30-30h-160Z"/>
          </g>
          <circle class="cls-2" cx="280" cy="210" r="10"/>
        </g>
      </g>
      <rect id="frame" class="cls-3" width="800" height="800"/>
    </g>
  </g>
</svg>