<svg width="80" height="80" viewBox="0 0 80 80" fill="none" xmlns="http://www.w3.org/2000/svg">
<g clip-path="url(#clip0_1079_8329)">
<path d="M45 22H35V13C35 11.346 36.346 10 38 10H42C43.654 10 45 11.346 45 13V22ZM37 20H43V13C43 12.449 42.551 12 42 12H38C37.449 12 37 12.449 37 13V20Z" fill="black"/>
<path d="M52 57H28V43H52V57ZM30 55H50V45H30V55Z" fill="black"/>
<path d="M52 45H28V36.314C28 33.91 28.936 31.65 30.636 29.95L32.95 27.636C34.272 26.314 35 24.556 35 22.686V20H45V22.686C45 24.556 45.728 26.314 47.05 27.636L49.364 29.95C51.064 31.65 52 33.91 52 36.314V45ZM30 43H50V36.314C50 34.444 49.272 32.686 47.95 31.364L45.636 29.05C43.936 27.35 43 25.09 43 22.686V22H37V22.686C37 25.09 36.064 27.35 34.364 29.05L32.05 31.364C30.728 32.686 30 34.444 30 36.314V43Z" fill="black"/>
<path d="M48 70H32C29.794 70 28 68.206 28 66V55H52V66C52 68.206 50.206 70 48 70ZM30 57V66C30 67.103 30.897 68 32 68H48C49.103 68 50 67.103 50 66V57H30Z" fill="black"/>
</g>
<defs>
<clipPath id="clip0_1079_8329">
<rect width="80" height="80" fill="white"/>
</clipPath>
</defs>
</svg>
