<svg width="24" height="24" viewBox="0 0 24 24" fill="none" xmlns="http://www.w3.org/2000/svg">
<g clip-path="url(#clip0_654_1430)">
<path d="M12.5826 3.90089L14.8605 8.51639C14.955 8.70809 15.138 8.84099 15.3498 8.87189L20.4432 9.61198C20.976 9.68938 21.189 10.3443 20.8032 10.7202L17.1177 14.3127C16.9647 14.4621 16.8948 14.6769 16.9308 14.8878L17.8008 19.9605C17.8917 20.4912 17.3346 20.8959 16.8582 20.6454L12.3027 18.2505C12.1134 18.1509 11.8872 18.1509 11.6979 18.2505L7.14241 20.6454C6.66571 20.8959 6.10861 20.4912 6.19981 19.9605L7.06981 14.8878C7.10581 14.6769 7.03621 14.4621 6.88291 14.3127L3.19741 10.7202C2.81191 10.3443 3.02461 9.68938 3.55741 9.61198L8.65081 8.87189C8.86231 8.84099 9.04531 8.70809 9.14011 8.51639L11.418 3.90089C11.6562 3.41789 12.345 3.41789 12.5832 3.90089H12.5826Z" fill="#FFE13F"/>
</g>
<defs>
<clipPath id="clip0_654_1430">
<rect width="24" height="24" fill="white"/>
</clipPath>
</defs>
</svg>
