<svg width="288" height="320" viewBox="0 0 288 320" fill="none" xmlns="http://www.w3.org/2000/svg">
<path d="M189.924 242.507L194.494 237.937C195.757 236.674 197.803 236.674 199.065 237.937L205.921 244.793C207.183 246.055 207.183 248.102 205.921 249.363L201.35 253.934L197.922 257.362C196.66 258.624 194.613 258.624 193.352 257.362L184.21 248.22L171.069 235.079C170.754 234.764 170.754 234.252 171.069 233.937L171.076 233.93C171.389 233.618 171.894 233.62 172.212 233.929C179.618 241.138 187.462 244.97 189.924 242.507Z" fill="#D7E2F2"/>
<path d="M199.066 267.108C197.989 267.108 196.977 266.689 196.215 265.926L155.078 224.79C153.506 223.218 153.506 220.66 155.078 219.088L168.31 205.856C169.376 204.79 170.36 203.657 171.235 202.486L201.901 161.593C202.605 160.657 203.68 160.074 204.849 159.991C206.01 159.91 207.155 160.335 207.979 161.16L259.846 213.026C260.67 213.85 261.095 214.991 261.014 216.157C260.931 217.326 260.348 218.4 259.413 219.105L218.52 249.77C217.348 250.646 216.214 251.63 215.15 252.694L201.918 265.926C201.155 266.688 200.142 267.108 199.066 267.108ZM203.18 162.554L172.516 203.444C171.596 204.675 170.562 205.867 169.442 206.987L156.21 220.219C155.261 221.168 155.261 222.71 156.21 223.658L197.346 264.795C198.295 265.744 199.838 265.744 200.786 264.795L214.018 251.563C215.137 250.445 216.33 249.41 217.562 248.489L258.452 217.826C259.016 217.401 259.369 216.751 259.418 216.045C259.467 215.342 259.21 214.654 258.714 214.158L206.848 162.291C206.351 161.794 205.662 161.537 204.961 161.587C204.255 161.637 203.606 161.989 203.18 162.554ZM212.25 244.654C210.374 244.654 208.505 243.937 207.104 242.536L178.468 213.9C175.926 211.358 175.637 207.277 177.794 204.404L203.813 169.714C204.078 169.36 204.58 169.29 204.932 169.554C205.286 169.818 205.358 170.32 205.092 170.673L179.073 205.364C177.39 207.604 177.618 210.787 179.598 212.769L208.234 241.405C210.217 243.387 213.401 243.613 215.638 241.93L250.331 215.912C250.684 215.646 251.185 215.718 251.45 216.072C251.716 216.425 251.644 216.926 251.29 217.191L216.598 243.21C215.31 244.178 213.778 244.654 212.249 244.654H212.25Z" fill="black"/>
<path d="M193.352 251.306C193.147 251.306 192.942 251.228 192.786 251.072C192.474 250.759 192.474 250.254 192.786 249.941L198.5 244.227C198.813 243.914 199.318 243.914 199.631 244.227C199.944 244.54 199.944 245.046 199.631 245.358L193.918 251.072C193.762 251.228 193.557 251.306 193.352 251.306Z" fill="black"/>
<path d="M170.498 228.452C170.294 228.452 170.089 228.374 169.933 228.218C169.62 227.905 169.62 227.399 169.933 227.086L175.647 221.373C175.96 221.06 176.466 221.06 176.778 221.373C177.091 221.686 177.091 222.191 176.778 222.504L171.064 228.218C170.908 228.374 170.703 228.452 170.498 228.452Z" fill="black"/>
<path d="M163.643 221.596C163.438 221.596 163.233 221.518 163.077 221.362C162.765 221.049 162.765 220.543 163.077 220.23L168.791 214.517C169.104 214.204 169.609 214.204 169.922 214.517C170.235 214.83 170.235 215.335 169.922 215.648L164.209 221.362C164.053 221.518 163.848 221.596 163.643 221.596Z" fill="black"/>
<path d="M200.209 258.162C200.004 258.162 199.799 258.084 199.643 257.928C199.33 257.615 199.33 257.11 199.643 256.797L205.357 251.083C205.67 250.77 206.175 250.77 206.488 251.083C206.801 251.396 206.801 251.902 206.488 252.214L200.774 257.928C200.618 258.084 200.414 258.162 200.209 258.162Z" fill="black"/>
<path d="M192.8 308V301.6C192.8 299.833 191.367 298.4 189.6 298.4H180C178.233 298.4 176.8 299.833 176.8 301.6V312.8C176.8 314.567 178.233 316 180 316H211.2C211.641 316 212 315.642 212 315.2V315.191C212 314.753 211.645 314.401 211.206 314.394C200.974 314.256 192.8 311.447 192.8 308Z" fill="#D7E2F2"/>
<path d="M229.6 320H172C169.795 320 168 318.206 168 316V297.472C168 295.98 167.895 294.498 167.688 293.067L160.528 242.97C160.366 241.818 160.71 240.654 161.472 239.778C162.232 238.902 163.331 238.4 164.489 238.4H237.112C238.269 238.4 239.368 238.902 240.129 239.778C240.891 240.655 241.235 241.818 241.073 242.968L233.914 293.066C233.706 294.498 233.601 295.98 233.601 297.472V316C233.601 318.206 231.807 320 229.601 320H229.6ZM164.488 240C163.795 240 163.136 240.302 162.679 240.826C162.221 241.354 162.015 242.053 162.112 242.744L169.271 292.838C169.488 294.344 169.599 295.902 169.599 297.471V315.999C169.599 317.322 170.676 318.399 171.999 318.399H229.599C230.923 318.399 231.999 317.322 231.999 315.999V297.471C231.999 295.902 232.111 294.344 232.328 292.837L239.487 242.742C239.584 242.053 239.378 241.354 238.919 240.826C238.463 240.301 237.803 239.999 237.111 239.999H164.487L164.488 240ZM220.848 296H180.753C177.191 296 174.126 293.342 173.624 289.817L167.552 247.314C167.49 246.876 167.794 246.47 168.231 246.408C168.67 246.343 169.075 246.65 169.137 247.087L175.209 289.591C175.599 292.334 177.983 294.401 180.754 294.401H220.849C223.62 294.401 226.003 292.334 226.394 289.592L232.466 247.087C232.528 246.65 232.935 246.346 233.371 246.408C233.809 246.47 234.113 246.876 234.051 247.314L227.979 289.818C227.477 293.342 224.412 296.001 220.85 296.001L220.848 296Z" fill="black"/>
<path d="M184.8 312C184.358 312 184 311.642 184 311.2V303.2C184 302.758 184.358 302.4 184.8 302.4C185.242 302.4 185.6 302.758 185.6 303.2V311.2C185.6 311.642 185.242 312 184.8 312Z" fill="black"/>
<path d="M216.8 312C216.358 312 216 311.642 216 311.2V303.2C216 302.758 216.358 302.4 216.8 302.4C217.242 302.4 217.6 302.758 217.6 303.2V311.2C217.6 311.642 217.242 312 216.8 312Z" fill="black"/>
<path d="M226.4 312C225.958 312 225.6 311.642 225.6 311.2V303.2C225.6 302.758 225.958 302.4 226.4 302.4C226.842 302.4 227.2 302.758 227.2 303.2V311.2C227.2 311.642 226.842 312 226.4 312Z" fill="black"/>
<path d="M175.2 312C174.758 312 174.4 311.642 174.4 311.2V303.2C174.4 302.758 174.758 302.4 175.2 302.4C175.642 302.4 176 302.758 176 303.2V311.2C176 311.642 175.642 312 175.2 312Z" fill="black"/>
<path d="M92.1107 5.43393L77.9043 41.1094L80.8773 42.2933L95.0836 6.6178L92.1107 5.43393Z" fill="#5D8231"/>
<path d="M80.8769 43.0936C80.7769 43.0936 80.6761 43.0752 80.5809 43.0368L77.6081 41.8528C77.1977 41.6888 76.9977 41.224 77.1609 40.8136L91.3665 5.1376C91.4449 4.9408 91.5985 4.7832 91.7937 4.6992C91.9889 4.6152 92.2089 4.612 92.4065 4.6904L95.3793 5.8744C95.7897 6.0384 95.9897 6.5032 95.8265 6.9136L81.6201 42.5896C81.5417 42.7864 81.3881 42.944 81.1929 43.028C81.0921 43.0712 80.9849 43.0936 80.8769 43.0936ZM78.9433 40.6624L80.4297 41.2544L94.0441 7.0656L92.5577 6.4736L78.9433 40.6624Z" fill="black"/>
<path d="M77.9039 41.1096L76.3151 40.9224C75.4415 40.8192 74.8103 40.02 74.9127 39.1464L79.0271 4.18801C79.1303 3.31441 79.9296 2.68321 80.8032 2.78561L82.392 2.97281L77.9039 41.1096Z" fill="#5D8231"/>
<path d="M77.9042 41.9096C77.873 41.9096 77.8418 41.908 77.8106 41.904L76.2218 41.7168C75.5866 41.6424 75.0178 41.3232 74.6202 40.8192C74.2226 40.3152 74.0442 39.6872 74.1194 39.0528L78.2338 4.09439C78.3882 2.77919 79.5818 1.83119 80.8978 1.99119L82.4866 2.17839C82.9258 2.22959 83.2394 2.62799 83.1874 3.06639L78.6994 41.2032C78.6746 41.4144 78.5666 41.6064 78.4002 41.7376C78.2586 41.8496 78.0834 41.9096 77.9042 41.9096ZM80.6162 3.57439C80.2162 3.57439 79.8698 3.87439 79.8226 4.28079L75.7082 39.2392C75.6834 39.4504 75.7426 39.6584 75.8762 39.8272C76.0098 39.996 76.1986 40.1024 76.409 40.1272L77.2034 40.2208L81.505 3.67279L80.7106 3.57919C80.6786 3.57519 80.6474 3.57439 80.6162 3.57439Z" fill="black"/>
<g style="mix-blend-mode:multiply">
<path d="M112.76 136.912L104.296 124.216C102.6 121.672 101.528 118.72 101.192 115.688L94.632 56.68C94.416 54.72 93.6 47.952 93.6 45.848V28C93.6 27.116 92.884 26.4 92 26.4H69.6C68.716 26.4 68 27.116 68 28V45.848C68 47.952 67.184 54.72 66.968 56.68L60.408 115.68C60.072 118.72 59 121.672 57.304 124.216L48.84 136.912C45.672 141.656 44 147.184 44 152.888V311.2C44 313.851 46.1488 316 48.8 316H112.8C115.451 316 117.6 313.851 117.6 311.2V152.888C117.6 147.184 115.928 141.656 112.76 136.912Z" fill="#BADC9F"/>
</g>
<path d="M112.8 320H48.8C43.948 320 40 316.052 40 311.2V152.889C40 146.392 41.9048 140.101 45.5088 134.694L53.9752 121.995C55.3168 119.982 56.168 117.647 56.4344 115.242L62.9912 56.2344C63.0272 55.9112 62.8688 55.5992 62.5968 55.4592C60.9952 54.6312 59.9992 52.9992 59.9992 51.2C59.9992 49.0856 61.3544 47.244 63.372 46.616C63.7536 46.4976 63.9992 46.196 63.9992 45.8464V42.1424C63.9992 41.9528 63.9232 41.7768 63.784 41.6472C63.6456 41.5176 63.4696 41.4536 63.276 41.4656C62.6096 41.508 61.9528 41.2832 61.4832 40.844C61.0416 40.4312 60.7992 39.8688 60.7992 39.2616V38.9632C60.7992 37.7864 61.7176 36.7888 62.8904 36.692L63.3768 36.652C63.7256 36.6232 63.9992 36.3256 63.9992 35.9752V35.7424C63.9992 35.5528 63.9232 35.3768 63.784 35.2472C63.6456 35.1176 63.4696 35.0496 63.276 35.0656C62.6096 35.1112 61.9528 34.8832 61.4832 34.444C61.0416 34.0312 60.7992 33.4688 60.7992 32.8616V32.5624C60.7992 31.3856 61.7176 30.3888 62.8904 30.292L63.3768 30.252C63.7256 30.2232 63.9984 29.9264 63.9984 29.576V24.8016C63.9984 23.4784 65.0752 22.4016 66.3984 22.4016H95.1984C96.5216 22.4016 97.5984 23.4784 97.5984 24.8016V26.66C97.5984 26.8496 97.6744 27.0256 97.8136 27.1552C97.952 27.2848 98.128 27.348 98.3216 27.3368C98.9848 27.288 99.6448 27.5192 100.114 27.9584C100.556 28.372 100.798 28.9336 100.798 29.5416V29.84C100.798 31.0168 99.88 32.0144 98.7064 32.1104L98.2216 32.1504C97.872 32.1792 97.5984 32.476 97.5984 32.8264V33.06C97.5984 33.2496 97.6744 33.4256 97.8136 33.5552C97.952 33.6848 98.128 33.7472 98.3216 33.7368C98.9848 33.688 99.6448 33.9192 100.114 34.3584C100.556 34.772 100.798 35.3336 100.798 35.9416V36.24C100.798 37.4168 99.88 38.4144 98.7064 38.5104L98.2216 38.5504C97.872 38.5792 97.5984 38.876 97.5984 39.2264V45.8464C97.5984 46.196 97.8448 46.4976 98.2256 46.616C100.243 47.244 101.598 49.0864 101.598 51.2C101.598 52.9992 100.603 54.6312 99.0008 55.4584C98.7296 55.5992 98.5704 55.9104 98.6064 56.2344L105.163 115.242C105.43 117.647 106.281 119.982 107.623 121.995L116.09 134.694C119.694 140.1 121.598 146.392 121.598 152.889V311.2C121.598 316.052 117.65 320 112.798 320H112.8ZM63.32 39.8632C63.8952 39.8632 64.456 40.0832 64.8784 40.4784C65.3368 40.9072 65.6 41.5136 65.6 42.1416V45.8456C65.6 46.8944 64.896 47.8176 63.848 48.144C62.5032 48.5624 61.6 49.7904 61.6 51.2C61.6 52.3984 62.264 53.4856 63.332 54.0376C64.188 54.48 64.6904 55.4336 64.5816 56.4112L58.0248 115.419C57.7296 118.078 56.7896 120.658 55.3064 122.883L46.84 135.582C43.412 140.725 41.6 146.709 41.6 152.889V311.2C41.6 315.17 44.8304 318.4 48.8 318.4H112.8C116.77 318.4 120 315.17 120 311.2V152.889C120 146.709 118.188 140.724 114.76 135.582L106.294 122.883C104.81 120.658 103.87 118.078 103.575 115.419L97.0184 56.4112C96.9096 55.4336 97.412 54.48 98.268 54.0376C99.336 53.4864 100 52.3984 100 51.2008C100 49.7912 99.0968 48.5632 97.752 48.1448C96.704 47.8192 96 46.8952 96 45.8464V39.2264C96 38.0496 96.9184 37.0528 98.0912 36.956L98.5768 36.916C98.9264 36.8872 99.2 36.5904 99.2 36.24V35.9416C99.2 35.7768 99.14 35.6376 99.0224 35.5272C98.8744 35.3888 98.6552 35.316 98.4288 35.3336C97.8056 35.3744 97.1808 35.1528 96.7216 34.724C96.2632 34.2944 96 33.6888 96 33.06V32.8264C96 31.6496 96.9184 30.6528 98.0912 30.556L98.5768 30.516C98.9264 30.4872 99.2 30.1904 99.2 29.84V29.5416C99.2 29.3768 99.14 29.2376 99.0224 29.1272C98.8744 28.9888 98.6552 28.9136 98.4288 28.9336C97.8056 28.972 97.1808 28.7536 96.7216 28.324C96.2632 27.8944 96 27.2888 96 26.66V24.8016C96 24.3608 95.6408 24.0016 95.2 24.0016H66.4C65.9592 24.0016 65.6 24.3608 65.6 24.8016V29.576C65.6 30.7528 64.6816 31.7496 63.5096 31.8464L63.0224 31.8864C62.6736 31.9152 62.4 32.212 62.4 32.5624V32.8616C62.4 33.0264 62.46 33.1656 62.5776 33.276C62.7256 33.4136 62.9408 33.488 63.1712 33.4696C63.8008 33.4344 64.42 33.6512 64.8784 34.08C65.3368 34.5088 65.6 35.1152 65.6 35.7432V35.976C65.6 37.1528 64.6816 38.1504 63.5088 38.2472L63.0224 38.2872C62.6736 38.316 62.4 38.6136 62.4 38.964V39.2624C62.4 39.4272 62.46 39.5664 62.5776 39.6768C62.7256 39.8144 62.9408 39.8872 63.1712 39.8704C63.2208 39.8672 63.2704 39.8656 63.32 39.8656V39.8632Z" fill="black"/>
<path d="M80.8 120H64.8C64.3584 120 64 119.642 64 119.2C64 118.758 64.3584 118.4 64.8 118.4H80.8C81.2416 118.4 81.6 118.758 81.6 119.2C81.6 119.642 81.2416 120 80.8 120Z" fill="black"/>
<path d="M80.8 56H64.8C64.3584 56 64 55.6416 64 55.2C64 54.7584 64.3584 54.4 64.8 54.4H80.8C81.2416 54.4 81.6 54.7584 81.6 55.2C81.6 55.6416 81.2416 56 80.8 56Z" fill="black"/>
<path d="M80.8 48H64.8C64.3584 48 64 47.6416 64 47.2C64 46.7584 64.3584 46.4 64.8 46.4H80.8C81.2416 46.4 81.6 46.7584 81.6 47.2C81.6 47.6416 81.2416 48 80.8 48Z" fill="black"/>
<path d="M72.8 152H48.8C48.3584 152 48 151.642 48 151.2C48 150.758 48.3584 150.4 48.8 150.4H72.8C73.2416 150.4 73.6 150.758 73.6 151.2C73.6 151.642 73.2416 152 72.8 152Z" fill="black"/>
<path d="M98.8894 42.5088L98.659 42.4816C97.8006 42.3808 97.0398 43.032 97.0102 43.8984C97.0054 43.9384 97.0102 43.9712 97.0054 44.0104C96.9102 44.8208 96.1718 45.4104 95.3534 45.3144L90.5942 44.7544L95.083 6.61761L96.9102 6.83281C97.6726 6.92241 98.239 7.58561 98.2134 8.35521L98.1974 8.83681C98.171 9.60721 98.7374 10.2696 99.5006 10.3592L99.731 10.3864C100.589 10.4872 101.35 9.83601 101.388 8.97041C101.393 8.93041 101.389 8.89041 101.395 8.84241C101.489 8.04001 102.218 7.45681 103.037 7.55361L114.152 8.86161C115.025 8.96481 115.657 9.76401 115.554 10.6376L111.44 45.596C111.337 46.4696 110.537 47.1008 109.664 46.9984L101.481 46.0352C100.718 45.9456 100.152 45.2824 100.177 44.5128L100.193 44.0312C100.22 43.2608 99.6526 42.5984 98.8894 42.5088Z" fill="#5D8231"/>
<path d="M109.853 47.8096C109.758 47.8096 109.664 47.804 109.569 47.7928L101.386 46.8296C100.219 46.692 99.3361 45.6624 99.3761 44.4848L99.3929 44.0032C99.4049 43.6512 99.1433 43.3432 98.7961 43.3024L98.5665 43.2752C98.3761 43.2536 98.1897 43.3088 98.0449 43.4336C97.9001 43.5584 97.8161 43.7328 97.8105 43.9248C97.8081 44.0088 97.8057 44.0544 97.8001 44.1048C97.7289 44.708 97.4265 45.2504 96.9481 45.6296C96.4673 46.0104 95.8673 46.1784 95.2609 46.1088L90.5017 45.5488C90.2905 45.524 90.0985 45.416 89.9673 45.2496C89.8361 45.0832 89.7761 44.8712 89.8009 44.6608L94.2897 6.524C94.3145 6.3128 94.4225 6.1208 94.5889 5.9896C94.7553 5.8584 94.9697 5.8024 95.1785 5.8232L97.0057 6.0384C98.1721 6.1752 99.0545 7.2048 99.0145 8.3832L98.9977 8.8648C98.9857 9.2168 99.2473 9.5248 99.5945 9.5656L99.8257 9.5928C100.016 9.6152 100.201 9.5592 100.346 9.4344C100.494 9.3088 100.58 9.132 100.589 8.936C100.592 8.8496 100.594 8.7992 100.601 8.7448C100.671 8.1472 100.972 7.6096 101.449 7.2328C101.926 6.856 102.526 6.6888 103.13 6.7584L114.246 8.0664C115.561 8.2216 116.504 9.4168 116.349 10.7312L112.234 45.6896C112.16 46.3248 111.841 46.8936 111.337 47.2912C110.908 47.6296 110.39 47.8088 109.854 47.8088L109.853 47.8096ZM98.4873 41.6712C98.5761 41.6712 98.6641 41.676 98.7529 41.6872L98.9825 41.7144C100.149 41.852 101.031 42.8816 100.991 44.0592L100.974 44.5408C100.962 44.8928 101.225 45.2008 101.572 45.2416L109.755 46.2048C109.964 46.2288 110.174 46.1696 110.343 46.0368C110.512 45.9032 110.618 45.7144 110.643 45.504L114.758 10.5456C114.782 10.3352 114.723 10.1264 114.59 9.9576C114.456 9.7888 114.267 9.6824 114.056 9.6576L102.941 8.3496C102.756 8.3264 102.579 8.3784 102.438 8.4904C102.297 8.6016 102.208 8.76 102.187 8.9376C102.187 8.9776 102.186 9.0216 102.18 9.0656C102.158 9.6424 101.864 10.2424 101.381 10.6536C100.899 11.064 100.266 11.2544 99.6345 11.1824L99.4033 11.1552C98.2377 11.0184 97.3553 9.9888 97.3953 8.8104L97.4121 8.3288C97.4241 7.9768 97.1625 7.6688 96.8153 7.628L95.7825 7.5064L91.4809 44.0536L95.4457 44.52C95.6281 44.54 95.8073 44.4904 95.9521 44.376C96.0969 44.2616 96.1873 44.0984 96.2089 43.9176C96.2065 43.9008 96.2089 43.8552 96.2145 43.8056C96.2313 43.2368 96.5193 42.6352 97.0001 42.2216C97.4145 41.8656 97.9441 41.672 98.4857 41.672L98.4873 41.6712Z" fill="black"/>
<path d="M74.3096 66.5544L72.2992 108.154C72.2168 109.86 70.8104 111.2 69.1032 111.2H67.0208C65.132 111.2 63.6536 109.572 63.836 107.691L67.864 66.0912C68.0232 64.4512 69.4016 63.2 71.0488 63.2H71.1136C72.9416 63.2 74.3984 64.7288 74.3096 66.5544Z" fill="white"/>
<path d="M65.1705 313.928C65.4817 314.961 64.7241 316 63.6449 316H52.9753C50.6713 316 48.7993 313.848 48.7993 311.2V160.8C48.7993 159.916 49.5153 159.2 50.3993 159.2H63.1993C64.0833 159.2 64.7993 159.916 64.7993 160.8V311.2C64.7993 312.213 64.9369 313.153 65.1705 313.928Z" fill="white"/>
<path d="M106.618 143.2H98.745C97.209 143.2 95.9098 142.105 95.6034 140.599C95.3442 139.325 95.0418 138.093 94.6962 136.912L93.0666 131.291C92.473 129.244 94.009 127.2 96.1402 127.2H101.117C102.258 127.2 103.313 127.808 103.885 128.794L108.592 136.912C108.904 137.449 109.199 137.995 109.477 138.552C110.543 140.686 109.003 143.2 106.618 143.2Z" fill="white"/>
<path d="M40.7998 167.2H103.2C104.083 167.2 104.8 167.917 104.8 168.8V277.6C104.8 278.483 104.083 279.2 103.2 279.2H40.7998V167.2Z" fill="#FFFAE1"/>
<path d="M103.2 280H40V166.4H103.2C104.523 166.4 105.6 167.477 105.6 168.8V277.6C105.6 278.923 104.523 280 103.2 280ZM41.6 278.4H103.2C103.641 278.4 104 278.042 104 277.6V168.8C104 168.358 103.641 168 103.2 168H41.6V278.4Z" fill="black"/>
</svg>
