<svg width="24" height="24" viewBox="0 0 24 24" fill="none" xmlns="http://www.w3.org/2000/svg">
<g clip-path="url(#clip0_1131_2747)">
<path d="M19.8 21H12V19.8H19.8V10.2H15.9C15.5685 10.2 15.3 9.9315 15.3 9.6C15.3 9.2685 15.5685 9 15.9 9H19.8C20.4627 9 21 9.5373 21 10.2V19.8C21 20.4627 20.4627 21 19.8 21Z" fill="black" fill-opacity="0.65"/>
<path d="M12 21H4.2C3.5373 21 3 20.4627 3 19.8V10.2C3 9.5373 3.5373 9 4.2 9H8.1C8.4315 9 8.7 9.2685 8.7 9.6C8.7 9.9315 8.4315 10.2 8.1 10.2H4.2V19.8H12V21Z" fill="black" fill-opacity="0.65"/>
<path fill-rule="evenodd" clip-rule="evenodd" d="M8.39997 6.9C8.16567 6.6657 8.16567 6.2859 8.39997 6.0516L11.1 3.3516C11.325 3.1266 11.6304 3 11.9484 3H12V3.60001L12 3H12.0516C12.3699 3 12.675 3.1263 12.9 3.3516L15.6 6.0516C15.8343 6.2859 15.8343 6.6657 15.6 6.9C15.3657 7.1343 14.9859 7.1343 14.7516 6.9L12.6 4.7484V16.8C12.6 17.1315 12.3315 17.4 12 17.4C11.6685 17.4 11.4 17.1315 11.4 16.8V4.7484L9.24837 6.9C9.01407 7.1343 8.63427 7.1343 8.39997 6.9Z" fill="black" fill-opacity="0.65"/>
</g>
<defs>
<clipPath id="clip0_1131_2747">
<rect width="24" height="24" fill="white"/>
</clipPath>
</defs>
</svg>
