<svg width="24" height="24" viewBox="0 0 24 24" fill="none" xmlns="http://www.w3.org/2000/svg">
<g id="&#235;&#141;&#148;&#235;&#179;&#180;&#234;&#184;&#176;">
<g id="&#235;&#141;&#148;&#235;&#179;&#180;&#234;&#184;&#176;_2">
<g id="hover">
<path id="Vector" d="M12 2.4C12.6627 2.4 13.2 1.86274 13.2 1.2C13.2 0.537258 12.6627 0 12 0C11.3372 0 10.8 0.537258 10.8 1.2C10.8 1.86274 11.3372 2.4 12 2.4Z" fill="black" fill-opacity="0.65"/>
<path id="Vector_2" d="M11.9999 13.2C12.6627 13.2 13.1999 12.6628 13.1999 12C13.1999 11.3373 12.6627 10.8 11.9999 10.8C11.3372 10.8 10.7999 11.3373 10.7999 12C10.7999 12.6628 11.3372 13.2 11.9999 13.2Z" fill="black" fill-opacity="0.65"/>
<path id="Vector_3" d="M11.9999 24C12.6627 24 13.1999 23.4627 13.1999 22.8C13.1999 22.1372 12.6627 21.6 11.9999 21.6C11.3372 21.6 10.7999 22.1372 10.7999 22.8C10.7999 23.4627 11.3372 24 11.9999 24Z" fill="black" fill-opacity="0.65"/>
</g>
</g>
</g>
</svg>
