<svg width="40" height="40" viewBox="0 0 40 40" fill="none" xmlns="http://www.w3.org/2000/svg">
<g id="&#236;&#153;&#149;&#234;&#180;&#128;-&#234;&#184;&#136;">
<g id="&#236;&#153;&#149;&#234;&#180;&#128;-&#234;&#184;&#136;_2">
<g id="Group">
<path id="Vector" d="M31 28H9C8.44772 28 8 28.4477 8 29V31C8 31.5523 8.44772 32 9 32H31C31.5523 32 32 31.5523 32 31V29C32 28.4477 31.5523 28 31 28Z" fill="#FFC648"/>
<path id="Vector_2" d="M31.105 26H8.895C8.3855 26 7.9575 25.617 7.901 25.1105L6.5 12.5L10.769 17.379C12.1145 18.9165 14.57 18.689 15.6095 16.9295L20 9.5L24.3905 16.9295C25.43 18.6885 27.8855 18.9165 29.231 17.379L33.5 12.5L32.099 25.1105C32.0425 25.617 31.6145 26 31.105 26Z" fill="#FFC648"/>
<path id="Vector_3" d="M20 11C20.8284 11 21.5 10.3284 21.5 9.5C21.5 8.67157 20.8284 8 20 8C19.1716 8 18.5 8.67157 18.5 9.5C18.5 10.3284 19.1716 11 20 11Z" fill="#FFC648"/>
<path id="Vector_4" d="M6.5 14C7.32843 14 8 13.3284 8 12.5C8 11.6716 7.32843 11 6.5 11C5.67157 11 5 11.6716 5 12.5C5 13.3284 5.67157 14 6.5 14Z" fill="#FFC648"/>
<path id="Vector_5" d="M33.5 14C34.3284 14 35 13.3284 35 12.5C35 11.6716 34.3284 11 33.5 11C32.6716 11 32 11.6716 32 12.5C32 13.3284 32.6716 14 33.5 14Z" fill="#FFC648"/>
</g>
</g>
</g>
</svg>
