<svg width="32" height="32" viewBox="0 0 32 32" fill="none" xmlns="http://www.w3.org/2000/svg">
<g id="&#236;&#153;&#149;&#234;&#180;&#128;-&#236;&#157;&#128;">
<g id="&#236;&#153;&#149;&#234;&#180;&#128;-&#236;&#157;&#128;_2">
<g id="Group">
<path id="Vector" d="M24.8 22.4H7.19999C6.75817 22.4 6.39999 22.7582 6.39999 23.2V24.8C6.39999 25.2419 6.75817 25.6 7.19999 25.6H24.8C25.2418 25.6 25.6 25.2419 25.6 24.8V23.2C25.6 22.7582 25.2418 22.4 24.8 22.4Z" fill="#BABABA"/>
<path id="Vector_2" d="M24.884 20.8H7.11601C6.70841 20.8 6.36601 20.4936 6.32081 20.0884L5.20001 9.99998L8.61521 13.9032C9.69161 15.1332 11.656 14.9512 12.4876 13.5436L16 7.59998L19.5124 13.5436C20.344 14.9508 22.3084 15.1332 23.3848 13.9032L26.8 9.99998L25.6792 20.0884C25.634 20.4936 25.2916 20.8 24.884 20.8Z" fill="#BABABA"/>
<path id="Vector_3" d="M16 8.80002C16.6627 8.80002 17.2 8.26277 17.2 7.60002C17.2 6.93728 16.6627 6.40002 16 6.40002C15.3372 6.40002 14.8 6.93728 14.8 7.60002C14.8 8.26277 15.3372 8.80002 16 8.80002Z" fill="#BABABA"/>
<path id="Vector_4" d="M5.2 11.2C5.86274 11.2 6.4 10.6628 6.4 10C6.4 9.33731 5.86274 8.80005 5.2 8.80005C4.53726 8.80005 4 9.33731 4 10C4 10.6628 4.53726 11.2 5.2 11.2Z" fill="#BABABA"/>
<path id="Vector_5" d="M26.8 11.2C27.4627 11.2 28 10.6628 28 10C28 9.33731 27.4627 8.80005 26.8 8.80005C26.1373 8.80005 25.6 9.33731 25.6 10C25.6 10.6628 26.1373 11.2 26.8 11.2Z" fill="#BABABA"/>
</g>
</g>
</g>
</svg>
