<svg width="24" height="24" viewBox="0 0 24 24" fill="none" xmlns="http://www.w3.org/2000/svg">
<g id="&#236;&#153;&#149;&#234;&#180;&#128;-&#235;&#143;&#153;">
<g id="&#236;&#153;&#149;&#234;&#180;&#128;-&#235;&#143;&#153;_2">
<g id="Group">
<path id="Vector" d="M18.6 16.8H5.39999C5.06862 16.8 4.79999 17.0687 4.79999 17.4V18.6C4.79999 18.9314 5.06862 19.2 5.39999 19.2H18.6C18.9314 19.2 19.2 18.9314 19.2 18.6V17.4C19.2 17.0687 18.9314 16.8 18.6 16.8Z" fill="#CEA27C"/>
<path id="Vector_2" d="M18.663 15.6001H5.33699C5.03129 15.6001 4.77449 15.3703 4.74059 15.0664L3.89999 7.50007L6.46139 10.4275C7.26869 11.35 8.74199 11.2135 9.36569 10.1578L12 5.70007L14.6343 10.1578C15.258 11.2132 16.7313 11.35 17.5386 10.4275L20.1 7.50007L19.2594 15.0664C19.2255 15.3703 18.9687 15.6001 18.663 15.6001Z" fill="#CEA27C"/>
<path id="Vector_3" d="M12 6.60005C12.4971 6.60005 12.9 6.19711 12.9 5.70005C12.9 5.20299 12.4971 4.80005 12 4.80005C11.5029 4.80005 11.1 5.20299 11.1 5.70005C11.1 6.19711 11.5029 6.60005 12 6.60005Z" fill="#CEA27C"/>
<path id="Vector_4" d="M3.9 8.4001C4.39706 8.4001 4.8 7.99715 4.8 7.5001C4.8 7.00304 4.39706 6.6001 3.9 6.6001C3.40294 6.6001 3 7.00304 3 7.5001C3 7.99715 3.40294 8.4001 3.9 8.4001Z" fill="#CEA27C"/>
<path id="Vector_5" d="M20.1 8.4001C20.5971 8.4001 21 7.99715 21 7.5001C21 7.00304 20.5971 6.6001 20.1 6.6001C19.603 6.6001 19.2 7.00304 19.2 7.5001C19.2 7.99715 19.603 8.4001 20.1 8.4001Z" fill="#CEA27C"/>
</g>
</g>
</g>
</svg>
