<?xml version="1.0" encoding="UTF-8"?>
<svg id="Layer_2" data-name="Layer 2" xmlns="http://www.w3.org/2000/svg" viewBox="0 0 800 800">
  <defs>
    <style>
      .cls-1 {
        fill: none;
      }

      .cls-1, .cls-2 {
        stroke-width: 0px;
      }

      .cls-2 {
        fill: #ff7a7a;
      }
    </style>
  </defs>
  <g id="_좋아요_fill" data-name="좋아요 fill">
    <g>
      <path class="cls-2" d="M700,282.62c0-88.22-71.78-160-160-160-60.16,0-112.68,33.38-140,82.6-27.32-49.21-79.84-82.6-140-82.6-88.22,0-160,71.78-160,160,0,2.23.05,4.52.15,6.85-.1.81-.15,1.64-.15,2.48,0,30.59,9.66,111.39,99.13,200.87l173.04,173.04c7.67,7.67,17.75,11.51,27.83,11.51s20.16-3.84,27.83-11.51l173.04-173.04c89.47-89.47,99.13-170.28,99.13-200.87,0-.84-.05-1.67-.15-2.48.1-2.33.15-4.62.15-6.85Z"/>
      <rect class="cls-1" width="800" height="800"/>
    </g>
  </g>
</svg>