<?xml version="1.0" encoding="UTF-8"?>
<svg id="Layer_2" data-name="Layer 2" xmlns="http://www.w3.org/2000/svg" viewBox="0 0 800 800">
  <defs>
    <style>
      .cls-1, .cls-2 {
        stroke-width: 0px;
      }

      .cls-2 {
        fill: none;
      }
    </style>
  </defs>
  <g id="_공유하기" data-name="공유하기">
    <g>
      <path class="cls-1" d="M660,700h-260v-40h260v-320h-130c-11.05,0-20-8.95-20-20h0c0-11.05,8.95-20,20-20h130c22.09,0,40,17.91,40,40v320c0,22.09-17.91,40-40,40Z"/>
      <path class="cls-1" d="M491.72,230l-90-90h-1.72v-40h1.72c10.61,0,20.78,4.21,28.28,11.72l90,90c7.81,7.81,7.81,20.47,0,28.28h0c-7.81,7.81-20.47,7.81-28.28,0Z"/>
      <path class="cls-1" d="M280,230h0c-7.81-7.81-7.81-20.47,0-28.28l90-90c7.5-7.5,17.68-11.72,28.28-11.72h1.72v40h-1.72l-90,90c-7.81,7.81-20.47,7.81-28.28,0Z"/>
      <path class="cls-1" d="M400,700H140c-22.09,0-40-17.91-40-40v-320c0-22.09,17.91-40,40-40h130c11.05,0,20,8.95,20,20h0c0,11.05-8.95,20-20,20h-130v320h260v40Z"/>
      <path class="cls-1" d="M400,580h0c-11.05,0-20-8.95-20-20V120h40v440c0,11.05-8.95,20-20,20Z"/>
      <rect class="cls-2" width="800" height="800"/>
    </g>
  </g>
</svg>