<svg width="25" height="24" viewBox="0 0 25 24" fill="none" xmlns="http://www.w3.org/2000/svg">
<g id="&#234;&#179;&#181;&#236;&#156;&#160;&#237;&#149;&#152;&#234;&#184;&#176;">
<g id="Group">
<g id="Vector">
<path d="M20.3 21H12.5V19.8H20.3V10.2H16.4C16.0685 10.2 15.8 9.9315 15.8 9.6C15.8 9.2685 16.0685 9 16.4 9H20.3C20.9627 9 21.5 9.5373 21.5 10.2V19.8C21.5 20.4627 20.9627 21 20.3 21Z" fill="white"/>
<path d="M20.3 21H12.5V19.8H20.3V10.2H16.4C16.0685 10.2 15.8 9.9315 15.8 9.6C15.8 9.2685 16.0685 9 16.4 9H20.3C20.9627 9 21.5 9.5373 21.5 10.2V19.8C21.5 20.4627 20.9627 21 20.3 21Z" fill="url(#paint0_linear_4187_1148)"/>
</g>
<g id="Vector_2">
<path d="M15.2516 6.9L12.5516 4.2H12.5V3H12.5516C12.8699 3 13.175 3.1263 13.4 3.3516L16.1 6.0516C16.3343 6.2859 16.3343 6.6657 16.1 6.9C15.8657 7.1343 15.4859 7.1343 15.2516 6.9Z" fill="white"/>
<path d="M15.2516 6.9L12.5516 4.2H12.5V3H12.5516C12.8699 3 13.175 3.1263 13.4 3.3516L16.1 6.0516C16.3343 6.2859 16.3343 6.6657 16.1 6.9C15.8657 7.1343 15.4859 7.1343 15.2516 6.9Z" fill="url(#paint1_linear_4187_1148)"/>
</g>
<g id="Vector_3">
<path d="M8.90003 6.9C8.66573 6.6657 8.66573 6.2859 8.90003 6.0516L11.6 3.3516C11.825 3.1266 12.1304 3 12.4484 3H12.5V4.2H12.4484L9.74843 6.9C9.51413 7.1343 9.13433 7.1343 8.90003 6.9Z" fill="white"/>
<path d="M8.90003 6.9C8.66573 6.6657 8.66573 6.2859 8.90003 6.0516L11.6 3.3516C11.825 3.1266 12.1304 3 12.4484 3H12.5V4.2H12.4484L9.74843 6.9C9.51413 7.1343 9.13433 7.1343 8.90003 6.9Z" fill="url(#paint2_linear_4187_1148)"/>
</g>
<g id="Vector_4">
<path d="M12.5 21H4.7C4.0373 21 3.5 20.4627 3.5 19.8V10.2C3.5 9.5373 4.0373 9 4.7 9H8.6C8.9315 9 9.2 9.2685 9.2 9.6C9.2 9.9315 8.9315 10.2 8.6 10.2H4.7V19.8H12.5V21Z" fill="white"/>
<path d="M12.5 21H4.7C4.0373 21 3.5 20.4627 3.5 19.8V10.2C3.5 9.5373 4.0373 9 4.7 9H8.6C8.9315 9 9.2 9.2685 9.2 9.6C9.2 9.9315 8.9315 10.2 8.6 10.2H4.7V19.8H12.5V21Z" fill="url(#paint3_linear_4187_1148)"/>
</g>
<g id="Vector_5">
<path d="M12.5 17.4C12.1685 17.4 11.9 17.1315 11.9 16.8V3.59998H13.1V16.8C13.1 17.1315 12.8315 17.4 12.5 17.4Z" fill="white"/>
<path d="M12.5 17.4C12.1685 17.4 11.9 17.1315 11.9 16.8V3.59998H13.1V16.8C13.1 17.1315 12.8315 17.4 12.5 17.4Z" fill="url(#paint4_linear_4187_1148)"/>
</g>
</g>
</g>
<defs>
<linearGradient id="paint0_linear_4187_1148" x1="12.5" y1="9" x2="24.0212" y2="12.3632" gradientUnits="userSpaceOnUse">
<stop stop-color="#7E3FB8"/>
<stop offset="1" stop-color="#B24A8B"/>
</linearGradient>
<linearGradient id="paint1_linear_4187_1148" x1="12.5" y1="3" x2="17.1418" y2="4.67368" gradientUnits="userSpaceOnUse">
<stop stop-color="#7E3FB8"/>
<stop offset="1" stop-color="#B24A8B"/>
</linearGradient>
<linearGradient id="paint2_linear_4187_1148" x1="8.7243" y1="3" x2="13.3661" y2="4.67368" gradientUnits="userSpaceOnUse">
<stop stop-color="#7E3FB8"/>
<stop offset="1" stop-color="#B24A8B"/>
</linearGradient>
<linearGradient id="paint3_linear_4187_1148" x1="3.5" y1="9" x2="15.0212" y2="12.3632" gradientUnits="userSpaceOnUse">
<stop stop-color="#7E3FB8"/>
<stop offset="1" stop-color="#B24A8B"/>
</linearGradient>
<linearGradient id="paint4_linear_4187_1148" x1="11.9" y1="3.59998" x2="13.5652" y2="3.65633" gradientUnits="userSpaceOnUse">
<stop stop-color="#7E3FB8"/>
<stop offset="1" stop-color="#B24A8B"/>
</linearGradient>
</defs>
</svg>
