<svg width="40" height="41" viewBox="0 0 40 41" fill="none" xmlns="http://www.w3.org/2000/svg">
<g clip-path="url(#clip0_1082_12092)">
<path d="M34 35.8732C33.744 35.8732 33.488 35.7757 33.293 35.5802L20 22.2872L6.707 35.5802C6.3165 35.9707 5.6835 35.9707 5.293 35.5802C4.9025 35.1897 4.9025 34.5567 5.293 34.1662L18.586 20.8732L5.293 7.58023C4.9025 7.18973 4.9025 6.55673 5.293 6.16623C5.6835 5.77573 6.3165 5.77573 6.707 6.16623L20 19.4592L33.293 6.16623C33.6835 5.77573 34.3165 5.77573 34.707 6.16623C35.0975 6.55673 35.0975 7.18973 34.707 7.58023L21.414 20.8732L34.707 34.1662C35.0975 34.5567 35.0975 35.1897 34.707 35.5802C34.5115 35.7757 34.256 35.8732 34 35.8732Z" fill="white"/>
</g>
<defs>
<clipPath id="clip0_1082_12092">
<rect width="40" height="40" fill="white" transform="translate(0 0.87323)"/>
</clipPath>
</defs>
</svg>
