<?xml version="1.0" encoding="UTF-8"?>
<svg id="Layer_2" data-name="Layer 2" xmlns="http://www.w3.org/2000/svg" viewBox="0 0 800 800">
  <defs>
    <style>
      .cls-1, .cls-2 {
        stroke-width: 0px;
      }

      .cls-2 {
        fill: none;
      }
    </style>
  </defs>
  <g id="_닫기" data-name="닫기">
    <g>
      <path class="cls-1" d="M680,700c-5.12,0-10.24-1.95-14.14-5.86l-265.86-265.86-265.86,265.86c-7.81,7.81-20.47,7.81-28.28,0s-7.81-20.47,0-28.28l265.86-265.86L105.86,134.14c-7.81-7.81-7.81-20.47,0-28.28s20.47-7.81,28.28,0l265.86,265.86L665.86,105.86c7.81-7.81,20.47-7.81,28.28,0s7.81,20.47,0,28.28l-265.86,265.86,265.86,265.86c7.81,7.81,7.81,20.47,0,28.28-3.91,3.91-9.02,5.86-14.14,5.86Z"/>
      <rect class="cls-2" width="800" height="800"/>
    </g>
  </g>
</svg>