<svg width="24" height="24" viewBox="0 0 24 24" fill="none" xmlns="http://www.w3.org/2000/svg">
<g id="&#235;&#141;&#148;&#235;&#179;&#180;&#234;&#184;&#176;">
<g id="&#235;&#141;&#148;&#235;&#179;&#180;&#234;&#184;&#176;_2">
<g id="hover">
<path id="Vector" d="M12 2.4C12.6628 2.4 13.2 1.86274 13.2 1.2C13.2 0.537258 12.6628 0 12 0C11.3373 0 10.8 0.537258 10.8 1.2C10.8 1.86274 11.3373 2.4 12 2.4Z" fill="black" fill-opacity="0.65"/>
<path id="Vector_2" d="M12 13.2C12.6628 13.2 13.2 12.6627 13.2 12C13.2 11.3372 12.6628 10.8 12 10.8C11.3373 10.8 10.8 11.3372 10.8 12C10.8 12.6627 11.3373 13.2 12 13.2Z" fill="black" fill-opacity="0.65"/>
<path id="Vector_3" d="M12 24C12.6628 24 13.2 23.4627 13.2 22.8C13.2 22.1372 12.6628 21.6 12 21.6C11.3373 21.6 10.8 22.1372 10.8 22.8C10.8 23.4627 11.3373 24 12 24Z" fill="black" fill-opacity="0.65"/>
</g>
</g>
</g>
</svg>
