<svg xmlns="http://www.w3.org/2000/svg" width="24" height="24" viewBox="0 0 24 24" fill="none">
  <path fill-rule="evenodd" clip-rule="evenodd" d="M9.68281 16.3656C7.89781 16.3656 6.2196 15.6705 4.95751 14.4084C3.69541 13.1463 3.00031 11.4681 3.00031 9.68311C3.00031 7.89811 3.69541 6.21991 4.95751 4.95781C6.2196 3.69571 7.89781 3.00061 9.68281 3.00061C11.4678 3.00061 13.146 3.69571 14.4081 4.95781C15.6702 6.21991 16.3653 7.89811 16.3653 9.68311C16.3653 11.2665 15.8183 12.7659 14.8138 13.9653L15.5257 14.6772L15.8505 14.3523C16.3104 13.8924 17.0586 13.8924 17.5182 14.3523L17.9775 14.8116L17.9774 14.8118L18.0975 14.9319C18.3201 15.1545 18.4428 15.4509 18.4428 15.7659C18.4428 15.8803 18.4266 15.9921 18.3954 16.0989C19.5325 17.2361 20.1883 17.9037 20.5203 18.2619C20.8356 18.6021 21 18.7938 21 19.0968C21 19.3506 20.9013 19.5888 20.7219 19.7682L20.2449 20.2452V20.2449L20.2449 20.2449L19.7679 20.7219C19.5885 20.9013 19.35 21 19.0965 21C18.8427 21 18.6045 20.9013 18.4251 20.7219L16.0985 18.3953C15.9915 18.4266 15.8795 18.4428 15.765 18.4428H15.7656C15.4506 18.4428 15.1545 18.3201 14.9316 18.0975L14.8116 17.9775L14.4723 17.6382L14.3523 17.5182C13.8924 17.0583 13.8924 16.3101 14.3523 15.8505L14.6771 15.5257L13.9653 14.8139C12.7658 15.8186 11.2663 16.3656 9.68281 16.3656ZM15.3207 16.7895L15.3208 16.7894L15.7655 17.2342L16.4997 16.5L17.3481 17.3484L17.0482 17.6482L19.0965 19.6965L19.3965 19.3965L19.3965 19.3965L19.6767 19.1163C19.297 18.7038 18.4378 17.8386 17.6485 17.0489L17.3484 17.349V17.3484L16.5 16.5L17.2344 15.7656L16.7898 15.321L16.7899 15.3208L16.6845 15.2154L15.9501 15.9498H15.9498L15.2154 16.6842L15.3207 16.7895ZM9.68281 4.20001C6.65971 4.20001 4.20001 6.65971 4.20001 9.68281C4.20001 12.7059 6.65971 15.1656 9.68281 15.1656C12.7059 15.1656 15.1656 12.7062 15.1656 9.68281C15.1656 6.65941 12.7062 4.20001 9.68281 4.20001Z" fill="black" fill-opacity="0.45"/>
</svg>