<?xml version="1.0" encoding="UTF-8"?>
<svg id="Layer_2" data-name="Layer 2" xmlns="http://www.w3.org/2000/svg" viewBox="0 0 800 800">
  <defs>
    <style>
      .cls-1, .cls-2 {
        stroke-width: 0px;
      }

      .cls-2 {
        fill: none;
      }
    </style>
  </defs>
  <g id="_돋보기" data-name="돋보기">
    <g>
      <polygon class="cls-1" points="598.79 504.64 598.79 504.65 587.07 492.93 598.79 504.64"/>
      <polygon class="cls-1" points="518.79 584.64 518.79 584.65 507.07 572.93 518.79 584.64"/>
      <polygon class="cls-1" points="518.79 584.64 518.79 584.65 507.07 572.93 518.79 584.64"/>
      <rect class="cls-2" width="800" height="800"/>
      <path class="cls-1" d="M322.76,545.52c-59.5,0-115.44-23.17-157.51-65.24-42.07-42.07-65.24-98.01-65.24-157.51s23.17-115.44,65.24-157.51,98.01-65.24,157.51-65.24,115.44,23.17,157.51,65.24c42.07,42.07,65.24,98.01,65.24,157.51s-23.17,115.44-65.24,157.51c-42.07,42.07-98.01,65.24-157.51,65.24ZM322.76,140c-100.77,0-182.76,81.99-182.76,182.76s81.99,182.76,182.76,182.76,182.76-81.98,182.76-182.76-81.98-182.76-182.76-182.76Z"/>
      <path class="cls-1" d="M322.76,545.52c-59.5,0-115.44-23.17-157.51-65.24-42.07-42.07-65.24-98.01-65.24-157.51s23.17-115.44,65.24-157.51,98.01-65.24,157.51-65.24,115.44,23.17,157.51,65.24c42.07,42.07,65.24,98.01,65.24,157.51s-23.17,115.44-65.24,157.51c-42.07,42.07-98.01,65.24-157.51,65.24ZM322.76,140c-100.77,0-182.76,81.99-182.76,182.76s81.99,182.76,182.76,182.76,182.76-81.98,182.76-182.76-81.98-182.76-182.76-182.76Z"/>
      <rect class="cls-1" x="469.31" y="451.76" width="40" height="75.1" transform="translate(-202.68 489.31) rotate(-45)"/>
      <path class="cls-1" d="M636.55,700c-8.46,0-16.4-3.29-22.38-9.27l-93.14-93.14,28.28-28.28,87.24,87.24,10-10,28.28,28.28-15.9,15.9c-5.98,5.98-13.93,9.27-22.38,9.27Z"/>
      <path class="cls-1" d="M674.83,674.83l-28.28-28.28,9.34-9.34c-13.31-14.46-44.29-45.6-71.65-72.96l-15.9-15.9,28.28-28.28,15.9,15.9c38.31,38.31,60.36,60.75,71.49,72.76,10.51,11.34,15.99,17.73,15.99,27.83,0,8.46-3.29,16.4-9.27,22.38l-15.9,15.9Z"/>
      <path class="cls-1" d="M525.52,614.76c-10.5,0-20.37-4.09-27.8-11.51l-15.31-15.31,28.28-28.28,14.82,14.82,24.48-24.48,28.28,28.28-24.97,24.97c-7.42,7.42-17.3,11.51-27.8,11.51Z"/>
      <path class="cls-1" d="M578.28,578.28l-28.28-28.28,24.48-24.48-14.82-14.82,28.28-28.28,15.31,15.31c7.42,7.42,11.51,17.3,11.51,27.8s-4.09,20.37-11.51,27.8l-24.97,24.97Z"/>
      <rect class="cls-1" x="484.21" y="570.62" width="40" height="21.65" transform="translate(-263.47 526.83) rotate(-45)"/>
      <path class="cls-1" d="M578.28,578.28l-28.28-28.28,24.48-24.48-14.82-14.82,28.28-28.28,15.31,15.31c7.42,7.42,11.51,17.3,11.51,27.8s-4.09,20.37-11.51,27.8l-24.97,24.97Z"/>
      <path class="cls-1" d="M531.66,531.66l-28.28-28.28,24.97-24.97c15.33-15.33,40.27-15.33,55.59,0l15.31,15.31-28.28,28.28-14.82-14.82-24.48,24.48Z"/>
      <path class="cls-1" d="M493.72,599.25l-15.31-15.31c-15.33-15.33-15.33-40.27,0-55.59l24.97-24.97,28.28,28.28-24.48,24.48,14.82,14.82-28.28,28.28Z"/>
      <path class="cls-1" d="M493.72,599.25l-15.31-15.31c-15.33-15.33-15.33-40.27,0-55.59l24.97-24.97,28.28,28.28-24.48,24.48,14.82,14.82-28.28,28.28Z"/>
    </g>
  </g>
</svg>