<?xml version="1.0" encoding="UTF-8"?>
<svg id="Layer_2" data-name="Layer 2" xmlns="http://www.w3.org/2000/svg" viewBox="0 0 800 800">
  <defs>
    <style>
      .cls-1 {
        fill: none;
      }

      .cls-1, .cls-2 {
        stroke-width: 0px;
      }

      .cls-2 {
        fill: #ffe13f;
      }
    </style>
  </defs>
  <g id="_별_0.5" data-name="별_0.5">
    <g>
      <path class="cls-2" d="M380.58,130.03l-75.93,153.85c-3.15,6.39-9.25,10.82-16.31,11.85l-169.78,24.67c-17.76,2.58-24.86,24.41-12,36.94l122.85,119.75c5.1,4.98,7.43,12.14,6.23,19.17l-29,169.09c-3.03,17.69,15.54,31.18,31.42,22.83l151.85-79.83c3.15-1.66,6.62-2.49,10.08-2.49V117.96c-7.72,0-15.45,4.02-19.42,12.07Z"/>
      <path class="cls-2" d="M400,181.06l59.48,120.52c8.98,18.2,26.34,30.81,46.42,33.73l133,19.33-96.24,93.81c-14.53,14.17-21.16,34.57-17.73,54.57l22.72,132.46-118.96-62.54c-8.81-4.63-18.73-7.08-28.69-7.08s-19.88,2.45-28.69,7.08l-118.96,62.54,22.72-132.46c3.43-20-3.2-40.41-17.73-54.57l-96.24-93.81,133-19.33c20.09-2.92,37.44-15.53,46.42-33.73l59.48-120.52M400,117.96c-7.72,0-15.45,4.02-19.42,12.07l-75.93,153.85c-3.15,6.39-9.25,10.82-16.31,11.85l-169.78,24.67c-17.76,2.58-24.86,24.41-12,36.94l122.85,119.75c5.1,4.98,7.43,12.14,6.23,19.17l-29,169.09c-2.4,14,8.72,25.37,21.34,25.37,3.33,0,6.77-.79,10.08-2.54l151.85-79.83c3.15-1.66,6.62-2.49,10.08-2.49s6.92.83,10.08,2.49l151.85,79.83c3.32,1.74,6.75,2.54,10.08,2.54,12.62,0,23.74-11.37,21.34-25.37l-29-169.09c-1.2-7.03,1.12-14.19,6.23-19.17l122.85-119.75c12.85-12.53,5.76-34.36-12-36.94l-169.78-24.67c-7.05-1.02-13.15-5.46-16.31-11.85l-75.93-153.85c-3.97-8.05-11.7-12.07-19.42-12.07h0Z"/>
      <rect class="cls-1" width="800" height="800"/>
    </g>
  </g>
</svg>