<?xml version="1.0" encoding="UTF-8"?>
<svg id="Layer_2" data-name="Layer 2" xmlns="http://www.w3.org/2000/svg" viewBox="0 0 800 800">
  <defs>
    <style>
      .cls-1 {
        fill: none;
      }

      .cls-1, .cls-2 {
        stroke-width: 0px;
      }

      .cls-2 {
        fill: #ffe13f;
      }
    </style>
  </defs>
  <g id="_별_1" data-name="별_1">
    <g>
      <path class="cls-2" d="M419.42,130.03l75.93,153.85c3.15,6.39,9.25,10.82,16.31,11.85l169.78,24.67c17.76,2.58,24.86,24.41,12,36.94l-122.85,119.75c-5.1,4.98-7.43,12.14-6.23,19.17l29,169.09c3.03,17.69-15.54,31.18-31.42,22.83l-151.85-79.83c-6.31-3.32-13.85-3.32-20.16,0l-151.85,79.83c-15.89,8.35-34.46-5.14-31.42-22.83l29-169.09c1.2-7.03-1.12-14.19-6.23-19.17l-122.85-119.75c-12.85-12.53-5.76-34.36,12-36.94l169.78-24.67c7.05-1.03,13.15-5.46,16.31-11.85l75.93-153.85c7.94-16.1,30.9-16.1,38.84,0Z"/>
      <rect class="cls-1" width="800" height="800"/>
    </g>
  </g>
</svg>