<?xml version="1.0" encoding="UTF-8"?>
<svg id="Layer_2" data-name="Layer 2" xmlns="http://www.w3.org/2000/svg" viewBox="0 0 800 800">
  <defs>
    <style>
      .cls-1, .cls-2 {
        stroke-width: 0px;
      }

      .cls-2 {
        fill: none;
      }
    </style>
  </defs>
  <g id="_병" data-name="병">
    <g>
      <rect class="cls-2" width="800" height="800"/>
      <path class="cls-1" d="m450,220h-100v-90c0-16.54,13.46-30,30-30h40c16.54,0,30,13.46,30,30v90Zm-80-20h60v-70c0-5.51-4.49-10-10-10h-40c-5.51,0-10,4.49-10,10v70Z"/>
      <path class="cls-1" d="m520,570h-240v-140h240v140Zm-220-20h200v-100h-200v100Z"/>
      <path class="cls-1" d="m520,450h-240v-86.86c0-24.04,9.36-46.64,26.36-63.64l23.14-23.14c13.22-13.22,20.5-30.8,20.5-49.5v-26.86h100v26.86c0,18.7,7.28,36.28,20.5,49.5l23.14,23.14c17,17,26.36,39.6,26.36,63.64v86.86Zm-220-20h200v-66.86c0-18.7-7.28-36.28-20.5-49.5l-23.14-23.14c-17-17-26.36-39.6-26.36-63.64v-6.86h-60v6.86c0,24.04-9.36,46.64-26.36,63.64l-23.14,23.14c-13.22,13.22-20.5,30.8-20.5,49.5v66.86Z"/>
      <path class="cls-1" d="m480,700h-160c-22.06,0-40-17.94-40-40v-110h240v110c0,22.06-17.94,40-40,40Zm-180-130v90c0,11.03,8.97,20,20,20h160c11.03,0,20-8.97,20-20v-90h-200Z"/>
    </g>
  </g>
</svg>