<?xml version="1.0" encoding="UTF-8"?>
<svg id="Layer_2" data-name="Layer 2" xmlns="http://www.w3.org/2000/svg" viewBox="0 0 800 800">
  <defs>
    <style>
      .cls-1 {
        fill: none;
      }

      .cls-1, .cls-2 {
        stroke-width: 0px;
      }

      .cls-2 {
        fill: #262d31;
        opacity: .25;
      }
    </style>
  </defs>
  <g id="_스크랩" data-name="스크랩">
    <g>
      <path class="cls-2" d="M575,700h-5.61c-10.09,0-19.73-3.19-27.88-9.24l-141.64-105.02-141.64,105.02c-8.15,6.04-17.79,9.24-27.88,9.24h-15.35c-22.06,0-40-17.94-40-40V140c0-22.06,17.94-40,40-40h360c22.06,0,40,17.94,40,40v520c0,22.06-17.94,40-40,40ZM399.87,542.99c6.04,0,12.08,1.91,17.24,5.73l148.22,109.91c1.22.91,2.59,1.37,4.06,1.37h5.61V140H215v520h15.35c1.47,0,2.83-.46,4.06-1.37l148.22-109.91c5.15-3.82,11.19-5.73,17.23-5.73Z"/>
      <rect class="cls-1" width="800" height="800"/>
    </g>
  </g>
</svg>