<?xml version="1.0" encoding="UTF-8"?>
<svg id="Layer_2" data-name="Layer 2" xmlns="http://www.w3.org/2000/svg" viewBox="0 0 800 800">
  <defs>
    <style>
      .cls-1, .cls-2 {
        stroke-width: 0px;
      }

      .cls-2 {
        fill: none;
      }
    </style>
  </defs>
  <g id="_종이팩" data-name="종이팩">
    <g>
      <rect class="cls-2" width="800" height="800"/>
      <path class="cls-1" d="m520,700h-240c-16.54,0-30-13.46-30-30v-380c0-16.54,13.46-30,30-30h240c16.54,0,30,13.46,30,30v380c0,16.54-13.46,30-30,30Zm-240-420c-5.51,0-10,4.49-10,10v380c0,5.51,4.49,10,10,10h240c5.51,0,10-4.49,10-10v-380c0-5.51-4.49-10-10-10h-240Z"/>
      <path class="cls-1" d="m400.01,630c-.57,0-1.15-.05-1.74-.15-5.44-.95-9.08-6.13-8.13-11.57l65.64-375.1c3.21-18.33,11.86-34.97,25.01-48.12l92.12-92.12c3.91-3.91,10.24-3.91,14.14,0,3.9,3.91,3.9,10.24,0,14.14l-92.12,92.12c-10.23,10.23-16.96,23.18-19.45,37.43l-65.64,375.1c-.85,4.86-5.07,8.28-9.84,8.28Z"/>
    </g>
  </g>
</svg>