<?xml version="1.0" encoding="UTF-8"?>
<svg id="Layer_2" data-name="Layer 2" xmlns="http://www.w3.org/2000/svg" viewBox="0 0 800 800">
  <defs>
    <style>
      .cls-1 {
        opacity: .05;
      }

      .cls-1, .cls-2, .cls-3 {
        stroke-width: 0px;
      }

      .cls-2 {
        opacity: .25;
      }

      .cls-3 {
        fill: none;
      }
    </style>
  </defs>
  <g id="_좋아요" data-name="좋아요">
    <g>
      <path class="cls-2" d="M400,677.36c-10.08,0-20.16-3.84-27.83-11.51l-173.04-173.04c-89.47-89.47-99.13-170.28-99.13-200.87,0-.84.05-1.67.15-2.48-.1-2.33-.15-4.62-.15-6.85,0-88.22,71.78-160,160-160,60.16,0,112.68,33.38,140,82.6,27.32-49.21,79.84-82.6,140-82.6,88.22,0,160,71.78,160,160,0,2.23-.05,4.52-.15,6.85.1.81.15,1.64.15,2.48,0,30.59-9.66,111.39-99.13,200.87l-173.04,173.04c-7.67,7.67-17.75,11.51-27.83,11.51ZM140.04,295.25c.43,16.32,4.19,41.4,18.56,73.05,15.12,33.31,38.28,65.69,68.82,96.24l172.58,172.58,172.58-172.58c30.54-30.54,53.7-62.92,68.82-96.24,14.37-31.66,18.13-56.73,18.56-73.05-.25-1.51-.33-3.05-.23-4.61.18-2.76.27-5.46.27-8.02,0-66.17-53.83-120-120-120s-120,53.83-120,120c0,11.05-8.95,20-20,20s-20-8.95-20-20c0-66.17-53.83-120-120-120s-120,53.83-120,120c0,2.56.09,5.26.27,8.02.1,1.55.02,3.1-.23,4.61Z"/>
      <path class="cls-1" d="M140.04,295.25c.43,16.32,4.19,41.4,18.56,73.05,15.12,33.31,38.28,65.69,68.82,96.24l172.58,172.58,172.58-172.58c30.54-30.54,53.7-62.92,68.82-96.24,14.37-31.66,18.13-56.73,18.56-73.05-.25-1.51-.33-3.05-.23-4.61.18-2.76.27-5.46.27-8.02,0-66.17-53.83-120-120-120s-120,53.83-120,120c0,11.05-8.95,20-20,20s-20-8.95-20-20c0-66.17-53.83-120-120-120s-120,53.83-120,120c0,2.56.09,5.26.27,8.02.1,1.55.02,3.1-.23,4.61Z"/>
      <rect class="cls-3" width="800" height="800"/>
    </g>
  </g>
</svg>