<?xml version="1.0" encoding="UTF-8"?>
<svg id="Layer_2" data-name="Layer 2" xmlns="http://www.w3.org/2000/svg" viewBox="0 0 800 800">
  <defs>
    <style>
      .cls-1, .cls-2 {
        stroke-width: 0px;
      }

      .cls-2, .cls-3 {
        fill: none;
      }

      .cls-3 {
        stroke: #000;
        stroke-miterlimit: 10;
        stroke-width: 40px;
      }
    </style>
  </defs>
  <g id="_카메라" data-name="카메라">
    <g>
      <path class="cls-1" d="M494.89,370l13.57,28.58c7.65,16.12,11.54,33.42,11.54,51.42s-3.88,35.3-11.54,51.42h0c-9.61,20.23-24.66,37.35-43.52,49.51-19.34,12.48-41.8,19.07-64.94,19.07s-45.6-6.59-64.94-19.07c-18.86-12.16-33.91-29.28-43.52-49.5h0c-7.65-16.13-11.54-33.43-11.54-51.43s3.88-35.3,11.54-51.42l13.57-28.58H100v260c0,22.06,17.94,40,40,40h520c22.06,0,40-17.94,40-40v-260h-205.11ZM245.02,490h-105.02v-80h105.02c-3.34,12.96-5.02,26.33-5.02,40s1.68,27.04,5.02,40ZM660,490h-105.02c3.34-12.96,5.02-26.33,5.02-40s-1.68-27.04-5.02-40h105.02v80Z"/>
      <path class="cls-3" d="M526.53,390c-22.47-47.3-70.68-80-126.53-80s-104.06,32.7-126.53,80c-8.64,18.19-13.47,38.53-13.47,60s4.83,41.81,13.47,60c22.47,47.3,70.68,80,126.53,80s104.06-32.7,126.53-80c8.64-18.19,13.47-38.53,13.47-60s-4.83-41.81-13.47-60ZM436.06,510c-10.53,6.35-22.87,10-36.06,10s-25.53-3.65-36.06-10c-20.34-12.24-33.94-34.53-33.94-60s13.6-47.76,33.94-60c10.53-6.35,22.87-10,36.06-10s25.53,3.65,36.06,10c20.34,12.24,33.94,34.53,33.94,60s-13.6,47.76-33.94,60Z"/>
      <path class="cls-1" d="M470,450c0,25.47-13.6,47.76-33.94,60-10.53,6.35-22.87,10-36.06,10s-25.53-3.65-36.06-10c-20.34-12.24-33.94-34.53-33.94-60s13.6-47.76,33.94-60c10.53-6.35,22.87-10,36.06-10s25.53,3.65,36.06,10c20.34,12.24,33.94,34.53,33.94,60Z"/>
      <path class="cls-1" d="M670,230.36v-15.36c0-19.3-15.7-35-35-35h-50c-19.3,0-35,15.7-35,35v15h-2.1l-6.54-58.86c-1.97-17.75-16.93-31.14-34.79-31.14h-213.15c-17.86,0-32.81,13.39-34.79,31.13l-6.54,58.87h-117.1c-19.3,0-35,15.7-35,35v145h186.11l5.42-11.42c9.61-20.22,24.66-37.34,43.52-49.51,19.34-12.48,41.8-19.07,64.94-19.07s45.6,6.59,64.94,19.07c18.87,12.17,33.92,29.29,43.52,49.51l5.42,11.42h186.11v-145c0-17.6-13.06-32.21-30-34.64ZM590,350c-11.05,0-20-8.95-20-20s8.95-20,20-20,20,8.95,20,20-8.95,20-20,20Z"/>
      <rect class="cls-2" width="800" height="800"/>
    </g>
  </g>
</svg>