<?xml version="1.0" encoding="UTF-8"?>
<svg id="Layer_2" data-name="Layer 2" xmlns="http://www.w3.org/2000/svg" viewBox="0 0 800 800">
  <defs>
    <style>
      .cls-1, .cls-2 {
        stroke-width: 0px;
      }

      .cls-2 {
        fill: none;
      }
    </style>
  </defs>
  <g id="_캔" data-name="캔">
    <g>
      <rect class="cls-2" width="800" height="800"/>
      <path class="cls-1" d="m530,211.72h-260c-16.54,0-30-13.46-30-30,0-8.01,3.12-15.54,8.79-21.21,5.67-5.67,13.2-8.79,21.21-8.79h260c16.54,0,30,13.46,30,30,0,8.01-3.12,15.54-8.79,21.21s-13.2,8.79-21.21,8.79Zm-260-40c-2.67,0-5.18,1.04-7.07,2.93-1.89,1.89-2.93,4.4-2.93,7.07,0,5.51,4.49,10,10,10h260c2.67,0,5.18-1.04,7.07-2.93,1.89-1.89,2.93-4.4,2.93-7.07,0-5.51-4.49-10-10-10h-260Z"/>
      <path class="cls-1" d="m550,660H250c-16.54,0-30-13.46-30-30V250c0-8.01,3.12-15.55,8.79-21.21l37.07-37.07h268.28l37.07,37.07c5.67,5.67,8.79,13.2,8.79,21.21v380c0,16.54-13.46,30-30,30ZM274.14,211.72l-31.21,31.21c-1.89,1.89-2.93,4.4-2.93,7.07v380c0,5.51,4.49,10,10,10h300c5.51,0,10-4.49,10-10V250c0-2.67-1.04-5.18-2.93-7.07l-31.21-31.21h-251.72Z"/>
      <path class="cls-1" d="m510,700h-220c-9.39,0-18.36-4.49-24-12l-36-48h340l-36,48c-5.64,7.51-14.61,12-24,12Zm-240-40l12,16c1.88,2.5,4.87,4,8,4h220c3.13,0,6.12-1.5,8-4l12-16h-260Z"/>
      <path class="cls-1" d="m480.7,171.72h-84.85l62.93-62.93c11.7-11.7,30.73-11.7,42.43,0,5.66,5.65,8.79,13.19,8.79,21.21s-3.12,15.56-8.8,21.22l-20.5,20.5Zm-36.57-20h28.29l14.65-14.65c1.89-1.89,2.93-4.4,2.93-7.07s-1.04-5.18-2.92-7.06c-1.9-1.9-4.41-2.94-7.08-2.94s-5.19,1.04-7.07,2.93l-28.79,28.79Z"/>
    </g>
  </g>
</svg>