<?xml version="1.0" encoding="UTF-8"?>
<svg id="Layer_2" data-name="Layer 2" xmlns="http://www.w3.org/2000/svg" viewBox="0 0 800 800">
  <defs>
    <style>
      .cls-1, .cls-2 {
        stroke-width: 0px;
      }

      .cls-2 {
        fill: none;
      }
    </style>
  </defs>
  <g id="_페트" data-name="페트">
    <g>
      <rect class="cls-2" width="800" height="800"/>
      <path class="cls-1" d="m430,180h-60c-16.54,0-30-13.46-30-30v-20c0-16.54,13.46-30,30-30h60c16.54,0,30,13.46,30,30v20c0,16.54-13.46,30-30,30Zm-60-60c-5.51,0-10,4.49-10,10v20c0,5.51,4.49,10,10,10h60c5.51,0,10-4.49,10-10v-20c0-5.51-4.49-10-10-10h-60Z"/>
      <path class="cls-1" d="m530,520h-260v-140h260v140Zm-240-20h220v-100h-220v100Z"/>
      <path class="cls-1" d="m490,700h-55c-13.79,0-25-11.21-25-25,0-2.76-2.24-5-5-5h-10c-2.76,0-5,2.24-5,5,0,13.79-11.21,25-25,25h-55c-22.06,0-40-17.94-40-40v-160h260v160c0,22.06-17.94,40-40,40Zm-95-50h10c13.79,0,25,11.21,25,25,0,2.76,2.24,5,5,5h55c11.03,0,20-8.97,20-20v-140h-220v140c0,11.03,8.97,20,20,20h55c2.76,0,5-2.24,5-5,0-13.79,11.21-25,25-25Z"/>
      <path class="cls-1" d="m530,400h-260v-81.94c0-20.36,7-40.32,19.72-56.22l58.09-72.61c1.41-1.77,2.19-3.98,2.19-6.25v-22.98h100v22.98c0,2.26.78,4.48,2.19,6.25l58.09,72.61c12.72,15.9,19.72,35.86,19.72,56.22v81.94Zm-240-20h220v-61.94c0-15.83-5.45-31.36-15.34-43.73l-58.09-72.61c-4.24-5.3-6.57-11.95-6.57-18.74v-2.98h-60v2.98c0,6.79-2.33,13.44-6.57,18.74l-58.09,72.61c-9.89,12.36-15.34,27.89-15.34,43.73v61.94Z"/>
    </g>
  </g>
</svg>