<svg width="24" height="24" viewBox="0 0 24 24" fill="none" xmlns="http://www.w3.org/2000/svg">
<g id="&#237;&#156;&#180;&#236;&#167;&#128;&#237;&#134;&#181;">
<g id="Group">
<path id="Vector" d="M20.4 2H14.4V0.8C14.4 0.358 14.042 0 13.6 0H10.4C9.95805 0 9.60005 0.358 9.60005 0.8V2H3.60005C3.15805 2 2.80005 2.358 2.80005 2.8C2.80005 3.242 3.15805 3.6 3.60005 3.6H20.4C20.842 3.6 21.2 3.242 21.2 2.8C21.2 2.358 20.842 2 20.4 2ZM11.2 2V1.6H12.8V2H11.2Z" fill="black" fill-opacity="0.65"/>
<path id="Vector_2" d="M9.60005 20.4C10.042 20.4 10.4 20.042 10.4 19.6V8.39998C10.4 7.95798 10.042 7.59998 9.60005 7.59998C9.15805 7.59998 8.80005 7.95798 8.80005 8.39998V19.6C8.80005 20.042 9.15805 20.4 9.60005 20.4Z" fill="black" fill-opacity="0.65"/>
<path id="Vector_3" d="M14.4001 20.4C14.8421 20.4 15.2001 20.042 15.2001 19.6V8.39998C15.2001 7.95798 14.8421 7.59998 14.4001 7.59998C13.9581 7.59998 13.6001 7.95798 13.6001 8.39998V19.6C13.6001 20.042 13.9581 20.4 14.4001 20.4Z" fill="black" fill-opacity="0.65"/>
<path id="Vector_4" d="M19.6001 4H4.4001C3.9581 4 3.6001 4.358 3.6001 4.8V23.2C3.6001 23.642 3.9581 24 4.4001 24H19.6001C20.0421 24 20.4001 23.642 20.4001 23.2V4.8C20.4001 4.358 20.0421 4 19.6001 4ZM18.8001 22.4H5.2001V5.6H18.8001V22.4Z" fill="black" fill-opacity="0.65"/>
</g>
</g>
</svg>
