<svg width="92" height="92" viewBox="0 0 92 92" fill="none" xmlns="http://www.w3.org/2000/svg">
<g opacity="0.65">
<path d="M76.0449 59.9967L75.4457 56.5996C75.3353 55.974 74.7385 55.5565 74.114 55.6669L46.1046 60.605L19.3775 50.8772C18.7806 50.6598 18.1205 50.968 17.9032 51.5649C17.6858 52.1617 17.994 52.8218 18.5909 53.0392L33.2557 58.3763L17.8871 55.6669C17.2615 55.5565 16.6658 55.974 16.5554 56.5996L15.9562 59.9967C14.0829 59.6678 12.2912 60.9236 11.9611 62.7923C11.9266 62.9867 11.9082 63.1902 11.9082 63.3961C11.9082 65.0739 13.1077 66.5022 14.7591 66.7932L43.4424 71.8497C43.8426 72.8732 44.8396 73.6 46.0023 73.6C47.1649 73.6 48.162 72.8732 48.5622 71.8497L77.2443 66.7932C78.8969 66.5022 80.0963 65.0739 80.0963 63.3961C80.0963 63.1902 80.0791 62.9867 80.0446 62.7958C79.7145 60.9236 77.9217 59.6678 76.0472 59.9967H76.0449ZM73.3803 58.1314L73.7794 60.3957L47.7319 64.9888L47.3316 62.7245L73.3792 58.1314H73.3803ZM44.6671 62.7245L44.2669 64.9888L18.2194 60.3957L18.6185 58.1314L44.666 62.7245H44.6671ZM76.843 64.5277L47.3972 69.7188C46.8475 69.8154 46.4473 70.2938 46.4473 70.8515C46.4473 71.0988 46.2461 71.3 46 71.3C45.7539 71.3 45.5526 71.0988 45.5526 70.8515C45.5526 70.2938 45.1524 69.8154 44.6027 69.7188L15.157 64.5277C14.6061 64.4311 14.2071 63.955 14.2071 63.3961C14.2071 63.3248 14.2128 63.2604 14.2243 63.196C14.3232 62.6382 14.8097 62.2449 15.3571 62.2449C15.4226 62.2449 15.4893 62.2507 15.556 62.2622L16.683 62.4611C16.683 62.4611 16.6876 62.4611 16.6888 62.4623L42.5212 67.0174L44.3371 67.3371C44.6798 67.8972 45.2973 68.2709 46 68.2709C46.7026 68.2709 47.3202 67.8972 47.6628 67.3371L75.3112 62.4623L76.4427 62.2622C77.0672 62.1529 77.6652 62.5715 77.7768 63.1994C77.7883 63.2604 77.7929 63.3248 77.7929 63.3961C77.7929 63.955 77.3927 64.4311 76.8418 64.5277H76.843Z" fill="black"/>
<path d="M79.35 26.45H74.6431C72.4604 21.7028 67.6591 18.4 62.1 18.4C57.3206 18.4 52.931 20.8553 50.4137 24.8711C48.9969 24.3927 47.5168 24.15 46 24.15C44.4832 24.15 43.0066 24.3915 41.5921 24.8688C39.0759 20.8541 34.6852 18.4 29.9 18.4C24.3409 18.4 19.5396 21.7028 17.3569 26.45H12.65C12.0152 26.45 11.5 26.9652 11.5 27.6C11.5 28.2348 12.0152 28.75 12.65 28.75H16.5358C16.2518 29.8529 16.1 31.0086 16.1 32.2C16.1 39.8096 22.2905 46 29.9 46C31.7584 46 33.5616 45.6366 35.2613 44.9202C40.388 42.757 43.7 37.7637 43.7 32.2C43.7 30.3945 43.3424 28.6005 42.6604 26.9422C43.7368 26.6156 44.8558 26.45 46 26.45C47.1442 26.45 48.2655 26.6156 49.3431 26.9434C48.6576 28.6028 48.3 30.3968 48.3 32.2C48.3 37.7568 51.6132 42.7478 56.7399 44.9156C58.4407 45.6355 60.2439 46 62.1 46C69.7095 46 75.9 39.8096 75.9 32.2C75.9 31.0086 75.7482 29.8529 75.4642 28.75H79.35C79.9848 28.75 80.5 28.2348 80.5 27.6C80.5 26.9652 79.9848 26.45 79.35 26.45ZM34.3678 42.8019C32.9533 43.3976 31.4502 43.7 29.9 43.7C23.5589 43.7 18.4 38.5411 18.4 32.2C18.4 30.9983 18.5852 29.8391 18.929 28.75C19.1832 27.9416 19.5259 27.1711 19.9433 26.45C21.9339 23.015 25.6519 20.7 29.9 20.7C34.1481 20.7 38.0684 23.0483 40.0695 26.8272C40.94 28.4694 41.4 30.3267 41.4 32.2C41.4 36.8368 38.6389 40.9987 34.3678 42.8019ZM62.1 43.7C60.5544 43.7 59.0525 43.3964 57.6357 42.7973C53.3623 40.9906 50.6 36.8299 50.6 32.2C50.6 30.3313 51.0611 28.474 51.9352 26.8295C53.9396 23.0483 57.8347 20.7 62.1 20.7C66.3654 20.7 70.0661 23.015 72.0567 26.45C72.4742 27.1711 72.8169 27.9416 73.071 28.75C73.4149 29.8391 73.6 30.9983 73.6 32.2C73.6 38.5411 68.4411 43.7 62.1 43.7Z" fill="black"/>
<path d="M62.1 43.7001C60.5544 43.7001 59.0525 43.3965 57.6357 42.7973C53.3623 40.9907 50.6 36.83 50.6 32.2001C50.6 30.3313 51.0611 28.4741 51.9351 26.8296C53.9396 23.0484 57.8346 20.7001 62.1 20.7001C66.3653 20.7001 70.066 23.015 72.0567 26.4501C72.4741 27.1711 72.8168 27.9416 73.071 28.7501C73.4148 29.8391 73.6 30.9983 73.6 32.2001C73.6 38.5412 68.4411 43.7001 62.1 43.7001Z" fill="white"/>
<path d="M34.3678 42.8019C32.9533 43.3976 31.4502 43.7001 29.9 43.7001C23.5589 43.7001 18.4 38.5412 18.4 32.2001C18.4 30.9983 18.5852 29.8391 18.929 28.7501C19.1832 27.9416 19.5259 27.1711 19.9433 26.4501C21.934 23.015 25.6519 20.7001 29.9 20.7001C34.1481 20.7001 38.0685 23.0484 40.0695 26.8273C40.94 28.4695 41.4 30.3267 41.4 32.2001C41.4 36.8369 38.6389 40.9987 34.3678 42.8019Z" fill="white"/>
<path d="M73.3842 58.1238L47.3368 62.7213L47.7366 64.9863L73.7839 60.3888L73.3842 58.1238Z" fill="white"/>
<path d="M18.6205 58.1305L18.2207 60.3955L44.2681 64.993L44.6679 62.7281L18.6205 58.1305Z" fill="white"/>
<path d="M76.8431 64.5277L47.3973 69.7188C46.8476 69.8154 46.4474 70.2938 46.4474 70.8516C46.4474 71.0988 46.2462 71.3001 46.0001 71.3001C45.754 71.3001 45.5527 71.0988 45.5527 70.8516C45.5527 70.2938 45.1525 69.8154 44.6028 69.7188L15.1571 64.5277C14.6062 64.4311 14.2072 63.955 14.2072 63.3961C14.2072 63.3248 14.2129 63.2604 14.2244 63.196C14.3233 62.6383 14.8098 62.245 15.3572 62.245C15.4227 62.245 15.4894 62.2507 15.5561 62.2622L16.6831 62.4612C16.6831 62.4612 16.6877 62.4612 16.6889 62.4623L42.5213 67.0175L44.3372 67.3372C44.6799 67.8972 45.2974 68.271 46.0001 68.271C46.7027 68.271 47.3203 67.8972 47.6629 67.3372L75.3113 62.4623L76.4428 62.2622C77.0673 62.153 77.6653 62.5716 77.7769 63.1995C77.7884 63.2604 77.793 63.3248 77.793 63.3961C77.793 63.955 77.3928 64.4311 76.8419 64.5277H76.8431Z" fill="white"/>
<mask id="mask0_1623_6045" style="mask-type:luminance" maskUnits="userSpaceOnUse" x="50" y="20" width="24" height="24">
<path d="M62.1 43.7001C60.5544 43.7001 59.0525 43.3965 57.6357 42.7973C53.3623 40.9907 50.6 36.83 50.6 32.2001C50.6 30.3313 51.0611 28.4741 51.9351 26.8296C53.9396 23.0484 57.8346 20.7001 62.1 20.7001C66.3653 20.7001 70.066 23.015 72.0567 26.4501C72.4741 27.1711 72.8168 27.9416 73.071 28.7501C73.4148 29.8391 73.6 30.9983 73.6 32.2001C73.6 38.5412 68.4411 43.7001 62.1 43.7001Z" fill="white"/>
</mask>
<g mask="url(#mask0_1623_6045)">
<path d="M54.8632 17.5865L53.2368 19.2129L76.2366 42.2127L77.8629 40.5863L54.8632 17.5865Z" fill="white"/>
<path d="M56.7565 15.6939L55.9434 16.5071L78.9431 39.5069L79.7563 38.6937L56.7565 15.6939Z" fill="white"/>
</g>
</g>
</svg>
