<svg width="100" height="100" viewBox="0 0 100 100" fill="none" xmlns="http://www.w3.org/2000/svg">
<g id="&#236;&#155;&#131;&#236;&#150;&#180;&#235;&#165;&#184;">
<g id="hover">
<path id="Vector" d="M82.6575 65.2137L82.0062 61.5212C81.8862 60.8412 81.2375 60.3874 80.5587 60.5074L50.1137 65.8749L21.0625 55.3012C20.4137 55.0649 19.6962 55.3999 19.46 56.0487C19.2237 56.6974 19.5587 57.4149 20.2075 57.6512L36.1475 63.4524L19.4425 60.5074C18.7625 60.3874 18.115 60.8412 17.995 61.5212L17.3437 65.2137C15.3075 64.8562 13.36 66.2212 13.0012 68.2524C12.9637 68.4637 12.9437 68.6849 12.9437 68.9087C12.9437 70.7324 14.2475 72.2849 16.0425 72.6012L47.22 78.0974C47.655 79.2099 48.7387 79.9999 50.0025 79.9999C51.2662 79.9999 52.35 79.2099 52.785 78.0974L83.9612 72.6012C85.7575 72.2849 87.0612 70.7324 87.0612 68.9087C87.0612 68.6849 87.0425 68.4637 87.005 68.2562C86.6462 66.2212 84.6975 64.8562 82.66 65.2137H82.6575ZM79.7612 63.1862L80.195 65.6474L51.8825 70.6399L51.4475 68.1787L79.76 63.1862H79.7612ZM48.5512 68.1787L48.1162 70.6399L19.8037 65.6474L20.2375 63.1862L48.55 68.1787H48.5512ZM83.525 70.1387L51.5187 75.7812C50.9212 75.8862 50.4862 76.4062 50.4862 77.0124C50.4862 77.2812 50.2675 77.4999 50 77.4999C49.7325 77.4999 49.5137 77.2812 49.5137 77.0124C49.5137 76.4062 49.0787 75.8862 48.4812 75.7812L16.475 70.1387C15.8762 70.0337 15.4425 69.5162 15.4425 68.9087C15.4425 68.8312 15.4487 68.7612 15.4612 68.6912C15.5687 68.0849 16.0975 67.6574 16.6925 67.6574C16.7637 67.6574 16.8362 67.6637 16.9087 67.6762L18.1337 67.8924C18.1337 67.8924 18.1387 67.8924 18.14 67.8937L46.2187 72.8449L48.1925 73.1924C48.565 73.8012 49.2362 74.2074 50 74.2074C50.7637 74.2074 51.435 73.8012 51.8075 73.1924L81.86 67.8937L83.09 67.6762C83.7687 67.5574 84.4187 68.0124 84.54 68.6949C84.5525 68.7612 84.5575 68.8312 84.5575 68.9087C84.5575 69.5162 84.1225 70.0337 83.5237 70.1387H83.525Z" fill="black"/>
<path id="Vector_2" d="M86.25 28.75H81.1338C78.7613 23.59 73.5425 20 67.5 20C62.305 20 57.5338 22.6688 54.7975 27.0338C53.2575 26.5138 51.6488 26.25 50 26.25C48.3512 26.25 46.7463 26.5125 45.2088 27.0312C42.4738 22.6675 37.7013 20 32.5 20C26.4575 20 21.2387 23.59 18.8662 28.75H13.75C13.06 28.75 12.5 29.31 12.5 30C12.5 30.69 13.06 31.25 13.75 31.25H17.9737C17.665 32.4487 17.5 33.705 17.5 35C17.5 43.2712 24.2288 50 32.5 50C34.52 50 36.48 49.605 38.3275 48.8262C43.9 46.475 47.5 41.0475 47.5 35C47.5 33.0375 47.1112 31.0875 46.37 29.285C47.54 28.93 48.7562 28.75 50 28.75C51.2438 28.75 52.4625 28.93 53.6338 29.2862C52.8888 31.09 52.5 33.04 52.5 35C52.5 41.04 56.1012 46.465 61.6738 48.8213C63.5225 49.6038 65.4825 50 67.5 50C75.7712 50 82.5 43.2712 82.5 35C82.5 33.705 82.335 32.4487 82.0263 31.25H86.25C86.94 31.25 87.5 30.69 87.5 30C87.5 29.31 86.94 28.75 86.25 28.75ZM37.3563 46.5238C35.8188 47.1712 34.185 47.5 32.5 47.5C25.6075 47.5 20 41.8925 20 35C20 33.6938 20.2013 32.4338 20.575 31.25C20.8513 30.3713 21.2238 29.5337 21.6775 28.75C23.8412 25.0162 27.8825 22.5 32.5 22.5C37.1175 22.5 41.3787 25.0525 43.5537 29.16C44.5 30.945 45 32.9637 45 35C45 40.04 41.9988 44.5638 37.3563 46.5238ZM67.5 47.5C65.82 47.5 64.1875 47.17 62.6475 46.5187C58.0025 44.555 55 40.0325 55 35C55 32.9688 55.5012 30.95 56.4512 29.1625C58.63 25.0525 62.8638 22.5 67.5 22.5C72.1362 22.5 76.1588 25.0162 78.3225 28.75C78.7763 29.5337 79.1488 30.3713 79.425 31.25C79.7988 32.4338 80 33.6938 80 35C80 41.8925 74.3925 47.5 67.5 47.5Z" fill="black"/>
<path id="Vector_3" d="M67.5 47.5C65.82 47.5 64.1875 47.17 62.6475 46.5187C58.0025 44.555 55 40.0325 55 35C55 32.9688 55.5012 30.95 56.4512 29.1625C58.63 25.0525 62.8637 22.5 67.5 22.5C72.1362 22.5 76.1588 25.0162 78.3225 28.75C78.7763 29.5338 79.1488 30.3713 79.425 31.25C79.7988 32.4338 80 33.6938 80 35C80 41.8925 74.3925 47.5 67.5 47.5Z" fill="#D7E2F2"/>
<path id="Vector_4" d="M37.3563 46.5238C35.8188 47.1712 34.185 47.5 32.5 47.5C25.6075 47.5 20 41.8925 20 35C20 33.6938 20.2013 32.4338 20.575 31.25C20.8513 30.3713 21.2237 29.5338 21.6775 28.75C23.8412 25.0162 27.8825 22.5 32.5 22.5C37.1175 22.5 41.3787 25.0525 43.5537 29.16C44.5 30.945 45 32.9637 45 35C45 40.04 41.9988 44.5638 37.3563 46.5238Z" fill="#D7E2F2"/>
<path id="Vector_5" d="M79.7654 63.178L51.453 68.1753L51.8876 70.6372L80.1999 65.6399L79.7654 63.178Z" fill="white"/>
<path id="Vector_6" d="M20.2397 63.1854L19.8052 65.6473L48.1175 70.6447L48.5521 68.1827L20.2397 63.1854Z" fill="white"/>
<path id="Vector_7" d="M83.525 70.1388L51.5188 75.7813C50.9213 75.8863 50.4863 76.4063 50.4863 77.0126C50.4863 77.2813 50.2675 77.5001 50 77.5001C49.7325 77.5001 49.5138 77.2813 49.5138 77.0126C49.5138 76.4063 49.0788 75.8863 48.4813 75.7813L16.475 70.1388C15.8763 70.0338 15.4425 69.5163 15.4425 68.9088C15.4425 68.8313 15.4488 68.7613 15.4613 68.6913C15.5688 68.0851 16.0975 67.6576 16.6925 67.6576C16.7638 67.6576 16.8363 67.6638 16.9088 67.6763L18.1338 67.8926C18.1338 67.8926 18.1388 67.8926 18.14 67.8938L46.2188 72.8451L48.1925 73.1926C48.565 73.8013 49.2363 74.2076 50 74.2076C50.7638 74.2076 51.435 73.8013 51.8075 73.1926L81.86 67.8938L83.09 67.6763C83.7688 67.5576 84.4188 68.0126 84.54 68.6951C84.5525 68.7613 84.5575 68.8313 84.5575 68.9088C84.5575 69.5163 84.1225 70.0338 83.5238 70.1388H83.525Z" fill="#B5C1A7"/>
<g id="Clip path group">
<mask id="mask0_1492_1648" style="mask-type:luminance" maskUnits="userSpaceOnUse" x="55" y="22" width="25" height="26">
<g id="clippath">
<path id="Vector_8" d="M67.5 47.5C65.82 47.5 64.1875 47.17 62.6475 46.5187C58.0025 44.555 55 40.0325 55 35C55 32.9688 55.5012 30.95 56.4512 29.1625C58.63 25.0525 62.8637 22.5 67.5 22.5C72.1362 22.5 76.1588 25.0162 78.3225 28.75C78.7763 29.5338 79.1488 30.3713 79.425 31.25C79.7988 32.4338 80 33.6938 80 35C80 41.8925 74.3925 47.5 67.5 47.5Z" fill="white"/>
</g>
</mask>
<g mask="url(#mask0_1492_1648)">
<g id="Group">
<g id="Group_2">
<path id="Vector_9" d="M59.6339 19.1158L57.8661 20.8835L82.8659 45.8833L84.6336 44.1155L59.6339 19.1158Z" fill="white"/>
<path id="Vector_10" d="M61.6919 17.0585L60.808 17.9424L85.8078 42.9421L86.6917 42.0583L61.6919 17.0585Z" fill="white"/>
</g>
</g>
</g>
</g>
</g>
</g>
</svg>
