<svg width="92" height="92" viewBox="0 0 92 92" fill="none" xmlns="http://www.w3.org/2000/svg">
<g opacity="0.65">
<path d="M54.05 79.3501C68.0228 79.3501 79.35 68.0229 79.35 54.0501C79.35 40.0773 68.0228 28.7501 54.05 28.7501C40.0772 28.7501 28.75 40.0773 28.75 54.0501C28.75 68.0229 40.0772 79.3501 54.05 79.3501Z" fill="white"/>
<path d="M54.05 80.5001C46.9844 80.5001 40.3431 77.7493 35.3475 72.7525C30.3519 67.757 27.6 61.1145 27.6 54.0501C27.6 46.9856 30.3508 40.3432 35.3475 35.3476C40.3431 30.352 46.9855 27.6001 54.05 27.6001C61.1144 27.6001 67.7568 30.3509 72.7524 35.3476C77.748 40.3432 80.5 46.9856 80.5 54.0501C80.5 61.1145 77.7492 67.757 72.7524 72.7525C67.7568 77.7481 61.1144 80.5001 54.05 80.5001ZM54.05 29.9001C40.7341 29.9001 29.9 40.7342 29.9 54.0501C29.9 67.3659 40.7341 78.2001 54.05 78.2001C67.3658 78.2001 78.2 67.3659 78.2 54.0501C78.2 40.7342 67.3658 29.9001 54.05 29.9001Z" fill="black"/>
<path d="M17.25 37.9499C19.7905 37.9499 21.85 36.4053 21.85 34.4999C21.85 32.5945 19.7905 31.0499 17.25 31.0499C14.7095 31.0499 12.65 32.5945 12.65 34.4999C12.65 36.4053 14.7095 37.9499 17.25 37.9499Z" fill="white"/>
<path d="M17.25 39.0999C14.0795 39.0999 11.5 37.0368 11.5 34.4999C11.5 31.963 14.0795 29.8999 17.25 29.8999C20.4206 29.8999 23 31.963 23 34.4999C23 37.0368 20.4206 39.0999 17.25 39.0999ZM17.25 32.1999C15.3801 32.1999 13.8 33.2533 13.8 34.4999C13.8 35.7465 15.3801 36.7999 17.25 36.7999C19.1199 36.7999 20.7 35.7465 20.7 34.4999C20.7 33.2533 19.1199 32.1999 17.25 32.1999Z" fill="black"/>
<path d="M31.05 32.1999C33.5905 32.1999 35.65 30.6553 35.65 28.7499C35.65 26.8445 33.5905 25.2999 31.05 25.2999C28.5095 25.2999 26.45 26.8445 26.45 28.7499C26.45 30.6553 28.5095 32.1999 31.05 32.1999Z" fill="white"/>
<path d="M31.05 33.3499C27.8794 33.3499 25.3 31.2868 25.3 28.7499C25.3 26.213 27.8794 24.1499 31.05 24.1499C34.2205 24.1499 36.8 26.213 36.8 28.7499C36.8 31.2868 34.2205 33.3499 31.05 33.3499ZM31.05 26.4499C29.1801 26.4499 27.6 27.5033 27.6 28.7499C27.6 29.9965 29.1801 31.0499 31.05 31.0499C32.9199 31.0499 34.5 29.9965 34.5 28.7499C34.5 27.5033 32.9199 26.4499 31.05 26.4499Z" fill="black"/>
<path d="M40.9308 51.7499C37.5383 51.7499 34.7024 50.5873 33.7054 48.7875C33.3972 48.2321 33.5984 47.5317 34.1539 47.2247C34.7093 46.9165 35.4097 47.1177 35.7167 47.6732C36.194 48.5345 38.1835 49.4511 40.9308 49.4511C43.6782 49.4511 45.6677 48.5357 46.1449 47.6732C46.4531 47.1177 47.1523 46.9165 47.7078 47.2247C48.2632 47.5329 48.4645 48.2321 48.1563 48.7875C47.1592 50.5873 44.3222 51.7499 40.9308 51.7499Z" fill="black"/>
<path d="M61.5158 51.7499C58.1233 51.7499 55.2874 50.5873 54.2903 48.7875C53.9821 48.2321 54.1834 47.5317 54.7388 47.2247C55.2943 46.9165 55.9946 47.1177 56.3017 47.6732C56.7789 48.5345 58.7684 49.4511 61.5158 49.4511C64.2631 49.4511 66.2526 48.5357 66.7299 47.6732C67.0381 47.1177 67.7373 46.9165 68.2927 47.2247C68.8482 47.5329 69.0494 48.2321 68.7412 48.7875C67.7442 50.5873 64.9071 51.7499 61.5158 51.7499Z" fill="black"/>
<path d="M51.7408 64.4001C48.0251 64.4001 44.8224 62.7315 43.7724 60.2486C43.5252 59.6633 43.7989 58.9894 44.3831 58.741C44.9684 58.4937 45.6423 58.7674 45.8907 59.3516C46.5646 60.9444 49.0245 62.1001 51.7419 62.1001C54.4594 62.1001 56.9192 60.9444 57.5931 59.3516C57.8404 58.7663 58.5154 58.4926 59.1008 58.741C59.6861 58.9882 59.9598 59.6633 59.7114 60.2486C58.6615 62.7326 55.4587 64.4001 51.7431 64.4001H51.7408Z" fill="black"/>
<path d="M21.85 35.65C21.2152 35.65 20.7 35.1348 20.7 34.5V18.4C20.7 17.9354 20.9795 17.5168 21.4073 17.3385L35.2073 11.5885C35.5626 11.4402 35.9674 11.4804 36.2871 11.6932C36.6068 11.9059 36.7989 12.2659 36.7989 12.65V28.75C36.7989 29.3848 36.2837 29.9 35.6489 29.9C35.0141 29.9 34.4989 29.3848 34.4989 28.75V14.375L22.9989 19.167V34.5C22.9989 35.1348 22.4837 35.65 21.8489 35.65H21.85Z" fill="black"/>
</g>
</svg>
