<svg width="100" height="100" viewBox="0 0 100 100" fill="none" xmlns="http://www.w3.org/2000/svg">
<path d="M58.75 86.25C73.9378 86.25 86.25 73.9378 86.25 58.75C86.25 43.5622 73.9378 31.25 58.75 31.25C43.5622 31.25 31.25 43.5622 31.25 58.75C31.25 73.9378 43.5622 86.25 58.75 86.25Z" fill="#F9C8B7"/>
<path d="M58.75 87.5C51.07 87.5 43.8512 84.51 38.4212 79.0788C32.9912 73.6488 30 66.4287 30 58.75C30 51.0713 32.99 43.8512 38.4212 38.4212C43.8512 32.9912 51.0713 30 58.75 30C66.4287 30 73.6488 32.99 79.0788 38.4212C84.5088 43.8512 87.5 51.0713 87.5 58.75C87.5 66.4287 84.51 73.6488 79.0788 79.0788C73.6488 84.5088 66.4287 87.5 58.75 87.5ZM58.75 32.5C44.2762 32.5 32.5 44.2762 32.5 58.75C32.5 73.2238 44.2762 85 58.75 85C73.2238 85 85 73.2238 85 58.75C85 44.2762 73.2238 32.5 58.75 32.5Z" fill="black"/>
<path d="M18.75 41.25C21.5114 41.25 23.75 39.5711 23.75 37.5C23.75 35.4289 21.5114 33.75 18.75 33.75C15.9886 33.75 13.75 35.4289 13.75 37.5C13.75 39.5711 15.9886 41.25 18.75 41.25Z" fill="#707070"/>
<path d="M18.75 42.5C15.3038 42.5 12.5 40.2575 12.5 37.5C12.5 34.7425 15.3038 32.5 18.75 32.5C22.1962 32.5 25 34.7425 25 37.5C25 40.2575 22.1962 42.5 18.75 42.5ZM18.75 35C16.7175 35 15 36.145 15 37.5C15 38.855 16.7175 40 18.75 40C20.7825 40 22.5 38.855 22.5 37.5C22.5 36.145 20.7825 35 18.75 35Z" fill="black"/>
<path d="M33.75 35C36.5114 35 38.75 33.3211 38.75 31.25C38.75 29.1789 36.5114 27.5 33.75 27.5C30.9886 27.5 28.75 29.1789 28.75 31.25C28.75 33.3211 30.9886 35 33.75 35Z" fill="#707070"/>
<path d="M33.75 36.25C30.3037 36.25 27.5 34.0075 27.5 31.25C27.5 28.4925 30.3037 26.25 33.75 26.25C37.1962 26.25 40 28.4925 40 31.25C40 34.0075 37.1962 36.25 33.75 36.25ZM33.75 28.75C31.7175 28.75 30 29.895 30 31.25C30 32.605 31.7175 33.75 33.75 33.75C35.7825 33.75 37.5 32.605 37.5 31.25C37.5 29.895 35.7825 28.75 33.75 28.75Z" fill="black"/>
<path d="M44.49 56.25C40.8025 56.25 37.72 54.9862 36.6362 53.03C36.3012 52.4262 36.52 51.665 37.1237 51.3312C37.7275 50.9962 38.4887 51.215 38.8225 51.8187C39.3412 52.755 41.5037 53.7512 44.49 53.7512C47.4762 53.7512 49.6387 52.7562 50.1575 51.8187C50.4925 51.215 51.2525 50.9962 51.8562 51.3312C52.46 51.6662 52.6787 52.4262 52.3437 53.03C51.26 54.9862 48.1762 56.25 44.49 56.25Z" fill="black"/>
<path d="M66.865 56.25C63.1775 56.25 60.095 54.9862 59.0112 53.03C58.6762 52.4262 58.895 51.665 59.4987 51.3312C60.1025 50.9962 60.8637 51.215 61.1975 51.8187C61.7162 52.755 63.8787 53.7512 66.865 53.7512C69.8512 53.7512 72.0137 52.7562 72.5325 51.8187C72.8675 51.215 73.6275 50.9962 74.2312 51.3312C74.835 51.6662 75.0537 52.4262 74.7187 53.03C73.635 54.9862 70.5512 56.25 66.865 56.25Z" fill="black"/>
<path d="M56.24 70.0001C52.2013 70.0001 48.72 68.1863 47.5788 65.4876C47.31 64.8513 47.6075 64.1188 48.2425 63.8488C48.8788 63.5801 49.6113 63.8776 49.8813 64.5126C50.6138 66.2438 53.2875 67.5001 56.2413 67.5001C59.195 67.5001 61.8688 66.2438 62.6013 64.5126C62.87 63.8763 63.6038 63.5788 64.24 63.8488C64.8763 64.1176 65.1738 64.8513 64.9038 65.4876C63.7625 68.1876 60.2813 70.0001 56.2425 70.0001H56.24Z" fill="black"/>
<path d="M23.75 38.75C23.06 38.75 22.5 38.19 22.5 37.5V20C22.5 19.495 22.8037 19.04 23.2687 18.8462L38.2688 12.5962C38.655 12.435 39.095 12.4787 39.4425 12.71C39.79 12.9412 39.9988 13.3325 39.9988 13.75V31.25C39.9988 31.94 39.4388 32.5 38.7488 32.5C38.0588 32.5 37.4988 31.94 37.4988 31.25V15.625L24.9988 20.8337V37.5C24.9988 38.19 24.4388 38.75 23.7488 38.75H23.75Z" fill="black"/>
</svg>
