<svg width="92" height="92" viewBox="0 0 92 92" fill="none" xmlns="http://www.w3.org/2000/svg">
<g opacity="0.65">
<path d="M46 79.35H45.5872C45.1076 79.35 44.6407 79.2005 44.2509 78.9211L30.0714 68.793C29.2802 68.2272 28.9294 67.2256 29.1962 66.2895L39.9717 28.5741C40.1488 27.9531 40.0568 27.2861 39.7187 26.7364L33.2074 16.1552C32.2644 14.6223 33.3673 12.65 35.1659 12.65H46H56.8342C58.6339 12.65 59.7356 14.6234 58.7926 16.1552L52.2813 26.7364C51.9432 27.2861 51.8512 27.9531 52.0283 28.5741L62.8038 66.2895C63.0706 67.2244 62.721 68.2272 61.9287 68.793L47.7492 78.9211C47.3593 79.1994 46.8913 79.35 46.4129 79.35H46Z" fill="white"/>
<path d="M46.4129 80.5H45.5872C44.8638 80.5 44.1704 80.278 43.5816 79.8571L29.4021 69.7291C28.2176 68.8827 27.6897 67.3739 28.0899 65.9743L38.8654 28.2589C38.954 27.9496 38.908 27.615 38.7389 27.3401L32.2276 16.7589C31.5629 15.6791 31.5353 14.375 32.154 13.2676C32.7727 12.1613 33.8986 11.5 35.1659 11.5H56.8342C58.1015 11.5 59.2273 12.1601 59.846 13.2676C60.4647 14.3739 60.4371 15.6791 59.7724 16.7589L53.2611 27.3401C53.0921 27.6138 53.0461 27.9496 53.1346 28.2589L63.9101 65.9743C64.3103 67.3739 63.7825 68.8827 62.598 69.7291L48.4185 79.8571C47.8297 80.278 47.1362 80.5 46.4129 80.5ZM35.1659 13.8C34.5564 13.8 34.2608 14.2117 34.1619 14.3888C34.063 14.5659 33.8675 15.034 34.1861 15.5526L40.6974 26.1337C41.2034 26.956 41.3414 27.9611 41.0769 28.8892L30.3014 66.6045C30.168 67.0714 30.3439 67.574 30.7384 67.8558L44.9179 77.9838C45.1145 78.1241 45.3457 78.1977 45.586 78.1977H46.4117C46.6532 78.1977 46.8844 78.1241 47.0799 77.9838L61.2594 67.8558C61.6538 67.574 61.8298 67.0703 61.6964 66.6045L50.9209 28.8892C50.6552 27.96 50.7932 26.956 51.3004 26.1337L57.8117 15.5526C58.1314 15.034 57.9347 14.5659 57.8358 14.3888C57.7369 14.2117 57.4414 13.8 56.8319 13.8H35.1636H35.1659Z" fill="black"/>
<mask id="mask0_1623_5952" style="mask-type:luminance" maskUnits="userSpaceOnUse" x="29" y="12" width="34" height="68">
<path d="M46 79.35H45.5872C45.1076 79.35 44.6407 79.2005 44.2509 78.9211L30.0714 68.793C29.2802 68.2272 28.9294 67.2256 29.1962 66.2895L39.9717 28.5741C40.1488 27.9531 40.0568 27.2861 39.7187 26.7364L33.2074 16.1552C32.2644 14.6223 33.3673 12.65 35.1659 12.65H46H56.8342C58.6339 12.65 59.7356 14.6234 58.7926 16.1552L52.2813 26.7364C51.9432 27.2861 51.8512 27.9531 52.0283 28.5741L62.8038 66.2895C63.0706 67.2244 62.721 68.2272 61.9287 68.793L47.7492 78.9211C47.3593 79.1994 46.8913 79.35 46.4129 79.35H46Z" fill="white"/>
</mask>
<g mask="url(#mask0_1623_5952)">
<path d="M36.8023 81.6501C36.0893 81.6501 35.3855 81.3189 34.9359 80.6967C34.1918 79.6675 34.4241 78.2288 35.4534 77.4859L76.8534 47.5859C77.8838 46.8418 79.3213 47.0741 80.0642 48.1034C80.8082 49.1326 80.5759 50.5713 79.5467 51.3142L38.1467 81.2142C37.7396 81.5086 37.2681 81.6501 36.8023 81.6501Z" fill="white"/>
<path d="M25.3023 81.6501C24.5893 81.6501 23.8855 81.3189 23.4359 80.6967C22.6918 79.6675 22.9241 78.2288 23.9534 77.4859L65.3534 47.5859C66.3838 46.8418 67.8213 47.0741 68.5642 48.1034C69.3082 49.1326 69.0759 50.5713 68.0467 51.3142L26.6467 81.2142C26.2396 81.5086 25.7681 81.6501 25.3023 81.6501Z" fill="white"/>
</g>
<path d="M46.4129 80.5H45.5872C44.8638 80.5 44.1704 80.278 43.5816 79.8571L29.4021 69.7291C28.2176 68.8827 27.6897 67.3739 28.0899 65.9743L38.8654 28.2589C38.954 27.9496 38.908 27.615 38.7389 27.3401L32.2276 16.7589C31.5629 15.6791 31.5353 14.375 32.154 13.2676C32.7727 12.1613 33.8986 11.5 35.1659 11.5H56.8342C58.1015 11.5 59.2273 12.1601 59.846 13.2676C60.4647 14.3739 60.4371 15.6791 59.7724 16.7589L53.2611 27.3401C53.0921 27.6138 53.0461 27.9496 53.1346 28.2589L63.9101 65.9743C64.3103 67.3739 63.7825 68.8827 62.598 69.7291L48.4185 79.8571C47.8297 80.278 47.1362 80.5 46.4129 80.5ZM35.1659 13.8C34.5564 13.8 34.2608 14.2117 34.1619 14.3888C34.063 14.5659 33.8675 15.034 34.1861 15.5526L40.6974 26.1337C41.2034 26.956 41.3414 27.9611 41.0769 28.8892L30.3014 66.6045C30.168 67.0714 30.3439 67.574 30.7384 67.8558L44.9179 77.9838C45.1145 78.1241 45.3457 78.1977 45.586 78.1977H46.4117C46.6532 78.1977 46.8844 78.1241 47.0799 77.9838L61.2594 67.8558C61.6538 67.574 61.8298 67.0703 61.6964 66.6045L50.9209 28.8892C50.6552 27.96 50.7932 26.956 51.3004 26.1337L57.8117 15.5526C58.1314 15.034 57.9347 14.5659 57.8358 14.3888C57.7369 14.2117 57.4414 13.8 56.8319 13.8H35.1636H35.1659Z" fill="black"/>
</g>
</svg>
