<svg width="100" height="100" viewBox="0 0 100 100" fill="none" xmlns="http://www.w3.org/2000/svg">
<g id="&#235;&#185;&#132;&#236;&#166;&#136;&#235;&#139;&#136;&#236;&#138;&#164;">
<g id="hover">
<g id="Group">
<path id="Vector" d="M50 86.25H49.5513C49.03 86.25 48.5225 86.0875 48.0988 85.7838L32.6863 74.775C31.8263 74.16 31.445 73.0713 31.735 72.0537L43.4475 31.0588C43.64 30.3838 43.54 29.6588 43.1725 29.0613L36.095 17.56C35.07 15.8937 36.2688 13.75 38.2238 13.75H50H61.7763C63.7325 13.75 64.93 15.895 63.905 17.56L56.8275 29.0613C56.46 29.6588 56.36 30.3838 56.5525 31.0588L68.265 72.0537C68.555 73.07 68.175 74.16 67.3138 74.775L51.9013 85.7838C51.4775 86.0863 50.9688 86.25 50.4488 86.25H50Z" fill="#67658E"/>
<path id="Vector_2" d="M50.4488 87.5H49.5513C48.765 87.5 48.0113 87.2587 47.3713 86.8012L31.9588 75.7925C30.6713 74.8725 30.0975 73.2325 30.5325 71.7113L42.245 30.7162C42.3413 30.38 42.2913 30.0163 42.1075 29.7175L35.03 18.2162C34.3075 17.0425 34.2775 15.625 34.95 14.4213C35.6225 13.2188 36.8463 12.5 38.2238 12.5H61.7763C63.1538 12.5 64.3775 13.2175 65.05 14.4213C65.7225 15.6238 65.6925 17.0425 64.97 18.2162L57.8925 29.7175C57.7088 30.015 57.6588 30.38 57.755 30.7162L69.4675 71.7113C69.9025 73.2325 69.3288 74.8725 68.0413 75.7925L52.6288 86.8012C51.9888 87.2587 51.235 87.5 50.4488 87.5ZM38.2238 15C37.5613 15 37.24 15.4475 37.1325 15.64C37.025 15.8325 36.8125 16.3413 37.1588 16.905L44.2363 28.4062C44.7863 29.3 44.9363 30.3925 44.6488 31.4013L32.9363 72.3962C32.7913 72.9037 32.9825 73.45 33.4113 73.7562L48.8238 84.765C49.0375 84.9175 49.2888 84.9975 49.55 84.9975H50.4475C50.71 84.9975 50.9613 84.9175 51.1738 84.765L66.5863 73.7562C67.015 73.45 67.2063 72.9025 67.0613 72.3962L55.3488 31.4013C55.06 30.3913 55.21 29.3 55.7613 28.4062L62.8388 16.905C63.1863 16.3413 62.9725 15.8325 62.865 15.64C62.7575 15.4475 62.4363 15 61.7738 15H38.2213H38.2238Z" fill="black"/>
</g>
<g id="Clip path group">
<mask id="mask0_1492_809" style="mask-type:luminance" maskUnits="userSpaceOnUse" x="31" y="13" width="38" height="74">
<g id="clippath">
<path id="Vector_3" d="M50 86.25H49.5513C49.03 86.25 48.5225 86.0875 48.0988 85.7838L32.6863 74.775C31.8263 74.16 31.445 73.0713 31.735 72.0537L43.4475 31.0588C43.64 30.3838 43.54 29.6588 43.1725 29.0613L36.095 17.56C35.07 15.8937 36.2688 13.75 38.2238 13.75H50H61.7763C63.7325 13.75 64.93 15.895 63.905 17.56L56.8275 29.0613C56.46 29.6588 56.36 30.3838 56.5525 31.0588L68.265 72.0537C68.555 73.07 68.175 74.16 67.3138 74.775L51.9013 85.7838C51.4775 86.0863 50.9688 86.25 50.4488 86.25H50Z" fill="white"/>
</g>
</mask>
<g mask="url(#mask0_1492_809)">
<g id="Group_2">
<g id="Group_3">
<path id="Vector_4" d="M40.0025 88.75C39.2275 88.75 38.4625 88.39 37.9738 87.7138C37.165 86.595 37.4175 85.0313 38.5363 84.2238L83.5363 51.7238C84.6563 50.915 86.2188 51.1675 87.0263 52.2863C87.835 53.405 87.5825 54.9688 86.4638 55.7763L41.4638 88.2763C41.0213 88.5963 40.5088 88.75 40.0025 88.75Z" fill="white"/>
<path id="Vector_5" d="M27.5025 88.75C26.7275 88.75 25.9625 88.39 25.4738 87.7138C24.665 86.595 24.9175 85.0313 26.0363 84.2238L71.0363 51.7238C72.1563 50.915 73.7188 51.1675 74.5263 52.2863C75.335 53.405 75.0825 54.9688 73.9638 55.7763L28.9638 88.2763C28.5213 88.5963 28.0088 88.75 27.5025 88.75Z" fill="white"/>
</g>
</g>
</g>
</g>
<path id="Vector_6" d="M50.4488 87.5H49.5513C48.765 87.5 48.0113 87.2587 47.3713 86.8012L31.9588 75.7925C30.6713 74.8725 30.0975 73.2325 30.5325 71.7113L42.245 30.7162C42.3413 30.38 42.2913 30.0163 42.1075 29.7175L35.03 18.2162C34.3075 17.0425 34.2775 15.625 34.95 14.4213C35.6225 13.2188 36.8463 12.5 38.2238 12.5H61.7763C63.1538 12.5 64.3775 13.2175 65.05 14.4213C65.7225 15.6238 65.6925 17.0425 64.97 18.2162L57.8925 29.7175C57.7088 30.015 57.6588 30.38 57.755 30.7162L69.4675 71.7113C69.9025 73.2325 69.3288 74.8725 68.0413 75.7925L52.6288 86.8012C51.9888 87.2587 51.235 87.5 50.4488 87.5ZM38.2238 15C37.5613 15 37.24 15.4475 37.1325 15.64C37.025 15.8325 36.8125 16.3413 37.1588 16.905L44.2363 28.4062C44.7863 29.3 44.9363 30.3925 44.6488 31.4013L32.9363 72.3962C32.7913 72.9037 32.9825 73.45 33.4113 73.7562L48.8238 84.765C49.0375 84.9175 49.2888 84.9975 49.55 84.9975H50.4475C50.71 84.9975 50.9613 84.9175 51.1738 84.765L66.5863 73.7562C67.015 73.45 67.2063 72.9025 67.0613 72.3962L55.3488 31.4013C55.06 30.3913 55.21 29.3 55.7613 28.4062L62.8388 16.905C63.1863 16.3413 62.9725 15.8325 62.865 15.64C62.7575 15.4475 62.4363 15 61.7738 15H38.2213H38.2238Z" fill="black"/>
</g>
</g>
</svg>
