<svg width="100" height="100" viewBox="0 0 100 100" fill="none" xmlns="http://www.w3.org/2000/svg">
<g id="&#236;&#185;&#156;&#234;&#181;&#172;">
<g id="hover">
<g id="Group">
<path id="Vector" d="M36.25 86.25C48.6764 86.25 58.75 76.1764 58.75 63.75C58.75 51.3236 48.6764 41.25 36.25 41.25C23.8236 41.25 13.75 51.3236 13.75 63.75C13.75 76.1764 23.8236 86.25 36.25 86.25Z" fill="#FFD9B3"/>
<path id="Vector_2" d="M36.25 87.5C23.1538 87.5 12.5 76.8462 12.5 63.75C12.5 50.6538 23.1538 40 36.25 40C49.3462 40 60 50.6538 60 63.75C60 76.8462 49.3462 87.5 36.25 87.5ZM36.25 42.5C24.5325 42.5 15 52.0325 15 63.75C15 75.4675 24.5325 85 36.25 85C47.9675 85 57.5 75.4675 57.5 63.75C57.5 52.0325 47.9675 42.5 36.25 42.5Z" fill="black"/>
</g>
<g id="Group_2">
<path id="Vector_3" d="M63.75 58.75C76.1764 58.75 86.25 48.6764 86.25 36.25C86.25 23.8236 76.1764 13.75 63.75 13.75C51.3236 13.75 41.25 23.8236 41.25 36.25C41.25 48.6764 51.3236 58.75 63.75 58.75Z" fill="#C3B1E9"/>
<path id="Vector_4" d="M63.75 60C50.6538 60 40 49.3462 40 36.25C40 23.1538 50.6538 12.5 63.75 12.5C76.8462 12.5 87.5 23.1538 87.5 36.25C87.5 49.3462 76.8462 60 63.75 60ZM63.75 15C52.0325 15 42.5 24.5325 42.5 36.25C42.5 47.9675 52.0325 57.5 63.75 57.5C75.4675 57.5 85 47.9675 85 36.25C85 24.5325 75.4675 15 63.75 15Z" fill="black"/>
</g>
<g id="Group_3">
<path id="Vector_5" d="M36.25 76.25C40.3921 76.25 43.75 74.0114 43.75 71.25C43.75 68.4886 40.3921 66.25 36.25 66.25C32.1079 66.25 28.75 68.4886 28.75 71.25C28.75 74.0114 32.1079 76.25 36.25 76.25Z" fill="#FF8080"/>
<path id="Vector_6" d="M36.25 77.5C31.3438 77.5 27.5 74.755 27.5 71.25C27.5 69.7688 27.5 68.0888 28.82 66.815C30.12 65.56 32.4125 65 36.25 65C40.0875 65 42.38 65.56 43.68 66.815C45 68.0888 45 69.7675 45 71.25C45 74.755 41.1562 77.5 36.25 77.5ZM36.25 67.5C33.2375 67.5 31.3213 67.875 30.555 68.6137C30.025 69.125 30 69.9088 30 71.25C30 73.2825 32.8625 75 36.25 75C39.6375 75 42.5 73.2825 42.5 71.25C42.5 69.9088 42.4738 69.125 41.945 68.6137C41.1788 67.875 39.2638 67.5 36.25 67.5Z" fill="black"/>
</g>
<path id="Vector_7" d="M63.75 48.75C58.1425 48.75 53.75 46.005 53.75 42.5C53.75 41.81 54.31 41.25 55 41.25C55.69 41.25 56.25 41.81 56.25 42.5C56.25 44.2737 59.33 46.25 63.75 46.25C68.17 46.25 71.25 44.2737 71.25 42.5C71.25 41.81 71.81 41.25 72.5 41.25C73.19 41.25 73.75 41.81 73.75 42.5C73.75 46.005 69.3575 48.75 63.75 48.75Z" fill="black"/>
<path id="Vector_8" d="M60 36.25C59.31 36.25 58.75 35.69 58.75 35C58.75 32.9325 57.3488 31.25 55.625 31.25C53.9012 31.25 52.5 32.9325 52.5 35C52.5 35.69 51.94 36.25 51.25 36.25C50.56 36.25 50 35.69 50 35C50 31.5538 52.5238 28.75 55.625 28.75C58.7262 28.75 61.25 31.5538 61.25 35C61.25 35.69 60.69 36.25 60 36.25Z" fill="black"/>
<path id="Vector_9" d="M76.25 36.25C75.56 36.25 75 35.69 75 35C75 32.9325 73.5988 31.25 71.875 31.25C70.1512 31.25 68.75 32.9325 68.75 35C68.75 35.69 68.19 36.25 67.5 36.25C66.81 36.25 66.25 35.69 66.25 35C66.25 31.5538 68.7738 28.75 71.875 28.75C74.9762 28.75 77.5 31.5538 77.5 35C77.5 35.69 76.94 36.25 76.25 36.25Z" fill="black"/>
<path id="Vector_10" d="M30 62.5C29.31 62.5 28.75 61.94 28.75 61.25V56.25C28.75 55.56 29.31 55 30 55C30.69 55 31.25 55.56 31.25 56.25V61.25C31.25 61.94 30.69 62.5 30 62.5Z" fill="black"/>
<path id="Vector_11" d="M42.5 62.5C41.81 62.5 41.25 61.94 41.25 61.25V56.25C41.25 55.56 41.81 55 42.5 55C43.19 55 43.75 55.56 43.75 56.25V61.25C43.75 61.94 43.19 62.5 42.5 62.5Z" fill="black"/>
</g>
</g>
</svg>
