<svg width="92" height="92" viewBox="0 0 92 92" fill="none" xmlns="http://www.w3.org/2000/svg">
<g opacity="0.65">
<path d="M33.35 79.3501C44.7823 79.3501 54.05 70.0824 54.05 58.6501C54.05 47.2178 44.7823 37.9501 33.35 37.9501C21.9177 37.9501 12.65 47.2178 12.65 58.6501C12.65 70.0824 21.9177 79.3501 33.35 79.3501Z" fill="white"/>
<path d="M33.35 80.5C21.3014 80.5 11.5 70.6986 11.5 58.65C11.5 46.6015 21.3014 36.8 33.35 36.8C45.3985 36.8 55.2 46.6015 55.2 58.65C55.2 70.6986 45.3985 80.5 33.35 80.5ZM33.35 39.1C22.5699 39.1 13.8 47.8699 13.8 58.65C13.8 69.4301 22.5699 78.2 33.35 78.2C44.1301 78.2 52.9 69.4301 52.9 58.65C52.9 47.8699 44.1301 39.1 33.35 39.1Z" fill="black"/>
<path d="M58.65 54.05C70.0823 54.05 79.35 44.7823 79.35 33.35C79.35 21.9177 70.0823 12.65 58.65 12.65C47.2177 12.65 37.95 21.9177 37.95 33.35C37.95 44.7823 47.2177 54.05 58.65 54.05Z" fill="white"/>
<path d="M58.65 55.2C46.6014 55.2 36.8 45.3985 36.8 33.35C36.8 21.3014 46.6014 11.5 58.65 11.5C70.6985 11.5 80.5 21.3014 80.5 33.35C80.5 45.3985 70.6985 55.2 58.65 55.2ZM58.65 13.8C47.8699 13.8 39.1 22.5699 39.1 33.35C39.1 44.1301 47.8699 52.9 58.65 52.9C69.4301 52.9 78.2 44.1301 78.2 33.35C78.2 22.5699 69.4301 13.8 58.65 13.8Z" fill="black"/>
<path d="M33.35 70.1501C37.1608 70.1501 40.25 68.0906 40.25 65.5501C40.25 63.0096 37.1608 60.9501 33.35 60.9501C29.5392 60.9501 26.45 63.0096 26.45 65.5501C26.45 68.0906 29.5392 70.1501 33.35 70.1501Z" fill="white"/>
<path d="M33.35 71.3C28.8362 71.3 25.3 68.7746 25.3 65.55C25.3 64.1873 25.3 62.6417 26.5144 61.4699C27.7104 60.3153 29.8195 59.8 33.35 59.8C36.8805 59.8 38.9896 60.3153 40.1856 61.4699C41.4 62.6417 41.4 64.1861 41.4 65.55C41.4 68.7746 37.8637 71.3 33.35 71.3ZM33.35 62.1C30.5785 62.1 28.8155 62.445 28.1106 63.1247C27.623 63.595 27.6 64.3161 27.6 65.55C27.6 67.4199 30.2335 69 33.35 69C36.4665 69 39.1 67.4199 39.1 65.55C39.1 64.3161 39.0758 63.595 38.5894 63.1247C37.8844 62.445 36.1226 62.1 33.35 62.1Z" fill="black"/>
<path d="M58.65 44.85C53.4911 44.85 49.45 42.3246 49.45 39.1C49.45 38.4652 49.9652 37.95 50.6 37.95C51.2348 37.95 51.75 38.4652 51.75 39.1C51.75 40.7318 54.5836 42.55 58.65 42.55C62.7164 42.55 65.55 40.7318 65.55 39.1C65.55 38.4652 66.0652 37.95 66.7 37.95C67.3348 37.95 67.85 38.4652 67.85 39.1C67.85 42.3246 63.8089 44.85 58.65 44.85Z" fill="black"/>
<path d="M55.2 33.3499C54.5652 33.3499 54.05 32.8347 54.05 32.1999C54.05 30.2978 52.7608 28.75 51.175 28.75C49.5891 28.75 48.3 30.2978 48.3 32.1999C48.3 32.8347 47.7848 33.3499 47.15 33.3499C46.5152 33.3499 46 32.8347 46 32.1999C46 29.0294 48.3218 26.45 51.175 26.45C54.0281 26.45 56.35 29.0294 56.35 32.1999C56.35 32.8347 55.8348 33.3499 55.2 33.3499Z" fill="black"/>
<path d="M70.15 33.3499C69.5152 33.3499 69 32.8347 69 32.1999C69 30.2978 67.7109 28.75 66.125 28.75C64.5392 28.75 63.25 30.2978 63.25 32.1999C63.25 32.8347 62.7348 33.3499 62.1 33.3499C61.4652 33.3499 60.95 32.8347 60.95 32.1999C60.95 29.0294 63.2719 26.45 66.125 26.45C68.9782 26.45 71.3 29.0294 71.3 32.1999C71.3 32.8347 70.7848 33.3499 70.15 33.3499Z" fill="black"/>
<path d="M27.6 57.5C26.9652 57.5 26.45 56.9848 26.45 56.35V51.75C26.45 51.1152 26.9652 50.6 27.6 50.6C28.2348 50.6 28.75 51.1152 28.75 51.75V56.35C28.75 56.9848 28.2348 57.5 27.6 57.5Z" fill="black"/>
<path d="M39.1 57.5C38.4652 57.5 37.95 56.9848 37.95 56.35V51.75C37.95 51.1152 38.4652 50.6 39.1 50.6C39.7348 50.6 40.25 51.1152 40.25 51.75V56.35C40.25 56.9848 39.7348 57.5 39.1 57.5Z" fill="black"/>
</g>
</svg>
