<svg width="92" height="92" viewBox="0 0 92 92" fill="none" xmlns="http://www.w3.org/2000/svg">
<g opacity="0.65">
<path d="M79.35 34.5C79.35 34.5805 79.35 34.6621 79.3489 34.7426C79.1189 53.7153 52.0605 71.6611 47.763 74.3924C47.395 74.627 46.9672 74.75 46.5302 74.75H45.4676C45.0306 74.75 44.6039 74.6258 44.2348 74.3924C39.9372 71.6611 12.8789 53.7165 12.6489 34.7426C12.6477 34.6621 12.6477 34.5805 12.6477 34.5C12.6477 24.9734 20.3711 17.25 29.8977 17.25C32.8969 17.25 35.7167 18.0148 38.1731 19.3614C41.7301 21.3095 44.5246 24.4743 45.9977 28.2958C47.4709 24.4743 50.2654 21.3095 53.8223 19.3614C56.2787 18.0148 59.0985 17.25 62.0977 17.25C71.6243 17.25 79.3477 24.9734 79.3477 34.5H79.35Z" fill="white"/>
<path d="M46.5313 75.9H45.4687C44.812 75.9 44.1726 75.7137 43.6195 75.3629C41.3793 73.9392 33.4949 68.7297 26.1131 61.479C21.8765 57.3183 18.5058 53.1702 16.0931 49.1498C13.102 44.1646 11.5564 39.3219 11.5012 34.7564C11.5 34.6725 11.5 34.5862 11.5 34.5C11.5 24.3547 19.7547 16.1 29.9 16.1C32.9866 16.1 36.0398 16.8785 38.7285 18.3528C41.8002 20.0353 44.3187 22.5549 46 25.5863C47.6813 22.5549 50.1998 20.0353 53.2726 18.3528C55.9613 16.8797 59.0134 16.1 62.1 16.1C72.2453 16.1 80.5 24.3547 80.5 34.5C80.5 34.5862 80.5 34.6725 80.4988 34.7587C80.4436 39.3219 78.8992 44.1646 75.9069 49.1498C73.4942 53.1702 70.1236 57.3183 65.887 61.479C58.504 68.7297 50.6207 73.9392 48.3805 75.3629C47.8274 75.7148 47.188 75.9 46.5313 75.9ZM29.9 18.4C21.022 18.4 13.8 25.622 13.8 34.5C13.8 34.5747 13.8 34.6518 13.8 34.7265C13.8932 42.4074 18.5771 50.8553 27.7231 59.8379C34.9451 66.9311 42.6593 72.0279 44.8523 73.4217C45.0363 73.539 45.2491 73.6 45.4675 73.6H46.5301C46.7486 73.6 46.9614 73.5379 47.1454 73.4217C49.3373 72.0279 57.0526 66.9311 64.2746 59.8379C73.4206 50.8553 78.1045 42.4074 78.1977 34.7288C78.1977 34.6518 78.1977 34.5759 78.1977 34.5C78.1977 25.622 70.9757 18.4 62.0977 18.4C59.3963 18.4 56.726 19.0808 54.3755 20.3699C51.0324 22.2007 48.438 25.1631 47.0707 28.7097C46.8993 29.1536 46.4727 29.4457 45.9977 29.4457C45.5228 29.4457 45.0961 29.1536 44.9248 28.7097C43.5574 25.1631 40.963 22.2007 37.6211 20.3699C35.2705 19.0808 32.6002 18.4 29.8977 18.4H29.9Z" fill="black"/>
</g>
</svg>
