<svg width="100" height="100" viewBox="0 0 100 100" fill="none" xmlns="http://www.w3.org/2000/svg">
<g id="&#236;&#151;&#176;&#236;&#157;&#184;">
<g id="hover">
<path id="Vector" d="M86.25 37.5C86.25 37.5875 86.25 37.6762 86.2487 37.7637C85.9987 58.3862 56.5875 77.8925 51.9162 80.8613C51.5162 81.1163 51.0512 81.25 50.5762 81.25H49.4212C48.9462 81.25 48.4825 81.115 48.0812 80.8613C43.41 77.8925 13.9987 58.3875 13.7487 37.7637C13.7475 37.6762 13.7475 37.5875 13.7475 37.5C13.7475 27.145 22.1425 18.75 32.4975 18.75C35.7575 18.75 38.8225 19.5813 41.4925 21.045C45.3587 23.1625 48.3962 26.6025 49.9975 30.7563C51.5987 26.6025 54.6362 23.1625 58.5025 21.045C61.1725 19.5813 64.2375 18.75 67.4975 18.75C77.8525 18.75 86.2475 27.145 86.2475 37.5H86.25Z" fill="#F4A092"/>
<path id="Vector_2" d="M50.5775 82.5H49.4225C48.7088 82.5 48.0137 82.2975 47.4125 81.9163C44.9775 80.3688 36.4075 74.7062 28.3838 66.825C23.7788 62.3025 20.115 57.7938 17.4925 53.4238C14.2413 48.005 12.5613 42.7413 12.5013 37.7788C12.5 37.6875 12.5 37.5938 12.5 37.5C12.5 26.4725 21.4725 17.5 32.5 17.5C35.855 17.5 39.1737 18.3462 42.0962 19.9487C45.435 21.7775 48.1725 24.5163 50 27.8113C51.8275 24.5163 54.565 21.7775 57.905 19.9487C60.8275 18.3475 64.145 17.5 67.5 17.5C78.5275 17.5 87.5 26.4725 87.5 37.5C87.5 37.5938 87.5 37.6875 87.4987 37.7812C87.4388 42.7412 85.76 48.005 82.5075 53.4238C79.885 57.7938 76.2212 62.3025 71.6162 66.825C63.5912 74.7062 55.0225 80.3688 52.5875 81.9163C51.9863 82.2988 51.2912 82.5 50.5775 82.5ZM32.5 20C22.85 20 15 27.85 15 37.5C15 37.5812 15 37.665 15 37.7463C15.1012 46.095 20.1925 55.2775 30.1338 65.0413C37.9838 72.7513 46.3687 78.2913 48.7525 79.8063C48.9525 79.9338 49.1838 80 49.4212 80H50.5762C50.8137 80 51.045 79.9325 51.245 79.8063C53.6275 78.2913 62.0137 72.7513 69.8637 65.0413C79.805 55.2775 84.8962 46.095 84.9975 37.7487C84.9975 37.665 84.9975 37.5825 84.9975 37.5C84.9975 27.85 77.1475 20 67.4975 20C64.5612 20 61.6587 20.74 59.1037 22.1413C55.47 24.1313 52.65 27.3512 51.1637 31.2062C50.9775 31.6887 50.5138 32.0062 49.9975 32.0062C49.4813 32.0062 49.0175 31.6887 48.8312 31.2062C47.345 27.3512 44.525 24.1313 40.8925 22.1413C38.3375 20.74 35.435 20 32.4975 20H32.5Z" fill="black"/>
</g>
</g>
</svg>
