<svg width="32" height="32" viewBox="0 0 32 32" fill="none" xmlns="http://www.w3.org/2000/svg">
<path d="M23 28H22.7756C22.372 28 21.9864 27.8724 21.6604 27.6304L15.9948 23.4296L10.3292 27.6304C10.0032 27.872 9.6176 28 9.214 28H8.6C7.7176 28 7 27.2824 7 26.4V5.6C7 4.7176 7.7176 4 8.6 4H23C23.8824 4 24.6 4.7176 24.6 5.6V26.4C24.6 27.2824 23.8824 28 23 28ZM15.9948 21.7196C16.2364 21.7196 16.478 21.796 16.6844 21.9488L22.6132 26.3452C22.662 26.3816 22.7168 26.4 22.7756 26.4H23V5.6H8.6V26.4H9.214C9.2728 26.4 9.3272 26.3816 9.3764 26.3452L15.3052 21.9488C15.5112 21.796 15.7528 21.7196 15.9944 21.7196H15.9948Z" fill="#BCC0C4"/>
</svg>
