<svg width="32" height="32" viewBox="0 0 32 32" fill="none" xmlns="http://www.w3.org/2000/svg">
<path d="M16 27.0944C15.5968 27.0944 15.1936 26.9408 14.8868 26.634L7.9652 19.7124C4.3864 16.1336 4 12.9012 4 11.6776C4 11.644 4.002 11.6108 4.006 11.5784C4.002 11.4852 4 11.3936 4 11.3044C4 7.77562 6.8712 4.90442 10.4 4.90442C12.8064 4.90442 14.9072 6.23962 16 8.20842C17.0928 6.24002 19.1936 4.90442 21.6 4.90442C25.1288 4.90442 28 7.77562 28 11.3044C28 11.3936 27.998 11.4852 27.994 11.5784C27.998 11.6108 28 11.644 28 11.6776C28 12.9012 27.6136 16.1332 24.0348 19.7124L17.1132 26.634C16.8064 26.9408 16.4032 27.0944 16 27.0944ZM5.6016 11.81C5.6188 12.4628 5.7692 13.466 6.344 14.732C6.9488 16.0644 7.8752 17.3596 9.0968 18.5816L16 25.4848L22.9032 18.5816C24.1248 17.36 25.0512 16.0648 25.656 14.732C26.2308 13.4656 26.3812 12.4628 26.3984 11.81C26.3884 11.7496 26.3852 11.688 26.3892 11.6256C26.3964 11.5152 26.4 11.4072 26.4 11.3048C26.4 8.65802 24.2468 6.50482 21.6 6.50482C18.9532 6.50482 16.8 8.65802 16.8 11.3048C16.8 11.7468 16.442 12.1048 16 12.1048C15.558 12.1048 15.2 11.7468 15.2 11.3048C15.2 8.65802 13.0468 6.50482 10.4 6.50482C7.7532 6.50482 5.6 8.65802 5.6 11.3048C5.6 11.4072 5.6036 11.5152 5.6108 11.6256C5.6148 11.6876 5.6116 11.7496 5.6016 11.81Z" fill="#BCC0C4"/>
</svg>
