<svg width="24" height="24" viewBox="0 0 24 24" fill="none" xmlns="http://www.w3.org/2000/svg">
<path d="M15.3 6.89996H5.7V19.5H15.3V6.89996Z" fill="white"/>
<path d="M15.3 19.8H5.7C5.5344 19.8 5.4 19.6656 5.4 19.5V6.89998C5.4 6.73438 5.5344 6.59998 5.7 6.59998H15.3C15.4656 6.59998 15.6 6.73438 15.6 6.89998V19.5C15.6 19.6656 15.4656 19.8 15.3 19.8ZM6 19.2H15V7.19998H6V19.2Z" fill="black"/>
<path d="M15.3 19.5H5.70001C5.36864 19.5 5.10001 19.7686 5.10001 20.1C5.10001 20.4314 5.36864 20.7 5.70001 20.7H15.3C15.6314 20.7 15.9 20.4314 15.9 20.1C15.9 19.7686 15.6314 19.5 15.3 19.5Z" fill="white"/>
<path d="M15.3 21H5.7C5.2038 21 4.8 20.5962 4.8 20.1C4.8 19.6038 5.2038 19.2 5.7 19.2H15.3C15.7962 19.2 16.2 19.6038 16.2 20.1C16.2 20.5962 15.7962 21 15.3 21ZM5.7 19.8C5.5347 19.8 5.4 19.9347 5.4 20.1C5.4 20.2653 5.5347 20.4 5.7 20.4H15.3C15.4653 20.4 15.6 20.2653 15.6 20.1C15.6 19.9347 15.4653 19.8 15.3 19.8H5.7Z" fill="black"/>
<path d="M17.7 8.39996H15.3V9.89996H17.7C18.5271 9.89996 19.2 10.5729 19.2 11.4V15C19.2 15.8271 18.5271 16.5 17.7 16.5H15.3V18H17.7C19.3569 18 20.7 16.6569 20.7 15V11.4C20.7 9.74306 19.3569 8.39996 17.7 8.39996Z" fill="white"/>
<path d="M17.7 18.3H15V16.2H17.7C18.3618 16.2 18.9 15.6618 18.9 15V11.4C18.9 10.7382 18.3618 10.2 17.7 10.2H15V8.09998H17.7C19.5195 8.09998 21 9.58048 21 11.4V15C21 16.8195 19.5195 18.3 17.7 18.3ZM15.6 17.7H17.7C19.1889 17.7 20.4 16.4889 20.4 15V11.4C20.4 9.91108 19.1889 8.69998 17.7 8.69998H15.6V9.59998H17.7C18.6924 9.59998 19.5 10.4076 19.5 11.4V15C19.5 15.9924 18.6924 16.8 17.7 16.8H15.6V17.7Z" fill="black"/>
<path d="M7.2 9.29999H13.8V17.1C13.8 17.7624 13.2624 18.3 12.6 18.3H8.4C7.7376 18.3 7.2 17.7624 7.2 17.1V9.29999Z" fill="#F7DC84"/>
<path d="M12.6 18.6H8.4C7.5729 18.6 6.9 17.9271 6.9 17.1V9.3C6.9 9.1344 7.0344 9 7.2 9H13.8C13.9656 9 14.1 9.1344 14.1 9.3V17.1C14.1 17.9271 13.4271 18.6 12.6 18.6ZM7.5 9.6V17.1C7.5 17.5962 7.9038 18 8.4 18H12.6C13.0962 18 13.5 17.5962 13.5 17.1V9.6H7.5Z" fill="black"/>
<path d="M14.1 3.89999C13.743 3.89999 13.4073 3.98939 13.113 4.14629C12.7401 3.80699 12.2442 3.59999 11.7 3.59999C11.2506 3.59999 10.8348 3.74159 10.4934 3.98189C10.0164 3.55769 9.3885 3.29999 8.7 3.29999C7.5999 3.29999 6.6537 3.95789 6.2328 4.90169C5.9235 4.65059 5.5293 4.49999 5.1 4.49999C4.1058 4.49999 3.3 5.30579 3.3 6.29999C3.3 7.08359 3.801 7.74989 4.5 7.99709V14.4C4.5 14.8971 4.9029 15.3 5.4 15.3C5.8971 15.3 6.3 14.8971 6.3 14.4V7.64039C6.3525 7.59329 6.4023 7.54379 6.4491 7.49099C6.7107 7.88519 7.0734 8.20679 7.5 8.41889V9.29999C7.5 10.1283 8.1717 10.8 9 10.8C9.8283 10.8 10.5 10.1283 10.5 9.29999V8.01209C10.6314 7.89449 10.7511 7.76429 10.8573 7.62329C11.1153 7.73639 11.4003 7.79969 11.7 7.79969C12.057 7.79969 12.3927 7.71029 12.687 7.55339C13.0599 7.89269 13.5558 8.09969 14.1 8.09969C15.2598 8.09969 16.2 7.15949 16.2 5.99969C16.2 4.83989 15.2598 3.89969 14.1 3.89969V3.89999Z" fill="white"/>
<path d="M5.4 15.6C4.7382 15.6 4.2 15.0618 4.2 14.4V8.1975C3.4743 7.8531 3 7.1157 3 6.3C3 5.142 3.942 4.2 5.1 4.2C5.4585 4.2 5.811 4.2927 6.1215 4.4655C6.6579 3.5649 7.6356 3 8.7 3C9.3591 3 9.9957 3.216 10.5162 3.6123C10.8762 3.4074 11.2812 3.3 11.7 3.3C12.2298 3.3 12.7401 3.4737 13.1571 3.7929C13.4538 3.6663 13.776 3.6 14.1 3.6C15.4233 3.6 16.5 4.6767 16.5 6C16.5 7.3233 15.4233 8.4 14.1 8.4C13.5702 8.4 13.0599 8.2263 12.6429 7.9071C12.3462 8.0337 12.024 8.1 11.7 8.1C11.4438 8.1 11.1933 8.0601 10.9527 7.9809C10.9038 8.0364 10.8528 8.0901 10.8 8.142V9.2997C10.8 10.2921 9.9924 11.0997 9 11.0997C8.0076 11.0997 7.2 10.2921 7.2 9.2997V8.598C6.9813 8.4714 6.7797 8.3181 6.6 8.142V14.4C6.6 15.0618 6.0618 15.6 5.4 15.6ZM5.1 4.8C4.2729 4.8 3.6 5.4729 3.6 6.3C3.6 6.9345 4.002 7.503 4.5999 7.7142C4.7199 7.7565 4.8 7.8699 4.8 7.9971V14.4C4.8 14.7309 5.0691 15 5.4 15C5.7309 15 6 14.7309 6 14.4V7.6404C6 7.5552 6.0363 7.4739 6.0999 7.4169C6.1455 7.3761 6.1872 7.3341 6.2244 7.2924C6.2862 7.2225 6.3771 7.1853 6.4698 7.1919C6.5628 7.1982 6.6477 7.2477 6.699 7.3254C6.9327 7.6773 7.2558 7.9626 7.6335 8.1504C7.7355 8.2011 7.8 8.3052 7.8 8.4189V9.3C7.8 9.9618 8.3382 10.5 9 10.5C9.6618 10.5 10.2 9.9618 10.2 9.3V8.0121C10.2 7.9269 10.2363 7.8456 10.2999 7.7886C10.4169 7.6839 10.5237 7.5675 10.6179 7.443C10.7016 7.332 10.8507 7.293 10.9779 7.3488C11.2065 7.449 11.4495 7.5 11.7 7.5C11.9946 7.5 12.2871 7.4271 12.546 7.2891C12.6579 7.2294 12.7953 7.2465 12.8892 7.332C13.221 7.6341 13.6512 7.8003 14.1003 7.8003C15.0927 7.8003 15.9003 6.9927 15.9003 6.0003C15.9003 5.0079 15.0927 4.2003 14.1003 4.2003C13.8057 4.2003 13.5132 4.2732 13.2543 4.4112C13.1424 4.4709 13.005 4.4538 12.9111 4.3683C12.5793 4.0662 12.1491 3.9 11.7 3.9C11.3277 3.9 10.9701 4.0131 10.6659 4.227C10.5519 4.3071 10.398 4.2984 10.2939 4.2057C9.8544 3.8148 9.2883 3.5997 8.7 3.5997C7.7535 3.5997 6.8925 4.1586 6.507 5.0235C6.4689 5.1087 6.3936 5.1714 6.3027 5.193C6.2121 5.2146 6.1164 5.193 6.0438 5.1342C5.7741 4.9152 5.4477 4.7997 5.1 4.7997V4.8Z" fill="black"/>
</svg>
