<svg width="24" height="24" viewBox="0 0 24 24" fill="none" xmlns="http://www.w3.org/2000/svg">
<path d="M13.5 15C13.5 16.8324 12.5337 18.4392 11.0826 19.338C10.9065 19.4472 10.8 19.6398 10.8 19.8471V20.1C10.8 20.4315 10.5315 20.7 10.2 20.7H6.6C6.2685 20.7 6 20.4315 6 20.1V19.8471C6 19.6401 5.8935 19.4472 5.7174 19.338C4.2663 18.4392 3.3 16.8324 3.3 15C3.3 14.9763 3.3 14.9529 3.3003 14.9295C3.3378 10.4937 6.9 9.88589 6.9 7.19999C6.9 5.75969 6.6438 4.74629 6.405 4.11419C6.2562 3.72089 6.5448 3.29999 6.9654 3.29999H9.8346C10.2552 3.29999 10.5438 3.72059 10.395 4.11419C10.1559 4.74629 9.9 5.75969 9.9 7.19999C9.9 9.88589 13.4622 10.4937 13.4997 14.9295C13.5 14.9529 13.5 14.9763 13.5 15Z" fill="white"/>
<path d="M10.2 21H6.6C6.1038 21 5.7 20.5962 5.7 20.1V19.8471C5.7 19.7442 5.646 19.647 5.5593 19.5933C4.7919 19.1178 4.1502 18.4521 3.7038 17.6676C3.2433 16.8588 3 15.9363 3 15C3 14.9751 3 14.9505 3.0003 14.9256C3.0102 13.767 3.2529 12.7536 3.7428 11.8287C4.1685 11.025 4.725 10.3932 5.2161 9.83579C5.9586 8.99309 6.6 8.26499 6.6 7.19969C6.6 5.77679 6.3414 4.79399 6.1242 4.21979C6.0192 3.94229 6.0573 3.63119 6.2256 3.38729C6.3933 3.14429 6.6699 2.99939 6.9654 2.99939H9.8346C10.1301 2.99939 10.4064 3.14429 10.5744 3.38729C10.7427 3.63089 10.7808 3.94199 10.6758 4.21979C10.4589 4.79369 10.2 5.77679 10.2 7.19969C10.2 8.26499 10.8414 8.99279 11.5839 9.83579C12.075 10.3932 12.6315 11.025 13.0572 11.8287C13.5471 12.7536 13.7898 13.767 13.7997 14.9268C13.7997 14.9502 13.8 14.9748 13.8 14.9997C13.8 15.936 13.5567 16.8582 13.0962 17.6673C12.6498 18.4515 12.0081 19.1172 11.2407 19.593C11.154 19.6467 11.1 19.7442 11.1 19.8468V20.0997C11.1 20.5959 10.6962 20.9997 10.2 20.9997V21ZM6.9654 3.59999C6.8655 3.59999 6.7758 3.64709 6.7194 3.72899C6.6621 3.81179 6.6498 3.91349 6.6858 4.00799C6.9204 4.62869 7.2003 5.68649 7.2003 7.19999C7.2003 8.49179 6.4554 9.33749 5.6664 10.2327C4.7076 11.3211 3.6207 12.5547 3.6006 14.9322C3.6006 14.9556 3.6006 14.9778 3.6006 15.0003C3.6006 16.6743 4.4511 18.2007 5.8758 19.0833C6.1416 19.248 6.3006 19.5336 6.3006 19.8474V20.1003C6.3006 20.2656 6.4353 20.4003 6.6006 20.4003H10.2006C10.3659 20.4003 10.5006 20.2656 10.5006 20.1003V19.8474C10.5006 19.5339 10.6593 19.2483 10.9254 19.0833C12.3501 18.2007 13.2006 16.6743 13.2006 15.0003C13.2006 14.9778 13.2006 14.9556 13.2006 14.9334C13.1805 12.5547 12.0936 11.3211 11.1348 10.2327C10.3461 9.33749 9.6009 8.49179 9.6009 7.19999C9.6009 5.68649 9.8808 4.62869 10.1154 4.00799C10.1511 3.91349 10.1388 3.81179 10.0818 3.72899C10.0251 3.64709 9.9354 3.59999 9.8358 3.59999H6.9666H6.9654Z" fill="black"/>
<path d="M18.6 4.52997H16.8C16.4686 4.52997 16.2 4.7986 16.2 5.12997V5.72997C16.2 6.06134 16.4686 6.32997 16.8 6.32997H18.6C18.9314 6.32997 19.2 6.06134 19.2 5.72997V5.12997C19.2 4.7986 18.9314 4.52997 18.6 4.52997Z" fill="#5D8231"/>
<path d="M18.6 6.62998H16.8C16.3038 6.62998 15.9 6.22618 15.9 5.72998V5.12998C15.9 4.63378 16.3038 4.22998 16.8 4.22998H18.6C19.0962 4.22998 19.5 4.63378 19.5 5.12998V5.72998C19.5 6.22618 19.0962 6.62998 18.6 6.62998ZM16.8 4.82998C16.6347 4.82998 16.5 4.96468 16.5 5.12998V5.72998C16.5 5.89528 16.6347 6.02998 16.8 6.02998H18.6C18.7653 6.02998 18.9 5.89528 18.9 5.72998V5.12998C18.9 4.96468 18.7653 4.82998 18.6 4.82998H16.8Z" fill="black"/>
<path d="M20.7 13.5H14.7V17.4H20.7V13.5Z" fill="#CFE8B5"/>
<path d="M21 17.7H14.4V13.2H21V17.7ZM15 17.1H20.4V13.8H15V17.1Z" fill="black"/>
<path d="M20.7 13.5H14.7V12.6384C14.7 12.0714 14.9007 11.5224 15.267 11.0892L15.9333 10.3008C16.2993 9.86756 16.5003 9.31886 16.5003 8.75156V6.32996H18.9003V8.75156C18.9003 9.31856 19.101 9.86756 19.4673 10.3008L20.1336 11.0892C20.4996 11.5224 20.7006 12.0711 20.7006 12.6384V13.5H20.7Z" fill="#7FA05C"/>
<path d="M21 13.8H14.4V12.6384C14.4 12.0012 14.6265 11.3823 15.0378 10.8957L15.7041 10.1073C16.0239 9.72867 16.2 9.24747 16.2 8.75187V6.03027H19.2V8.75187C19.2 9.24747 19.3761 9.72867 19.6959 10.1073L20.3622 10.8957C20.7735 11.3823 21 12.0012 21 12.6384V13.8ZM15 13.2H20.4V12.6384C20.4 12.1428 20.2239 11.6616 19.9041 11.283L19.2378 10.4946C18.8265 10.008 18.6 9.38907 18.6 8.75187V6.63027H16.8V8.75187C16.8 9.38907 16.5735 10.008 16.1622 10.4946L15.4959 11.283C15.1761 11.6616 15 12.1428 15 12.6384V13.2Z" fill="black"/>
<path d="M20.7 17.4V19.8C20.7 20.2971 20.2971 20.7 19.8 20.7H15.6C15.1029 20.7 14.7 20.2971 14.7 19.8V17.4H20.7Z" fill="#7FA05C"/>
<path d="M19.8 21H15.6C14.9382 21 14.4 20.4618 14.4 19.8V17.1H21V19.8C21 20.4618 20.4618 21 19.8 21ZM15 17.7V19.8C15 20.1309 15.2691 20.4 15.6 20.4H19.8C20.1309 20.4 20.4 20.1309 20.4 19.8V17.7H15Z" fill="black"/>
<path d="M4.53555 16.351L4.70526 16.1813C4.9159 15.9706 5.25829 15.9706 5.46893 16.1813L5.63864 16.351C5.68552 16.3979 5.68552 16.4738 5.63864 16.5207L5.46893 16.6904C5.25829 16.9011 4.9159 16.9011 4.70526 16.6904L4.53555 16.5207C4.48867 16.4738 4.48867 16.3979 4.53555 16.351Z" fill="#AAB1F2"/>
<path d="M6.02086 15.0355L6.19056 15.2052C6.40121 15.4159 6.40121 15.7583 6.19056 15.9689L6.02086 16.1386C5.97398 16.1855 5.89803 16.1855 5.85115 16.1386L5.68145 15.9689C5.4708 15.7583 5.4708 15.4159 5.68145 15.2052L5.85115 15.0355C5.89803 14.9887 5.97398 14.9887 6.02086 15.0355Z" fill="#AAB1F2"/>
<path d="M5.38428 17.1991L5.55398 17.0294C5.76463 16.8188 6.10701 16.8188 6.31766 17.0294L6.48736 17.1991C6.53424 17.246 6.53424 17.322 6.48736 17.3688L6.31766 17.5386C6.10701 17.7492 5.76463 17.7492 5.55398 17.5386L5.38428 17.3688C5.33739 17.322 5.33739 17.246 5.38428 17.1991Z" fill="#AAB1F2"/>
<path d="M6.86905 15.8843L7.03875 16.054C7.2494 16.2646 7.2494 16.607 7.03875 16.8177L6.86905 16.9874C6.82217 17.0343 6.74622 17.0343 6.69934 16.9874L6.52964 16.8177C6.31899 16.607 6.31899 16.2646 6.52964 16.054L6.69934 15.8843C6.74622 15.8374 6.82217 15.8374 6.86905 15.8843Z" fill="#AAB1F2"/>
<path d="M6.23271 18.0481L6.40242 17.8784C6.61306 17.6677 6.95544 17.6677 7.16609 17.8784L7.3358 18.0481C7.38268 18.095 7.38268 18.1709 7.3358 18.2178L7.16609 18.3875C6.95544 18.5981 6.61306 18.5981 6.40242 18.3875L6.23271 18.2178C6.18583 18.1709 6.18583 18.095 6.23271 18.0481Z" fill="#AAB1F2"/>
<path d="M7.71767 16.7327L7.88737 16.9024C8.09802 17.113 8.09802 17.4554 7.88737 17.6661L7.71767 17.8358C7.67078 17.8826 7.59484 17.8826 7.54796 17.8358L7.37825 17.6661C7.16761 17.4554 7.16761 17.113 7.37825 16.9024L7.54796 16.7327C7.59484 16.6858 7.67078 16.6858 7.71767 16.7327Z" fill="#AAB1F2"/>
</svg>
