<svg width="164" height="52" viewBox="0 0 164 52" fill="none" xmlns="http://www.w3.org/2000/svg">
<g clip-path="url(#clip0_2075_2746)">
<g style="mix-blend-mode:multiply">
<path d="M13.6486 23.3977C15.0844 23.3977 16.2484 22.2338 16.2484 20.798C16.2484 19.3622 15.0844 18.1982 13.6486 18.1982C12.2128 18.1982 11.0488 19.3622 11.0488 20.798C11.0488 22.2338 12.2128 23.3977 13.6486 23.3977Z" fill="white"/>
</g>
<g style="mix-blend-mode:multiply">
<path d="M51.1681 19.4656C51.1486 19.3922 51.1291 19.3181 51.109 19.244C51.0843 19.1491 51.0576 19.0542 51.031 18.9593C51.0121 18.8911 50.9926 18.8228 50.9725 18.7552C50.953 18.687 50.9328 18.6194 50.9127 18.5518C50.3433 16.6527 49.5465 14.79 48.5124 12.9987C48.2109 12.4762 47.8781 11.9822 47.518 11.5182C43.5982 6.46364 36.4501 4.95318 30.756 8.24056C24.5386 11.8302 22.4081 19.7802 25.9977 25.9975C28.1939 29.8015 28.2492 34.2536 26.5366 37.9595C23.114 36.5303 20.1151 34.0073 18.1178 30.547C15.7845 26.5057 10.6168 25.1214 6.5755 27.4546C2.5764 29.7639 1.17837 34.849 3.41222 38.8714C3.43562 38.913 3.45902 38.9546 3.48307 38.9962C5.4147 42.3414 7.97742 45.0952 10.934 47.1938C10.9548 47.2088 10.9756 47.2231 10.9964 47.238C11.0712 47.2907 11.1459 47.3433 11.2213 47.3953C11.2232 47.3966 11.2252 47.3979 11.2271 47.3992C11.2837 47.4376 11.3396 47.4766 11.3961 47.5143C11.4546 47.5539 11.5131 47.5935 11.5716 47.6325C11.6301 47.6715 11.6892 47.7105 11.7477 47.7489C14.419 49.5011 17.3581 50.7184 20.4037 51.3866C20.4706 51.4015 20.5382 51.4158 20.6052 51.4301C20.6747 51.4444 20.7436 51.4587 20.8132 51.473C20.8619 51.4834 20.9113 51.4932 20.9607 51.5023C21.0484 51.5198 21.1362 51.5367 21.2239 51.5536C21.3279 51.5731 21.4319 51.592 21.5365 51.6102C25.1639 52.2438 28.9387 52.1132 32.6018 51.1487C32.648 51.1363 32.6948 51.124 32.7409 51.1117C32.7715 51.1039 32.802 51.0954 32.8319 51.087C32.9001 51.0688 32.9684 51.0499 33.036 51.0304C33.1042 51.0116 33.1725 50.9921 33.2401 50.9719C33.3083 50.9524 33.3759 50.9323 33.4435 50.9121C33.5715 50.8738 33.6996 50.8341 33.827 50.7938C33.9329 50.7607 34.0388 50.7256 34.1448 50.6911C34.2696 50.6495 34.3944 50.6073 34.5185 50.5644C36.7368 49.7962 38.879 48.716 40.8795 47.316C40.9445 47.2712 41.0095 47.225 41.0738 47.1795C43.0562 45.7724 44.787 44.1248 46.2526 42.3024C46.3384 42.1965 46.4229 42.0899 46.5067 41.9827C46.5769 41.8923 46.6464 41.8026 46.7153 41.7116C46.7979 41.6031 46.8791 41.4945 46.9597 41.3854C47.0241 41.2976 47.0878 41.2099 47.1508 41.1215C47.208 41.0415 47.2645 40.9616 47.3204 40.8817C47.3451 40.8459 47.3705 40.8102 47.3952 40.7744C47.4348 40.7159 47.4751 40.6581 47.5141 40.5996C47.5538 40.5411 47.5934 40.4826 47.6324 40.4241C49.447 37.7061 50.7034 34.7047 51.3865 31.5921C51.4001 31.531 51.4131 31.4699 51.4261 31.4088C51.43 31.3906 51.4333 31.3724 51.4372 31.3549C51.4619 31.2386 51.4859 31.1216 51.5087 31.0052C51.5217 30.9402 51.534 30.8752 51.5464 30.8102C51.5672 30.7004 51.5867 30.5906 51.6062 30.4807C52.2399 26.8703 52.1164 23.1144 51.1674 19.4663L51.1681 19.4656Z" fill="white"/>
</g>
<g style="mix-blend-mode:multiply">
<path d="M51.6068 30.4802C51.5873 30.59 51.5678 30.6998 51.547 30.8097C51.5347 30.8747 51.5223 30.9397 51.5093 31.0047C51.4866 31.121 51.4625 31.238 51.4378 31.3543C51.4339 31.3719 51.4307 31.3901 51.4268 31.4083C51.4138 31.4694 51.4008 31.5305 51.3871 31.5916C50.6956 34.7242 49.4288 37.725 47.6331 40.4235C47.5941 40.482 47.5544 40.5405 47.5148 40.599C47.4758 40.6575 47.4355 40.7154 47.3958 40.7738C47.3711 40.8096 47.3458 40.8453 47.3211 40.8811C47.2652 40.961 47.2086 41.041 47.1514 41.1209C47.0884 41.2093 47.0247 41.297 46.9604 41.3848C46.8798 41.494 46.7985 41.6032 46.716 41.7111C46.6471 41.802 46.5775 41.8917 46.5074 41.9821C46.5022 41.9886 46.497 41.9951 46.4918 42.0022C44.9761 43.9442 43.1647 45.6952 41.0745 47.1796C41.0101 47.2251 40.9451 47.2713 40.8801 47.3161C40.275 47.7379 39.6472 48.137 38.9966 48.5126C37.2054 49.5467 35.3426 50.3435 33.4435 50.9129C33.3759 50.933 33.3083 50.9532 33.2401 50.9727C33.1725 50.9928 33.1042 51.0123 33.036 51.0311C32.9684 51.0506 32.9001 51.0695 32.8319 51.0877C32.802 51.0961 32.7715 51.1046 32.7409 51.1124C32.6948 51.1247 32.648 51.1371 32.6018 51.1494C28.9387 52.1139 25.1639 52.2446 21.5365 51.6109C21.4319 51.5927 21.3279 51.5738 21.2239 51.5543C21.1362 51.5374 21.0484 51.5205 20.9607 51.503C20.9113 51.4939 20.8619 51.4841 20.8132 51.4738C20.7436 51.4594 20.6747 51.4452 20.6052 51.4309C20.5382 51.4166 20.4706 51.4023 20.4037 51.3873C17.3386 50.7107 14.4002 49.4843 11.7477 47.7496C11.6892 47.7113 11.6301 47.6723 11.5716 47.6333C11.5131 47.5943 11.4546 47.5546 11.3961 47.515C11.3396 47.4773 11.2837 47.4383 11.2271 47.3999C11.2252 47.3987 11.2232 47.3974 11.2213 47.396C11.1459 47.3441 11.0712 47.2914 10.9964 47.2388C10.9756 47.2238 10.9548 47.2095 10.934 47.1946C7.97742 45.0959 5.4147 42.3421 3.48307 38.9969C3.45902 38.9553 3.43562 38.9137 3.41222 38.8721C1.17837 34.8497 2.5764 29.7646 6.5755 27.4554C10.6168 25.1221 15.7845 26.5064 18.1178 30.5478C20.1151 34.008 23.114 36.5311 26.5366 37.9603C27.9151 38.5374 29.3619 38.9358 30.8398 39.1477C34.5945 39.6846 38.5494 39.0145 42.089 36.9711C50.4824 32.1251 53.3584 21.3928 48.5124 12.9995C49.5465 14.7907 50.3433 16.6534 50.9127 18.5525C50.9328 18.6201 50.953 18.6877 50.9725 18.756C50.9926 18.8236 51.0121 18.8918 51.031 18.96C51.0576 19.0549 51.0843 19.1498 51.109 19.2447C51.1291 19.3188 51.1486 19.3929 51.1681 19.4663C52.117 23.1144 52.2405 26.8704 51.6068 30.4808V30.4802Z" fill="#F3BAC1"/>
</g>
<path d="M51.6065 30.4801C51.587 30.5899 51.5675 30.6998 51.5467 30.8096C51.5344 30.8746 51.522 30.9396 51.509 31.0046C51.4863 31.1216 51.4629 31.2379 51.4375 31.3543C51.4336 31.3718 51.4304 31.39 51.4265 31.4082C51.4135 31.4693 51.4005 31.5304 51.3868 31.5915C50.7038 34.704 49.4474 37.7054 47.6328 40.4235C47.5938 40.482 47.5541 40.5404 47.5145 40.5989C47.4755 40.6574 47.4352 40.7153 47.3955 40.7738C47.3708 40.8095 47.3455 40.8453 47.3208 40.881C47.2649 40.961 47.2084 41.0409 47.1512 41.1208C47.0881 41.2092 47.0244 41.297 46.9601 41.3847C45.7544 43.0239 44.3363 44.5467 42.7088 45.9128C42.1758 46.36 41.6305 46.7818 41.0742 47.1789C41.0098 47.2244 40.9449 47.2705 40.8799 47.3154C38.7721 48.7907 36.507 49.9112 34.1608 50.6853C34.1556 50.6873 34.1497 50.6892 34.1445 50.6905C34.0386 50.7256 33.9326 50.76 33.8267 50.7932C33.6993 50.8335 33.5713 50.8731 33.4432 50.9115C33.3756 50.9316 33.308 50.9518 33.2398 50.9713C33.1722 50.9914 33.1039 51.0109 33.0357 51.0298C32.9681 51.0493 32.8999 51.0681 32.8316 51.0863C32.8017 51.0948 32.7712 51.1032 32.7406 51.111C32.6945 51.1234 32.6477 51.1357 32.6015 51.1481C28.9716 52.0983 25.1928 52.2445 21.5363 51.6095C21.4316 51.5913 21.3276 51.5725 21.2236 51.553C21.1359 51.5361 21.0482 51.5192 20.9604 51.5016C20.911 51.4925 20.8616 51.4828 20.8129 51.4724C20.7433 51.4581 20.6744 51.4438 20.6049 51.4295C20.5379 51.4152 20.4704 51.4009 20.4034 51.3859C17.3578 50.7178 14.4187 49.5005 11.7475 47.7482C11.689 47.7099 11.6298 47.6709 11.5713 47.6319C11.5128 47.5929 11.4543 47.5533 11.3958 47.5136C11.3393 47.4759 11.2834 47.4369 11.2269 47.3986C11.2249 47.3973 11.223 47.396 11.221 47.3947C11.1456 47.3427 11.0709 47.29 10.9961 47.2374C10.9753 47.2224 10.9545 47.2081 10.9337 47.1932C9.20164 45.9603 7.59368 44.4934 6.1573 42.797C6.13196 42.7671 6.10726 42.7379 6.08191 42.708C5.68804 42.2387 5.35852 41.7363 5.094 41.2118C3.49384 38.0518 4.21332 34.095 7.04318 31.7202C10.3429 28.9508 15.2624 29.3817 18.0311 32.6814C20.3137 35.4021 23.2235 37.2869 26.3718 38.3008C27.8232 38.7687 29.3252 39.0521 30.8395 39.1463C35.3365 39.4278 39.9452 38.0492 43.6701 34.9244C50.6557 29.0626 52.1297 19.0705 47.5177 11.5176C47.8778 11.9816 48.2106 12.4756 48.5121 12.9981C49.5462 14.7893 50.343 16.652 50.9124 18.5512C50.9325 18.6188 50.9527 18.6863 50.9722 18.7546C50.9923 18.8222 51.0118 18.8904 51.0307 18.9587C51.0573 19.0536 51.084 19.1485 51.1087 19.2433C51.1288 19.3174 51.1483 19.3915 51.1678 19.465C52.1031 23.0806 52.2415 26.8411 51.6065 30.4794V30.4801Z" fill="#E77583"/>
<path d="M13.6486 23.3977C15.0844 23.3977 16.2484 22.2338 16.2484 20.798C16.2484 19.3622 15.0844 18.1982 13.6486 18.1982C12.2128 18.1982 11.0488 19.3622 11.0488 20.798C11.0488 22.2338 12.2128 23.3977 13.6486 23.3977Z" fill="#E77583"/>
<g style="mix-blend-mode:multiply">
<path d="M51.6066 30.48C51.5872 30.5898 51.5676 30.6996 51.5469 30.8095C51.5345 30.8745 51.5222 30.9395 51.5092 31.0045C51.4864 31.1208 51.4624 31.2378 51.4377 31.3541C51.4338 31.3717 51.4305 31.3899 51.4266 31.4081C51.4136 31.4692 51.4006 31.5303 51.387 31.5913C50.6954 34.724 49.4287 37.7248 47.6329 40.4233C47.5939 40.4818 47.5543 40.5403 47.5146 40.5988C47.4756 40.6573 47.4353 40.7151 47.3957 40.7736C47.371 40.8094 47.3456 40.8451 47.3209 40.8809C47.265 40.9608 47.2085 41.0408 47.1513 41.1207C47.0882 41.2091 47.0246 41.2968 46.9602 41.3846C46.8796 41.4938 46.7984 41.603 46.7158 41.7108C46.6469 41.8018 46.5774 41.8915 46.5072 41.9819C46.502 41.9884 46.4968 41.9949 46.4916 42.002C44.9759 43.944 43.1645 45.695 41.0743 47.1794C41.01 47.2249 40.945 47.2711 40.88 47.3159C40.2749 47.7377 39.647 48.1368 38.9965 48.5124C37.2052 49.5465 35.3425 50.3433 33.4433 50.9126C33.3757 50.9328 33.3081 50.9529 33.2399 50.9724C33.1723 50.9926 33.1041 51.0121 33.0358 51.0309C32.9682 51.0504 32.9 51.0693 32.8317 51.0875C32.8018 51.0959 32.7713 51.1044 32.7407 51.1122C32.6946 51.1245 32.6478 51.1369 32.6017 51.1492C28.9386 52.1137 25.1637 52.2444 21.5364 51.6107C21.4317 51.5925 21.3277 51.5736 21.2238 51.5541C21.136 51.5372 21.0483 51.5203 20.9605 51.5028C20.9111 51.4937 20.8617 51.4839 20.813 51.4735C20.7435 51.4592 20.6746 51.4449 20.605 51.4306C20.5381 51.4163 20.4705 51.402 20.4035 51.3871C17.3384 50.7105 14.4 49.4841 11.7476 47.7494C11.6891 47.7111 11.6299 47.6721 11.5715 47.6331C11.513 47.5941 11.4545 47.5544 11.396 47.5148C11.3394 47.4771 11.2835 47.4381 11.227 47.3997C11.225 47.3984 11.2231 47.3971 11.2211 47.3958C11.1457 47.3438 11.071 47.2912 10.9963 47.2386C10.9755 47.2236 10.9547 47.2093 10.9339 47.1944C7.97727 45.0957 5.41454 42.3419 3.48291 38.9967C3.95022 39.8059 4.49162 40.5462 5.09412 41.213C9.11337 45.6716 15.8318 46.8765 21.2394 43.7549C23.535 42.4297 25.2729 40.5098 26.372 38.3019C26.4285 38.1888 26.4837 38.0745 26.5364 37.9601C28.249 34.2541 28.1937 29.8021 25.9976 25.998C22.408 19.7807 24.5385 11.8307 30.7558 8.24109C36.45 4.95371 43.598 6.46416 47.5179 11.5187C47.8779 11.9828 48.2107 12.4767 48.5123 12.9993C49.5463 14.7905 50.3432 16.6532 50.9125 18.5523C50.9327 18.6199 50.9528 18.6875 50.9723 18.7558C50.9925 18.8233 51.0119 18.8916 51.0308 18.9598C51.0574 19.0547 51.0841 19.1496 51.1088 19.2445C51.1289 19.3186 51.1484 19.3927 51.1679 19.4661C52.1169 23.1142 52.2403 26.8702 51.6066 30.4806V30.48Z" fill="#542FA1"/>
</g>
</g>
<g clip-path="url(#clip1_2075_2746)">
<path d="M93.9983 27.0022C93.9983 27.426 93.8908 27.856 93.6633 28.2497C92.9721 29.4447 91.4433 29.8547 90.2484 29.1647L80.116 24.0985C79.4123 23.746 78.5836 23.746 77.8798 24.0985L67.7475 29.1647C66.5525 29.8547 65.0238 29.4447 64.3326 28.2497C64.1051 27.856 63.9976 27.426 63.9976 27.0022C63.9976 26.1385 64.4463 25.2972 65.2475 24.8347L77.8798 18.5185C78.5836 18.166 79.4123 18.166 80.116 18.5185L92.7483 24.8347C93.5496 25.2972 93.9983 26.1385 93.9983 27.0022Z" fill="#542FA1"/>
<path d="M91.4986 11.9998H81.4987V9.49979C81.4987 8.11855 80.38 6.9998 78.9988 6.9998C77.6175 6.9998 76.4988 8.11855 76.4988 9.49979V11.9998H66.499C65.1178 11.9998 63.999 13.1185 63.999 14.4998C63.999 15.881 65.1178 16.9998 66.499 16.9998H91.4986C92.8798 16.9998 93.9985 15.881 93.9985 14.4998C93.9985 13.1185 92.8798 11.9998 91.4986 11.9998Z" fill="#542FA1"/>
<path d="M153.997 36.9997C156.755 36.9997 158.997 39.2422 158.997 41.9997C158.997 44.7571 156.755 46.9996 153.997 46.9996H136.497C133.74 46.9996 131.497 44.7571 131.497 41.9997C131.497 39.2422 133.74 36.9997 136.497 36.9997H153.997ZM153.997 31.9997H136.497C130.975 31.9997 126.498 36.4772 126.498 41.9997C126.498 47.5221 130.975 51.9996 136.497 51.9996H153.997C159.519 51.9996 163.997 47.5221 163.997 41.9997C163.997 36.4772 159.519 31.9997 153.997 31.9997Z" fill="#542FA1"/>
<path d="M163.997 21.961V22.0372C163.997 23.4022 162.887 24.4997 161.524 24.4985C161.515 24.4985 161.506 24.4985 161.497 24.4985C158.67 24.4985 156.14 24.7447 153.997 25.0835V26.9335C153.997 28.3122 152.909 29.481 151.53 29.4985C150.828 29.5072 150.19 29.226 149.73 28.766C149.278 28.3135 148.998 27.6885 148.998 26.9985V9.56479C148.998 8.18605 150.086 7.0173 151.465 6.9998C152.168 6.99105 152.805 7.2723 153.265 7.7323C153.725 8.1923 153.997 8.80979 153.997 9.49979V20.1585C156.232 19.7822 158.809 19.4997 161.497 19.4997C161.516 19.4997 161.534 19.4997 161.552 19.4997C162.906 19.5022 163.997 20.6085 163.997 21.961Z" fill="#542FA1"/>
<path d="M111.498 21.961V22.0372C111.498 23.4022 110.388 24.4997 109.024 24.4985C109.015 24.4985 109.007 24.4985 108.998 24.4985C106.17 24.4985 103.64 24.7447 101.498 25.0835V26.9335C101.498 28.3122 100.409 29.481 99.0305 29.4985C98.328 29.5072 97.6905 29.226 97.2305 28.766C96.778 28.3135 96.498 27.6885 96.498 26.9985V9.56479C96.498 8.18605 97.5868 7.0173 98.9655 6.9998C99.668 6.99105 100.305 7.2723 100.765 7.7323C101.225 8.1923 101.498 8.80979 101.498 9.49979V20.1585C103.733 19.7822 106.309 19.4997 108.998 19.4997C109.017 19.4997 109.034 19.4997 109.053 19.4997C110.407 19.5022 111.498 20.6085 111.498 21.961Z" fill="#542FA1"/>
<path d="M121.498 45.3796C121.498 46.5859 120.612 47.6071 119.419 47.7834C114.447 48.5171 111.498 49.4996 111.498 49.4996C111.498 49.4996 102.748 51.9996 92.7484 51.9996C85.5785 51.9996 79.0511 50.7146 75.9312 49.9871C74.7987 49.7234 73.9987 48.7146 73.9987 47.5521V40.7497C73.9987 39.3684 75.1175 38.2497 76.4987 38.2497H106.498V36.9997H76.4987C75.8087 36.9997 75.1837 36.7197 74.7312 36.2672C74.2712 35.8072 73.99 35.1697 73.9987 34.4672C74.0162 33.0884 75.1837 31.9997 76.5637 31.9997H108.998C110.379 31.9997 111.498 33.1184 111.498 34.4997V40.7497C111.498 42.1309 110.379 43.2496 108.998 43.2496H78.9986V45.7196C82.2861 46.3546 87.0335 46.9996 92.7484 46.9996C103.998 46.9996 111.498 44.4996 111.498 44.4996C111.498 44.4996 114.361 43.6809 118.683 42.9809C120.159 42.7421 121.498 43.8846 121.498 45.3796Z" fill="#542FA1"/>
<path d="M141.498 6.9998H118.872C117.561 6.9998 116.498 8.0623 116.498 9.37354V9.62479C116.498 10.936 117.561 11.9985 118.872 11.9985H141.498V14.4985H118.872C117.561 14.4985 116.498 15.561 116.498 16.8723V25.2535C116.498 26.3135 117.201 27.2435 118.219 27.536C120.779 28.271 125.893 29.4972 131.498 29.4972C137.103 29.4972 142.216 28.2697 144.776 27.536C145.795 27.2435 146.498 26.3135 146.498 25.2535C146.498 23.6897 145.015 22.556 143.505 22.961C140.886 23.6647 136.691 24.4972 131.498 24.4972C127.475 24.4972 124.054 23.9985 121.498 23.446V19.4972H144.124C145.435 19.4972 146.498 18.4348 146.498 17.1235V9.37354C146.498 8.0623 145.435 6.9998 144.124 6.9998H141.498Z" fill="#542FA1"/>
</g>
<defs>
<clipPath id="clip0_2075_2746">
<rect width="52" height="52" fill="white"/>
</clipPath>
<clipPath id="clip1_2075_2746">
<rect width="100" height="45" fill="white" transform="translate(64 7)"/>
</clipPath>
</defs>
</svg>
