<?xml version="1.0" encoding="UTF-8"?>
<svg xmlns="http://www.w3.org/2000/svg" viewBox="0 0 800.07 800.07">
  <defs>
    <style>
      .cls-1 {
        fill: #e77583;
      }

      .cls-1, .cls-2, .cls-3, .cls-4, .cls-5 {
        stroke-width: 0px;
      }

      .cls-6 {
        isolation: isolate;
      }

      .cls-2 {
        fill: #542fa1;
      }

      .cls-2, .cls-4, .cls-5 {
        mix-blend-mode: multiply;
      }

      .cls-3 {
        fill: none;
      }

      .cls-4 {
        fill: #f3bac1;
      }

      .cls-5 {
        fill: #fff;
      }
    </style>
  </defs>
  <g class="cls-6">
    <g id="Layer_2" data-name="Layer 2">
      <g id="_심볼" data-name="심볼">
        <g id="_심볼-2" data-name="심볼">
          <g>
            <circle class="cls-5" cx="210" cy="320" r="40"/>
            <path class="cls-5" d="M787.27,299.5c-.3-1.13-.6-2.27-.91-3.41-.38-1.46-.79-2.92-1.2-4.38-.29-1.05-.59-2.1-.9-3.14-.3-1.05-.61-2.09-.92-3.13-8.76-29.22-21.02-57.88-36.93-85.44-4.64-8.04-9.76-15.64-15.3-22.78-60.31-77.77-170.29-101.01-257.9-50.43-95.66,55.23-128.44,177.55-73.21,273.21,33.79,58.53,34.64,127.03,8.29,184.05-52.66-21.99-98.8-60.81-129.53-114.05-35.9-62.18-115.41-83.48-177.59-47.58-61.53,35.53-83.04,113.77-48.67,175.66.36.64.72,1.28,1.09,1.92,29.72,51.47,69.15,93.84,114.64,126.13.32.23.64.45.96.68,1.15.81,2.3,1.62,3.46,2.42.03.02.06.04.09.06.87.59,1.73,1.19,2.6,1.77.9.61,1.8,1.22,2.7,1.82.9.6,1.81,1.2,2.71,1.79,41.1,26.96,86.32,45.69,133.18,55.97,1.03.23,2.07.45,3.1.67,1.07.22,2.13.44,3.2.66.75.16,1.51.31,2.27.45,1.35.27,2.7.53,4.05.79,1.6.3,3.2.59,4.81.87,55.81,9.75,113.89,7.74,170.25-7.1.71-.19,1.43-.38,2.14-.57.47-.12.94-.25,1.4-.38,1.05-.28,2.1-.57,3.14-.87,1.05-.29,2.1-.59,3.14-.9,1.05-.3,2.09-.61,3.13-.92,1.97-.59,3.94-1.2,5.9-1.82,0,0,0,0,0,0,1.63-.51,3.26-1.05,4.89-1.58,0,0,0,0,0,0,1.92-.64,3.84-1.29,5.75-1.95,34.13-11.82,67.09-28.44,97.87-49.98,1-.69,2-1.4,2.99-2.1,30.5-21.65,57.13-47,79.68-75.04,1.32-1.63,2.62-3.27,3.91-4.92h0c1.08-1.39,2.15-2.77,3.21-4.17h0c1.27-1.67,2.52-3.34,3.76-5.02.99-1.35,1.97-2.7,2.94-4.06.88-1.23,1.75-2.46,2.61-3.69.38-.55.77-1.1,1.15-1.65.61-.9,1.23-1.79,1.83-2.69.61-.9,1.22-1.8,1.82-2.7,27.92-41.82,47.25-88,57.76-135.89.21-.94.41-1.88.61-2.82.06-.28.11-.56.17-.83.38-1.79.75-3.59,1.1-5.38.2-1,.39-2,.58-3,.32-1.69.62-3.38.92-5.07,9.75-55.55,7.85-113.34-6.75-169.47Z"/>
          </g>
          <path class="cls-4" d="M794.02,468.97c-.3,1.69-.6,3.38-.92,5.07-.19,1-.38,2-.58,3-.35,1.79-.72,3.59-1.1,5.38-.06.27-.11.55-.17.83-.2.94-.4,1.88-.61,2.82-10.64,48.2-30.13,94.37-57.76,135.89-.6.9-1.21,1.8-1.82,2.7-.6.9-1.22,1.79-1.83,2.69-.38.55-.77,1.1-1.15,1.65-.86,1.23-1.73,2.46-2.61,3.69-.97,1.36-1.95,2.71-2.94,4.06-1.24,1.68-2.49,3.36-3.76,5.02-1.06,1.4-2.13,2.78-3.21,4.17-.08.1-.16.2-.24.31-23.32,29.88-51.19,56.82-83.35,79.66-.99.7-1.99,1.41-2.99,2.1-9.31,6.49-18.97,12.63-28.98,18.41-27.56,15.91-56.22,28.17-85.44,36.93-1.04.31-2.08.62-3.13.92-1.04.31-2.09.61-3.14.9-1.04.3-2.09.59-3.14.87-.46.13-.93.26-1.4.38-.71.19-1.43.38-2.14.57-56.36,14.84-114.44,16.85-170.25,7.1-1.61-.28-3.21-.57-4.81-.87-1.35-.26-2.7-.52-4.05-.79-.76-.14-1.52-.29-2.27-.45-1.07-.22-2.13-.44-3.2-.66-1.03-.22-2.07-.44-3.1-.67-47.16-10.41-92.37-29.28-133.18-55.97-.9-.59-1.81-1.19-2.71-1.79-.9-.6-1.8-1.21-2.7-1.82-.87-.58-1.73-1.18-2.6-1.77-.03-.02-.06-.04-.09-.06-1.16-.8-2.31-1.61-3.46-2.42-.32-.23-.64-.45-.96-.68-45.49-32.29-84.92-74.66-114.64-126.13-.37-.64-.73-1.28-1.09-1.92-34.37-61.89-12.86-140.13,48.67-175.66,62.18-35.9,141.69-14.6,177.59,47.58,30.73,53.24,76.87,92.06,129.53,114.05,21.21,8.88,43.47,15.01,66.21,18.27,57.77,8.26,118.62-2.05,173.08-33.49,129.14-74.56,173.39-239.69,98.83-368.83,15.91,27.56,28.17,56.22,36.93,85.44.31,1.04.62,2.08.92,3.13.31,1.04.61,2.09.9,3.14.41,1.46.82,2.92,1.2,4.38.31,1.14.61,2.28.91,3.41,14.6,56.13,16.5,113.92,6.75,169.47Z"/>
          <path class="cls-1" d="M794.02,468.97c-.3,1.69-.6,3.38-.92,5.07-.19,1-.38,2-.58,3-.35,1.8-.71,3.59-1.1,5.38-.06.27-.11.55-.17.83-.2.94-.4,1.88-.61,2.82-10.51,47.89-29.84,94.07-57.76,135.89-.6.9-1.21,1.8-1.82,2.7-.6.9-1.22,1.79-1.83,2.69-.38.55-.77,1.1-1.15,1.65-.86,1.23-1.73,2.46-2.61,3.69-.97,1.36-1.95,2.71-2.94,4.06-18.55,25.22-40.37,48.65-65.41,69.67-8.2,6.88-16.59,13.37-25.15,19.48-.99.7-1.99,1.41-2.99,2.1-32.43,22.7-67.28,39.94-103.38,51.85-.08.03-.17.06-.25.08-1.63.54-3.26,1.07-4.89,1.58-1.96.62-3.93,1.23-5.9,1.82-1.04.31-2.08.62-3.13.92-1.04.31-2.09.61-3.14.9-1.04.3-2.09.59-3.14.87-.46.13-.93.26-1.4.38-.71.19-1.43.38-2.14.57-55.85,14.62-113.99,16.87-170.25,7.1-1.61-.28-3.21-.57-4.81-.87-1.35-.26-2.7-.52-4.05-.79-.76-.14-1.52-.29-2.27-.45-1.07-.22-2.13-.44-3.2-.66-1.03-.22-2.07-.44-3.1-.67-46.86-10.28-92.08-29.01-133.18-55.97-.9-.59-1.81-1.19-2.71-1.79-.9-.6-1.8-1.21-2.7-1.82-.87-.58-1.73-1.18-2.6-1.77-.03-.02-.06-.04-.09-.06-1.16-.8-2.31-1.61-3.46-2.42-.32-.23-.64-.45-.96-.68-26.65-18.97-51.39-41.54-73.49-67.64-.39-.46-.77-.91-1.16-1.37-6.06-7.22-11.13-14.95-15.2-23.02-24.62-48.62-13.55-109.5,29.99-146.04,50.77-42.61,126.46-35.98,169.06,14.79,35.12,41.86,79.89,70.86,128.33,86.46,22.33,7.2,45.44,11.56,68.74,13.01,69.19,4.33,140.1-16.88,197.41-64.96,107.48-90.19,130.16-243.93,59.2-360.14,5.54,7.14,10.66,14.74,15.3,22.78,15.91,27.56,28.17,56.22,36.93,85.44.31,1.04.62,2.08.92,3.13.31,1.04.61,2.09.9,3.14.41,1.46.82,2.92,1.2,4.38.31,1.14.61,2.28.91,3.41,14.39,55.63,16.52,113.49,6.75,169.47Z"/>
          <circle class="cls-1" cx="210" cy="320" r="40"/>
          <path class="cls-2" d="M794.02,468.97c-.3,1.69-.6,3.38-.92,5.07-.19,1-.38,2-.58,3-.35,1.79-.72,3.59-1.1,5.38-.06.27-.11.55-.17.83-.2.94-.4,1.88-.61,2.82-10.64,48.2-30.13,94.37-57.76,135.89-.6.9-1.21,1.8-1.82,2.7-.6.9-1.22,1.79-1.83,2.69-.38.55-.77,1.1-1.15,1.65-.86,1.23-1.73,2.46-2.61,3.69-.97,1.36-1.95,2.71-2.94,4.06-1.24,1.68-2.49,3.36-3.76,5.02-1.06,1.4-2.13,2.78-3.21,4.17-.08.1-.16.2-.24.31-23.32,29.88-51.19,56.82-83.35,79.66-.99.7-1.99,1.41-2.99,2.1-9.31,6.49-18.97,12.63-28.98,18.41-27.56,15.91-56.22,28.17-85.44,36.93-1.04.31-2.08.62-3.13.92-1.04.31-2.09.61-3.14.9-1.04.3-2.09.59-3.14.87-.46.13-.93.26-1.4.38-.71.19-1.43.38-2.14.57-56.36,14.84-114.44,16.85-170.25,7.1-1.61-.28-3.21-.57-4.81-.87-1.35-.26-2.7-.52-4.05-.79-.76-.14-1.52-.29-2.27-.45-1.07-.22-2.13-.44-3.2-.66-1.03-.22-2.07-.44-3.1-.67-47.16-10.41-92.37-29.28-133.18-55.97-.9-.59-1.81-1.19-2.71-1.79-.9-.6-1.8-1.21-2.7-1.82-.87-.58-1.73-1.18-2.6-1.77-.03-.02-.06-.04-.09-.06-1.16-.8-2.31-1.61-3.46-2.42-.32-.23-.64-.45-.96-.68-45.49-32.29-84.92-74.66-114.64-126.13,7.19,12.45,15.52,23.84,24.79,34.1,61.84,68.6,165.21,87.14,248.41,39.11,35.32-20.39,62.06-49.93,78.97-83.9.87-1.74,1.72-3.5,2.53-5.26,26.35-57.02,25.5-125.52-8.29-184.05-55.23-95.66-22.45-217.98,73.21-273.21,87.61-50.58,197.59-27.34,257.9,50.43,5.54,7.14,10.66,14.74,15.3,22.78,15.91,27.56,28.17,56.22,36.93,85.44.31,1.04.62,2.08.92,3.13.31,1.04.61,2.09.9,3.14.41,1.46.82,2.92,1.2,4.38.31,1.14.61,2.28.91,3.41,14.6,56.13,16.5,113.92,6.75,169.47Z"/>
          <circle class="cls-3" cx="400" cy="400" r="400"/>
        </g>
      </g>
    </g>
  </g>
</svg>