<?xml version="1.0" encoding="UTF-8"?>
<svg id="Layer_2" data-name="Layer 2" xmlns="http://www.w3.org/2000/svg" viewBox="0 0 800 360">
  <defs>
    <style>
      .cls-1 {
        fill: #542fa1;
        stroke-width: 0px;
      }
    </style>
  </defs>
  <g id="_타이포" data-name="타이포">
    <g id="_타이포-2" data-name="타이포">
      <path class="cls-1" d="M240,160.02c0,3.39-.86,6.83-2.68,9.98-5.53,9.56-17.76,12.84-27.32,7.32l-81.06-40.53c-5.63-2.82-12.26-2.82-17.89,0l-81.06,40.53c-9.56,5.52-21.79,2.24-27.32-7.32-1.82-3.15-2.68-6.59-2.68-9.98,0-6.91,3.59-13.64,10-17.34l101.06-50.53c5.63-2.82,12.26-2.82,17.89,0l101.06,50.53c6.41,3.7,10,10.43,10,17.34Z"/>
      <path class="cls-1" d="M220,40h-80v-20c0-11.05-8.95-20-20-20s-20,8.95-20,20v20H20C8.95,40,0,48.95,0,60h0c0,11.05,8.95,20,20,20h200c11.05,0,20-8.95,20-20h0c0-11.05-8.95-20-20-20Z"/>
      <path class="cls-1" d="M720,240c22.06,0,40,17.94,40,40s-17.94,40-40,40h-140c-22.06,0-40-17.94-40-40s17.94-40,40-40h140M720,200h-140c-44.18,0-80,35.82-80,80s35.82,80,80,80h140c44.18,0,80-35.82,80-80s-35.82-80-80-80h0Z"/>
      <path class="cls-1" d="M800,119.69v.61c0,10.92-8.88,19.7-19.79,19.69-.07,0-.14,0-.21,0-22.62,0-42.86,1.97-60,4.68v14.8c0,11.03-8.71,20.38-19.74,20.52-5.62.07-10.72-2.18-14.4-5.86-3.62-3.62-5.86-8.62-5.86-14.14V20.52c0-11.03,8.71-20.38,19.74-20.52,5.62-.07,10.72,2.18,14.4,5.86s5.86,8.62,5.86,14.14v85.27c17.88-3.01,38.49-5.27,60-5.27.15,0,.29,0,.44,0,10.83.02,19.56,8.87,19.56,19.69Z"/>
      <path class="cls-1" d="M380,119.69v.61c0,10.92-8.88,19.7-19.79,19.69-.07,0-.14,0-.21,0-22.62,0-42.86,1.97-60,4.68v14.8c0,11.03-8.71,20.38-19.74,20.52-5.62.07-10.72-2.18-14.4-5.86-3.62-3.62-5.86-8.62-5.86-14.14V20.52c0-11.03,8.71-20.38,19.74-20.52,5.62-.07,10.72,2.18,14.4,5.86s5.86,8.62,5.86,14.14v85.27c17.88-3.01,38.49-5.27,60-5.27.15,0,.29,0,.44,0,10.83.02,19.56,8.87,19.56,19.69Z"/>
      <path class="cls-1" d="M460,307.04h0c0,9.65-7.09,17.82-16.63,19.23-39.78,5.87-63.37,13.73-63.37,13.73,0,0-70,20-150,20-57.36,0-109.58-10.28-134.54-16.1-9.06-2.11-15.46-10.18-15.46-19.48v-54.42c0-11.05,8.95-20,20-20h240v-10H100c-5.52,0-10.52-2.24-14.14-5.86-3.68-3.68-5.93-8.78-5.86-14.4.14-11.03,9.48-19.74,20.52-19.74h259.48c11.05,0,20,8.95,20,20v50c0,11.05-8.95,20-20,20H120v19.76c26.3,5.08,64.28,10.24,110,10.24,90,0,150-20,150-20,0,0,22.9-6.55,57.48-12.15,11.81-1.91,22.52,7.23,22.52,19.19Z"/>
      <path class="cls-1" d="M620,0h-181.01c-10.49,0-18.99,8.5-18.99,18.99v2.01c0,10.49,8.5,18.99,18.99,18.99h181.01v20h-181.01c-10.49,0-18.99,8.5-18.99,18.99v67.05c0,8.48,5.62,15.92,13.77,18.26,20.48,5.88,61.39,15.69,106.23,15.69s85.75-9.82,106.23-15.69c8.15-2.34,13.77-9.78,13.77-18.26h0c0-12.51-11.86-21.58-23.94-18.34-20.95,5.63-54.51,12.29-96.06,12.29-32.18,0-59.55-3.99-80-8.41v-31.59h181.01c10.49,0,18.99-8.5,18.99-18.99V18.99c0-10.49-8.5-18.99-18.99-18.99h-21.01Z"/>
    </g>
  </g>
</svg>