<?xml version="1.0" encoding="UTF-8"?>
<svg id="Layer_2" data-name="Layer 2" xmlns="http://www.w3.org/2000/svg" xmlns:xlink="http://www.w3.org/1999/xlink" viewBox="0 0 2710.5 1240">
  <defs>
    <style>
      .cls-1 {
        fill: url(#linear-gradient);
      }

      .cls-1, .cls-2, .cls-3, .cls-4, .cls-5, .cls-6, .cls-7, .cls-8 {
        stroke-width: 0px;
      }

      .cls-9, .cls-7 {
        opacity: .5;
      }

      .cls-2 {
        fill: url(#linear-gradient-5);
      }

      .cls-3, .cls-10 {
        fill: none;
      }

      .cls-10 {
        stroke: #fff;
        stroke-miterlimit: 10;
      }

      .cls-4 {
        fill: url(#linear-gradient-2);
      }

      .cls-11 {
        clip-path: url(#clippath);
      }

      .cls-5 {
        fill: #dbecf5;
      }

      .cls-6 {
        fill: #fff;
      }

      .cls-7 {
        fill: url(#linear-gradient-3);
      }

      .cls-8 {
        fill: url(#linear-gradient-4);
      }
    </style>
    <clipPath id="clippath">
      <rect class="cls-3" x="310" y="140" width="1920" height="480"/>
    </clipPath>
    <linearGradient id="linear-gradient" x1="1233.15" y1="25.9" x2="1314.93" y2="811.78" gradientUnits="userSpaceOnUse">
      <stop offset="0" stop-color="#bed6e3"/>
      <stop offset=".42" stop-color="#dbecf5"/>
      <stop offset="1" stop-color="#fff"/>
    </linearGradient>
    <linearGradient id="linear-gradient-2" x1="1109.82" y1="-143.35" x2="1346.76" y2="688.43" gradientTransform="translate(303.97 -99.99) rotate(20.66)" gradientUnits="userSpaceOnUse">
      <stop offset="0" stop-color="#fff"/>
      <stop offset="1" stop-color="#bed6e3" stop-opacity="0"/>
    </linearGradient>
    <linearGradient id="linear-gradient-3" x1="1406.93" y1="222.57" x2="1302.72" y2="1179.67" gradientUnits="userSpaceOnUse">
      <stop offset="0" stop-color="#fff"/>
      <stop offset="1" stop-color="#f2e4bb" stop-opacity="0"/>
    </linearGradient>
    <linearGradient id="linear-gradient-4" x1="229.5" y1="180" x2="650.5" y2="180" gradientUnits="userSpaceOnUse">
      <stop offset=".57" stop-color="#fff"/>
      <stop offset="1" stop-color="#bed6e3" stop-opacity="0"/>
    </linearGradient>
    <linearGradient id="linear-gradient-5" x1="1889.5" y1="190" x2="2280.5" y2="190" gradientUnits="userSpaceOnUse">
      <stop offset="0" stop-color="#fff"/>
      <stop offset=".68" stop-color="#fdfefe" stop-opacity=".96"/>
      <stop offset="1" stop-color="#bed6e3" stop-opacity="0"/>
    </linearGradient>
  </defs>
  <g id="_홈-header-전통주" data-name="홈-header-전통주">
    <g id="_홈-header-전통주-2" data-name="홈-header-전통주">
      <g class="cls-11">
        <g>
          <rect class="cls-1" x="310" y="140" width="1920" height="480"/>
          <path class="cls-4" d="M1754.08,1240c-100.93,0-198.65-9.28-290.44-27.58-85.76-17.1-164.46-41.66-233.9-73.02-51.48-23.24-97.11-50.01-135.62-79.56-105.88-81.24-234.56-123.98-365.27-123.98-49.84,0-99.95,6.21-149.24,18.87-31.53,8.1-65.81,12.21-101.89,12.21-30.7,0-62.48-3.02-94.48-8.98-51.32-9.55-101.19-26.13-148.21-49.27-45.42-22.34-86.29-49.84-121.49-81.73-35.19-31.88-62.93-66.54-82.44-103.02-9.89-18.48-17.53-37.33-22.73-56.01C3.03,648.78.22,629.55.01,610.8c-.29-26.3,4.23-50.37,13.82-73.58,9.3-22.49,22.56-42.26,40.54-60.44,12.49-12.63,27.06-24.09,43.29-34.04,16.19-9.93,34.18-18.45,53.46-25.32,39.53-14.09,83.77-21.24,131.47-21.24,30.66,0,62.45,3.02,94.47,8.98,51.31,9.55,101.18,26.13,148.2,49.26,15.3,7.53,30.27,15.75,44.52,24.44,95.91,58.5,204.17,87.76,312.44,87.76s214.55-28.73,309.87-86.21c24.73-14.91,51.21-29.17,78.72-42.4,60.56-29.1,127.5-53.99,198.96-73.98,73.73-20.62,152.01-35.94,232.67-45.52,64.68-7.69,130.19-11.58,194.71-11.58,100.93,0,198.65,9.28,290.44,27.58,85.76,17.1,164.46,41.66,233.9,73.02,71.71,32.38,131.21,71.02,176.86,114.86,23.2,22.28,42.78,45.96,58.17,70.38,15.77,25.01,27.42,51.19,34.63,77.84,5.22,19.29,8.16,38.99,8.73,58.54.56,19.21-1.16,38.7-5.1,57.94-7.74,37.79-24.16,75.45-48.8,111.92-26.81,39.68-63.19,77.81-108.13,113.31-44.86,35.44-97.83,67.93-157.44,96.58-60.57,29.11-127.51,54-198.96,73.98-73.73,20.62-152.01,35.94-232.67,45.52-64.69,7.69-130.2,11.58-194.72,11.58Z"/>
          <path class="cls-7" d="M1764.08,1220.5c-100.96,0-198.71-9.28-290.54-27.59-85.8-17.1-164.53-41.68-234.01-73.05-51.51-23.26-97.18-50.04-135.72-79.62-104.11-79.88-233.73-123.88-364.97-123.88-50.24,0-100.42,6.34-149.12,18.85-31.57,8.11-65.89,12.22-102.01,12.22-30.72,0-62.54-3.03-94.58-8.99-51.37-9.56-101.28-26.15-148.34-49.31-45.46-22.37-86.37-49.89-121.6-81.8-35.23-31.92-63-66.62-82.55-103.15-9.91-18.52-17.57-37.4-22.77-56.11-5.34-19.2-8.15-38.47-8.36-57.27-.29-26.37,4.24-50.5,13.86-73.77,9.32-22.55,22.62-42.37,40.64-60.6,12.52-12.66,27.12-24.14,43.38-34.11,16.22-9.94,34.24-18.48,53.56-25.37,39.59-14.11,83.88-21.26,131.64-21.26,30.69,0,62.51,3.02,94.56,8.99,51.36,9.56,101.26,26.15,148.33,49.31,15.31,7.53,30.3,15.76,44.56,24.46,94.06,57.37,202,87.69,312.18,87.69s216.17-29.79,309.61-86.14c24.73-14.92,51.23-29.19,78.77-42.42,60.6-29.12,127.57-54.02,199.04-74.01,73.76-20.63,152.07-35.95,232.74-45.54,64.69-7.69,130.22-11.59,194.77-11.59,100.96,0,198.71,9.28,290.54,27.59,85.8,17.1,164.53,41.68,234.01,73.05,71.76,32.4,131.32,71.08,177,114.96,23.24,22.31,42.83,46.02,58.25,70.47,15.79,25.05,27.47,51.28,34.69,77.98,5.23,19.33,8.17,39.07,8.74,58.66.56,19.25-1.16,38.78-5.11,58.06-7.75,37.86-24.2,75.57-48.87,112.1-26.84,39.73-63.25,77.89-108.24,113.43-44.89,35.46-97.9,67.98-157.54,96.63-60.59,29.12-127.56,54.02-199.04,74.01-73.75,20.63-152.06,35.95-232.74,45.54-64.7,7.69-130.23,11.59-194.78,11.59ZM738.84,915.36c65.44,0,130.08,10.62,192.11,31.55,62.64,21.14,121,52.28,173.47,92.53,38.48,29.53,84.08,56.27,135.52,79.5,69.41,31.34,148.07,55.89,233.8,72.98,91.76,18.29,189.45,27.57,290.35,27.57,64.5,0,130-3.9,194.66-11.58,80.63-9.58,158.89-24.89,232.59-45.51,71.43-19.98,138.34-44.86,198.88-73.95,59.58-28.63,112.52-61.1,157.35-96.52,44.9-35.47,81.25-73.56,108.03-113.2,24.6-36.42,40.99-74.01,48.72-111.74,3.93-19.21,5.65-38.66,5.09-57.83-.57-19.51-3.5-39.17-8.71-58.42-7.2-26.6-18.83-52.74-34.57-77.7-15.37-24.38-34.92-48.03-58.1-70.29-45.6-43.8-105.06-82.41-176.72-114.77-69.41-31.34-148.07-55.9-233.79-72.98-91.76-18.29-189.45-27.57-290.35-27.57-64.51,0-130,3.9-194.65,11.58-80.63,9.58-158.88,24.89-232.59,45.51-71.42,19.98-138.34,44.86-198.88,73.95-27.5,13.22-53.98,27.47-78.68,42.37-93.59,56.45-200.83,86.28-310.12,86.28s-218.48-30.37-312.7-87.84c-14.23-8.68-29.19-16.89-44.48-24.41-46.99-23.12-96.8-39.68-148.07-49.22-31.99-5.95-63.75-8.97-94.38-8.97-47.65,0-91.83,7.13-131.31,21.21-19.25,6.86-37.21,15.37-53.37,25.28-16.2,9.93-30.73,21.36-43.19,33.96-17.93,18.13-31.16,37.85-40.43,60.28-9.57,23.14-14.08,47.15-13.79,73.38.21,18.71,3.01,37.9,8.32,57.01,5.18,18.64,12.82,37.45,22.69,55.91,19.49,36.43,47.19,71.04,82.34,102.88,35.16,31.85,76,59.32,121.37,81.65,46.98,23.12,96.81,39.68,148.08,49.22,31.98,5.95,63.74,8.97,94.39,8.97,36.04,0,70.27-4.1,101.76-12.19,48.78-12.53,99.04-18.88,149.37-18.88Z"/>
          <g class="cls-9">
            <line class="cls-10" x1="513.78" y1="21.09" x2="513.78" y2="276.31"/>
            <g>
              <circle class="cls-6" cx="513.78" cy="237.67" r="17.03" transform="translate(90.51 613.57) rotate(-66.43)"/>
              <path class="cls-6" d="M518.14,258.98c0,2.41-1.95,4.37-4.37,4.37s-4.37-1.95-4.37-4.37,1.95-4.37,4.37-4.37,4.37,1.95,4.37,4.37Z"/>
              <g>
                <rect class="cls-6" x="501.94" y="295.19" width="23.9" height="4.45" rx="1.97" ry="1.97"/>
                <path class="cls-6" d="M513.89,276.92c0,1.5-2.67,2.71-5.97,2.71s-5.97-1.21-5.97-2.71,2.67-2.71,5.97-2.71,5.97,1.21,5.97,2.71Z"/>
                <rect class="cls-5" x="501.94" y="276.92" width="11.95" height="20.21"/>
                <g>
                  <path class="cls-6" d="M511.58,287.87h-6.58v-2.9h6.58v2.9ZM505.77,287.1h5.03v-1.35h-5.03v1.35Z"/>
                  <path class="cls-6" d="M511.57,284.35h-6.56c-.21,0-.39-.17-.39-.39s.17-.39.39-.39h6.56c.21,0,.39.17.39.39s-.17.39-.39.39Z"/>
                  <path class="cls-6" d="M511.57,283.1h-6.56c-.21,0-.39-.17-.39-.39s.17-.39.39-.39h6.56c.21,0,.39.17.39.39s-.17.39-.39.39Z"/>
                  <path class="cls-6" d="M508.29,285.57c-.21,0-.39-.17-.39-.39v-3.42c0-.21.17-.39.39-.39s.39.17.39.39v3.42c0,.21-.17.39-.39.39Z"/>
                  <path class="cls-6" d="M511.58,292.63h-6.58v-2.9h6.58v2.9ZM505.77,291.86h5.03v-1.35h-5.03v1.35Z"/>
                  <path class="cls-6" d="M511.57,289.11h-6.56c-.21,0-.39-.17-.39-.39s.17-.39.39-.39h6.56c.21,0,.39.17.39.39s-.17.39-.39.39Z"/>
                  <path class="cls-6" d="M508.29,290.33c-.21,0-.39-.17-.39-.39v-2.46c0-.21.17-.39.39-.39s.39.17.39.39v2.46c0,.21-.17.39-.39.39Z"/>
                </g>
                <path class="cls-6" d="M525.83,276.9c0,1.5-2.67,2.71-5.97,2.71s-5.97-1.21-5.97-2.71,2.67-2.71,5.97-2.71,5.97,1.21,5.97,2.71Z"/>
                <rect class="cls-5" x="513.89" y="276.9" width="11.95" height="20.21"/>
                <path class="cls-6" d="M525.72,280h-23.89c-.43,0-.77-.17-.77-.39s.35-.39.77-.39h23.89c.43,0,.77.17.77.39s-.35.39-.77.39Z"/>
                <path class="cls-6" d="M525.72,294.69h-23.89c-.43,0-.77-.17-.77-.39s.35-.39.77-.39h23.89c.43,0,.77.17.77.39s-.35.39-.77.39Z"/>
                <g>
                  <path class="cls-6" d="M523.29,287.54h-6.58v-2.9h6.58v2.9ZM517.48,286.76h5.03v-1.35h-5.03v1.35Z"/>
                  <path class="cls-6" d="M523.28,284.02h-6.56c-.21,0-.39-.17-.39-.39s.17-.39.39-.39h6.56c.21,0,.39.17.39.39s-.17.39-.39.39Z"/>
                  <path class="cls-6" d="M523.28,282.76h-6.56c-.21,0-.39-.17-.39-.39s.17-.39.39-.39h6.56c.21,0,.39.17.39.39s-.17.39-.39.39Z"/>
                  <path class="cls-6" d="M520,285.24c-.21,0-.39-.17-.39-.39v-3.42c0-.21.17-.39.39-.39s.39.17.39.39v3.42c0,.21-.17.39-.39.39Z"/>
                  <path class="cls-6" d="M523.29,292.3h-6.58v-2.9h6.58v2.9ZM517.48,291.53h5.03v-1.35h-5.03v1.35Z"/>
                  <path class="cls-6" d="M523.28,288.78h-6.56c-.21,0-.39-.17-.39-.39s.17-.39.39-.39h6.56c.21,0,.39.17.39.39s-.17.39-.39.39Z"/>
                  <path class="cls-6" d="M520,290c-.21,0-.39-.17-.39-.39v-2.46c0-.21.17-.39.39-.39s.39.17.39.39v2.46c0,.21-.17.39-.39.39Z"/>
                </g>
              </g>
              <g>
                <path class="cls-6" d="M501.8,299.63h23.95c1.46,0,2.65,1.19,2.65,2.65v93.75c0,1.46-1.19,2.65-2.65,2.65h-23.95c-1.46,0-2.65-1.19-2.65-2.65v-93.75c0-1.46,1.19-2.65,2.65-2.65Z"/>
                <rect class="cls-5" x="452.12" y="348.85" width="99.75" height="1.32" transform="translate(151.63 850.91) rotate(-89.9)"/>
                <rect class="cls-5" x="454.76" y="348.85" width="99.75" height="1.32" transform="translate(154.27 853.55) rotate(-89.9)"/>
                <rect class="cls-5" x="457.41" y="348.85" width="99.75" height="1.32" transform="translate(156.91 856.19) rotate(-89.9)"/>
                <rect class="cls-5" x="460.05" y="348.85" width="99.75" height="1.32" transform="translate(159.54 858.83) rotate(-89.9)"/>
                <rect class="cls-5" x="462.69" y="348.85" width="99.75" height="1.32" transform="translate(162.18 861.48) rotate(-89.9)"/>
                <rect class="cls-5" x="465.42" y="348.87" width="99.75" height="1.32" transform="translate(164.89 864.23) rotate(-89.9)"/>
                <rect class="cls-5" x="468.06" y="348.87" width="99.75" height="1.32" transform="translate(167.53 866.87) rotate(-89.9)"/>
                <rect class="cls-5" x="470.7" y="348.87" width="99.75" height="1.32" transform="translate(170.17 869.52) rotate(-89.9)"/>
                <rect class="cls-5" x="473.35" y="348.87" width="99.75" height="1.32" transform="translate(172.8 872.16) rotate(-89.9)"/>
                <rect class="cls-5" x="473.35" y="348.87" width="99.75" height="1.32" transform="translate(172.8 872.16) rotate(-89.9)"/>
                <rect class="cls-5" x="475.99" y="348.87" width="99.75" height="1.32" transform="translate(175.44 874.8) rotate(-89.9)"/>
              </g>
              <g>
                <path class="cls-5" d="M528.39,235.77c-.17-1.31-.52-2.59-1.03-3.82-.74-1.75-1.8-3.33-3.16-4.68-1.35-1.35-2.93-2.41-4.68-3.16-.46-.2-.94-.37-1.41-.51-.41-.12-.81-.23-1.23-.32-.4-.08-.8-.15-1.21-.2-.42-.05-.84-.09-1.26-.11v14.03h14.08c-.02-.41-.05-.82-.11-1.23ZM515.68,226.69v-2.21c.41.06.81.13,1.21.23.41.1.82.22,1.23.36.29.1.58.21.87.33,1.42.6,2.71,1.43,3.84,2.48l-.71.72c-1.04-.95-2.22-1.72-3.52-2.27-.16-.07-.31-.13-.47-.19-.4-.15-.81-.28-1.23-.39v2.66h-1.21v-1.72ZM522.68,233.25h-7v-3.72h1.21v2.48h5.06c-.3-.43-.63-.84-1-1.22-.04-.04-.08-.09-.13-.13-.28-.28-.58-.55-.89-.79-.19-.15-.39-.3-.6-.43v1.36h-1.21v-3.39s.01,0,.02,0c1.33.56,2.52,1.36,3.54,2.39,1,1,1.79,2.16,2.35,3.46h-1.34ZM525.96,235.77h-10.28v-1.28h10.01c-.11-.42-.25-.82-.4-1.23-.05-.12-.1-.25-.15-.37-.53-1.26-1.26-2.41-2.18-3.43l.71-.72c1.01,1.11,1.81,2.37,2.4,3.75.45,1.05.75,2.15.91,3.28h-1.02Z"/>
                <path class="cls-5" d="M513.78,252.4c-1.99,0-3.92-.39-5.73-1.16-1.75-.74-3.33-1.8-4.68-3.16-1.35-1.35-2.41-2.93-3.16-4.68-.77-1.82-1.16-3.74-1.16-5.73s.39-3.92,1.16-5.73c.74-1.75,1.8-3.33,3.16-4.68,1.35-1.35,2.93-2.41,4.68-3.16,1.82-.77,3.74-1.16,5.73-1.16s3.92.39,5.73,1.16c1.75.74,3.33,1.8,4.68,3.16,1.35,1.35,2.41,2.93,3.16,4.68.77,1.82,1.16,3.74,1.16,5.73s-.39,3.92-1.16,5.73c-.74,1.75-1.8,3.33-3.16,4.68-1.35,1.35-2.93,2.41-4.68,3.16-1.82.77-3.74,1.16-5.73,1.16ZM513.78,224.35c-1.8,0-3.54.35-5.19,1.05-1.59.67-3.01,1.63-4.24,2.86-1.22,1.22-2.18,2.65-2.86,4.24-.69,1.64-1.05,3.39-1.05,5.19s.35,3.54,1.05,5.19c.67,1.59,1.63,3.01,2.86,4.24,1.22,1.22,2.65,2.18,4.24,2.86,1.64.69,3.39,1.05,5.19,1.05s3.54-.35,5.19-1.05c1.59-.67,3.01-1.63,4.24-2.86,1.22-1.22,2.19-2.65,2.86-4.24.69-1.64,1.05-3.39,1.05-5.19s-.35-3.54-1.05-5.19c-.67-1.59-1.63-3.01-2.86-4.24-1.22-1.22-2.65-2.18-4.24-2.86-1.64-.69-3.39-1.05-5.19-1.05Z"/>
                <path class="cls-5" d="M499.05,237h14.08v-14.03c-.42.02-.84.05-1.26.11-.41.05-.81.12-1.21.2-.41.09-.82.2-1.23.32-.48.15-.95.32-1.41.51-1.75.74-3.33,1.8-4.68,3.16-1.35,1.35-2.41,2.93-3.16,4.68-.52,1.23-.87,2.51-1.03,3.82-.05.41-.09.82-.11,1.23ZM511.88,227.93v.48h-1.21v-2.66c-.42.11-.83.24-1.23.39-.16.06-.32.12-.47.19-1.3.55-2.48,1.31-3.52,2.27l-.71-.72c1.13-1.05,2.42-1.88,3.84-2.48.29-.12.58-.23.87-.33.4-.14.81-.26,1.23-.36.4-.09.8-.17,1.21-.23v3.45ZM503.53,233.25c.56-1.29,1.35-2.46,2.35-3.46s2.22-1.83,3.54-2.39c0,0,.01,0,.02,0v3.39h-1.21v-1.36c-.2.14-.4.28-.6.43-.31.25-.61.51-.89.79-.04.04-.09.09-.13.13-.37.38-.7.79-1,1.22h5.06v-2.48h1.21v3.72h-8.35ZM500.57,235.77c.16-1.13.47-2.22.91-3.28.58-1.38,1.39-2.64,2.4-3.75l.71.72c-.91,1.02-1.64,2.17-2.18,3.43-.05.12-.1.25-.15.37-.16.4-.29.81-.4,1.23h10.01v1.28h-11.31Z"/>
                <path class="cls-5" d="M528.5,238.34h-14.08v14.03c.42-.02.84-.05,1.26-.11.41-.05.81-.12,1.21-.21.41-.09.82-.19,1.23-.32.48-.15.95-.32,1.41-.51,1.75-.74,3.33-1.8,4.68-3.16,1.35-1.35,2.41-2.93,3.16-4.68.52-1.23.87-2.51,1.03-3.82.05-.41.09-.82.11-1.23ZM515.68,247.41v-.48h1.21v2.66c.42-.11.83-.24,1.23-.39.16-.06.32-.12.47-.19,1.3-.55,2.48-1.31,3.52-2.27l.71.72c-1.13,1.05-2.42,1.88-3.84,2.48-.29.12-.58.23-.87.33-.4.14-.81.26-1.23.36-.4.09-.8.17-1.21.23v-3.45ZM524.02,242.08c-.56,1.29-1.35,2.46-2.35,3.46-1.02,1.02-2.22,1.83-3.54,2.39,0,0-.01,0-.02,0v-3.39h1.21v1.36c.2-.14.4-.28.6-.43.31-.25.61-.51.89-.79.04-.04.09-.09.13-.13.37-.38.7-.79,1-1.22h-5.06v2.48h-1.21v-3.72h8.35ZM526.98,239.57c-.16,1.13-.47,2.22-.91,3.28-.58,1.38-1.39,2.64-2.4,3.75l-.71-.72c.91-1.02,1.64-2.17,2.18-3.43.05-.12.1-.25.15-.37.16-.4.29-.81.4-1.23h-10.01v-1.28h11.31Z"/>
                <path class="cls-5" d="M499.16,239.57c.17,1.31.52,2.59,1.03,3.82.74,1.75,1.8,3.33,3.16,4.68,1.35,1.35,2.93,2.41,4.68,3.16.46.2.94.37,1.41.51.41.12.81.23,1.23.32.4.09.8.15,1.21.21.42.05.84.09,1.26.11v-14.03h-14.08c.02.41.05.82.11,1.23ZM511.88,248.65v2.21c-.41-.06-.81-.13-1.21-.23-.41-.1-.82-.22-1.23-.36-.29-.1-.58-.21-.87-.33-1.42-.6-2.71-1.43-3.84-2.48l.71-.72c1.04.95,2.22,1.72,3.52,2.27.16.07.31.13.47.19.4.15.81.28,1.23.39v-2.66h1.21v1.72ZM504.87,242.08h7v3.72h-1.21v-2.48h-5.06c.3.43.63.84,1,1.22.04.04.08.09.13.13.28.28.58.55.89.79.19.15.39.3.6.43v-1.36h1.21v3.39s-.01,0-.02,0c-1.33-.56-2.52-1.36-3.54-2.39-1-1-1.79-2.16-2.35-3.46h1.34ZM501.59,239.57h10.28v1.28h-10.01c.11.42.25.83.4,1.23.05.12.1.25.15.37.53,1.26,1.26,2.41,2.18,3.43l-.71.72c-1.01-1.11-1.81-2.37-2.4-3.75-.45-1.05-.75-2.15-.91-3.28h1.02Z"/>
                <rect class="cls-5" x="511.74" y="233.99" width="4.01" height=".49"/>
                <rect class="cls-5" x="511.36" y="240.86" width="4.91" height=".43"/>
                <rect class="cls-5" x="510.18" y="235.92" width=".43" height="3.5"/>
                <rect class="cls-5" x="516.94" y="235.92" width=".43" height="3.5"/>
              </g>
            </g>
          </g>
          <g class="cls-9">
            <line class="cls-10" x1="567.04" x2="567.04" y2="255.23"/>
            <g>
              <circle class="cls-6" cx="567.04" cy="216.59" r="17.03" transform="translate(141.8 649.73) rotate(-66.43)"/>
              <path class="cls-6" d="M571.4,237.9c0,2.41-1.95,4.37-4.37,4.37s-4.37-1.95-4.37-4.37,1.95-4.37,4.37-4.37,4.37,1.95,4.37,4.37Z"/>
              <g>
                <rect class="cls-6" x="555.2" y="274.1" width="23.9" height="4.45" rx="1.97" ry="1.97"/>
                <path class="cls-6" d="M567.15,255.83c0,1.5-2.67,2.71-5.97,2.71s-5.97-1.21-5.97-2.71,2.67-2.71,5.97-2.71,5.97,1.21,5.97,2.71Z"/>
                <rect class="cls-5" x="555.2" y="255.83" width="11.95" height="20.21"/>
                <g>
                  <path class="cls-6" d="M564.84,266.79h-6.58v-2.9h6.58v2.9ZM559.03,266.01h5.03v-1.35h-5.03v1.35Z"/>
                  <path class="cls-6" d="M564.83,263.26h-6.56c-.21,0-.39-.17-.39-.39s.17-.39.39-.39h6.56c.21,0,.39.17.39.39s-.17.39-.39.39Z"/>
                  <path class="cls-6" d="M564.83,262.01h-6.56c-.21,0-.39-.17-.39-.39s.17-.39.39-.39h6.56c.21,0,.39.17.39.39s-.17.39-.39.39Z"/>
                  <path class="cls-6" d="M561.55,264.48c-.21,0-.39-.17-.39-.39v-3.42c0-.21.17-.39.39-.39s.39.17.39.39v3.42c0,.21-.17.39-.39.39Z"/>
                  <path class="cls-6" d="M564.84,271.55h-6.58v-2.9h6.58v2.9ZM559.03,270.78h5.03v-1.35h-5.03v1.35Z"/>
                  <path class="cls-6" d="M564.83,268.03h-6.56c-.21,0-.39-.17-.39-.39s.17-.39.39-.39h6.56c.21,0,.39.17.39.39s-.17.39-.39.39Z"/>
                  <path class="cls-6" d="M561.55,269.25c-.21,0-.39-.17-.39-.39v-2.46c0-.21.17-.39.39-.39s.39.17.39.39v2.46c0,.21-.17.39-.39.39Z"/>
                </g>
                <path class="cls-6" d="M579.09,255.82c0,1.5-2.67,2.71-5.97,2.71s-5.97-1.21-5.97-2.71,2.67-2.71,5.97-2.71,5.97,1.21,5.97,2.71Z"/>
                <rect class="cls-5" x="567.15" y="255.82" width="11.95" height="20.21"/>
                <path class="cls-6" d="M578.98,258.91h-23.89c-.43,0-.77-.17-.77-.39s.35-.39.77-.39h23.89c.43,0,.77.17.77.39s-.35.39-.77.39Z"/>
                <path class="cls-6" d="M578.98,273.6h-23.89c-.43,0-.77-.17-.77-.39s.35-.39.77-.39h23.89c.43,0,.77.17.77.39s-.35.39-.77.39Z"/>
                <g>
                  <path class="cls-6" d="M576.55,266.45h-6.58v-2.9h6.58v2.9ZM570.74,265.68h5.03v-1.35h-5.03v1.35Z"/>
                  <path class="cls-6" d="M576.54,262.93h-6.56c-.21,0-.39-.17-.39-.39s.17-.39.39-.39h6.56c.21,0,.39.17.39.39s-.17.39-.39.39Z"/>
                  <path class="cls-6" d="M576.54,261.68h-6.56c-.21,0-.39-.17-.39-.39s.17-.39.39-.39h6.56c.21,0,.39.17.39.39s-.17.39-.39.39Z"/>
                  <path class="cls-6" d="M573.26,264.15c-.21,0-.39-.17-.39-.39v-3.42c0-.21.17-.39.39-.39s.39.17.39.39v3.42c0,.21-.17.39-.39.39Z"/>
                  <path class="cls-6" d="M576.55,271.21h-6.58v-2.9h6.58v2.9ZM570.74,270.44h5.03v-1.35h-5.03v1.35Z"/>
                  <path class="cls-6" d="M576.54,267.69h-6.56c-.21,0-.39-.17-.39-.39s.17-.39.39-.39h6.56c.21,0,.39.17.39.39s-.17.39-.39.39Z"/>
                  <path class="cls-6" d="M573.26,268.91c-.21,0-.39-.17-.39-.39v-2.46c0-.21.17-.39.39-.39s.39.17.39.39v2.46c0,.21-.17.39-.39.39Z"/>
                </g>
              </g>
              <g>
                <path class="cls-6" d="M555.06,278.55h23.95c1.46,0,2.65,1.19,2.65,2.65v93.75c0,1.46-1.19,2.65-2.65,2.65h-23.95c-1.46,0-2.65-1.19-2.65-2.65v-93.75c0-1.46,1.19-2.65,2.65-2.65Z"/>
                <rect class="cls-5" x="505.38" y="327.76" width="99.75" height="1.32" transform="translate(225.89 883.12) rotate(-89.9)"/>
                <rect class="cls-5" x="508.02" y="327.76" width="99.75" height="1.32" transform="translate(228.52 885.76) rotate(-89.9)"/>
                <rect class="cls-5" x="510.67" y="327.76" width="99.75" height="1.32" transform="translate(231.16 888.4) rotate(-89.9)"/>
                <rect class="cls-5" x="513.31" y="327.76" width="99.75" height="1.32" transform="translate(233.8 891.04) rotate(-89.9)"/>
                <rect class="cls-5" x="515.95" y="327.76" width="99.75" height="1.32" transform="translate(236.44 893.69) rotate(-89.9)"/>
                <rect class="cls-5" x="518.68" y="327.78" width="99.75" height="1.32" transform="translate(239.14 896.44) rotate(-89.9)"/>
                <rect class="cls-5" x="521.32" y="327.78" width="99.75" height="1.32" transform="translate(241.78 899.08) rotate(-89.9)"/>
                <rect class="cls-5" x="523.96" y="327.78" width="99.75" height="1.32" transform="translate(244.42 901.73) rotate(-89.9)"/>
                <rect class="cls-5" x="526.61" y="327.78" width="99.75" height="1.32" transform="translate(247.06 904.37) rotate(-89.9)"/>
                <rect class="cls-5" x="526.61" y="327.78" width="99.75" height="1.32" transform="translate(247.06 904.37) rotate(-89.9)"/>
                <rect class="cls-5" x="529.25" y="327.78" width="99.75" height="1.32" transform="translate(249.7 907.01) rotate(-89.9)"/>
              </g>
              <g>
                <path class="cls-5" d="M581.65,214.68c-.17-1.31-.52-2.59-1.03-3.82-.74-1.75-1.8-3.33-3.16-4.68-1.35-1.35-2.93-2.41-4.68-3.16-.46-.2-.94-.37-1.41-.51-.41-.12-.81-.23-1.23-.32-.4-.08-.8-.15-1.21-.2-.42-.05-.84-.09-1.26-.11v14.03h14.08c-.02-.41-.05-.82-.11-1.23ZM568.94,205.61v-2.21c.41.06.81.13,1.21.23.41.1.82.22,1.23.36.29.1.58.21.87.33,1.42.6,2.71,1.43,3.84,2.48l-.71.72c-1.04-.95-2.22-1.72-3.52-2.27-.16-.07-.31-.13-.47-.19-.4-.15-.81-.28-1.23-.39v2.66h-1.21v-1.72ZM575.94,212.17h-7v-3.72h1.21v2.48h5.06c-.3-.43-.63-.84-1-1.22-.04-.04-.08-.09-.13-.13-.28-.28-.58-.55-.89-.79-.19-.15-.39-.3-.6-.43v1.36h-1.21v-3.39s.01,0,.02,0c1.33.56,2.52,1.36,3.54,2.39,1,1,1.79,2.16,2.35,3.46h-1.34ZM579.22,214.68h-10.28v-1.28h10.01c-.11-.42-.25-.82-.4-1.23-.05-.12-.1-.25-.15-.37-.53-1.26-1.26-2.41-2.18-3.43l.71-.72c1.01,1.11,1.81,2.37,2.4,3.75.45,1.05.75,2.15.91,3.28h-1.02Z"/>
                <path class="cls-5" d="M567.04,231.31c-1.99,0-3.92-.39-5.73-1.16-1.75-.74-3.33-1.8-4.68-3.16-1.35-1.35-2.41-2.93-3.16-4.68-.77-1.82-1.16-3.74-1.16-5.73s.39-3.92,1.16-5.73c.74-1.75,1.8-3.33,3.16-4.68,1.35-1.35,2.93-2.41,4.68-3.16,1.82-.77,3.74-1.16,5.73-1.16s3.92.39,5.73,1.16c1.75.74,3.33,1.8,4.68,3.16,1.35,1.35,2.41,2.93,3.16,4.68.77,1.82,1.16,3.74,1.16,5.73s-.39,3.92-1.16,5.73c-.74,1.75-1.8,3.33-3.16,4.68-1.35,1.35-2.93,2.41-4.68,3.16-1.82.77-3.74,1.16-5.73,1.16ZM567.04,203.26c-1.8,0-3.54.35-5.19,1.05-1.59.67-3.01,1.63-4.24,2.86-1.22,1.22-2.18,2.65-2.86,4.24-.69,1.64-1.05,3.39-1.05,5.19s.35,3.54,1.05,5.19c.67,1.59,1.63,3.01,2.86,4.24,1.22,1.22,2.65,2.18,4.24,2.86,1.64.69,3.39,1.05,5.19,1.05s3.54-.35,5.19-1.05c1.59-.67,3.01-1.63,4.24-2.86,1.22-1.22,2.19-2.65,2.86-4.24.69-1.64,1.05-3.39,1.05-5.19s-.35-3.54-1.05-5.19c-.67-1.59-1.63-3.01-2.86-4.24-1.22-1.22-2.65-2.18-4.24-2.86-1.64-.69-3.39-1.05-5.19-1.05Z"/>
                <path class="cls-5" d="M552.31,215.91h14.08v-14.03c-.42.02-.84.05-1.26.11-.41.05-.81.12-1.21.2-.41.09-.82.2-1.23.32-.48.15-.95.32-1.41.51-1.75.74-3.33,1.8-4.68,3.16-1.35,1.35-2.41,2.93-3.16,4.68-.52,1.23-.87,2.51-1.03,3.82-.05.41-.09.82-.11,1.23ZM565.14,206.84v.48h-1.21v-2.66c-.42.11-.83.24-1.23.39-.16.06-.32.12-.47.19-1.3.55-2.48,1.31-3.52,2.27l-.71-.72c1.13-1.05,2.42-1.88,3.84-2.48.29-.12.58-.23.87-.33.4-.14.81-.26,1.23-.36.4-.09.8-.17,1.21-.23v3.45ZM556.79,212.17c.56-1.29,1.35-2.46,2.35-3.46s2.22-1.83,3.54-2.39c0,0,.01,0,.02,0v3.39h-1.21v-1.36c-.2.14-.4.28-.6.43-.31.25-.61.51-.89.79-.04.04-.09.09-.13.13-.37.38-.7.79-1,1.22h5.06v-2.48h1.21v3.72h-8.35ZM553.83,214.68c.16-1.13.47-2.22.91-3.28.58-1.38,1.39-2.64,2.4-3.75l.71.72c-.91,1.02-1.64,2.17-2.18,3.43-.05.12-.1.25-.15.37-.16.4-.29.81-.4,1.23h10.01v1.28h-11.31Z"/>
                <path class="cls-5" d="M581.76,217.26h-14.08v14.03c.42-.02.84-.05,1.26-.11.41-.05.81-.12,1.21-.21.41-.09.82-.19,1.23-.32.48-.15.95-.32,1.41-.51,1.75-.74,3.33-1.8,4.68-3.16,1.35-1.35,2.41-2.93,3.16-4.68.52-1.23.87-2.51,1.03-3.82.05-.41.09-.82.11-1.23ZM568.94,226.32v-.48h1.21v2.66c.42-.11.83-.24,1.23-.39.16-.06.32-.12.47-.19,1.3-.55,2.48-1.31,3.52-2.27l.71.72c-1.13,1.05-2.42,1.88-3.84,2.48-.29.12-.58.23-.87.33-.4.14-.81.26-1.23.36-.4.09-.8.17-1.21.23v-3.45ZM577.28,221c-.56,1.29-1.35,2.46-2.35,3.46-1.02,1.02-2.22,1.83-3.54,2.39,0,0-.01,0-.02,0v-3.39h1.21v1.36c.2-.14.4-.28.6-.43.31-.25.61-.51.89-.79.04-.04.09-.09.13-.13.37-.38.7-.79,1-1.22h-5.06v2.48h-1.21v-3.72h8.35ZM580.24,218.49c-.16,1.13-.47,2.22-.91,3.28-.58,1.38-1.39,2.64-2.4,3.75l-.71-.72c.91-1.02,1.64-2.17,2.18-3.43.05-.12.1-.25.15-.37.16-.4.29-.81.4-1.23h-10.01v-1.28h11.31Z"/>
                <path class="cls-5" d="M552.42,218.49c.17,1.31.52,2.59,1.03,3.82.74,1.75,1.8,3.33,3.16,4.68,1.35,1.35,2.93,2.41,4.68,3.16.46.2.94.37,1.41.51.41.12.81.23,1.23.32.4.09.8.15,1.21.21.42.05.84.09,1.26.11v-14.03h-14.08c.02.41.05.82.11,1.23ZM565.14,227.56v2.21c-.41-.06-.81-.13-1.21-.23-.41-.1-.82-.22-1.23-.36-.29-.1-.58-.21-.87-.33-1.42-.6-2.71-1.43-3.84-2.48l.71-.72c1.04.95,2.22,1.72,3.52,2.27.16.07.31.13.47.19.4.15.81.28,1.23.39v-2.66h1.21v1.72ZM558.13,221h7v3.72h-1.21v-2.48h-5.06c.3.43.63.84,1,1.22.04.04.08.09.13.13.28.28.58.55.89.79.19.15.39.3.6.43v-1.36h1.21v3.39s-.01,0-.02,0c-1.33-.56-2.52-1.36-3.54-2.39-1-1-1.79-2.16-2.35-3.46h1.34ZM554.85,218.49h10.28v1.28h-10.01c.11.42.25.83.4,1.23.05.12.1.25.15.37.53,1.26,1.26,2.41,2.18,3.43l-.71.72c-1.01-1.11-1.81-2.37-2.4-3.75-.45-1.05-.75-2.15-.91-3.28h1.02Z"/>
                <rect class="cls-5" x="565" y="212.91" width="4.01" height=".49"/>
                <rect class="cls-5" x="564.62" y="219.77" width="4.91" height=".43"/>
                <rect class="cls-5" x="563.44" y="214.83" width=".43" height="3.5"/>
                <rect class="cls-5" x="570.2" y="214.83" width=".43" height="3.5"/>
              </g>
            </g>
          </g>
          <g class="cls-9">
            <path class="cls-8" d="M440,260.5h-180c-16.82,0-30.5-13.68-30.5-30.5,0-8.14,3.17-15.8,8.94-21.56,5.76-5.76,13.42-8.94,21.56-8.94h90c5.24,0,9.5-4.26,9.5-9.5s-4.26-9.5-9.5-9.5h-20c-22.33,0-40.5-18.17-40.5-40.5,0-10.81,4.21-20.98,11.87-28.63s17.82-11.87,28.63-11.87h280c22.33,0,40.5,18.17,40.5,40.5,0,10.81-4.21,20.98-11.87,28.63s-17.82,11.87-28.63,11.87h-175c-5.24,0-9.5,4.26-9.5,9.5s4.26,9.5,9.5,9.5h5c16.82,0,30.5,13.68,30.5,30.5,0,8.14-3.17,15.8-8.94,21.56-5.76,5.76-13.42,8.94-21.56,8.94ZM260,200.5c-7.88,0-15.28,3.07-20.86,8.64-5.57,5.57-8.64,12.98-8.64,20.86,0,16.27,13.23,29.5,29.5,29.5h180c7.88,0,15.28-3.07,20.86-8.64,5.57-5.57,8.64-12.98,8.64-20.86,0-16.27-13.23-29.5-29.5-29.5h-5c-5.79,0-10.5-4.71-10.5-10.5s4.71-10.5,10.5-10.5h175c10.55,0,20.46-4.11,27.93-11.57,7.46-7.46,11.57-17.38,11.57-27.93,0-21.78-17.72-39.5-39.5-39.5h-280c-10.55,0-20.46,4.11-27.93,11.57-7.46,7.46-11.57,17.38-11.57,27.93,0,21.78,17.72,39.5,39.5,39.5h20c5.79,0,10.5,4.71,10.5,10.5s-4.71,10.5-10.5,10.5h-90Z"/>
          </g>
          <g class="cls-9">
            <path class="cls-2" d="M2110,260.5h-200c-11.3,0-20.5-9.2-20.5-20.5,0-5.47,2.13-10.62,6.01-14.49s9.02-6.01,14.49-6.01h50c5.24,0,9.5-4.26,9.5-9.5s-4.26-9.5-9.5-9.5c-22.33,0-40.5-18.17-40.5-40.5,0-10.81,4.21-20.98,11.87-28.63,7.65-7.65,17.82-11.87,28.63-11.87h280c22.33,0,40.5,18.17,40.5,40.5,0,10.81-4.21,20.98-11.87,28.63s-17.82,11.87-28.63,11.87h-160c-5.24,0-9.5,4.26-9.5,9.5s4.26,9.5,9.5,9.5h30c11.3,0,20.5,9.2,20.5,20.5,0,5.47-2.13,10.62-6.01,14.49s-9.02,6.01-14.49,6.01ZM1910,220.5c-5.21,0-10.1,2.03-13.79,5.71s-5.71,8.58-5.71,13.79c0,10.75,8.75,19.5,19.5,19.5h200c5.21,0,10.1-2.03,13.79-5.71s5.71-8.58,5.71-13.79c0-10.75-8.75-19.5-19.5-19.5h-30c-5.79,0-10.5-4.71-10.5-10.5s4.71-10.5,10.5-10.5h160c10.54,0,20.46-4.11,27.93-11.57,7.46-7.46,11.57-17.38,11.57-27.93,0-21.78-17.72-39.5-39.5-39.5h-280c-10.54,0-20.46,4.11-27.93,11.57-7.46,7.46-11.57,17.38-11.57,27.93,0,21.78,17.72,39.5,39.5,39.5,5.79,0,10.5,4.71,10.5,10.5s-4.71,10.5-10.5,10.5h-50Z"/>
          </g>
        </g>
      </g>
    </g>
  </g>
</svg>